<?xml version="1.0" encoding="UTF-8" standalone="no"?>
<!DOCTYPE svg PUBLIC "-//W3C//DTD SVG 1.1//EN" "http://www.w3.org/Graphics/SVG/1.1/DTD/svg11.dtd">
<svg width="100%" height="100%" viewBox="0 0 3300 2200" version="1.1" xmlns="http://www.w3.org/2000/svg" xmlns:xlink="http://www.w3.org/1999/xlink" xml:space="preserve" xmlns:serif="http://www.serif.com/" style="fill-rule:evenodd;clip-rule:evenodd;">
    <g id="Notes">
        <g id="artboard" transform="matrix(1,0,0,1,50.6778,16.3082)">
            <rect x="0" y="0" width="3300" height="2200" style="fill:white;"/>
        </g>
        <path d="M263,292L3036,292" style="fill:none;fill-rule:nonzero;stroke:black;stroke-width:0.5px;"/>
        <g transform="matrix(1,0,0,1,263,322)">
            <text x="0px" y="0px" style="font-family:'LucidaGrande-Bold', 'Lucida Grande', sans-serif;font-weight:600;font-size:13px;">Weight/Scale Variations</text>
        </g>
        <g transform="matrix(1,0,0,1,559.711,322)">
            <text x="-29.339px" y="0px" style="font-family:'LucidaGrande', 'Lucida Grande', sans-serif;font-weight:500;font-size:13px;">Ultralight</text>
        </g>
        <g transform="matrix(1,0,0,1,856.422,322)">
            <text x="-14.057px" y="0px" style="font-family:'LucidaGrande', 'Lucida Grande', sans-serif;font-weight:500;font-size:13px;">Thin</text>
        </g>
        <g transform="matrix(1,0,0,1,1153.13,322)">
            <text x="-15.863px" y="0px" style="font-family:'LucidaGrande', 'Lucida Grande', sans-serif;font-weight:500;font-size:13px;">Light</text>
        </g>
        <g transform="matrix(1,0,0,1,1449.84,322)">
            <text x="-23.947px" y="0px" style="font-family:'LucidaGrande', 'Lucida Grande', sans-serif;font-weight:500;font-size:13px;">Regular</text>
        </g>
        <g transform="matrix(1,0,0,1,1746.56,322)">
            <text x="-25.292px" y="0px" style="font-family:'LucidaGrande', 'Lucida Grande', sans-serif;font-weight:500;font-size:13px;">Medium</text>
        </g>
        <g transform="matrix(1,0,0,1,2043.27,322)">
            <text x="-29.123px" y="0px" style="font-family:'LucidaGrande', 'Lucida Grande', sans-serif;font-weight:500;font-size:13px;">Semibold</text>
        </g>
        <g transform="matrix(1,0,0,1,2339.98,322)">
            <text x="-13.701px" y="0px" style="font-family:'LucidaGrande', 'Lucida Grande', sans-serif;font-weight:500;font-size:13px;">Bold</text>
        </g>
        <g transform="matrix(1,0,0,1,2636.69,322)">
            <text x="-18.748px" y="0px" style="font-family:'LucidaGrande', 'Lucida Grande', sans-serif;font-weight:500;font-size:13px;">Heavy</text>
        </g>
        <g transform="matrix(1,0,0,1,2933.4,322)">
            <text x="-16.336px" y="0px" style="font-family:'LucidaGrande', 'Lucida Grande', sans-serif;font-weight:500;font-size:13px;">Black</text>
        </g>
        <path d="M263,1903L3036,1903" style="fill:none;fill-rule:nonzero;stroke:black;stroke-width:0.5px;"/>
        <g transform="matrix(1,0,0,1,263,1933)">
            <path d="M9.248,0.83C10.329,0.83 11.344,0.625 12.295,0.215C13.245,-0.195 14.084,-0.765 14.81,-1.494C15.535,-2.223 16.105,-3.063 16.519,-4.014C16.932,-4.964 17.139,-5.977 17.139,-7.051C17.139,-8.125 16.932,-9.137 16.519,-10.088C16.105,-11.038 15.534,-11.878 14.805,-12.607C14.076,-13.337 13.236,-13.906 12.285,-14.316C11.335,-14.727 10.319,-14.932 9.238,-14.932C8.164,-14.932 7.152,-14.727 6.201,-14.316C5.251,-13.906 4.414,-13.337 3.691,-12.607C2.969,-11.878 2.401,-11.038 1.987,-10.088C1.574,-9.137 1.367,-8.125 1.367,-7.051C1.367,-5.977 1.574,-4.964 1.987,-4.014C2.401,-3.063 2.97,-2.223 3.696,-1.494C4.422,-0.765 5.26,-0.195 6.211,0.215C7.161,0.625 8.174,0.83 9.248,0.83ZM9.248,-0.654C8.363,-0.654 7.534,-0.819 6.763,-1.147C5.991,-1.476 5.314,-1.934 4.731,-2.52C4.149,-3.105 3.693,-3.786 3.364,-4.561C3.035,-5.335 2.871,-6.165 2.871,-7.051C2.871,-7.936 3.034,-8.766 3.359,-9.541C3.685,-10.316 4.139,-10.996 4.722,-11.582C5.304,-12.168 5.981,-12.625 6.753,-12.954C7.524,-13.283 8.353,-13.447 9.238,-13.447C10.13,-13.447 10.962,-13.283 11.733,-12.954C12.505,-12.625 13.184,-12.168 13.77,-11.582C14.355,-10.996 14.814,-10.316 15.147,-9.541C15.479,-8.766 15.645,-7.936 15.645,-7.051C15.645,-6.165 15.48,-5.335 15.151,-4.561C14.823,-3.786 14.367,-3.105 13.784,-2.52C13.202,-1.934 12.523,-1.476 11.748,-1.147C10.973,-0.819 10.14,-0.654 9.248,-0.654ZM5.654,-7.051C5.654,-6.836 5.723,-6.662 5.859,-6.528C5.996,-6.395 6.178,-6.328 6.406,-6.328L8.516,-6.328L8.516,-4.209C8.516,-3.994 8.581,-3.817 8.711,-3.677C8.841,-3.537 9.017,-3.467 9.238,-3.467C9.453,-3.467 9.631,-3.537 9.771,-3.677C9.91,-3.817 9.98,-3.994 9.98,-4.209L9.98,-6.328L12.09,-6.328C12.311,-6.328 12.49,-6.395 12.627,-6.528C12.764,-6.662 12.832,-6.836 12.832,-7.051C12.832,-7.272 12.764,-7.451 12.627,-7.588C12.49,-7.725 12.311,-7.793 12.09,-7.793L9.98,-7.793L9.98,-9.902C9.98,-10.124 9.91,-10.304 9.771,-10.444C9.631,-10.584 9.453,-10.654 9.238,-10.654C9.017,-10.654 8.841,-10.584 8.711,-10.444C8.581,-10.304 8.516,-10.124 8.516,-9.902L8.516,-7.793L6.406,-7.793C6.178,-7.793 5.996,-7.725 5.859,-7.588C5.723,-7.451 5.654,-7.272 5.654,-7.051Z" style="fill-rule:nonzero;"/>
        </g>
        <g transform="matrix(1,0,0,1,281.867,1933)">
            <path d="M11.709,2.91C13.07,2.91 14.351,2.65 15.552,2.129C16.753,1.608 17.813,0.889 18.731,-0.029C19.648,-0.947 20.368,-2.007 20.889,-3.208C21.409,-4.409 21.67,-5.69 21.67,-7.051C21.67,-8.411 21.409,-9.692 20.889,-10.894C20.368,-12.095 19.648,-13.154 18.731,-14.072C17.813,-14.99 16.751,-15.71 15.547,-16.23C14.342,-16.751 13.06,-17.012 11.699,-17.012C10.339,-17.012 9.058,-16.751 7.856,-16.23C6.655,-15.71 5.597,-14.99 4.683,-14.072C3.768,-13.154 3.05,-12.095 2.529,-10.894C2.008,-9.692 1.748,-8.411 1.748,-7.051C1.748,-5.69 2.008,-4.409 2.529,-3.208C3.05,-2.007 3.77,-0.947 4.688,-0.029C5.605,0.889 6.665,1.608 7.866,2.129C9.067,2.65 10.348,2.91 11.709,2.91ZM11.709,1.25C10.557,1.25 9.479,1.035 8.477,0.605C7.474,0.176 6.593,-0.418 5.835,-1.177C5.076,-1.935 4.484,-2.816 4.058,-3.818C3.631,-4.821 3.418,-5.898 3.418,-7.051C3.418,-8.203 3.631,-9.281 4.058,-10.283C4.484,-11.286 5.075,-12.168 5.83,-12.93C6.585,-13.691 7.464,-14.286 8.467,-14.712C9.469,-15.138 10.547,-15.352 11.699,-15.352C12.852,-15.352 13.929,-15.138 14.932,-14.712C15.934,-14.286 16.816,-13.691 17.578,-12.93C18.34,-12.168 18.936,-11.286 19.365,-10.283C19.795,-9.281 20.01,-8.203 20.01,-7.051C20.01,-5.898 19.797,-4.821 19.37,-3.818C18.944,-2.816 18.351,-1.935 17.593,-1.177C16.834,-0.418 15.952,0.176 14.946,0.605C13.94,1.035 12.861,1.25 11.709,1.25ZM7.178,-7.051C7.178,-6.816 7.256,-6.624 7.412,-6.475C7.568,-6.325 7.77,-6.25 8.018,-6.25L10.889,-6.25L10.889,-3.369C10.889,-3.122 10.964,-2.922 11.113,-2.769C11.263,-2.616 11.455,-2.539 11.69,-2.539C11.937,-2.539 12.137,-2.616 12.29,-2.769C12.443,-2.922 12.52,-3.122 12.52,-3.369L12.52,-6.25L15.4,-6.25C15.648,-6.25 15.848,-6.325 16.001,-6.475C16.154,-6.624 16.23,-6.816 16.23,-7.051C16.23,-7.298 16.154,-7.498 16.001,-7.651C15.848,-7.804 15.648,-7.881 15.4,-7.881L12.52,-7.881L12.52,-10.752C12.52,-11.006 12.443,-11.209 12.29,-11.362C12.137,-11.515 11.937,-11.592 11.69,-11.592C11.455,-11.592 11.263,-11.514 11.113,-11.357C10.964,-11.201 10.889,-10.999 10.889,-10.752L10.889,-7.881L8.018,-7.881C7.764,-7.881 7.56,-7.804 7.407,-7.651C7.254,-7.498 7.178,-7.298 7.178,-7.051Z" style="fill-rule:nonzero;"/>
        </g>
        <g transform="matrix(1,0,0,1,305.646,1933)">
            <path d="M14.971,5.664C16.364,5.664 17.694,5.448 18.96,5.015C20.226,4.582 21.39,3.975 22.451,3.193C23.512,2.412 24.435,1.491 25.22,0.43C26.004,-0.632 26.613,-1.797 27.046,-3.066C27.479,-4.336 27.695,-5.664 27.695,-7.051C27.695,-8.444 27.479,-9.774 27.046,-11.04C26.613,-12.306 26.004,-13.47 25.22,-14.531C24.435,-15.592 23.512,-16.515 22.451,-17.3C21.39,-18.084 20.225,-18.693 18.955,-19.126C17.686,-19.559 16.354,-19.775 14.961,-19.775C13.568,-19.775 12.238,-19.559 10.972,-19.126C9.705,-18.693 8.543,-18.084 7.485,-17.3C6.427,-16.515 5.506,-15.592 4.722,-14.531C3.937,-13.47 3.33,-12.306 2.9,-11.04C2.471,-9.774 2.256,-8.444 2.256,-7.051C2.256,-5.664 2.472,-4.336 2.905,-3.066C3.338,-1.797 3.945,-0.632 4.727,0.43C5.508,1.491 6.429,2.412 7.49,3.193C8.551,3.975 9.715,4.582 10.981,5.015C12.248,5.448 13.578,5.664 14.971,5.664ZM14.971,3.848C13.766,3.848 12.619,3.664 11.528,3.296C10.438,2.928 9.44,2.412 8.535,1.748C7.63,1.084 6.844,0.298 6.177,-0.61C5.509,-1.519 4.993,-2.518 4.629,-3.608C4.264,-4.699 4.082,-5.846 4.082,-7.051C4.082,-8.262 4.264,-9.412 4.629,-10.503C4.993,-11.593 5.508,-12.593 6.172,-13.501C6.836,-14.409 7.62,-15.195 8.525,-15.859C9.43,-16.523 10.428,-17.038 11.519,-17.402C12.609,-17.767 13.756,-17.949 14.961,-17.949C16.172,-17.949 17.323,-17.767 18.413,-17.402C19.504,-17.038 20.503,-16.523 21.411,-15.859C22.319,-15.195 23.105,-14.409 23.77,-13.501C24.434,-12.593 24.95,-11.593 25.317,-10.503C25.685,-9.412 25.869,-8.262 25.869,-7.051C25.876,-5.846 25.697,-4.699 25.332,-3.608C24.967,-2.518 24.452,-1.519 23.784,-0.61C23.117,0.298 22.329,1.084 21.421,1.748C20.513,2.412 19.513,2.928 18.423,3.296C17.332,3.664 16.182,3.848 14.971,3.848ZM9.199,-7.051C9.199,-6.797 9.285,-6.587 9.458,-6.421C9.631,-6.255 9.85,-6.172 10.117,-6.172L14.063,-6.172L14.063,-2.217C14.063,-1.95 14.146,-1.73 14.312,-1.558C14.477,-1.385 14.691,-1.299 14.951,-1.299C15.218,-1.299 15.438,-1.383 15.61,-1.553C15.783,-1.722 15.869,-1.943 15.869,-2.217L15.869,-6.172L19.824,-6.172C20.091,-6.172 20.309,-6.255 20.479,-6.421C20.648,-6.587 20.732,-6.797 20.732,-7.051C20.732,-7.324 20.648,-7.546 20.479,-7.715C20.309,-7.884 20.091,-7.969 19.824,-7.969L15.869,-7.969L15.869,-11.914C15.869,-12.188 15.783,-12.41 15.61,-12.583C15.438,-12.756 15.218,-12.842 14.951,-12.842C14.691,-12.842 14.477,-12.756 14.312,-12.583C14.146,-12.41 14.063,-12.188 14.063,-11.914L14.063,-7.969L10.117,-7.969C9.844,-7.969 9.622,-7.884 9.453,-7.715C9.284,-7.546 9.199,-7.324 9.199,-7.051Z" style="fill-rule:nonzero;"/>
        </g>
        <g transform="matrix(1,0,0,1,263,1953)">
            <text x="0px" y="0px" style="font-family:'LucidaGrande-Bold', 'Lucida Grande', sans-serif;font-weight:600;font-size:13px;">Design Variations</text>
        </g>
        <g transform="matrix(1,0,0,1,263,1971)">
            <text x="0px" y="0px" style="font-family:'LucidaGrande', 'Lucida Grande', sans-serif;font-weight:500;font-size:13px;">Symbols are supported in up to nine weights and three scales.</text>
        </g>
        <g transform="matrix(1,0,0,1,263,1989)">
            <text x="0px" y="0px" style="font-family:'LucidaGrande', 'Lucida Grande', sans-serif;font-weight:500;font-size:13px;">For optimal layout with text and other symbols, vertically align</text>
        </g>
        <g transform="matrix(1,0,0,1,263,2007)">
            <text x="0px" y="0px" style="font-family:'LucidaGrande', 'Lucida Grande', sans-serif;font-weight:500;font-size:13px;">symbols with the adjacent text.</text>
        </g>
        <path d="M776,1919L776,1933" style="fill:none;fill-rule:nonzero;stroke:rgb(0,174,239);stroke-width:0.5px;"/>
        <g transform="matrix(1,0,0,1,776,1933)">
            <path d="M3.311,0.156C3.571,0.156 3.773,0.101 3.916,-0.01C4.059,-0.12 4.176,-0.313 4.268,-0.586L5.527,-4.033L11.289,-4.033L12.549,-0.586C12.64,-0.313 12.757,-0.12 12.9,-0.01C13.044,0.101 13.242,0.156 13.496,0.156C13.756,0.156 13.963,0.085 14.116,-0.059C14.269,-0.202 14.346,-0.397 14.346,-0.645C14.346,-0.794 14.31,-0.97 14.238,-1.172L9.658,-13.369C9.541,-13.669 9.382,-13.893 9.18,-14.043C8.978,-14.193 8.721,-14.268 8.408,-14.268C7.803,-14.268 7.393,-13.971 7.178,-13.379L2.598,-1.162C2.526,-0.96 2.49,-0.785 2.49,-0.635C2.49,-0.387 2.563,-0.194 2.71,-0.054C2.856,0.086 3.057,0.156 3.311,0.156ZM6.006,-5.518L8.379,-12.09L8.428,-12.09L10.801,-5.518L6.006,-5.518Z" style="fill-rule:nonzero;"/>
        </g>
        <path d="M793.197,1919L793.197,1933" style="fill:none;fill-rule:nonzero;stroke:rgb(0,174,239);stroke-width:0.5px;"/>
        <g transform="matrix(1,0,0,1,776,1953)">
            <text x="0px" y="0px" style="font-family:'LucidaGrande-Bold', 'Lucida Grande', sans-serif;font-weight:600;font-size:13px;">Margins</text>
        </g>
        <g transform="matrix(1,0,0,1,776,1971)">
            <text x="0px" y="0px" style="font-family:'LucidaGrande', 'Lucida Grande', sans-serif;font-weight:500;font-size:13px;">Leading and trailing margins on the left and right side of each symbol</text>
        </g>
        <g transform="matrix(1,0,0,1,776,1989)">
            <text x="0px" y="0px" style="font-family:'LucidaGrande', 'Lucida Grande', sans-serif;font-weight:500;font-size:13px;">can be adjusted by modifying the x-location of the margin guidelines.</text>
        </g>
        <g transform="matrix(1,0,0,1,776,2007)">
            <text x="0px" y="0px" style="font-family:'LucidaGrande', 'Lucida Grande', sans-serif;font-weight:500;font-size:13px;">Modiﬁcations are automatically applied proportionally to all</text>
        </g>
        <g transform="matrix(1,0,0,1,776,2025)">
            <text x="0px" y="0px" style="font-family:'LucidaGrande', 'Lucida Grande', sans-serif;font-weight:500;font-size:13px;">scales and weights.</text>
        </g>
        <g transform="matrix(1,0,0,1,1289,1933)">
            <path d="M2.842,1.865L4.541,3.574C4.971,4.01 5.425,4.212 5.903,4.18C6.382,4.147 6.852,3.874 7.314,3.359L18.008,-8.428L17.041,-9.404L6.426,2.275C6.25,2.477 6.073,2.591 5.894,2.617C5.715,2.643 5.508,2.539 5.273,2.305L4.102,1.143C3.867,0.908 3.765,0.701 3.794,0.522C3.823,0.343 3.939,0.163 4.141,-0.02L15.615,-10.82L14.639,-11.787L3.047,-0.898C2.552,-0.443 2.287,0.023 2.251,0.498C2.215,0.973 2.412,1.429 2.842,1.865ZM9.258,-16.328C9.049,-16.126 8.932,-15.895 8.906,-15.635C8.88,-15.374 8.926,-15.146 9.043,-14.951C9.16,-14.769 9.331,-14.632 9.556,-14.541C9.78,-14.45 10.055,-14.443 10.381,-14.522C11.11,-14.691 11.849,-14.761 12.598,-14.731C13.346,-14.702 14.079,-14.453 14.795,-13.984L14.209,-12.529C14.04,-12.113 13.993,-11.75 14.067,-11.44C14.142,-11.131 14.313,-10.84 14.58,-10.566L16.875,-8.252C17.116,-8.005 17.35,-7.861 17.578,-7.822C17.806,-7.783 18.06,-7.79 18.34,-7.842L19.404,-8.037L20.068,-7.363L20.029,-6.807C20.01,-6.559 20.041,-6.331 20.122,-6.123C20.203,-5.915 20.365,-5.69 20.606,-5.449L21.367,-4.707C21.608,-4.466 21.87,-4.341 22.153,-4.331C22.437,-4.321 22.695,-4.434 22.93,-4.668L25.84,-7.588C26.074,-7.822 26.188,-8.078 26.182,-8.354C26.175,-8.631 26.051,-8.89 25.811,-9.131L25.039,-9.893C24.805,-10.133 24.585,-10.298 24.38,-10.386C24.175,-10.474 23.952,-10.508 23.711,-10.488L23.135,-10.44L22.49,-11.074L22.734,-12.197C22.799,-12.477 22.786,-12.739 22.695,-12.983C22.604,-13.228 22.412,-13.496 22.119,-13.789L19.922,-15.977C19.089,-16.803 18.202,-17.424 17.261,-17.837C16.32,-18.25 15.373,-18.465 14.419,-18.481C13.465,-18.498 12.547,-18.324 11.665,-17.959C10.783,-17.594 9.98,-17.051 9.258,-16.328ZM10.752,-15.957C11.357,-16.4 12.007,-16.716 12.7,-16.904C13.394,-17.093 14.095,-17.153 14.805,-17.085C15.514,-17.017 16.203,-16.826 16.87,-16.514C17.537,-16.201 18.148,-15.765 18.701,-15.205L21.133,-12.793C21.25,-12.676 21.323,-12.562 21.353,-12.451C21.382,-12.341 21.377,-12.201 21.338,-12.031L21.016,-10.547L22.52,-9.063L23.506,-9.121C23.63,-9.128 23.724,-9.119 23.789,-9.097C23.854,-9.074 23.936,-9.014 24.033,-8.916L24.609,-8.34L22.168,-5.898L21.592,-6.475C21.494,-6.572 21.432,-6.654 21.406,-6.719C21.38,-6.784 21.37,-6.882 21.377,-7.012L21.445,-7.988L19.951,-9.473L18.428,-9.219C18.265,-9.186 18.136,-9.181 18.042,-9.204C17.948,-9.227 17.839,-9.297 17.715,-9.414L15.713,-11.416C15.583,-11.533 15.509,-11.646 15.493,-11.753C15.477,-11.86 15.508,-12.005 15.586,-12.188L16.465,-14.277C15.684,-15.007 14.805,-15.511 13.828,-15.791C12.852,-16.071 11.855,-16.061 10.84,-15.762C10.762,-15.742 10.711,-15.757 10.689,-15.806C10.666,-15.855 10.687,-15.905 10.752,-15.957Z" style="fill-rule:nonzero;"/>
        </g>
        <g transform="matrix(1,0,0,1,1289,1953)">
            <text x="0px" y="0px" style="font-family:'LucidaGrande-Bold', 'Lucida Grande', sans-serif;font-weight:600;font-size:13px;">Exporting</text>
        </g>
        <g transform="matrix(1,0,0,1,1289,1971)">
            <text x="0px" y="0px" style="font-family:'LucidaGrande', 'Lucida Grande', sans-serif;font-weight:500;font-size:13px;">Symbols should be outlined when exporting to ensure the</text>
        </g>
        <g transform="matrix(1,0,0,1,1289,1989)">
            <text x="0px" y="0px" style="font-family:'LucidaGrande', 'Lucida Grande', sans-serif;font-weight:500;font-size:13px;">design is preserved when submitting to Xcode.</text>
        </g>
        <g id="template-version" transform="matrix(1,0,0,1,3036,1933)">
            <text x="-94.333px" y="0px" style="font-family:'LucidaGrande', 'Lucida Grande', sans-serif;font-weight:500;font-size:13px;">Template v.3.0</text>
        </g>
        <g transform="matrix(1,0,0,1,3036,1951)">
            <text x="-184.336px" y="0px" style="font-family:'LucidaGrande', 'Lucida Grande', sans-serif;font-weight:500;font-size:13px;">Requires Xcode 13 or greater</text>
        </g>
        <g id="descriptive-name" transform="matrix(1,0,0,1,3036,1969)">
            <text x="-159.567px" y="0px" style="font-family:'LucidaGrande', 'Lucida Grande', sans-serif;font-weight:500;font-size:13px;">Generated from rhombus</text>
        </g>
        <g transform="matrix(1,0,0,1,3036,1987)">
            <text x="-137.693px" y="0px" style="font-family:'LucidaGrande', 'Lucida Grande', sans-serif;font-weight:500;font-size:13px;">Typeset at 100 points</text>
        </g>
        <g transform="matrix(1,0,0,1,263,726)">
            <text x="0px" y="0px" style="font-family:'LucidaGrande', 'Lucida Grande', sans-serif;font-weight:500;font-size:13px;">Small</text>
        </g>
        <g transform="matrix(1,0,0,1,263,1156)">
            <text x="0px" y="0px" style="font-family:'LucidaGrande', 'Lucida Grande', sans-serif;font-weight:500;font-size:13px;">Medium</text>
        </g>
        <g transform="matrix(1,0,0,1,263,1586)">
            <text x="0px" y="0px" style="font-family:'LucidaGrande', 'Lucida Grande', sans-serif;font-weight:500;font-size:13px;">Large</text>
        </g>
    </g>
    <g id="Guides">
        <g id="H-reference" transform="matrix(1,0,0,1,339,696)">
            <path d="M0.977,0L3.662,0L29.346,-67.139L30.029,-67.139L30.029,-70.459L28.125,-70.459L0.977,0ZM11.67,-24.463L46.973,-24.463L46.24,-26.709L12.451,-26.709L11.67,-24.463ZM55.127,0L57.764,0L30.615,-70.459L29.443,-70.459L29.443,-67.139L55.127,0Z" style="fill:rgb(39,170,225);fill-rule:nonzero;"/>
        </g>
        <path id="Baseline-S" d="M263,696L3036,696" style="fill:none;fill-rule:nonzero;stroke:rgb(39,170,225);stroke-width:0.5px;"/>
        <path id="Capline-S" d="M263,625.541L3036,625.541" style="fill:none;fill-rule:nonzero;stroke:rgb(39,170,225);stroke-width:0.5px;"/>
        <g id="H-reference1" serif:id="H-reference" transform="matrix(1,0,0,1,339,1126)">
            <path d="M0.977,0L3.662,0L29.346,-67.139L30.029,-67.139L30.029,-70.459L28.125,-70.459L0.977,0ZM11.67,-24.463L46.973,-24.463L46.24,-26.709L12.451,-26.709L11.67,-24.463ZM55.127,0L57.764,0L30.615,-70.459L29.443,-70.459L29.443,-67.139L55.127,0Z" style="fill:rgb(39,170,225);fill-rule:nonzero;"/>
        </g>
        <path id="Baseline-M" d="M263,1126L3036,1126" style="fill:none;fill-rule:nonzero;stroke:rgb(39,170,225);stroke-width:0.5px;"/>
        <path id="Capline-M" d="M263,1055.54L3036,1055.54" style="fill:none;fill-rule:nonzero;stroke:rgb(39,170,225);stroke-width:0.5px;"/>
        <g id="H-reference2" serif:id="H-reference" transform="matrix(1,0,0,1,339,1556)">
            <path d="M0.977,0L3.662,0L29.346,-67.139L30.029,-67.139L30.029,-70.459L28.125,-70.459L0.977,0ZM11.67,-24.463L46.973,-24.463L46.24,-26.709L12.451,-26.709L11.67,-24.463ZM55.127,0L57.764,0L30.615,-70.459L29.443,-70.459L29.443,-67.139L55.127,0Z" style="fill:rgb(39,170,225);fill-rule:nonzero;"/>
        </g>
        <path id="Baseline-L" d="M263,1556L3036,1556" style="fill:none;fill-rule:nonzero;stroke:rgb(39,170,225);stroke-width:0.5px;"/>
        <path id="Capline-L" d="M263,1485.54L3036,1485.54" style="fill:none;fill-rule:nonzero;stroke:rgb(39,170,225);stroke-width:0.5px;"/>
        <path id="left-margin-Regular-M" d="M1401.87,1030.79L1401.87,1150.12" style="fill:none;fill-rule:nonzero;stroke:rgb(0,174,239);stroke-width:0.5px;"/>
        <path id="right-margin-Regular-M" d="M1497.82,1030.79L1497.82,1150.12" style="fill:none;fill-rule:nonzero;stroke:rgb(0,174,239);stroke-width:0.5px;"/>
    </g>
    <g id="Symbols">
        <g id="Black-L" transform="matrix(1,0,0,1,2866.94,1556)">
            <path d="M66.455,33.203C69.417,33.203 71.851,32.292 73.755,30.469C75.659,28.646 77.686,26.286 79.834,23.389L116.113,-24.951C117.546,-26.839 118.555,-28.621 119.141,-30.298C119.727,-31.974 120.02,-33.626 120.02,-35.254C120.02,-36.882 119.727,-38.542 119.141,-40.234C118.555,-41.927 117.546,-43.717 116.113,-45.606L79.834,-93.897C77.686,-96.826 75.659,-99.202 73.755,-101.025C71.851,-102.848 69.417,-103.76 66.455,-103.76C63.493,-103.76 61.06,-102.848 59.155,-101.025C57.251,-99.202 55.208,-96.826 53.027,-93.897L16.748,-45.606C15.316,-43.717 14.315,-41.927 13.745,-40.234C13.175,-38.542 12.891,-36.882 12.891,-35.254C12.891,-33.626 13.175,-31.974 13.745,-30.298C14.315,-28.621 15.316,-26.839 16.748,-24.951L53.027,23.389C55.208,26.286 57.251,28.646 59.155,30.469C61.06,32.292 63.493,33.203 66.455,33.203ZM66.455,7.91C66.325,7.91 66.227,7.886 66.162,7.837C66.097,7.788 66.032,7.715 65.967,7.617L35.107,-33.74C34.749,-34.229 34.57,-34.733 34.57,-35.254C34.57,-35.807 34.749,-36.312 35.107,-36.768L65.967,-78.125C66.032,-78.255 66.097,-78.337 66.162,-78.369C66.227,-78.402 66.325,-78.418 66.455,-78.418C66.553,-78.418 66.642,-78.402 66.724,-78.369C66.805,-78.337 66.878,-78.255 66.943,-78.125L97.803,-36.768C98.128,-36.312 98.291,-35.807 98.291,-35.254C98.291,-34.733 98.128,-34.229 97.803,-33.74L66.943,7.617C66.878,7.715 66.805,7.788 66.724,7.837C66.642,7.886 66.553,7.91 66.455,7.91Z" style="fill-rule:nonzero;"/>
        </g>
        <g id="Heavy-L" transform="matrix(1,0,0,1,2571.55,1556)">
            <path d="M65.137,32.031C67.773,32.031 69.946,31.209 71.655,29.565C73.364,27.922 75.212,25.749 77.197,23.047L113.867,-25.879C115.136,-27.572 116.04,-29.183 116.577,-30.713C117.114,-32.243 117.383,-33.757 117.383,-35.254C117.383,-36.751 117.114,-38.273 116.577,-39.819C116.04,-41.366 115.136,-42.985 113.867,-44.678L77.197,-93.555C75.212,-96.289 73.364,-98.478 71.655,-100.122C69.946,-101.766 67.773,-102.588 65.137,-102.588C62.5,-102.588 60.335,-101.766 58.643,-100.122C56.95,-98.478 55.078,-96.289 53.027,-93.555L16.406,-44.678C15.137,-42.985 14.233,-41.366 13.696,-39.819C13.159,-38.273 12.891,-36.751 12.891,-35.254C12.891,-33.757 13.159,-32.243 13.696,-30.713C14.233,-29.183 15.137,-27.572 16.406,-25.879L53.027,23.047C55.078,25.749 56.95,27.922 58.643,29.565C60.335,31.209 62.5,32.031 65.137,32.031ZM65.137,10.059C65.007,10.059 64.901,10.018 64.819,9.937C64.738,9.855 64.648,9.766 64.551,9.668L32.275,-33.691C31.917,-34.212 31.738,-34.733 31.738,-35.254C31.738,-35.807 31.917,-36.328 32.275,-36.816L64.551,-80.176C64.648,-80.306 64.738,-80.404 64.819,-80.469C64.901,-80.534 65.007,-80.566 65.137,-80.566C65.267,-80.566 65.381,-80.534 65.478,-80.469C65.576,-80.404 65.658,-80.306 65.723,-80.176L97.998,-36.816C98.356,-36.328 98.535,-35.807 98.535,-35.254C98.535,-34.733 98.356,-34.212 97.998,-33.691L65.723,9.668C65.658,9.766 65.576,9.855 65.478,9.937C65.381,10.018 65.267,10.059 65.137,10.059Z" style="fill-rule:nonzero;"/>
        </g>
        <g id="Bold-L" transform="matrix(1,0,0,1,2276.28,1556)">
            <path d="M63.672,30.713C65.951,30.713 67.83,29.989 69.312,28.54C70.793,27.091 72.445,25.13 74.268,22.656L111.328,-26.904C112.435,-28.369 113.24,-29.785 113.745,-31.152C114.25,-32.52 114.502,-33.887 114.502,-35.254C114.502,-36.654 114.25,-38.037 113.745,-39.404C113.24,-40.772 112.435,-42.204 111.328,-43.701L74.268,-93.164C72.445,-95.671 70.793,-97.648 69.312,-99.097C67.83,-100.546 65.951,-101.27 63.672,-101.27C61.426,-101.27 59.562,-100.546 58.081,-99.097C56.6,-97.648 54.932,-95.671 53.076,-93.164L16.064,-43.701C14.925,-42.204 14.111,-40.772 13.623,-39.404C13.135,-38.037 12.891,-36.654 12.891,-35.254C12.891,-33.887 13.135,-32.52 13.623,-31.152C14.111,-29.785 14.925,-28.369 16.064,-26.904L53.076,22.656C54.932,25.13 56.6,27.091 58.081,28.54C59.562,29.989 61.426,30.713 63.672,30.713ZM63.672,12.451C63.509,12.451 63.387,12.402 63.306,12.305C63.224,12.207 63.135,12.093 63.037,11.963L29.15,-33.643C28.76,-34.163 28.565,-34.701 28.565,-35.254C28.565,-35.84 28.76,-36.393 29.15,-36.914L63.037,-82.471C63.135,-82.633 63.224,-82.756 63.306,-82.837C63.387,-82.918 63.509,-82.959 63.672,-82.959C63.835,-82.959 63.965,-82.918 64.063,-82.837C64.16,-82.756 64.258,-82.633 64.356,-82.471L98.242,-36.914C98.633,-36.393 98.828,-35.84 98.828,-35.254C98.828,-34.701 98.633,-34.163 98.242,-33.643L64.356,11.963C64.258,12.093 64.16,12.207 64.063,12.305C63.965,12.402 63.835,12.451 63.672,12.451Z" style="fill-rule:nonzero;"/>
        </g>
        <g id="Semibold-L" transform="matrix(1,0,0,1,1980.6,1556)">
            <path d="M62.647,29.785C64.697,29.785 66.374,29.134 67.676,27.832C68.978,26.53 70.508,24.707 72.266,22.363L109.57,-27.588C110.547,-28.923 111.271,-30.208 111.743,-31.445C112.215,-32.682 112.451,-33.952 112.451,-35.254C112.451,-36.556 112.215,-37.834 111.743,-39.087C111.271,-40.34 110.547,-41.634 109.57,-42.969L72.266,-92.92C70.508,-95.264 68.978,-97.087 67.676,-98.389C66.374,-99.691 64.697,-100.342 62.647,-100.342C60.661,-100.342 59.009,-99.691 57.69,-98.389C56.372,-97.087 54.834,-95.264 53.076,-92.92L15.772,-42.969C14.762,-41.634 14.03,-40.34 13.574,-39.087C13.118,-37.834 12.891,-36.556 12.891,-35.254C12.891,-33.952 13.118,-32.682 13.574,-31.445C14.03,-30.208 14.762,-28.923 15.772,-27.588L53.076,22.363C54.834,24.707 56.372,26.53 57.69,27.832C59.009,29.134 60.661,29.785 62.647,29.785ZM62.647,14.063C62.484,14.063 62.353,14.014 62.256,13.916C62.158,13.818 62.044,13.688 61.914,13.525L26.953,-33.594C26.563,-34.147 26.367,-34.701 26.367,-35.254C26.367,-35.84 26.563,-36.393 26.953,-36.914L61.914,-84.033C62.044,-84.229 62.158,-84.367 62.256,-84.448C62.353,-84.53 62.484,-84.57 62.647,-84.57C62.842,-84.57 62.988,-84.53 63.086,-84.448C63.184,-84.367 63.298,-84.229 63.428,-84.033L98.389,-36.914C98.779,-36.393 98.975,-35.84 98.975,-35.254C98.975,-34.701 98.779,-34.147 98.389,-33.594L63.428,13.525C63.298,13.688 63.184,13.818 63.086,13.916C62.988,14.014 62.842,14.063 62.647,14.063Z" style="fill-rule:nonzero;"/>
        </g>
        <g id="Medium-L" transform="matrix(1,0,0,1,1684.64,1556)">
            <path d="M61.914,29.102C63.737,29.102 65.251,28.499 66.455,27.295C67.66,26.09 69.076,24.382 70.703,22.168L108.203,-28.125C109.114,-29.329 109.798,-30.509 110.254,-31.665C110.71,-32.821 110.938,-34.017 110.938,-35.254C110.938,-36.491 110.71,-37.695 110.254,-38.867C109.798,-40.039 109.114,-41.227 108.203,-42.432L70.703,-92.676C69.076,-94.922 67.66,-96.647 66.455,-97.852C65.251,-99.056 63.737,-99.658 61.914,-99.658C60.091,-99.658 58.577,-99.056 57.373,-97.852C56.169,-96.647 54.736,-94.922 53.076,-92.676L15.576,-42.432C14.665,-41.227 13.989,-40.039 13.55,-38.867C13.11,-37.695 12.891,-36.491 12.891,-35.254C12.891,-34.017 13.11,-32.821 13.55,-31.665C13.989,-30.509 14.665,-29.329 15.576,-28.125L53.076,22.168C54.736,24.382 56.169,26.09 57.373,27.295C58.577,28.499 60.091,29.102 61.914,29.102ZM61.914,15.332C61.719,15.332 61.564,15.275 61.45,15.161C61.336,15.047 61.23,14.909 61.133,14.746L25.293,-33.545C24.87,-34.098 24.658,-34.668 24.658,-35.254C24.658,-35.872 24.87,-36.442 25.293,-36.963L61.133,-85.254C61.23,-85.449 61.336,-85.596 61.45,-85.693C61.564,-85.791 61.719,-85.84 61.914,-85.84C62.109,-85.84 62.256,-85.791 62.353,-85.693C62.451,-85.596 62.565,-85.449 62.695,-85.254L98.535,-36.963C98.926,-36.442 99.121,-35.872 99.121,-35.254C99.121,-34.668 98.926,-34.098 98.535,-33.545L62.695,14.746C62.565,14.909 62.451,15.047 62.353,15.161C62.256,15.275 62.109,15.332 61.914,15.332Z" style="fill-rule:nonzero;"/>
        </g>
        <g id="Regular-L" transform="matrix(1,0,0,1,1388.93,1556)">
            <path d="M60.889,28.174C62.484,28.174 63.802,27.645 64.844,26.587C65.885,25.529 67.171,23.958 68.701,21.875L106.494,-28.809C107.275,-29.883 107.878,-30.941 108.301,-31.982C108.724,-33.024 108.936,-34.115 108.936,-35.254C108.936,-36.393 108.724,-37.492 108.301,-38.55C107.878,-39.608 107.275,-40.674 106.494,-41.748L68.701,-92.432C67.171,-94.515 65.885,-96.086 64.844,-97.144C63.802,-98.202 62.484,-98.731 60.889,-98.731C59.326,-98.731 58.024,-98.202 56.982,-97.144C55.941,-96.086 54.639,-94.515 53.076,-92.432L15.332,-41.748C14.518,-40.674 13.908,-39.608 13.501,-38.55C13.094,-37.492 12.891,-36.393 12.891,-35.254C12.891,-34.115 13.094,-33.024 13.501,-31.982C13.908,-30.941 14.518,-29.883 15.332,-28.809L53.076,21.875C54.639,23.958 55.941,25.529 56.982,26.587C58.024,27.645 59.326,28.174 60.889,28.174ZM60.889,16.943C60.693,16.943 60.539,16.878 60.425,16.748C60.311,16.618 60.189,16.471 60.059,16.309L23.145,-33.496C22.721,-34.082 22.51,-34.668 22.51,-35.254C22.51,-35.872 22.721,-36.458 23.145,-37.012L60.059,-86.816C60.189,-87.012 60.311,-87.166 60.425,-87.28C60.539,-87.394 60.693,-87.451 60.889,-87.451C61.117,-87.451 61.287,-87.394 61.401,-87.28C61.515,-87.166 61.637,-87.012 61.768,-86.816L98.682,-37.012C99.105,-36.458 99.316,-35.872 99.316,-35.254C99.316,-34.668 99.105,-34.082 98.682,-33.496L61.768,16.309C61.637,16.471 61.515,16.618 61.401,16.748C61.287,16.878 61.117,16.943 60.889,16.943Z" style="fill-rule:nonzero;"/>
        </g>
        <g id="Light-L" transform="matrix(1,0,0,1,1093.61,1556)">
            <path d="M59.522,26.758C60.889,26.758 62.012,26.302 62.891,25.391C63.77,24.479 64.828,23.177 66.065,21.484L104.102,-29.785C104.785,-30.729 105.298,-31.641 105.64,-32.52C105.981,-33.398 106.152,-34.31 106.152,-35.254C106.152,-36.198 105.981,-37.118 105.64,-38.013C105.298,-38.908 104.785,-39.828 104.102,-40.772L66.065,-92.041C64.828,-93.734 63.77,-95.028 62.891,-95.923C62.012,-96.818 60.889,-97.266 59.522,-97.266C58.154,-97.266 57.031,-96.818 56.152,-95.923C55.273,-95.028 54.199,-93.734 52.93,-92.041L14.941,-40.772C14.258,-39.828 13.745,-38.908 13.403,-38.013C13.061,-37.118 12.891,-36.198 12.891,-35.254C12.891,-34.31 13.061,-33.398 13.403,-32.52C13.745,-31.641 14.258,-30.729 14.941,-29.785L52.93,21.484C54.199,23.177 55.273,24.479 56.152,25.391C57.031,26.302 58.154,26.758 59.522,26.758ZM59.522,18.311C59.229,18.311 59.009,18.213 58.862,18.018C58.716,17.822 58.545,17.627 58.35,17.432L20.801,-33.447C20.378,-34.033 20.166,-34.635 20.166,-35.254C20.166,-35.905 20.378,-36.507 20.801,-37.061L58.35,-87.94C58.545,-88.167 58.716,-88.371 58.862,-88.55C59.009,-88.729 59.229,-88.818 59.522,-88.818C59.814,-88.818 60.042,-88.729 60.205,-88.55C60.368,-88.371 60.531,-88.167 60.693,-87.94L98.242,-37.061C98.665,-36.507 98.877,-35.905 98.877,-35.254C98.877,-34.635 98.665,-34.033 98.242,-33.447L60.693,17.432C60.531,17.627 60.368,17.822 60.205,18.018C60.042,18.213 59.814,18.311 59.522,18.311Z" style="fill-rule:nonzero;"/>
        </g>
        <g id="Thin-L" transform="matrix(1,0,0,1,798.732,1556)">
            <path d="M57.666,24.854C58.773,24.854 59.66,24.495 60.327,23.779C60.994,23.063 61.751,22.119 62.598,20.947L100.928,-31.055C101.449,-31.836 101.839,-32.56 102.1,-33.228C102.36,-33.895 102.49,-34.57 102.49,-35.254C102.49,-35.97 102.36,-36.662 102.1,-37.329C101.839,-37.996 101.449,-38.704 100.928,-39.453L62.598,-91.504C61.751,-92.643 60.994,-93.571 60.327,-94.287C59.66,-95.003 58.773,-95.361 57.666,-95.361C56.624,-95.361 55.762,-95.003 55.078,-94.287C54.395,-93.571 53.63,-92.643 52.783,-91.504L14.453,-39.453C13.9,-38.704 13.501,-37.996 13.257,-37.329C13.013,-36.662 12.891,-35.97 12.891,-35.254C12.891,-34.57 13.013,-33.895 13.257,-33.228C13.501,-32.56 13.9,-31.836 14.453,-31.055L52.783,20.947C53.63,22.119 54.395,23.063 55.078,23.779C55.762,24.495 56.624,24.854 57.666,24.854ZM57.666,20.068C57.308,20.068 57.015,19.946 56.787,19.702C56.559,19.458 56.331,19.189 56.103,18.897L17.725,-33.447C17.301,-34.033 17.09,-34.635 17.09,-35.254C17.09,-35.905 17.301,-36.523 17.725,-37.109L56.103,-89.404C56.331,-89.697 56.559,-89.974 56.787,-90.234C57.015,-90.495 57.308,-90.625 57.666,-90.625C58.057,-90.625 58.366,-90.495 58.594,-90.234C58.822,-89.974 59.049,-89.697 59.277,-89.404L97.656,-37.109C98.079,-36.523 98.291,-35.905 98.291,-35.254C98.291,-34.635 98.079,-34.033 97.656,-33.447L59.277,18.897C59.049,19.189 58.822,19.458 58.594,19.702C58.366,19.946 58.057,20.068 57.666,20.068Z" style="fill-rule:nonzero;"/>
        </g>
        <g id="Ultralight-L" transform="matrix(1,0,0,1,502.948,1556)">
            <path d="M56.738,23.877C57.682,23.877 58.439,23.576 59.009,22.974C59.578,22.371 60.189,21.598 60.84,20.654L99.268,-31.738C99.756,-32.389 100.106,-33 100.317,-33.569C100.529,-34.139 100.635,-34.701 100.635,-35.254C100.635,-35.84 100.529,-36.41 100.317,-36.963C100.106,-37.516 99.756,-38.135 99.268,-38.818L60.84,-91.211C60.189,-92.122 59.578,-92.879 59.009,-93.481C58.439,-94.084 57.682,-94.385 56.738,-94.385C55.827,-94.385 55.086,-94.084 54.517,-93.481C53.947,-92.879 53.337,-92.122 52.686,-91.211L14.209,-38.818C13.721,-38.135 13.379,-37.516 13.184,-36.963C12.988,-36.41 12.891,-35.84 12.891,-35.254C12.891,-34.701 12.988,-34.139 13.184,-33.569C13.379,-33 13.721,-32.389 14.209,-31.738L52.686,20.654C53.337,21.598 53.947,22.371 54.517,22.974C55.086,23.576 55.827,23.877 56.738,23.877ZM56.738,20.996C56.315,20.996 55.981,20.85 55.737,20.557C55.493,20.264 55.241,19.954 54.981,19.629L16.162,-33.398C15.739,-33.984 15.527,-34.603 15.527,-35.254C15.527,-35.938 15.739,-36.572 16.162,-37.158L54.981,-90.186C55.241,-90.511 55.493,-90.82 55.737,-91.113C55.981,-91.406 56.315,-91.553 56.738,-91.553C57.161,-91.553 57.503,-91.406 57.764,-91.113C58.024,-90.82 58.285,-90.511 58.545,-90.186L97.363,-37.158C97.786,-36.572 97.998,-35.938 97.998,-35.254C97.998,-34.603 97.786,-33.984 97.363,-33.398L58.545,19.629C58.285,19.954 58.024,20.264 57.764,20.557C57.503,20.85 57.161,20.996 56.738,20.996Z" style="fill-rule:nonzero;"/>
        </g>
        <g id="Black-M" transform="matrix(1,0,0,1,2881.28,1126)">
            <path d="M52.1,18.359C54.606,18.359 56.657,17.594 58.252,16.064C59.847,14.535 61.491,12.63 63.184,10.352L91.113,-26.807C92.318,-28.402 93.148,-29.883 93.604,-31.25C94.059,-32.617 94.287,-33.952 94.287,-35.254C94.287,-36.556 94.059,-37.891 93.604,-39.258C93.148,-40.625 92.318,-42.106 91.113,-43.701L63.184,-80.859C61.491,-83.171 59.847,-85.083 58.252,-86.597C56.657,-88.11 54.606,-88.867 52.1,-88.867C49.626,-88.867 47.591,-88.11 45.996,-86.597C44.401,-85.083 42.741,-83.171 41.016,-80.859L13.135,-43.701C11.93,-42.106 11.1,-40.625 10.645,-39.258C10.189,-37.891 9.961,-36.556 9.961,-35.254C9.961,-33.952 10.189,-32.617 10.645,-31.25C11.1,-29.883 11.93,-28.402 13.135,-26.807L41.016,10.352C42.741,12.63 44.401,14.535 45.996,16.064C47.591,17.594 49.626,18.359 52.1,18.359ZM52.1,-3.174C52.035,-3.174 51.969,-3.19 51.904,-3.223C51.839,-3.255 51.774,-3.32 51.709,-3.418L28.809,-34.131C28.548,-34.489 28.418,-34.863 28.418,-35.254C28.418,-35.677 28.548,-36.051 28.809,-36.377L51.709,-67.09C51.774,-67.187 51.839,-67.253 51.904,-67.285C51.969,-67.318 52.035,-67.334 52.1,-67.334C52.197,-67.334 52.279,-67.318 52.344,-67.285C52.409,-67.253 52.474,-67.187 52.539,-67.09L75.44,-36.377C75.7,-36.051 75.83,-35.677 75.83,-35.254C75.83,-34.863 75.7,-34.489 75.44,-34.131L52.539,-3.418C52.474,-3.32 52.409,-3.255 52.344,-3.223C52.279,-3.19 52.197,-3.174 52.1,-3.174Z" style="fill-rule:nonzero;"/>
        </g>
        <g id="Heavy-M" transform="matrix(1,0,0,1,2585.54,1126)">
            <path d="M51.123,17.529C53.337,17.529 55.168,16.838 56.616,15.454C58.065,14.071 59.587,12.288 61.182,10.107L89.404,-27.49C90.479,-28.923 91.235,-30.265 91.675,-31.519C92.114,-32.772 92.334,-34.017 92.334,-35.254C92.334,-36.491 92.114,-37.736 91.675,-38.989C91.235,-40.243 90.479,-41.585 89.404,-43.018L61.182,-80.615C59.587,-82.796 58.065,-84.578 56.616,-85.962C55.168,-87.345 53.337,-88.037 51.123,-88.037C48.909,-88.037 47.087,-87.345 45.654,-85.962C44.222,-84.578 42.692,-82.796 41.065,-80.615L12.891,-43.018C11.816,-41.585 11.06,-40.243 10.62,-38.989C10.181,-37.736 9.961,-36.491 9.961,-35.254C9.961,-34.017 10.181,-32.772 10.62,-31.519C11.06,-30.265 11.816,-28.923 12.891,-27.49L41.065,10.107C42.692,12.288 44.222,14.071 45.654,15.454C47.087,16.838 48.909,17.529 51.123,17.529ZM51.123,-1.367C51.058,-1.367 50.985,-1.392 50.903,-1.44C50.822,-1.489 50.749,-1.563 50.684,-1.66L26.563,-34.082C26.27,-34.473 26.123,-34.863 26.123,-35.254C26.123,-35.677 26.27,-36.068 26.563,-36.426L50.684,-68.848C50.749,-68.945 50.822,-69.019 50.903,-69.067C50.985,-69.116 51.058,-69.141 51.123,-69.141C51.221,-69.141 51.302,-69.116 51.367,-69.067C51.432,-69.019 51.497,-68.945 51.563,-68.848L75.732,-36.426C76.025,-36.068 76.172,-35.677 76.172,-35.254C76.172,-34.863 76.025,-34.473 75.732,-34.082L51.563,-1.66C51.497,-1.563 51.432,-1.489 51.367,-1.44C51.302,-1.392 51.221,-1.367 51.123,-1.367Z" style="fill-rule:nonzero;"/>
        </g>
        <g id="Bold-M" transform="matrix(1,0,0,1,2289.93,1126)">
            <path d="M50.049,16.553C51.969,16.553 53.556,15.942 54.81,14.722C56.063,13.501 57.454,11.865 58.984,9.814L87.5,-28.272C88.444,-29.508 89.119,-30.697 89.526,-31.836C89.933,-32.975 90.137,-34.115 90.137,-35.254C90.137,-36.393 89.933,-37.541 89.526,-38.696C89.119,-39.852 88.444,-41.048 87.5,-42.285L58.984,-80.322C57.454,-82.406 56.063,-84.05 54.81,-85.254C53.556,-86.458 51.969,-87.061 50.049,-87.061C48.128,-87.061 46.55,-86.458 45.313,-85.254C44.076,-84.05 42.676,-82.406 41.113,-80.322L12.598,-42.285C11.654,-41.048 10.978,-39.852 10.571,-38.696C10.164,-37.541 9.961,-36.393 9.961,-35.254C9.961,-34.115 10.164,-32.975 10.571,-31.836C10.978,-30.697 11.654,-29.508 12.598,-28.272L41.113,9.814C42.676,11.865 44.076,13.501 45.313,14.722C46.55,15.942 48.128,16.553 50.049,16.553ZM50.049,0.635C49.951,0.635 49.87,0.61 49.805,0.562C49.74,0.513 49.674,0.439 49.609,0.342L24.023,-34.033C23.73,-34.424 23.584,-34.831 23.584,-35.254C23.584,-35.71 23.73,-36.117 24.023,-36.475L49.609,-70.85C49.674,-70.947 49.74,-71.021 49.805,-71.069C49.87,-71.118 49.951,-71.143 50.049,-71.143C50.146,-71.143 50.228,-71.118 50.293,-71.069C50.358,-71.021 50.423,-70.947 50.488,-70.85L76.074,-36.475C76.367,-36.117 76.514,-35.71 76.514,-35.254C76.514,-34.831 76.367,-34.424 76.074,-34.033L50.488,0.342C50.423,0.439 50.358,0.513 50.293,0.562C50.228,0.61 50.146,0.635 50.049,0.635Z" style="fill-rule:nonzero;"/>
        </g>
        <g id="Semibold-M" transform="matrix(1,0,0,1,1993.97,1126)">
            <path d="M49.268,15.918C50.96,15.918 52.376,15.356 53.516,14.233C54.655,13.11 55.957,11.556 57.422,9.57L86.182,-28.76C86.995,-29.899 87.606,-30.998 88.013,-32.056C88.42,-33.114 88.623,-34.18 88.623,-35.254C88.623,-36.328 88.42,-37.402 88.013,-38.477C87.606,-39.551 86.995,-40.641 86.182,-41.748L57.422,-80.127C55.957,-82.113 54.655,-83.659 53.516,-84.766C52.376,-85.872 50.96,-86.426 49.268,-86.426C47.575,-86.426 46.167,-85.872 45.044,-84.766C43.921,-83.659 42.627,-82.113 41.162,-80.127L12.402,-41.748C11.556,-40.641 10.938,-39.551 10.547,-38.477C10.156,-37.402 9.961,-36.328 9.961,-35.254C9.961,-34.18 10.156,-33.114 10.547,-32.056C10.938,-30.998 11.556,-29.899 12.402,-28.76L41.162,9.57C42.627,11.556 43.921,13.11 45.044,14.233C46.167,15.356 47.575,15.918 49.268,15.918ZM49.268,2.002C49.17,2.002 49.089,1.969 49.023,1.904C48.958,1.839 48.893,1.758 48.828,1.66L22.266,-33.984C21.973,-34.408 21.826,-34.831 21.826,-35.254C21.826,-35.71 21.973,-36.133 22.266,-36.523L48.828,-72.217C48.893,-72.314 48.958,-72.388 49.023,-72.437C49.089,-72.485 49.17,-72.51 49.268,-72.51C49.398,-72.51 49.495,-72.485 49.561,-72.437C49.626,-72.388 49.691,-72.314 49.756,-72.217L76.318,-36.523C76.611,-36.133 76.758,-35.71 76.758,-35.254C76.758,-34.831 76.611,-34.408 76.318,-33.984L49.756,1.66C49.691,1.758 49.626,1.839 49.561,1.904C49.495,1.969 49.398,2.002 49.268,2.002Z" style="fill-rule:nonzero;"/>
        </g>
        <g id="Medium-M" transform="matrix(1,0,0,1,1697.83,1126)">
            <g transform="matrix(0.197792,0,0,0.197792,48.7305,-35.2539)">
                <g id="Medium-M1" serif:id="Medium-M">
                    <g transform="matrix(1,0,0,1,-256,-256)">
                        <path d="M412.379,392.874L256.003,512L99.622,392.874L165.244,360.746L256.002,431.709L346.757,360.746L412.379,392.874ZM256.002,113.298L332.245,172.943C332.245,172.943 332.245,339.088 332.245,339.088C332.245,339.088 256.002,398.705 256.002,398.705C256.002,398.705 179.755,339.088 179.755,339.088C179.755,339.088 179.755,172.943 179.755,172.943L256.002,113.298ZM423.775,384.192L423.609,384.319L423.775,383.979L423.775,384.192ZM88.225,383.979L88.391,384.319L88.225,384.192L88.225,383.979ZM423.775,369.504L358.245,337.422L358.245,174.749L423.775,142.666L423.775,369.504ZM88.225,142.666L153.755,174.749L153.755,337.422L88.225,369.504L88.225,142.666ZM412.229,119.37L346.867,151.371L256.002,80.288L165.133,151.371L99.771,119.37L256.003,0L412.229,119.37ZM88.225,128.192C88.225,128.192 88.225,128.192 88.225,128.192ZM423.775,128.192C423.775,128.192 423.775,128.192 423.775,128.192Z" style="fill:rgb(41,5,0);"/>
                    </g>
                </g>
            </g>
        </g>
        <g id="Regular-M" transform="matrix(1,0,0,1,1401.87,1126)">
            <g transform="matrix(0.195312,0,0,0.195312,47.9736,-35.2539)">
                <g id="Regular-M1" serif:id="Regular-M">
                    <g transform="matrix(1,0,0,1,-256,-256)">
                        <path d="M412.379,392.874L256.003,512L99.622,392.874L165.244,360.746L256.002,431.709L346.757,360.746L412.379,392.874ZM256.002,113.298L332.245,172.943C332.245,172.943 332.245,339.088 332.245,339.088C332.245,339.088 256.002,398.705 256.002,398.705C256.002,398.705 179.755,339.088 179.755,339.088C179.755,339.088 179.755,172.943 179.755,172.943L256.002,113.298ZM423.775,384.192L423.609,384.319L423.775,383.979L423.775,384.192ZM88.225,383.979L88.391,384.319L88.225,384.192L88.225,383.979ZM423.775,369.504L358.245,337.422L358.245,174.749L423.775,142.666L423.775,369.504ZM88.225,142.666L153.755,174.749L153.755,337.422L88.225,369.504L88.225,142.666ZM412.229,119.37L346.867,151.371L256.002,80.288L165.133,151.371L99.771,119.37L256.003,0L412.229,119.37ZM88.225,128.192C88.225,128.192 88.225,128.192 88.225,128.192ZM423.775,128.192C423.775,128.192 423.775,128.192 423.775,128.192Z" style="fill:rgb(41,5,0);"/>
                    </g>
                </g>
            </g>
        </g>
        <g id="Light-M" transform="matrix(1,0,0,1,1106.4,1126)">
            <path d="M46.728,13.428C47.868,13.428 48.82,13.045 49.585,12.28C50.35,11.515 51.286,10.384 52.393,8.887L81.738,-30.566C82.292,-31.348 82.723,-32.121 83.032,-32.886C83.341,-33.651 83.496,-34.44 83.496,-35.254C83.496,-36.068 83.341,-36.857 83.032,-37.622C82.723,-38.387 82.292,-39.16 81.738,-39.941L52.393,-79.443C51.286,-80.908 50.35,-82.031 49.585,-82.813C48.82,-83.594 47.868,-83.984 46.728,-83.984C45.557,-83.984 44.596,-83.594 43.848,-82.813C43.099,-82.031 42.171,-80.908 41.065,-79.443L11.719,-39.941C11.133,-39.16 10.693,-38.387 10.4,-37.622C10.107,-36.857 9.961,-36.068 9.961,-35.254C9.961,-34.44 10.107,-33.651 10.4,-32.886C10.693,-32.121 11.133,-31.348 11.719,-30.566L41.065,8.887C42.171,10.384 43.099,11.515 43.848,12.28C44.596,13.045 45.557,13.428 46.728,13.428ZM46.728,5.664C46.533,5.664 46.379,5.599 46.265,5.469C46.151,5.339 46.045,5.192 45.947,5.029L17.139,-33.887C16.813,-34.31 16.65,-34.766 16.65,-35.254C16.65,-35.742 16.813,-36.198 17.139,-36.621L45.947,-75.586C46.045,-75.749 46.151,-75.887 46.265,-76.001C46.379,-76.115 46.533,-76.172 46.728,-76.172C46.891,-76.172 47.03,-76.115 47.144,-76.001C47.258,-75.887 47.363,-75.749 47.461,-75.586L76.318,-36.621C76.644,-36.198 76.807,-35.742 76.807,-35.254C76.807,-34.766 76.644,-34.31 76.318,-33.887L47.461,5.029C47.363,5.192 47.258,5.339 47.144,5.469C47.03,5.599 46.891,5.664 46.728,5.664Z" style="fill-rule:nonzero;"/>
        </g>
        <g id="Thin-M" transform="matrix(1,0,0,1,811.354,1126)">
            <path d="M45.068,11.719C45.947,11.719 46.672,11.426 47.241,10.84C47.811,10.254 48.486,9.44 49.268,8.398L78.857,-31.738C79.313,-32.357 79.647,-32.951 79.858,-33.521C80.07,-34.09 80.176,-34.668 80.176,-35.254C80.176,-35.84 80.07,-36.418 79.858,-36.987C79.647,-37.557 79.313,-38.151 78.857,-38.77L49.268,-78.955C48.486,-79.964 47.811,-80.77 47.241,-81.372C46.672,-81.974 45.947,-82.275 45.068,-82.275C44.189,-82.275 43.465,-81.974 42.896,-81.372C42.326,-80.77 41.667,-79.964 40.918,-78.955L11.279,-38.77C10.824,-38.151 10.49,-37.557 10.278,-36.987C10.067,-36.418 9.961,-35.84 9.961,-35.254C9.961,-34.668 10.067,-34.09 10.278,-33.521C10.49,-32.951 10.824,-32.357 11.279,-31.738L40.918,8.398C41.667,9.44 42.326,10.254 42.896,10.84C43.465,11.426 44.189,11.719 45.068,11.719ZM45.068,7.275C44.808,7.275 44.596,7.178 44.434,6.982C44.271,6.787 44.108,6.592 43.945,6.396L14.404,-33.887C14.079,-34.31 13.916,-34.766 13.916,-35.254C13.916,-35.742 14.079,-36.214 14.404,-36.67L43.945,-76.904C44.108,-77.1 44.271,-77.295 44.434,-77.49C44.596,-77.686 44.808,-77.783 45.068,-77.783C45.329,-77.783 45.54,-77.686 45.703,-77.49C45.866,-77.295 46.045,-77.1 46.24,-76.904L75.781,-36.67C76.107,-36.214 76.269,-35.742 76.269,-35.254C76.269,-34.766 76.107,-34.31 75.781,-33.887L46.24,6.396C46.045,6.592 45.866,6.787 45.703,6.982C45.54,7.178 45.329,7.275 45.068,7.275Z" style="fill-rule:nonzero;"/>
        </g>
        <g id="Ultralight-M" transform="matrix(1,0,0,1,515.473,1126)">
            <path d="M44.238,10.84C44.987,10.84 45.597,10.588 46.069,10.083C46.541,9.578 47.07,8.936 47.656,8.154L77.393,-32.324C77.816,-32.878 78.109,-33.382 78.272,-33.838C78.434,-34.294 78.516,-34.766 78.516,-35.254C78.516,-35.742 78.434,-36.214 78.272,-36.67C78.109,-37.126 77.816,-37.63 77.393,-38.184L47.656,-78.711C47.07,-79.492 46.541,-80.135 46.069,-80.64C45.597,-81.144 44.987,-81.397 44.238,-81.397C43.457,-81.397 42.83,-81.144 42.358,-80.64C41.886,-80.135 41.374,-79.492 40.82,-78.711L11.084,-38.184C10.661,-37.63 10.368,-37.126 10.205,-36.67C10.042,-36.214 9.961,-35.742 9.961,-35.254C9.961,-34.766 10.042,-34.294 10.205,-33.838C10.368,-33.382 10.661,-32.878 11.084,-32.324L40.82,8.154C41.374,8.936 41.886,9.578 42.358,10.083C42.83,10.588 43.457,10.84 44.238,10.84ZM44.238,8.057C43.913,8.057 43.66,7.951 43.481,7.739C43.302,7.528 43.115,7.292 42.92,7.031L12.988,-33.838C12.663,-34.261 12.5,-34.733 12.5,-35.254C12.5,-35.775 12.663,-36.263 12.988,-36.719L42.92,-77.539C43.115,-77.8 43.302,-78.036 43.481,-78.247C43.66,-78.459 43.913,-78.565 44.238,-78.565C44.531,-78.565 44.775,-78.459 44.971,-78.247C45.166,-78.036 45.361,-77.8 45.557,-77.539L75.488,-36.719C75.846,-36.263 76.025,-35.775 76.025,-35.254C76.025,-34.733 75.846,-34.261 75.488,-33.838L45.557,7.031C45.361,7.292 45.166,7.528 44.971,7.739C44.775,7.951 44.531,8.057 44.238,8.057Z" style="fill-rule:nonzero;"/>
        </g>
        <g id="Black-S" transform="matrix(1,0,0,1,2892.34,696)">
            <path d="M41.065,6.934C43.083,6.934 44.743,6.315 46.045,5.078C47.347,3.841 48.665,2.327 50,0.537L71.777,-28.467C72.754,-29.769 73.421,-30.973 73.779,-32.08C74.137,-33.187 74.316,-34.245 74.316,-35.254C74.316,-36.296 74.137,-37.362 73.779,-38.452C73.421,-39.543 72.754,-40.739 71.777,-42.041L50,-71.045C48.665,-72.868 47.347,-74.39 46.045,-75.61C44.743,-76.831 43.083,-77.441 41.065,-77.441C39.046,-77.441 37.386,-76.831 36.084,-75.61C34.782,-74.39 33.464,-72.868 32.129,-71.045L10.352,-42.041C9.375,-40.739 8.708,-39.543 8.35,-38.452C7.992,-37.362 7.813,-36.296 7.813,-35.254C7.813,-34.245 7.992,-33.187 8.35,-32.08C8.708,-30.973 9.375,-29.769 10.352,-28.467L32.129,0.537C33.464,2.327 34.782,3.841 36.084,5.078C37.386,6.315 39.046,6.934 41.065,6.934ZM41.065,-10.596C40.999,-10.596 40.942,-10.612 40.894,-10.645C40.845,-10.677 40.788,-10.726 40.723,-10.791L23.145,-34.375C22.949,-34.635 22.852,-34.928 22.852,-35.254C22.852,-35.579 22.949,-35.872 23.145,-36.133L40.723,-59.717C40.788,-59.782 40.845,-59.831 40.894,-59.863C40.942,-59.896 40.999,-59.912 41.065,-59.912C41.13,-59.912 41.195,-59.896 41.26,-59.863C41.325,-59.831 41.374,-59.782 41.406,-59.717L58.984,-36.133C59.18,-35.872 59.277,-35.579 59.277,-35.254C59.277,-34.928 59.18,-34.635 58.984,-34.375L41.406,-10.791C41.374,-10.726 41.325,-10.677 41.26,-10.645C41.195,-10.612 41.13,-10.596 41.065,-10.596Z" style="fill-rule:nonzero;"/>
        </g>
        <g id="Heavy-S" transform="matrix(1,0,0,1,2596.31,696)">
            <path d="M40.381,6.348C42.204,6.348 43.701,5.786 44.873,4.663C46.045,3.54 47.282,2.1 48.584,0.342L70.606,-28.955C71.484,-30.127 72.095,-31.226 72.437,-32.251C72.778,-33.276 72.949,-34.277 72.949,-35.254C72.949,-36.263 72.778,-37.272 72.437,-38.281C72.095,-39.29 71.484,-40.381 70.606,-41.553L48.584,-70.85C47.282,-72.64 46.045,-74.089 44.873,-75.195C43.701,-76.302 42.204,-76.856 40.381,-76.856C38.558,-76.856 37.061,-76.302 35.889,-75.195C34.717,-74.089 33.48,-72.64 32.178,-70.85L10.156,-41.553C9.277,-40.381 8.667,-39.29 8.325,-38.281C7.983,-37.272 7.813,-36.263 7.813,-35.254C7.813,-34.277 7.983,-33.276 8.325,-32.251C8.667,-31.226 9.277,-30.127 10.156,-28.955L32.178,0.342C33.48,2.1 34.717,3.54 35.889,4.663C37.061,5.786 38.558,6.348 40.381,6.348ZM40.381,-9.229C40.316,-9.229 40.259,-9.245 40.21,-9.277C40.161,-9.31 40.12,-9.359 40.088,-9.424L21.484,-34.326C21.257,-34.619 21.143,-34.928 21.143,-35.254C21.143,-35.579 21.257,-35.889 21.484,-36.182L40.088,-61.084C40.12,-61.149 40.161,-61.198 40.21,-61.231C40.259,-61.263 40.316,-61.279 40.381,-61.279C40.446,-61.279 40.511,-61.263 40.576,-61.231C40.641,-61.198 40.69,-61.149 40.723,-61.084L59.277,-36.182C59.505,-35.889 59.619,-35.579 59.619,-35.254C59.619,-34.928 59.505,-34.619 59.277,-34.326L40.723,-9.424C40.69,-9.359 40.641,-9.31 40.576,-9.277C40.511,-9.245 40.446,-9.229 40.381,-9.229Z" style="fill-rule:nonzero;"/>
        </g>
        <g id="Bold-S" transform="matrix(1,0,0,1,2300.35,696)">
            <path d="M39.648,5.762C41.211,5.762 42.513,5.257 43.555,4.248C44.596,3.239 45.752,1.888 47.022,0.195L69.287,-29.492C70.068,-30.501 70.622,-31.486 70.947,-32.446C71.273,-33.407 71.436,-34.342 71.436,-35.254C71.436,-36.198 71.273,-37.142 70.947,-38.086C70.622,-39.03 70.068,-40.023 69.287,-41.065L47.022,-70.703C45.752,-72.396 44.596,-73.747 43.555,-74.756C42.513,-75.765 41.211,-76.269 39.648,-76.269C38.053,-76.269 36.743,-75.765 35.718,-74.756C34.692,-73.747 33.545,-72.396 32.275,-70.703L10.01,-41.065C9.229,-40.023 8.667,-39.03 8.325,-38.086C7.983,-37.142 7.813,-36.198 7.813,-35.254C7.813,-34.342 7.983,-33.407 8.325,-32.446C8.667,-31.486 9.229,-30.501 10.01,-29.492L32.275,0.195C33.545,1.888 34.692,3.239 35.718,4.248C36.743,5.257 38.053,5.762 39.648,5.762ZM39.648,-7.666C39.583,-7.666 39.526,-7.682 39.478,-7.715C39.429,-7.747 39.388,-7.796 39.356,-7.861L19.629,-34.326C19.401,-34.619 19.287,-34.928 19.287,-35.254C19.287,-35.612 19.401,-35.938 19.629,-36.231L39.356,-62.647C39.388,-62.712 39.429,-62.76 39.478,-62.793C39.526,-62.826 39.583,-62.842 39.648,-62.842C39.714,-62.842 39.771,-62.826 39.819,-62.793C39.868,-62.76 39.909,-62.712 39.941,-62.647L59.668,-36.231C59.896,-35.938 60.01,-35.612 60.01,-35.254C60.01,-34.928 59.896,-34.619 59.668,-34.326L39.941,-7.861C39.909,-7.796 39.868,-7.747 39.819,-7.715C39.771,-7.682 39.714,-7.666 39.648,-7.666Z" style="fill-rule:nonzero;"/>
        </g>
        <g id="Semibold-S" transform="matrix(1,0,0,1,2004.16,696)">
            <path d="M39.111,5.322C40.511,5.322 41.691,4.858 42.651,3.931C43.612,3.003 44.71,1.709 45.947,0.049L68.359,-29.834C69.076,-30.745 69.596,-31.649 69.922,-32.544C70.247,-33.439 70.41,-34.342 70.41,-35.254C70.41,-36.165 70.247,-37.069 69.922,-37.964C69.596,-38.859 69.076,-39.762 68.359,-40.674L45.947,-70.557C44.71,-72.217 43.612,-73.511 42.651,-74.439C41.691,-75.366 40.511,-75.83 39.111,-75.83C37.679,-75.83 36.499,-75.366 35.571,-74.439C34.644,-73.511 33.545,-72.217 32.275,-70.557L9.863,-40.674C9.147,-39.762 8.626,-38.859 8.301,-37.964C7.975,-37.069 7.813,-36.165 7.813,-35.254C7.813,-34.342 7.975,-33.439 8.301,-32.544C8.626,-31.649 9.147,-30.745 9.863,-29.834L32.275,0.049C33.545,1.709 34.644,3.003 35.571,3.931C36.499,4.858 37.679,5.322 39.111,5.322ZM39.111,-6.592C39.046,-6.592 38.989,-6.608 38.94,-6.641C38.892,-6.673 38.851,-6.722 38.818,-6.787L18.311,-34.277C18.083,-34.57 17.969,-34.896 17.969,-35.254C17.969,-35.612 18.083,-35.938 18.311,-36.231L38.818,-63.721C38.851,-63.786 38.892,-63.835 38.94,-63.867C38.989,-63.9 39.046,-63.916 39.111,-63.916C39.176,-63.916 39.225,-63.9 39.258,-63.867C39.29,-63.835 39.323,-63.786 39.356,-63.721L59.863,-36.231C60.124,-35.938 60.254,-35.612 60.254,-35.254C60.254,-34.896 60.124,-34.57 59.863,-34.277L39.356,-6.787C39.323,-6.722 39.29,-6.673 39.258,-6.641C39.225,-6.608 39.176,-6.592 39.111,-6.592Z" style="fill-rule:nonzero;"/>
        </g>
        <g id="Medium-S" transform="matrix(1,0,0,1,1707.86,696)">
            <path d="M38.721,4.98C39.99,4.98 41.064,4.549 41.943,3.687C42.822,2.824 43.88,1.579 45.117,-0.049L67.676,-30.127C68.327,-30.973 68.807,-31.82 69.116,-32.666C69.425,-33.512 69.58,-34.375 69.58,-35.254C69.58,-36.133 69.425,-36.995 69.116,-37.842C68.807,-38.688 68.327,-39.535 67.676,-40.381L45.117,-70.459C43.88,-72.087 42.822,-73.332 41.943,-74.194C41.064,-75.057 39.99,-75.488 38.721,-75.488C37.419,-75.488 36.336,-75.057 35.474,-74.194C34.611,-73.332 33.561,-72.087 32.324,-70.459L9.766,-40.381C9.115,-39.535 8.626,-38.688 8.301,-37.842C7.975,-36.995 7.813,-36.133 7.813,-35.254C7.813,-34.375 7.975,-33.512 8.301,-32.666C8.626,-31.82 9.115,-30.973 9.766,-30.127L32.324,-0.049C33.561,1.579 34.611,2.824 35.474,3.687C36.336,4.549 37.419,4.98 38.721,4.98ZM38.721,-5.811C38.656,-5.811 38.599,-5.827 38.55,-5.859C38.501,-5.892 38.46,-5.941 38.428,-6.006L17.334,-34.277C17.074,-34.57 16.943,-34.896 16.943,-35.254C16.943,-35.612 17.074,-35.938 17.334,-36.231L38.428,-64.502C38.46,-64.567 38.501,-64.616 38.55,-64.648C38.599,-64.681 38.656,-64.697 38.721,-64.697C38.786,-64.697 38.835,-64.681 38.867,-64.648C38.9,-64.616 38.932,-64.567 38.965,-64.502L60.059,-36.231C60.319,-35.938 60.449,-35.612 60.449,-35.254C60.449,-34.896 60.319,-34.57 60.059,-34.277L38.965,-6.006C38.932,-5.941 38.9,-5.892 38.867,-5.859C38.835,-5.827 38.786,-5.811 38.721,-5.811Z" style="fill-rule:nonzero;"/>
        </g>
        <g id="Regular-S" transform="matrix(1,0,0,1,1411.66,696)">
            <path d="M38.184,4.541C39.323,4.541 40.283,4.15 41.065,3.369C41.846,2.588 42.839,1.4 44.043,-0.195L66.748,-30.469C67.334,-31.217 67.782,-31.991 68.091,-32.788C68.4,-33.586 68.555,-34.408 68.555,-35.254C68.555,-36.1 68.4,-36.922 68.091,-37.72C67.782,-38.517 67.334,-39.29 66.748,-40.039L44.043,-70.313C42.839,-71.908 41.846,-73.096 41.065,-73.877C40.283,-74.658 39.323,-75.049 38.184,-75.049C37.044,-75.049 36.092,-74.658 35.327,-73.877C34.562,-73.096 33.577,-71.908 32.373,-70.313L9.619,-40.039C9.033,-39.29 8.586,-38.517 8.276,-37.72C7.967,-36.922 7.813,-36.1 7.813,-35.254C7.813,-34.408 7.967,-33.586 8.276,-32.788C8.586,-31.991 9.033,-31.217 9.619,-30.469L32.373,-0.195C33.577,1.4 34.562,2.588 35.327,3.369C36.092,4.15 37.044,4.541 38.184,4.541ZM38.184,-4.736C38.118,-4.736 38.07,-4.753 38.037,-4.785C38.005,-4.818 37.972,-4.867 37.94,-4.932L16.064,-34.228C15.804,-34.554 15.674,-34.896 15.674,-35.254C15.674,-35.612 15.804,-35.954 16.064,-36.279L37.94,-65.576C37.972,-65.641 38.005,-65.69 38.037,-65.723C38.07,-65.755 38.118,-65.772 38.184,-65.772C38.249,-65.772 38.298,-65.755 38.33,-65.723C38.363,-65.69 38.395,-65.641 38.428,-65.576L60.303,-36.279C60.563,-35.954 60.693,-35.612 60.693,-35.254C60.693,-34.896 60.563,-34.554 60.303,-34.228L38.428,-4.932C38.395,-4.867 38.363,-4.818 38.33,-4.785C38.298,-4.753 38.249,-4.736 38.184,-4.736Z" style="fill-rule:nonzero;"/>
        </g>
        <g id="Light-S" transform="matrix(1,0,0,1,1116.05,696)">
            <path d="M37.061,3.369C38.037,3.369 38.851,3.044 39.502,2.393C40.153,1.742 40.967,0.765 41.943,-0.537L64.844,-31.25C65.332,-31.901 65.706,-32.552 65.967,-33.203C66.227,-33.854 66.357,-34.538 66.357,-35.254C66.357,-35.97 66.227,-36.654 65.967,-37.305C65.706,-37.956 65.332,-38.607 64.844,-39.258L41.943,-69.971C40.967,-71.273 40.153,-72.249 39.502,-72.9C38.851,-73.551 38.037,-73.877 37.061,-73.877C36.117,-73.877 35.319,-73.551 34.668,-72.9C34.017,-72.249 33.219,-71.273 32.275,-69.971L9.326,-39.258C8.838,-38.607 8.464,-37.956 8.203,-37.305C7.943,-36.654 7.813,-35.97 7.813,-35.254C7.813,-34.538 7.943,-33.854 8.203,-33.203C8.464,-32.552 8.838,-31.901 9.326,-31.25L32.275,-0.537C33.219,0.765 34.017,1.742 34.668,2.393C35.319,3.044 36.117,3.369 37.061,3.369ZM37.061,-3.662C36.963,-3.662 36.882,-3.703 36.816,-3.784C36.751,-3.866 36.67,-3.955 36.572,-4.053L14.209,-34.18C13.949,-34.538 13.818,-34.896 13.818,-35.254C13.818,-35.612 13.949,-35.97 14.209,-36.328L36.572,-66.455C36.67,-66.553 36.751,-66.642 36.816,-66.724C36.882,-66.805 36.963,-66.846 37.061,-66.846C37.191,-66.846 37.288,-66.805 37.353,-66.724C37.419,-66.642 37.5,-66.553 37.598,-66.455L59.961,-36.328C60.221,-35.97 60.352,-35.612 60.352,-35.254C60.352,-34.896 60.221,-34.538 59.961,-34.18L37.598,-4.053C37.5,-3.955 37.419,-3.866 37.353,-3.784C37.288,-3.703 37.191,-3.662 37.061,-3.662Z" style="fill-rule:nonzero;"/>
        </g>
        <g id="Thin-S" transform="matrix(1,0,0,1,820.778,696)">
            <path d="M35.596,1.855C36.377,1.855 37.004,1.611 37.476,1.123C37.948,0.635 38.525,-0.049 39.209,-0.928L62.305,-32.275C62.728,-32.796 63.029,-33.293 63.208,-33.765C63.387,-34.237 63.477,-34.733 63.477,-35.254C63.477,-35.775 63.387,-36.271 63.208,-36.743C63.029,-37.215 62.728,-37.712 62.305,-38.232L39.209,-69.58C38.525,-70.459 37.948,-71.143 37.476,-71.631C37.004,-72.119 36.377,-72.363 35.596,-72.363C34.88,-72.363 34.286,-72.119 33.814,-71.631C33.341,-71.143 32.764,-70.459 32.08,-69.58L8.936,-38.232C8.545,-37.712 8.26,-37.215 8.081,-36.743C7.902,-36.271 7.813,-35.775 7.813,-35.254C7.813,-34.733 7.902,-34.237 8.081,-33.765C8.26,-33.293 8.545,-32.796 8.936,-32.275L32.08,-0.928C32.764,-0.049 33.341,0.635 33.814,1.123C34.286,1.611 34.88,1.855 35.596,1.855ZM35.596,-2.246C35.433,-2.246 35.295,-2.311 35.181,-2.441C35.067,-2.572 34.945,-2.718 34.815,-2.881L11.768,-34.18C11.507,-34.505 11.377,-34.863 11.377,-35.254C11.377,-35.645 11.507,-36.003 11.768,-36.328L34.815,-67.627C34.945,-67.79 35.067,-67.936 35.181,-68.066C35.295,-68.197 35.433,-68.262 35.596,-68.262C35.824,-68.262 35.994,-68.197 36.108,-68.066C36.222,-67.936 36.344,-67.79 36.475,-67.627L59.473,-36.328C59.733,-36.003 59.863,-35.645 59.863,-35.254C59.863,-34.863 59.733,-34.505 59.473,-34.18L36.475,-2.881C36.344,-2.718 36.222,-2.572 36.108,-2.441C35.994,-2.311 35.824,-2.246 35.596,-2.246Z" style="fill-rule:nonzero;"/>
        </g>
        <g id="Ultralight-S" transform="matrix(1,0,0,1,524.823,696)">
            <path d="M34.863,1.074C35.514,1.074 36.035,0.871 36.426,0.464C36.816,0.057 37.272,-0.488 37.793,-1.172L61.035,-32.764C61.361,-33.219 61.597,-33.643 61.743,-34.033C61.89,-34.424 61.963,-34.831 61.963,-35.254C61.963,-35.677 61.89,-36.084 61.743,-36.475C61.597,-36.865 61.361,-37.288 61.035,-37.744L37.793,-69.336C37.272,-70.019 36.816,-70.565 36.426,-70.972C36.035,-71.379 35.514,-71.582 34.863,-71.582C34.245,-71.582 33.74,-71.379 33.35,-70.972C32.959,-70.565 32.52,-70.019 32.031,-69.336L8.74,-37.744C8.415,-37.288 8.179,-36.865 8.032,-36.475C7.886,-36.084 7.813,-35.677 7.813,-35.254C7.813,-34.831 7.886,-34.424 8.032,-34.033C8.179,-33.643 8.415,-33.219 8.74,-32.764L32.031,-1.172C32.52,-0.488 32.959,0.057 33.35,0.464C33.74,0.871 34.245,1.074 34.863,1.074ZM34.863,-1.514C34.635,-1.514 34.456,-1.595 34.326,-1.758C34.196,-1.921 34.049,-2.1 33.887,-2.295L10.547,-34.131C10.286,-34.489 10.156,-34.863 10.156,-35.254C10.156,-35.645 10.286,-36.019 10.547,-36.377L33.887,-68.213C34.049,-68.408 34.196,-68.587 34.326,-68.75C34.456,-68.913 34.635,-68.994 34.863,-68.994C35.124,-68.994 35.319,-68.913 35.449,-68.75C35.579,-68.587 35.726,-68.408 35.889,-68.213L59.228,-36.377C59.489,-36.019 59.619,-35.645 59.619,-35.254C59.619,-34.863 59.489,-34.489 59.228,-34.131L35.889,-2.295C35.726,-2.1 35.579,-1.921 35.449,-1.758C35.319,-1.595 35.124,-1.514 34.863,-1.514Z" style="fill-rule:nonzero;"/>
        </g>
    </g>
</svg>
