<?xml version="1.0" encoding="UTF-8" standalone="no"?>
<!DOCTYPE svg PUBLIC "-//W3C//DTD SVG 1.1//EN" "http://www.w3.org/Graphics/SVG/1.1/DTD/svg11.dtd">
<svg width="100%" height="100%" viewBox="0 0 3300 2200" version="1.1" xmlns="http://www.w3.org/2000/svg" xmlns:xlink="http://www.w3.org/1999/xlink" xml:space="preserve" xmlns:serif="http://www.serif.com/" style="fill-rule:evenodd;clip-rule:evenodd;">
    <g id="Notes">
        <rect id="artboard" x="0" y="0" width="3300" height="2200" style="fill:white;"/>
        <path d="M263,292L3036,292" style="fill:none;fill-rule:nonzero;stroke:black;stroke-width:0.5px;"/>
        <g transform="matrix(1,0,0,1,263,322)">
            <text x="0px" y="0px" style="font-family:'LucidaGrande-Bold', 'Lucida Grande', sans-serif;font-weight:600;font-size:13px;">Weight/Scale Variations</text>
        </g>
        <g transform="matrix(1,0,0,1,530.372,322)">
            <text x="0px" y="0px" style="font-family:'LucidaGrande', 'Lucida Grande', sans-serif;font-weight:500;font-size:13px;">Ultralight</text>
        </g>
        <g transform="matrix(1,0,0,1,842.365,322)">
            <text x="0px" y="0px" style="font-family:'LucidaGrande', 'Lucida Grande', sans-serif;font-weight:500;font-size:13px;">Thin</text>
        </g>
        <g transform="matrix(1,0,0,1,1137.27,322)">
            <text x="0px" y="0px" style="font-family:'LucidaGrande', 'Lucida Grande', sans-serif;font-weight:500;font-size:13px;">Light</text>
        </g>
        <g transform="matrix(1,0,0,1,1425.89,322)">
            <text x="0px" y="0px" style="font-family:'LucidaGrande', 'Lucida Grande', sans-serif;font-weight:500;font-size:13px;">Regular</text>
        </g>
        <g transform="matrix(1,0,0,1,1721.27,322)">
            <text x="0px" y="0px" style="font-family:'LucidaGrande', 'Lucida Grande', sans-serif;font-weight:500;font-size:13px;">Medium</text>
        </g>
        <g transform="matrix(1,0,0,1,2014.15,322)">
            <text x="0px" y="0px" style="font-family:'LucidaGrande', 'Lucida Grande', sans-serif;font-weight:500;font-size:13px;">Semibold</text>
        </g>
        <g transform="matrix(1,0,0,1,2326.28,322)">
            <text x="0px" y="0px" style="font-family:'LucidaGrande', 'Lucida Grande', sans-serif;font-weight:500;font-size:13px;">Bold</text>
        </g>
        <g transform="matrix(1,0,0,1,2617.94,322)">
            <text x="0px" y="0px" style="font-family:'LucidaGrande', 'Lucida Grande', sans-serif;font-weight:500;font-size:13px;">Heavy</text>
        </g>
        <g transform="matrix(1,0,0,1,2917.06,322)">
            <text x="0px" y="0px" style="font-family:'LucidaGrande', 'Lucida Grande', sans-serif;font-weight:500;font-size:13px;">Black</text>
        </g>
        <path d="M263,1903L3036,1903" style="fill:none;fill-rule:nonzero;stroke:black;stroke-width:0.5px;"/>
        <g transform="matrix(1,0,0,1,263,1933)">
            <path d="M9.248,0.83C10.329,0.83 11.344,0.625 12.295,0.215C13.245,-0.195 14.084,-0.765 14.81,-1.494C15.535,-2.223 16.105,-3.063 16.519,-4.014C16.932,-4.964 17.139,-5.977 17.139,-7.051C17.139,-8.125 16.932,-9.137 16.519,-10.088C16.105,-11.038 15.534,-11.878 14.805,-12.607C14.076,-13.337 13.236,-13.906 12.285,-14.316C11.335,-14.727 10.319,-14.932 9.238,-14.932C8.164,-14.932 7.152,-14.727 6.201,-14.316C5.251,-13.906 4.414,-13.337 3.691,-12.607C2.969,-11.878 2.401,-11.038 1.987,-10.088C1.574,-9.137 1.367,-8.125 1.367,-7.051C1.367,-5.977 1.574,-4.964 1.987,-4.014C2.401,-3.063 2.97,-2.223 3.696,-1.494C4.422,-0.765 5.26,-0.195 6.211,0.215C7.161,0.625 8.174,0.83 9.248,0.83ZM9.248,-0.654C8.363,-0.654 7.534,-0.819 6.763,-1.147C5.991,-1.476 5.314,-1.934 4.731,-2.52C4.149,-3.105 3.693,-3.786 3.364,-4.561C3.035,-5.335 2.871,-6.165 2.871,-7.051C2.871,-7.936 3.034,-8.766 3.359,-9.541C3.685,-10.316 4.139,-10.996 4.722,-11.582C5.304,-12.168 5.981,-12.625 6.753,-12.954C7.524,-13.283 8.353,-13.447 9.238,-13.447C10.13,-13.447 10.962,-13.283 11.733,-12.954C12.505,-12.625 13.184,-12.168 13.77,-11.582C14.355,-10.996 14.814,-10.316 15.147,-9.541C15.479,-8.766 15.645,-7.936 15.645,-7.051C15.645,-6.165 15.48,-5.335 15.151,-4.561C14.823,-3.786 14.367,-3.105 13.784,-2.52C13.202,-1.934 12.523,-1.476 11.748,-1.147C10.973,-0.819 10.14,-0.654 9.248,-0.654ZM5.654,-7.051C5.654,-6.836 5.723,-6.662 5.859,-6.528C5.996,-6.395 6.178,-6.328 6.406,-6.328L8.516,-6.328L8.516,-4.209C8.516,-3.994 8.581,-3.817 8.711,-3.677C8.841,-3.537 9.017,-3.467 9.238,-3.467C9.453,-3.467 9.631,-3.537 9.771,-3.677C9.91,-3.817 9.98,-3.994 9.98,-4.209L9.98,-6.328L12.09,-6.328C12.311,-6.328 12.49,-6.395 12.627,-6.528C12.764,-6.662 12.832,-6.836 12.832,-7.051C12.832,-7.272 12.764,-7.451 12.627,-7.588C12.49,-7.725 12.311,-7.793 12.09,-7.793L9.98,-7.793L9.98,-9.902C9.98,-10.124 9.91,-10.304 9.771,-10.444C9.631,-10.584 9.453,-10.654 9.238,-10.654C9.017,-10.654 8.841,-10.584 8.711,-10.444C8.581,-10.304 8.516,-10.124 8.516,-9.902L8.516,-7.793L6.406,-7.793C6.178,-7.793 5.996,-7.725 5.859,-7.588C5.723,-7.451 5.654,-7.272 5.654,-7.051Z" style="fill-rule:nonzero;"/>
        </g>
        <g transform="matrix(1,0,0,1,281.867,1933)">
            <path d="M11.709,2.91C13.07,2.91 14.351,2.65 15.552,2.129C16.753,1.608 17.813,0.889 18.731,-0.029C19.648,-0.947 20.368,-2.007 20.889,-3.208C21.409,-4.409 21.67,-5.69 21.67,-7.051C21.67,-8.411 21.409,-9.692 20.889,-10.894C20.368,-12.095 19.648,-13.154 18.731,-14.072C17.813,-14.99 16.751,-15.71 15.547,-16.23C14.342,-16.751 13.06,-17.012 11.699,-17.012C10.339,-17.012 9.058,-16.751 7.856,-16.23C6.655,-15.71 5.597,-14.99 4.683,-14.072C3.768,-13.154 3.05,-12.095 2.529,-10.894C2.008,-9.692 1.748,-8.411 1.748,-7.051C1.748,-5.69 2.008,-4.409 2.529,-3.208C3.05,-2.007 3.77,-0.947 4.688,-0.029C5.605,0.889 6.665,1.608 7.866,2.129C9.067,2.65 10.348,2.91 11.709,2.91ZM11.709,1.25C10.557,1.25 9.479,1.035 8.477,0.605C7.474,0.176 6.593,-0.418 5.835,-1.177C5.076,-1.935 4.484,-2.816 4.058,-3.818C3.631,-4.821 3.418,-5.898 3.418,-7.051C3.418,-8.203 3.631,-9.281 4.058,-10.283C4.484,-11.286 5.075,-12.168 5.83,-12.93C6.585,-13.691 7.464,-14.286 8.467,-14.712C9.469,-15.138 10.547,-15.352 11.699,-15.352C12.852,-15.352 13.929,-15.138 14.932,-14.712C15.934,-14.286 16.816,-13.691 17.578,-12.93C18.34,-12.168 18.936,-11.286 19.365,-10.283C19.795,-9.281 20.01,-8.203 20.01,-7.051C20.01,-5.898 19.797,-4.821 19.37,-3.818C18.944,-2.816 18.351,-1.935 17.593,-1.177C16.834,-0.418 15.952,0.176 14.946,0.605C13.94,1.035 12.861,1.25 11.709,1.25ZM7.178,-7.051C7.178,-6.816 7.256,-6.624 7.412,-6.475C7.568,-6.325 7.77,-6.25 8.018,-6.25L10.889,-6.25L10.889,-3.369C10.889,-3.122 10.964,-2.922 11.113,-2.769C11.263,-2.616 11.455,-2.539 11.69,-2.539C11.937,-2.539 12.137,-2.616 12.29,-2.769C12.443,-2.922 12.52,-3.122 12.52,-3.369L12.52,-6.25L15.4,-6.25C15.648,-6.25 15.848,-6.325 16.001,-6.475C16.154,-6.624 16.23,-6.816 16.23,-7.051C16.23,-7.298 16.154,-7.498 16.001,-7.651C15.848,-7.804 15.648,-7.881 15.4,-7.881L12.52,-7.881L12.52,-10.752C12.52,-11.006 12.443,-11.209 12.29,-11.362C12.137,-11.515 11.937,-11.592 11.69,-11.592C11.455,-11.592 11.263,-11.514 11.113,-11.357C10.964,-11.201 10.889,-10.999 10.889,-10.752L10.889,-7.881L8.018,-7.881C7.764,-7.881 7.56,-7.804 7.407,-7.651C7.254,-7.498 7.178,-7.298 7.178,-7.051Z" style="fill-rule:nonzero;"/>
        </g>
        <g transform="matrix(1,0,0,1,305.646,1933)">
            <path d="M14.971,5.664C16.364,5.664 17.694,5.448 18.96,5.015C20.226,4.582 21.39,3.975 22.451,3.193C23.512,2.412 24.435,1.491 25.22,0.43C26.004,-0.632 26.613,-1.797 27.046,-3.066C27.479,-4.336 27.695,-5.664 27.695,-7.051C27.695,-8.444 27.479,-9.774 27.046,-11.04C26.613,-12.306 26.004,-13.47 25.22,-14.531C24.435,-15.592 23.512,-16.515 22.451,-17.3C21.39,-18.084 20.225,-18.693 18.955,-19.126C17.686,-19.559 16.354,-19.775 14.961,-19.775C13.568,-19.775 12.238,-19.559 10.972,-19.126C9.705,-18.693 8.543,-18.084 7.485,-17.3C6.427,-16.515 5.506,-15.592 4.722,-14.531C3.937,-13.47 3.33,-12.306 2.9,-11.04C2.471,-9.774 2.256,-8.444 2.256,-7.051C2.256,-5.664 2.472,-4.336 2.905,-3.066C3.338,-1.797 3.945,-0.632 4.727,0.43C5.508,1.491 6.429,2.412 7.49,3.193C8.551,3.975 9.715,4.582 10.981,5.015C12.248,5.448 13.578,5.664 14.971,5.664ZM14.971,3.848C13.766,3.848 12.619,3.664 11.528,3.296C10.438,2.928 9.44,2.412 8.535,1.748C7.63,1.084 6.844,0.298 6.177,-0.61C5.509,-1.519 4.993,-2.518 4.629,-3.608C4.264,-4.699 4.082,-5.846 4.082,-7.051C4.082,-8.262 4.264,-9.412 4.629,-10.503C4.993,-11.593 5.508,-12.593 6.172,-13.501C6.836,-14.409 7.62,-15.195 8.525,-15.859C9.43,-16.523 10.428,-17.038 11.519,-17.402C12.609,-17.767 13.756,-17.949 14.961,-17.949C16.172,-17.949 17.323,-17.767 18.413,-17.402C19.504,-17.038 20.503,-16.523 21.411,-15.859C22.319,-15.195 23.105,-14.409 23.77,-13.501C24.434,-12.593 24.95,-11.593 25.317,-10.503C25.685,-9.412 25.869,-8.262 25.869,-7.051C25.876,-5.846 25.697,-4.699 25.332,-3.608C24.967,-2.518 24.452,-1.519 23.784,-0.61C23.117,0.298 22.329,1.084 21.421,1.748C20.513,2.412 19.513,2.928 18.423,3.296C17.332,3.664 16.182,3.848 14.971,3.848ZM9.199,-7.051C9.199,-6.797 9.285,-6.587 9.458,-6.421C9.631,-6.255 9.85,-6.172 10.117,-6.172L14.063,-6.172L14.063,-2.217C14.063,-1.95 14.146,-1.73 14.312,-1.558C14.477,-1.385 14.691,-1.299 14.951,-1.299C15.218,-1.299 15.438,-1.383 15.61,-1.553C15.783,-1.722 15.869,-1.943 15.869,-2.217L15.869,-6.172L19.824,-6.172C20.091,-6.172 20.309,-6.255 20.479,-6.421C20.648,-6.587 20.732,-6.797 20.732,-7.051C20.732,-7.324 20.648,-7.546 20.479,-7.715C20.309,-7.884 20.091,-7.969 19.824,-7.969L15.869,-7.969L15.869,-11.914C15.869,-12.188 15.783,-12.41 15.61,-12.583C15.438,-12.756 15.218,-12.842 14.951,-12.842C14.691,-12.842 14.477,-12.756 14.312,-12.583C14.146,-12.41 14.063,-12.188 14.063,-11.914L14.063,-7.969L10.117,-7.969C9.844,-7.969 9.622,-7.884 9.453,-7.715C9.284,-7.546 9.199,-7.324 9.199,-7.051Z" style="fill-rule:nonzero;"/>
        </g>
        <g transform="matrix(1,0,0,1,263,1953)">
            <text x="0px" y="0px" style="font-family:'LucidaGrande-Bold', 'Lucida Grande', sans-serif;font-weight:600;font-size:13px;">Design Variations</text>
        </g>
        <g transform="matrix(1,0,0,1,263,1971)">
            <text x="0px" y="0px" style="font-family:'LucidaGrande', 'Lucida Grande', sans-serif;font-weight:500;font-size:13px;">Symbols are supported in up to nine weights and three scales.</text>
        </g>
        <g transform="matrix(1,0,0,1,263,1989)">
            <text x="0px" y="0px" style="font-family:'LucidaGrande', 'Lucida Grande', sans-serif;font-weight:500;font-size:13px;">For optimal layout with text and other symbols, vertically align</text>
        </g>
        <g transform="matrix(1,0,0,1,263,2007)">
            <text x="0px" y="0px" style="font-family:'LucidaGrande', 'Lucida Grande', sans-serif;font-weight:500;font-size:13px;">symbols with the adjacent text.</text>
        </g>
        <path d="M776,1919L776,1933" style="fill:none;fill-rule:nonzero;stroke:rgb(0,174,239);stroke-width:0.5px;"/>
        <g transform="matrix(1,0,0,1,776,1933)">
            <path d="M3.311,0.156C3.571,0.156 3.773,0.101 3.916,-0.01C4.059,-0.12 4.176,-0.313 4.268,-0.586L5.527,-4.033L11.289,-4.033L12.549,-0.586C12.64,-0.313 12.757,-0.12 12.9,-0.01C13.044,0.101 13.242,0.156 13.496,0.156C13.756,0.156 13.963,0.085 14.116,-0.059C14.269,-0.202 14.346,-0.397 14.346,-0.645C14.346,-0.794 14.31,-0.97 14.238,-1.172L9.658,-13.369C9.541,-13.669 9.382,-13.893 9.18,-14.043C8.978,-14.193 8.721,-14.268 8.408,-14.268C7.803,-14.268 7.393,-13.971 7.178,-13.379L2.598,-1.162C2.526,-0.96 2.49,-0.785 2.49,-0.635C2.49,-0.387 2.563,-0.194 2.71,-0.054C2.856,0.086 3.057,0.156 3.311,0.156ZM6.006,-5.518L8.379,-12.09L8.428,-12.09L10.801,-5.518L6.006,-5.518Z" style="fill-rule:nonzero;"/>
        </g>
        <path d="M793.197,1919L793.197,1933" style="fill:none;fill-rule:nonzero;stroke:rgb(0,174,239);stroke-width:0.5px;"/>
        <g transform="matrix(1,0,0,1,776,1953)">
            <text x="0px" y="0px" style="font-family:'LucidaGrande-Bold', 'Lucida Grande', sans-serif;font-weight:600;font-size:13px;">Margins</text>
        </g>
        <g transform="matrix(1,0,0,1,776,1971)">
            <text x="0px" y="0px" style="font-family:'LucidaGrande', 'Lucida Grande', sans-serif;font-weight:500;font-size:13px;">Leading and trailing margins on the left and right side of each symbol</text>
        </g>
        <g transform="matrix(1,0,0,1,776,1989)">
            <text x="0px" y="0px" style="font-family:'LucidaGrande', 'Lucida Grande', sans-serif;font-weight:500;font-size:13px;">can be adjusted by modifying the x-location of the margin guidelines.</text>
        </g>
        <g transform="matrix(1,0,0,1,776,2007)">
            <text x="0px" y="0px" style="font-family:'LucidaGrande', 'Lucida Grande', sans-serif;font-weight:500;font-size:13px;">Modiﬁcations are automatically applied proportionally to all</text>
        </g>
        <g transform="matrix(1,0,0,1,776,2025)">
            <text x="0px" y="0px" style="font-family:'LucidaGrande', 'Lucida Grande', sans-serif;font-weight:500;font-size:13px;">scales and weights.</text>
        </g>
        <g transform="matrix(1,0,0,1,1289,1933)">
            <path d="M2.842,1.865L4.541,3.574C4.971,4.01 5.425,4.212 5.903,4.18C6.382,4.147 6.852,3.874 7.314,3.359L18.008,-8.428L17.041,-9.404L6.426,2.275C6.25,2.477 6.073,2.591 5.894,2.617C5.715,2.643 5.508,2.539 5.273,2.305L4.102,1.143C3.867,0.908 3.765,0.701 3.794,0.522C3.823,0.343 3.939,0.163 4.141,-0.02L15.615,-10.82L14.639,-11.787L3.047,-0.898C2.552,-0.443 2.287,0.023 2.251,0.498C2.215,0.973 2.412,1.429 2.842,1.865ZM9.258,-16.328C9.049,-16.126 8.932,-15.895 8.906,-15.635C8.88,-15.374 8.926,-15.146 9.043,-14.951C9.16,-14.769 9.331,-14.632 9.556,-14.541C9.78,-14.45 10.055,-14.443 10.381,-14.522C11.11,-14.691 11.849,-14.761 12.598,-14.731C13.346,-14.702 14.079,-14.453 14.795,-13.984L14.209,-12.529C14.04,-12.113 13.993,-11.75 14.067,-11.44C14.142,-11.131 14.313,-10.84 14.58,-10.566L16.875,-8.252C17.116,-8.005 17.35,-7.861 17.578,-7.822C17.806,-7.783 18.06,-7.79 18.34,-7.842L19.404,-8.037L20.068,-7.363L20.029,-6.807C20.01,-6.559 20.041,-6.331 20.122,-6.123C20.203,-5.915 20.365,-5.69 20.606,-5.449L21.367,-4.707C21.608,-4.466 21.87,-4.341 22.153,-4.331C22.437,-4.321 22.695,-4.434 22.93,-4.668L25.84,-7.588C26.074,-7.822 26.188,-8.078 26.182,-8.354C26.175,-8.631 26.051,-8.89 25.811,-9.131L25.039,-9.893C24.805,-10.133 24.585,-10.298 24.38,-10.386C24.175,-10.474 23.952,-10.508 23.711,-10.488L23.135,-10.44L22.49,-11.074L22.734,-12.197C22.799,-12.477 22.786,-12.739 22.695,-12.983C22.604,-13.228 22.412,-13.496 22.119,-13.789L19.922,-15.977C19.089,-16.803 18.202,-17.424 17.261,-17.837C16.32,-18.25 15.373,-18.465 14.419,-18.481C13.465,-18.498 12.547,-18.324 11.665,-17.959C10.783,-17.594 9.98,-17.051 9.258,-16.328ZM10.752,-15.957C11.357,-16.4 12.007,-16.716 12.7,-16.904C13.394,-17.093 14.095,-17.153 14.805,-17.085C15.514,-17.017 16.203,-16.826 16.87,-16.514C17.537,-16.201 18.148,-15.765 18.701,-15.205L21.133,-12.793C21.25,-12.676 21.323,-12.562 21.353,-12.451C21.382,-12.341 21.377,-12.201 21.338,-12.031L21.016,-10.547L22.52,-9.063L23.506,-9.121C23.63,-9.128 23.724,-9.119 23.789,-9.097C23.854,-9.074 23.936,-9.014 24.033,-8.916L24.609,-8.34L22.168,-5.898L21.592,-6.475C21.494,-6.572 21.432,-6.654 21.406,-6.719C21.38,-6.784 21.37,-6.882 21.377,-7.012L21.445,-7.988L19.951,-9.473L18.428,-9.219C18.265,-9.186 18.136,-9.181 18.042,-9.204C17.948,-9.227 17.839,-9.297 17.715,-9.414L15.713,-11.416C15.583,-11.533 15.509,-11.646 15.493,-11.753C15.477,-11.86 15.508,-12.005 15.586,-12.188L16.465,-14.277C15.684,-15.007 14.805,-15.511 13.828,-15.791C12.852,-16.071 11.855,-16.061 10.84,-15.762C10.762,-15.742 10.711,-15.757 10.689,-15.806C10.666,-15.855 10.687,-15.905 10.752,-15.957Z" style="fill-rule:nonzero;"/>
        </g>
        <g transform="matrix(1,0,0,1,1289,1953)">
            <text x="0px" y="0px" style="font-family:'LucidaGrande-Bold', 'Lucida Grande', sans-serif;font-weight:600;font-size:13px;">Exporting</text>
        </g>
        <g transform="matrix(1,0,0,1,1289,1971)">
            <text x="0px" y="0px" style="font-family:'LucidaGrande', 'Lucida Grande', sans-serif;font-weight:500;font-size:13px;">Symbols should be outlined when exporting to ensure the</text>
        </g>
        <g transform="matrix(1,0,0,1,1289,1989)">
            <text x="0px" y="0px" style="font-family:'LucidaGrande', 'Lucida Grande', sans-serif;font-weight:500;font-size:13px;">design is preserved when submitting to Xcode.</text>
        </g>
        <g transform="matrix(1,0,0,1,2941.67,1933)">
            <g id="template-version">
                <text x="0px" y="0px" style="font-family:'LucidaGrande', 'Lucida Grande', sans-serif;font-weight:500;font-size:13px;">Template v.3.0</text>
            </g>
        </g>
        <g transform="matrix(1,0,0,1,2851.66,1951)">
            <text x="0px" y="0px" style="font-family:'LucidaGrande', 'Lucida Grande', sans-serif;font-weight:500;font-size:13px;">Requires Xcode 13 or greater</text>
        </g>
        <g transform="matrix(1,0,0,1,2864.52,1969)">
            <g id="descriptive-name">
                <text x="0px" y="0px" style="font-family:'LucidaGrande', 'Lucida Grande', sans-serif;font-weight:500;font-size:13px;">Generated from triangle.ﬁll</text>
            </g>
        </g>
        <g transform="matrix(1,0,0,1,2898.31,1987)">
            <text x="0px" y="0px" style="font-family:'LucidaGrande', 'Lucida Grande', sans-serif;font-weight:500;font-size:13px;">Typeset at 100 points</text>
        </g>
        <g transform="matrix(1,0,0,1,263,726)">
            <text x="0px" y="0px" style="font-family:'LucidaGrande', 'Lucida Grande', sans-serif;font-weight:500;font-size:13px;">Small</text>
        </g>
        <g transform="matrix(1,0,0,1,263,1156)">
            <text x="0px" y="0px" style="font-family:'LucidaGrande', 'Lucida Grande', sans-serif;font-weight:500;font-size:13px;">Medium</text>
        </g>
        <g transform="matrix(1,0,0,1,263,1586)">
            <text x="0px" y="0px" style="font-family:'LucidaGrande', 'Lucida Grande', sans-serif;font-weight:500;font-size:13px;">Large</text>
        </g>
    </g>
    <g id="Guides">
        <g id="H-reference" transform="matrix(1,0,0,1,339,696)">
            <path d="M0.977,0L3.662,0L29.346,-67.139L30.029,-67.139L30.029,-70.459L28.125,-70.459L0.977,0ZM11.67,-24.463L46.973,-24.463L46.24,-26.709L12.451,-26.709L11.67,-24.463ZM55.127,0L57.764,0L30.615,-70.459L29.443,-70.459L29.443,-67.139L55.127,0Z" style="fill:rgb(39,170,225);fill-rule:nonzero;"/>
        </g>
        <path id="Baseline-S" d="M263,696L3036,696" style="fill:none;fill-rule:nonzero;stroke:rgb(39,170,225);stroke-width:0.5px;"/>
        <path id="Capline-S" d="M263,625.541L3036,625.541" style="fill:none;fill-rule:nonzero;stroke:rgb(39,170,225);stroke-width:0.5px;"/>
        <g id="H-reference1" serif:id="H-reference" transform="matrix(1,0,0,1,339,1126)">
            <path d="M0.977,0L3.662,0L29.346,-67.139L30.029,-67.139L30.029,-70.459L28.125,-70.459L0.977,0ZM11.67,-24.463L46.973,-24.463L46.24,-26.709L12.451,-26.709L11.67,-24.463ZM55.127,0L57.764,0L30.615,-70.459L29.443,-70.459L29.443,-67.139L55.127,0Z" style="fill:rgb(39,170,225);fill-rule:nonzero;"/>
        </g>
        <path id="Baseline-M" d="M263,1126L3036,1126" style="fill:none;fill-rule:nonzero;stroke:rgb(39,170,225);stroke-width:0.5px;"/>
        <path id="Capline-M" d="M263,1055.54L3036,1055.54" style="fill:none;fill-rule:nonzero;stroke:rgb(39,170,225);stroke-width:0.5px;"/>
        <g id="H-reference2" serif:id="H-reference" transform="matrix(1,0,0,1,339,1556)">
            <path d="M0.977,0L3.662,0L29.346,-67.139L30.029,-67.139L30.029,-70.459L28.125,-70.459L0.977,0ZM11.67,-24.463L46.973,-24.463L46.24,-26.709L12.451,-26.709L11.67,-24.463ZM55.127,0L57.764,0L30.615,-70.459L29.443,-70.459L29.443,-67.139L55.127,0Z" style="fill:rgb(39,170,225);fill-rule:nonzero;"/>
        </g>
        <path id="Baseline-L" d="M263,1556L3036,1556" style="fill:none;fill-rule:nonzero;stroke:rgb(39,170,225);stroke-width:0.5px;"/>
        <path id="Capline-L" d="M263,1485.54L3036,1485.54" style="fill:none;fill-rule:nonzero;stroke:rgb(39,170,225);stroke-width:0.5px;"/>
        <path id="left-margin-Regular-M" d="M1389.61,1030.79L1389.61,1150.12" style="fill:none;fill-rule:nonzero;stroke:rgb(0,174,239);stroke-width:0.5px;"/>
        <path id="right-margin-Regular-M" d="M1510.07,1030.79L1510.07,1150.12" style="fill:none;fill-rule:nonzero;stroke:rgb(0,174,239);stroke-width:0.5px;"/>
    </g>
    <g id="Symbols">
        <g id="Black-L" transform="matrix(1,0,0,1,2853.05,1556)">
            <path d="M31.152,28.272L129.59,28.272C133.171,28.272 136.328,27.433 139.062,25.757C141.797,24.08 143.937,21.851 145.483,19.067C147.03,16.284 147.803,13.281 147.803,10.059C147.803,8.529 147.599,7.007 147.192,5.493C146.785,3.979 146.191,2.507 145.41,1.074L96.094,-87.305C94.303,-90.56 92.008,-92.952 89.209,-94.482C86.41,-96.012 83.464,-96.777 80.371,-96.777C77.279,-96.777 74.316,-95.996 71.484,-94.434C68.652,-92.871 66.357,-90.495 64.6,-87.305L15.283,1.123C13.688,3.955 12.891,6.934 12.891,10.059C12.891,13.281 13.656,16.284 15.185,19.067C16.716,21.851 18.856,24.08 21.606,25.757C24.357,27.433 27.539,28.272 31.152,28.272Z" style="fill-rule:nonzero;"/>
        </g>
        <g id="Heavy-L" transform="matrix(1,0,0,1,2557,1556)">
            <path d="M30.42,27.246L129.004,27.246C132.455,27.246 135.49,26.44 138.11,24.829C140.731,23.218 142.782,21.086 144.263,18.433C145.744,15.78 146.484,12.891 146.484,9.766C146.484,8.301 146.289,6.836 145.898,5.371C145.507,3.906 144.938,2.49 144.189,1.123L94.824,-87.256C93.099,-90.348 90.894,-92.627 88.208,-94.092C85.522,-95.557 82.699,-96.289 79.736,-96.289C76.742,-96.289 73.885,-95.54 71.167,-94.043C68.449,-92.546 66.26,-90.283 64.6,-87.256L15.185,1.172C13.656,3.906 12.891,6.771 12.891,9.766C12.891,12.891 13.623,15.78 15.088,18.433C16.553,21.086 18.604,23.218 21.24,24.829C23.877,26.44 26.937,27.246 30.42,27.246Z" style="fill-rule:nonzero;"/>
        </g>
        <g id="Bold-L" transform="matrix(1,0,0,1,2261.02,1556)">
            <path d="M29.59,26.123L128.369,26.123C131.69,26.123 134.595,25.358 137.085,23.828C139.575,22.298 141.52,20.264 142.92,17.725C144.32,15.186 145.02,12.419 145.02,9.424C145.02,8.024 144.841,6.632 144.482,5.249C144.124,3.866 143.571,2.523 142.822,1.221L93.359,-87.207C91.764,-90.104 89.673,-92.253 87.085,-93.652C84.497,-95.052 81.803,-95.752 79.004,-95.752C76.172,-95.752 73.454,-95.044 70.85,-93.628C68.245,-92.212 66.146,-90.072 64.551,-87.207L15.088,1.27C13.623,3.906 12.891,6.624 12.891,9.424C12.891,12.419 13.59,15.186 14.99,17.725C16.39,20.264 18.343,22.298 20.85,23.828C23.356,25.358 26.27,26.123 29.59,26.123Z" style="fill-rule:nonzero;"/>
        </g>
        <g id="Semibold-L" transform="matrix(1,0,0,1,1964.82,1556)">
            <path d="M29.004,25.293L127.881,25.293C131.104,25.293 133.928,24.561 136.353,23.096C138.778,21.631 140.657,19.678 141.992,17.236C143.327,14.795 143.994,12.109 143.994,9.18C143.994,7.845 143.823,6.502 143.481,5.151C143.14,3.8 142.611,2.49 141.895,1.221L92.383,-87.158C90.853,-89.925 88.835,-91.984 86.328,-93.335C83.822,-94.686 81.201,-95.361 78.467,-95.361C75.732,-95.361 73.104,-94.678 70.581,-93.311C68.058,-91.943 66.048,-89.893 64.551,-87.158L15.039,1.27C13.607,3.841 12.891,6.478 12.891,9.18C12.891,12.109 13.558,14.795 14.893,17.236C16.227,19.678 18.107,21.631 20.532,23.096C22.957,24.561 25.781,25.293 29.004,25.293Z" style="fill-rule:nonzero;"/>
        </g>
        <g id="Medium-L" transform="matrix(1,0,0,1,1668.5,1556)">
            <path d="M28.613,24.707L127.539,24.707C130.696,24.707 133.447,23.999 135.791,22.583C138.135,21.167 139.958,19.263 141.26,16.87C142.562,14.478 143.213,11.849 143.213,8.984C143.213,7.682 143.05,6.38 142.725,5.078C142.399,3.776 141.878,2.507 141.162,1.27L91.602,-87.109C90.137,-89.779 88.175,-91.781 85.718,-93.115C83.26,-94.45 80.713,-95.117 78.076,-95.117C75.407,-95.117 72.843,-94.442 70.386,-93.091C67.928,-91.74 65.967,-89.746 64.502,-87.109L14.941,1.318C13.574,3.825 12.891,6.38 12.891,8.984C12.891,11.849 13.542,14.478 14.844,16.87C16.146,19.263 17.969,21.167 20.313,22.583C22.656,23.999 25.423,24.707 28.613,24.707Z" style="fill-rule:nonzero;"/>
        </g>
        <g id="Regular-L" transform="matrix(1.28366,0,0,1.28366,-411.257,120.549)">
            <path d="M1420.25,1092.01C1425.11,1092.01 1449.04,1130.29 1446.65,1134.1C1444.26,1137.91 1396.12,1137.71 1393.85,1134.1C1391.59,1130.49 1415.39,1092.01 1420.25,1092.01ZM1479.41,1092.01C1484.27,1092.01 1508.2,1130.29 1505.81,1134.1C1503.42,1137.91 1455.28,1137.71 1453.01,1134.1C1450.74,1130.49 1474.55,1092.01 1479.41,1092.01ZM1449.83,1044.45C1454.68,1044.45 1478.62,1082.74 1476.23,1086.55C1473.84,1090.36 1425.69,1090.16 1423.43,1086.55C1421.16,1082.93 1444.97,1044.45 1449.83,1044.45Z"/>
        </g>
        <g id="Light-L" transform="matrix(1,0,0,1,1075.86,1556)">
            <path d="M27.734,23.486L126.855,23.486C129.818,23.486 132.406,22.803 134.619,21.436C136.832,20.068 138.558,18.254 139.795,15.991C141.032,13.729 141.65,11.263 141.65,8.594C141.65,7.357 141.496,6.12 141.187,4.883C140.878,3.646 140.381,2.441 139.697,1.27L90.088,-86.963C88.688,-89.437 86.833,-91.292 84.522,-92.529C82.21,-93.766 79.801,-94.385 77.295,-94.385C74.788,-94.385 72.371,-93.766 70.044,-92.529C67.716,-91.292 65.869,-89.437 64.502,-86.963L14.795,1.367C13.525,3.678 12.891,6.087 12.891,8.594C12.891,11.263 13.509,13.729 14.746,15.991C15.983,18.254 17.717,20.068 19.946,21.436C22.176,22.803 24.772,23.486 27.734,23.486Z" style="fill-rule:nonzero;"/>
        </g>
        <g id="Thin-L" transform="matrix(1,0,0,1,779.542,1556)">
            <path d="M27.344,22.852L126.514,22.852C129.346,22.852 131.844,22.168 134.009,20.801C136.174,19.434 137.858,17.651 139.062,15.454C140.267,13.257 140.869,10.889 140.869,8.35C140.869,7.178 140.731,5.981 140.454,4.761C140.177,3.54 139.697,2.344 139.014,1.172L89.307,-86.768C88.005,-89.176 86.222,-90.983 83.96,-92.188C81.698,-93.392 79.346,-93.994 76.904,-93.994C74.495,-93.994 72.152,-93.392 69.873,-92.188C67.594,-90.983 65.788,-89.176 64.453,-86.768L14.697,1.318C13.493,3.499 12.891,5.843 12.891,8.35C12.891,10.889 13.509,13.257 14.746,15.454C15.983,17.651 17.684,19.434 19.849,20.801C22.013,22.168 24.512,22.852 27.344,22.852Z" style="fill-rule:nonzero;"/>
        </g>
        <g id="Ultralight-L" transform="matrix(1,0,0,1,483.002,1556)">
            <path d="M27.1,22.559L126.367,22.559C129.134,22.559 131.576,21.875 133.691,20.508C135.807,19.141 137.475,17.375 138.696,15.21C139.917,13.045 140.527,10.726 140.527,8.252C140.527,7.08 140.381,5.892 140.088,4.688C139.795,3.483 139.306,2.295 138.623,1.123L88.965,-86.719C87.63,-89.063 85.856,-90.82 83.643,-91.992C81.429,-93.164 79.118,-93.75 76.709,-93.75C74.365,-93.75 72.062,-93.164 69.8,-91.992C67.537,-90.82 65.755,-89.063 64.453,-86.719L14.6,1.318C13.46,3.402 12.891,5.713 12.891,8.252C12.891,10.726 13.501,13.045 14.722,15.21C15.942,17.375 17.627,19.141 19.775,20.508C21.924,21.875 24.365,22.559 27.1,22.559Z" style="fill-rule:nonzero;"/>
        </g>
        <g id="Black-M" transform="matrix(1,0,0,1,2870.7,1126)">
            <path d="M24.609,14.697L100.83,14.697C103.695,14.697 106.226,14.014 108.423,12.647C110.62,11.279 112.337,9.481 113.574,7.251C114.811,5.021 115.43,2.62 115.43,0.049C115.43,-1.188 115.275,-2.409 114.966,-3.613C114.657,-4.818 114.176,-6.006 113.525,-7.178L75.342,-75.586C73.877,-78.223 72.03,-80.159 69.8,-81.397C67.57,-82.634 65.218,-83.252 62.744,-83.252C60.238,-83.252 57.853,-82.625 55.591,-81.372C53.328,-80.119 51.481,-78.19 50.049,-75.586L11.865,-7.129C10.596,-4.883 9.961,-2.49 9.961,0.049C9.961,2.62 10.588,5.021 11.841,7.251C13.094,9.481 14.819,11.279 17.017,12.647C19.214,14.014 21.745,14.697 24.609,14.697Z" style="fill-rule:nonzero;"/>
        </g>
        <g id="Heavy-M" transform="matrix(1,0,0,1,2574.58,1126)">
            <path d="M23.975,13.818L100.293,13.818C103.06,13.818 105.493,13.167 107.593,11.865C109.692,10.563 111.328,8.846 112.5,6.714C113.672,4.582 114.258,2.279 114.258,-0.195C114.258,-1.4 114.111,-2.572 113.818,-3.711C113.525,-4.85 113.07,-5.99 112.451,-7.129L74.219,-75.586C72.819,-78.06 71.053,-79.891 68.921,-81.079C66.789,-82.267 64.535,-82.861 62.158,-82.861C59.782,-82.861 57.503,-82.259 55.322,-81.055C53.141,-79.85 51.383,-78.027 50.049,-75.586L11.816,-7.08C10.579,-4.899 9.961,-2.604 9.961,-0.195C9.961,2.279 10.555,4.582 11.743,6.714C12.931,8.846 14.575,10.563 16.675,11.865C18.774,13.167 21.208,13.818 23.975,13.818Z" style="fill-rule:nonzero;"/>
        </g>
        <g id="Bold-M" transform="matrix(1,0,0,1,2278.5,1126)">
            <path d="M23.242,12.793L99.707,12.793C102.376,12.793 104.704,12.191 106.689,10.986C108.675,9.782 110.221,8.171 111.328,6.152C112.435,4.134 112.988,1.921 112.988,-0.488C112.988,-1.628 112.842,-2.743 112.549,-3.833C112.256,-4.924 111.816,-5.99 111.23,-7.031L72.949,-75.537C71.647,-77.848 69.979,-79.574 67.944,-80.713C65.91,-81.852 63.77,-82.422 61.523,-82.422C59.245,-82.422 57.072,-81.852 55.005,-80.713C52.938,-79.574 51.27,-77.848 50,-75.537L11.719,-6.982C10.547,-4.899 9.961,-2.734 9.961,-0.488C9.961,1.921 10.522,4.134 11.646,6.152C12.769,8.171 14.323,9.782 16.309,10.986C18.294,12.191 20.605,12.793 23.242,12.793Z" style="fill-rule:nonzero;"/>
        </g>
        <g id="Semibold-M" transform="matrix(1,0,0,1,1982.26,1126)">
            <path d="M22.754,12.109L99.316,12.109C101.888,12.109 104.134,11.532 106.055,10.376C107.976,9.22 109.457,7.666 110.498,5.713C111.54,3.76 112.061,1.628 112.061,-0.684C112.061,-1.758 111.923,-2.824 111.646,-3.882C111.369,-4.94 110.953,-5.973 110.4,-6.982L72.022,-75.537C70.817,-77.718 69.23,-79.354 67.261,-80.444C65.291,-81.535 63.216,-82.08 61.035,-82.08C58.854,-82.08 56.771,-81.535 54.785,-80.444C52.799,-79.354 51.204,-77.718 50,-75.537L11.67,-6.934C10.531,-4.883 9.961,-2.799 9.961,-0.684C9.961,1.628 10.49,3.76 11.548,5.713C12.606,7.666 14.095,9.22 16.016,10.376C17.936,11.532 20.182,12.109 22.754,12.109Z" style="fill-rule:nonzero;"/>
        </g>
        <g id="Medium-M" transform="matrix(1.01055,0,0,1.01055,281.428,-11.5045)">
            <path d="M1420.25,1092.01C1425.11,1092.01 1449.04,1130.29 1446.65,1134.1C1444.26,1137.91 1396.12,1137.71 1393.85,1134.1C1391.59,1130.49 1415.39,1092.01 1420.25,1092.01ZM1479.41,1092.01C1484.27,1092.01 1508.2,1130.29 1505.81,1134.1C1503.42,1137.91 1455.28,1137.71 1453.01,1134.1C1450.74,1130.49 1474.55,1092.01 1479.41,1092.01ZM1449.83,1044.45C1454.68,1044.45 1478.62,1082.74 1476.23,1086.55C1473.84,1090.36 1425.69,1090.16 1423.43,1086.55C1421.16,1082.93 1444.97,1044.45 1449.83,1044.45Z"/>
        </g>
        <g id="Regular-M">
            <path d="M1420.25,1092.01C1425.11,1092.01 1449.04,1130.29 1446.65,1134.1C1444.26,1137.91 1396.12,1137.71 1393.85,1134.1C1391.59,1130.49 1415.39,1092.01 1420.25,1092.01ZM1479.41,1092.01C1484.27,1092.01 1508.2,1130.29 1505.81,1134.1C1503.42,1137.91 1455.28,1137.71 1453.01,1134.1C1450.74,1130.49 1474.55,1092.01 1479.41,1092.01ZM1449.83,1044.45C1454.68,1044.45 1478.62,1082.74 1476.23,1086.55C1473.84,1090.36 1425.69,1090.16 1423.43,1086.55C1421.16,1082.93 1444.97,1044.45 1449.83,1044.45Z"/>
        </g>
        <g id="Light-M" transform="matrix(1,0,0,1,1093.17,1126)">
            <path d="M21.582,10.498L98.389,10.498C100.732,10.498 102.775,9.969 104.517,8.911C106.258,7.853 107.601,6.437 108.545,4.663C109.489,2.889 109.961,0.944 109.961,-1.172C109.961,-2.148 109.839,-3.125 109.595,-4.102C109.351,-5.078 108.968,-6.022 108.447,-6.934L70.019,-75.391C68.945,-77.311 67.497,-78.768 65.674,-79.761C63.851,-80.754 61.963,-81.25 60.01,-81.25C58.057,-81.25 56.161,-80.754 54.321,-79.761C52.482,-78.768 51.025,-77.311 49.951,-75.391L11.475,-6.836C10.465,-5.013 9.961,-3.125 9.961,-1.172C9.961,0.944 10.441,2.889 11.401,4.663C12.362,6.437 13.713,7.853 15.454,8.911C17.196,9.969 19.238,10.498 21.582,10.498Z" style="fill-rule:nonzero;"/>
        </g>
        <g id="Thin-M" transform="matrix(1,0,0,1,796.779,1126)">
            <path d="M21.24,9.961L98.096,9.961C100.309,9.961 102.262,9.432 103.955,8.374C105.648,7.316 106.966,5.924 107.91,4.199C108.854,2.474 109.326,0.618 109.326,-1.367C109.326,-2.344 109.212,-3.304 108.984,-4.248C108.757,-5.192 108.382,-6.104 107.861,-6.982L69.336,-75.195C68.294,-77.083 66.894,-78.499 65.137,-79.443C63.379,-80.387 61.556,-80.859 59.668,-80.859C57.78,-80.859 55.941,-80.387 54.15,-79.443C52.36,-78.499 50.944,-77.083 49.902,-75.195L11.377,-6.885C10.433,-5.192 9.961,-3.353 9.961,-1.367C9.961,0.618 10.441,2.474 11.401,4.199C12.362,5.924 13.688,7.316 15.381,8.374C17.074,9.432 19.027,9.961 21.24,9.961Z" style="fill-rule:nonzero;"/>
        </g>
        <g id="Ultralight-M" transform="matrix(1,0,0,1,500.263,1126)">
            <path d="M21.045,9.668L97.949,9.668C100.13,9.668 102.043,9.139 103.687,8.081C105.33,7.023 106.616,5.64 107.544,3.931C108.472,2.222 108.936,0.423 108.936,-1.465C108.936,-2.409 108.83,-3.353 108.618,-4.297C108.407,-5.241 108.041,-6.152 107.52,-7.031L68.994,-75.147C67.985,-76.969 66.618,-78.345 64.893,-79.272C63.167,-80.2 61.361,-80.664 59.473,-80.664C57.65,-80.664 55.851,-80.2 54.077,-79.272C52.303,-78.345 50.911,-76.969 49.902,-75.147L11.328,-6.885C10.417,-5.257 9.961,-3.451 9.961,-1.465C9.961,0.423 10.433,2.222 11.377,3.931C12.321,5.64 13.631,7.023 15.308,8.081C16.984,9.139 18.897,9.668 21.045,9.668Z" style="fill-rule:nonzero;"/>
        </g>
        <g id="Black-S" transform="matrix(1,0,0,1,2884.11,696)">
            <path d="M19.482,4.15L79.15,4.15C81.429,4.15 83.439,3.605 85.181,2.515C86.922,1.424 88.289,-0.016 89.282,-1.807C90.275,-3.597 90.772,-5.501 90.772,-7.52C90.772,-8.496 90.649,-9.473 90.405,-10.449C90.161,-11.426 89.779,-12.37 89.258,-13.281L59.375,-66.846C58.203,-68.962 56.73,-70.508 54.956,-71.484C53.182,-72.461 51.302,-72.949 49.316,-72.949C47.331,-72.949 45.435,-72.453 43.628,-71.46C41.821,-70.467 40.348,-68.929 39.209,-66.846L9.326,-13.232C8.317,-11.442 7.813,-9.538 7.813,-7.52C7.813,-5.501 8.309,-3.597 9.302,-1.807C10.295,-0.016 11.67,1.424 13.428,2.515C15.186,3.605 17.204,4.15 19.482,4.15Z" style="fill-rule:nonzero;"/>
        </g>
        <g id="Heavy-S" transform="matrix(1,0,0,1,2587.86,696)">
            <path d="M18.945,3.418L78.711,3.418C80.924,3.418 82.861,2.905 84.522,1.88C86.182,0.854 87.484,-0.513 88.428,-2.222C89.372,-3.931 89.844,-5.762 89.844,-7.715C89.844,-8.659 89.722,-9.595 89.478,-10.523C89.233,-11.45 88.867,-12.354 88.379,-13.232L58.447,-66.846C57.341,-68.831 55.933,-70.296 54.224,-71.24C52.515,-72.184 50.716,-72.656 48.828,-72.656C46.94,-72.656 45.133,-72.176 43.408,-71.216C41.683,-70.256 40.283,-68.799 39.209,-66.846L9.277,-13.184C8.301,-11.426 7.813,-9.603 7.813,-7.715C7.813,-5.762 8.285,-3.931 9.229,-2.222C10.173,-0.513 11.483,0.854 13.159,1.88C14.836,2.905 16.764,3.418 18.945,3.418Z" style="fill-rule:nonzero;"/>
        </g>
        <g id="Bold-S" transform="matrix(1,0,0,1,2291.66,696)">
            <path d="M18.408,2.637L78.272,2.637C80.387,2.637 82.235,2.148 83.814,1.172C85.392,0.195 86.621,-1.09 87.5,-2.686C88.379,-4.281 88.818,-6.038 88.818,-7.959C88.818,-8.838 88.704,-9.717 88.477,-10.596C88.249,-11.475 87.907,-12.321 87.451,-13.135L57.422,-66.846C56.413,-68.701 55.094,-70.077 53.467,-70.972C51.839,-71.867 50.13,-72.315 48.34,-72.315C46.549,-72.315 44.832,-71.859 43.189,-70.947C41.545,-70.036 40.218,-68.669 39.209,-66.846L9.229,-13.135C8.285,-11.442 7.813,-9.717 7.813,-7.959C7.813,-6.038 8.252,-4.281 9.131,-2.686C10.01,-1.09 11.247,0.195 12.842,1.172C14.437,2.148 16.292,2.637 18.408,2.637Z" style="fill-rule:nonzero;"/>
        </g>
        <g id="Semibold-S" transform="matrix(1,0,0,1,1995.32,696)">
            <path d="M17.969,2.1L77.93,2.1C79.98,2.1 81.763,1.636 83.276,0.708C84.79,-0.22 85.97,-1.449 86.816,-2.979C87.663,-4.508 88.086,-6.217 88.086,-8.105C88.086,-8.952 87.972,-9.798 87.744,-10.645C87.516,-11.491 87.191,-12.305 86.768,-13.086L56.69,-66.846C55.745,-68.571 54.484,-69.873 52.905,-70.752C51.327,-71.631 49.674,-72.07 47.949,-72.07C46.224,-72.07 44.572,-71.631 42.993,-70.752C41.414,-69.873 40.137,-68.571 39.16,-66.846L9.18,-13.086C8.268,-11.426 7.813,-9.766 7.813,-8.105C7.813,-6.217 8.228,-4.508 9.058,-2.979C9.888,-1.449 11.068,-0.22 12.598,0.708C14.128,1.636 15.918,2.1 17.969,2.1Z" style="fill-rule:nonzero;"/>
        </g>
        <g id="Medium-S" transform="matrix(1,0,0,1,1698.87,696)">
            <path d="M17.676,1.66L77.686,1.66C79.671,1.66 81.405,1.213 82.886,0.317C84.367,-0.578 85.514,-1.766 86.328,-3.247C87.142,-4.728 87.549,-6.38 87.549,-8.203C87.549,-9.017 87.435,-9.839 87.207,-10.669C86.979,-11.499 86.654,-12.288 86.231,-13.037L56.152,-66.846C55.273,-68.506 54.061,-69.759 52.515,-70.606C50.968,-71.452 49.349,-71.875 47.656,-71.875C45.996,-71.875 44.401,-71.452 42.871,-70.606C41.341,-69.759 40.104,-68.506 39.16,-66.846L9.18,-13.037C8.268,-11.41 7.813,-9.798 7.813,-8.203C7.813,-6.38 8.219,-4.728 9.033,-3.247C9.847,-1.766 10.986,-0.578 12.451,0.317C13.916,1.213 15.658,1.66 17.676,1.66Z" style="fill-rule:nonzero;"/>
        </g>
        <g id="Regular-S" transform="matrix(1,0,0,1,1402.53,696)">
            <path d="M17.285,1.123L77.344,1.123C79.297,1.123 80.981,0.7 82.397,-0.146C83.814,-0.993 84.904,-2.124 85.669,-3.54C86.434,-4.956 86.816,-6.559 86.816,-8.35C86.816,-9.131 86.711,-9.92 86.499,-10.718C86.287,-11.515 85.986,-12.272 85.596,-12.988L55.469,-66.846C54.622,-68.408 53.451,-69.596 51.953,-70.41C50.456,-71.224 48.91,-71.631 47.315,-71.631C45.719,-71.631 44.181,-71.224 42.7,-70.41C41.219,-69.596 40.039,-68.408 39.16,-66.846L9.131,-12.988C8.252,-11.393 7.813,-9.847 7.813,-8.35C7.813,-6.559 8.195,-4.956 8.96,-3.54C9.725,-2.124 10.815,-0.993 12.231,-0.146C13.647,0.7 15.332,1.123 17.285,1.123Z" style="fill-rule:nonzero;"/>
        </g>
        <g id="Light-S" transform="matrix(1,0,0,1,1106.04,696)">
            <path d="M17.041,0.732L77.148,0.732C79.036,0.732 80.664,0.317 82.031,-0.513C83.398,-1.343 84.465,-2.458 85.23,-3.857C85.995,-5.257 86.377,-6.803 86.377,-8.496C86.377,-9.245 86.279,-10.01 86.084,-10.791C85.889,-11.572 85.579,-12.321 85.156,-13.037L55.029,-66.748C54.216,-68.278 53.076,-69.434 51.611,-70.215C50.146,-70.996 48.649,-71.387 47.119,-71.387C45.557,-71.387 44.051,-70.996 42.603,-70.215C41.154,-69.434 40.007,-68.278 39.16,-66.748L9.033,-12.988C8.219,-11.491 7.813,-9.993 7.813,-8.496C7.813,-6.803 8.195,-5.257 8.96,-3.857C9.725,-2.458 10.799,-1.343 12.183,-0.513C13.566,0.317 15.186,0.732 17.041,0.732Z" style="fill-rule:nonzero;"/>
        </g>
        <g id="Thin-S" transform="matrix(1,0,0,1,809.645,696)">
            <path d="M16.699,0.244L76.904,0.244C78.695,0.244 80.249,-0.171 81.567,-1.001C82.886,-1.831 83.911,-2.922 84.644,-4.272C85.376,-5.623 85.742,-7.08 85.742,-8.643C85.742,-9.424 85.661,-10.181 85.498,-10.913C85.335,-11.646 85.042,-12.37 84.619,-13.086L54.443,-66.602C53.662,-68.066 52.572,-69.173 51.172,-69.922C49.772,-70.671 48.324,-71.045 46.826,-71.045C45.361,-71.045 43.921,-70.671 42.505,-69.922C41.089,-69.173 39.958,-68.066 39.111,-66.602L8.936,-13.037C8.187,-11.67 7.813,-10.205 7.813,-8.643C7.813,-7.08 8.187,-5.623 8.936,-4.272C9.684,-2.922 10.726,-1.831 12.06,-1.001C13.395,-0.171 14.941,0.244 16.699,0.244Z" style="fill-rule:nonzero;"/>
        </g>
        <g id="Ultralight-S" transform="matrix(1,0,0,1,513.08,696)">
            <path d="M16.553,0L76.807,0C78.499,0 79.997,-0.407 81.299,-1.221C82.601,-2.035 83.618,-3.117 84.351,-4.468C85.083,-5.819 85.449,-7.243 85.449,-8.74C85.449,-9.489 85.368,-10.229 85.205,-10.962C85.042,-11.694 84.749,-12.419 84.326,-13.135L54.15,-66.504C53.369,-67.969 52.295,-69.067 50.928,-69.8C49.561,-70.532 48.145,-70.898 46.68,-70.898C45.247,-70.898 43.831,-70.532 42.432,-69.8C41.032,-69.067 39.925,-67.969 39.111,-66.504L8.887,-13.037C8.171,-11.735 7.813,-10.303 7.813,-8.74C7.813,-7.243 8.187,-5.819 8.936,-4.468C9.684,-3.117 10.718,-2.035 12.036,-1.221C13.355,-0.407 14.86,0 16.553,0Z" style="fill-rule:nonzero;"/>
        </g>
    </g>
</svg>
