<?xml version="1.0" encoding="UTF-8" standalone="no"?>
<!DOCTYPE svg PUBLIC "-//W3C//DTD SVG 1.1//EN" "http://www.w3.org/Graphics/SVG/1.1/DTD/svg11.dtd">
<svg width="100%" height="100%" viewBox="0 0 3300 2200" version="1.1" xmlns="http://www.w3.org/2000/svg" xmlns:xlink="http://www.w3.org/1999/xlink" xml:space="preserve" xmlns:serif="http://www.serif.com/" style="fill-rule:evenodd;clip-rule:evenodd;">
    <g id="Notes">
        <rect id="artboard" x="0" y="0" width="3300" height="2200" style="fill:white;"/>
        <path d="M263,292L3036,292" style="fill:none;fill-rule:nonzero;stroke:black;stroke-width:0.5px;"/>
        <g transform="matrix(1,0,0,1,263,322)">
            <text x="0px" y="0px" style="font-family:'LucidaGrande-Bold', 'Lucida Grande', sans-serif;font-weight:600;font-size:13px;">Weight/Scale Variations</text>
        </g>
        <g transform="matrix(1,0,0,1,559.711,322)">
            <text x="-29.339px" y="0px" style="font-family:'LucidaGrande', 'Lucida Grande', sans-serif;font-weight:500;font-size:13px;">Ultralight</text>
        </g>
        <g transform="matrix(1,0,0,1,856.422,322)">
            <text x="-14.057px" y="0px" style="font-family:'LucidaGrande', 'Lucida Grande', sans-serif;font-weight:500;font-size:13px;">Thin</text>
        </g>
        <g transform="matrix(1,0,0,1,1153.13,322)">
            <text x="-15.863px" y="0px" style="font-family:'LucidaGrande', 'Lucida Grande', sans-serif;font-weight:500;font-size:13px;">Light</text>
        </g>
        <g transform="matrix(1,0,0,1,1449.84,322)">
            <text x="-23.947px" y="0px" style="font-family:'LucidaGrande', 'Lucida Grande', sans-serif;font-weight:500;font-size:13px;">Regular</text>
        </g>
        <g transform="matrix(1,0,0,1,1746.56,322)">
            <text x="-25.292px" y="0px" style="font-family:'LucidaGrande', 'Lucida Grande', sans-serif;font-weight:500;font-size:13px;">Medium</text>
        </g>
        <g transform="matrix(1,0,0,1,2043.27,322)">
            <text x="-29.123px" y="0px" style="font-family:'LucidaGrande', 'Lucida Grande', sans-serif;font-weight:500;font-size:13px;">Semibold</text>
        </g>
        <g transform="matrix(1,0,0,1,2339.98,322)">
            <text x="-13.701px" y="0px" style="font-family:'LucidaGrande', 'Lucida Grande', sans-serif;font-weight:500;font-size:13px;">Bold</text>
        </g>
        <g transform="matrix(1,0,0,1,2636.69,322)">
            <text x="-18.748px" y="0px" style="font-family:'LucidaGrande', 'Lucida Grande', sans-serif;font-weight:500;font-size:13px;">Heavy</text>
        </g>
        <g transform="matrix(1,0,0,1,2933.4,322)">
            <text x="-16.336px" y="0px" style="font-family:'LucidaGrande', 'Lucida Grande', sans-serif;font-weight:500;font-size:13px;">Black</text>
        </g>
        <path d="M263,1903L3036,1903" style="fill:none;fill-rule:nonzero;stroke:black;stroke-width:0.5px;"/>
        <g transform="matrix(1,0,0,1,263,1933)">
            <path d="M9.248,0.83C10.329,0.83 11.344,0.625 12.295,0.215C13.245,-0.195 14.084,-0.765 14.81,-1.494C15.535,-2.223 16.105,-3.063 16.519,-4.014C16.932,-4.964 17.139,-5.977 17.139,-7.051C17.139,-8.125 16.932,-9.137 16.519,-10.088C16.105,-11.038 15.534,-11.878 14.805,-12.607C14.076,-13.337 13.236,-13.906 12.285,-14.316C11.335,-14.727 10.319,-14.932 9.238,-14.932C8.164,-14.932 7.152,-14.727 6.201,-14.316C5.251,-13.906 4.414,-13.337 3.691,-12.607C2.969,-11.878 2.401,-11.038 1.987,-10.088C1.574,-9.137 1.367,-8.125 1.367,-7.051C1.367,-5.977 1.574,-4.964 1.987,-4.014C2.401,-3.063 2.97,-2.223 3.696,-1.494C4.422,-0.765 5.26,-0.195 6.211,0.215C7.161,0.625 8.174,0.83 9.248,0.83ZM9.248,-0.654C8.363,-0.654 7.534,-0.819 6.763,-1.147C5.991,-1.476 5.314,-1.934 4.731,-2.52C4.149,-3.105 3.693,-3.786 3.364,-4.561C3.035,-5.335 2.871,-6.165 2.871,-7.051C2.871,-7.936 3.034,-8.766 3.359,-9.541C3.685,-10.316 4.139,-10.996 4.722,-11.582C5.304,-12.168 5.981,-12.625 6.753,-12.954C7.524,-13.283 8.353,-13.447 9.238,-13.447C10.13,-13.447 10.962,-13.283 11.733,-12.954C12.505,-12.625 13.184,-12.168 13.77,-11.582C14.355,-10.996 14.814,-10.316 15.147,-9.541C15.479,-8.766 15.645,-7.936 15.645,-7.051C15.645,-6.165 15.48,-5.335 15.151,-4.561C14.823,-3.786 14.367,-3.105 13.784,-2.52C13.202,-1.934 12.523,-1.476 11.748,-1.147C10.973,-0.819 10.14,-0.654 9.248,-0.654ZM5.654,-7.051C5.654,-6.836 5.723,-6.662 5.859,-6.528C5.996,-6.395 6.178,-6.328 6.406,-6.328L8.516,-6.328L8.516,-4.209C8.516,-3.994 8.581,-3.817 8.711,-3.677C8.841,-3.537 9.017,-3.467 9.238,-3.467C9.453,-3.467 9.631,-3.537 9.771,-3.677C9.91,-3.817 9.98,-3.994 9.98,-4.209L9.98,-6.328L12.09,-6.328C12.311,-6.328 12.49,-6.395 12.627,-6.528C12.764,-6.662 12.832,-6.836 12.832,-7.051C12.832,-7.272 12.764,-7.451 12.627,-7.588C12.49,-7.725 12.311,-7.793 12.09,-7.793L9.98,-7.793L9.98,-9.902C9.98,-10.124 9.91,-10.304 9.771,-10.444C9.631,-10.584 9.453,-10.654 9.238,-10.654C9.017,-10.654 8.841,-10.584 8.711,-10.444C8.581,-10.304 8.516,-10.124 8.516,-9.902L8.516,-7.793L6.406,-7.793C6.178,-7.793 5.996,-7.725 5.859,-7.588C5.723,-7.451 5.654,-7.272 5.654,-7.051Z" style="fill-rule:nonzero;"/>
        </g>
        <g transform="matrix(1,0,0,1,281.867,1933)">
            <path d="M11.709,2.91C13.07,2.91 14.351,2.65 15.552,2.129C16.753,1.608 17.813,0.889 18.731,-0.029C19.648,-0.947 20.368,-2.007 20.889,-3.208C21.409,-4.409 21.67,-5.69 21.67,-7.051C21.67,-8.411 21.409,-9.692 20.889,-10.894C20.368,-12.095 19.648,-13.154 18.731,-14.072C17.813,-14.99 16.751,-15.71 15.547,-16.23C14.342,-16.751 13.06,-17.012 11.699,-17.012C10.339,-17.012 9.058,-16.751 7.856,-16.23C6.655,-15.71 5.597,-14.99 4.683,-14.072C3.768,-13.154 3.05,-12.095 2.529,-10.894C2.008,-9.692 1.748,-8.411 1.748,-7.051C1.748,-5.69 2.008,-4.409 2.529,-3.208C3.05,-2.007 3.77,-0.947 4.688,-0.029C5.605,0.889 6.665,1.608 7.866,2.129C9.067,2.65 10.348,2.91 11.709,2.91ZM11.709,1.25C10.557,1.25 9.479,1.035 8.477,0.605C7.474,0.176 6.593,-0.418 5.835,-1.177C5.076,-1.935 4.484,-2.816 4.058,-3.818C3.631,-4.821 3.418,-5.898 3.418,-7.051C3.418,-8.203 3.631,-9.281 4.058,-10.283C4.484,-11.286 5.075,-12.168 5.83,-12.93C6.585,-13.691 7.464,-14.286 8.467,-14.712C9.469,-15.138 10.547,-15.352 11.699,-15.352C12.852,-15.352 13.929,-15.138 14.932,-14.712C15.934,-14.286 16.816,-13.691 17.578,-12.93C18.34,-12.168 18.936,-11.286 19.365,-10.283C19.795,-9.281 20.01,-8.203 20.01,-7.051C20.01,-5.898 19.797,-4.821 19.37,-3.818C18.944,-2.816 18.351,-1.935 17.593,-1.177C16.834,-0.418 15.952,0.176 14.946,0.605C13.94,1.035 12.861,1.25 11.709,1.25ZM7.178,-7.051C7.178,-6.816 7.256,-6.624 7.412,-6.475C7.568,-6.325 7.77,-6.25 8.018,-6.25L10.889,-6.25L10.889,-3.369C10.889,-3.122 10.964,-2.922 11.113,-2.769C11.263,-2.616 11.455,-2.539 11.69,-2.539C11.937,-2.539 12.137,-2.616 12.29,-2.769C12.443,-2.922 12.52,-3.122 12.52,-3.369L12.52,-6.25L15.4,-6.25C15.648,-6.25 15.848,-6.325 16.001,-6.475C16.154,-6.624 16.23,-6.816 16.23,-7.051C16.23,-7.298 16.154,-7.498 16.001,-7.651C15.848,-7.804 15.648,-7.881 15.4,-7.881L12.52,-7.881L12.52,-10.752C12.52,-11.006 12.443,-11.209 12.29,-11.362C12.137,-11.515 11.937,-11.592 11.69,-11.592C11.455,-11.592 11.263,-11.514 11.113,-11.357C10.964,-11.201 10.889,-10.999 10.889,-10.752L10.889,-7.881L8.018,-7.881C7.764,-7.881 7.56,-7.804 7.407,-7.651C7.254,-7.498 7.178,-7.298 7.178,-7.051Z" style="fill-rule:nonzero;"/>
        </g>
        <g transform="matrix(1,0,0,1,305.646,1933)">
            <path d="M14.971,5.664C16.364,5.664 17.694,5.448 18.96,5.015C20.226,4.582 21.39,3.975 22.451,3.193C23.512,2.412 24.435,1.491 25.22,0.43C26.004,-0.632 26.613,-1.797 27.046,-3.066C27.479,-4.336 27.695,-5.664 27.695,-7.051C27.695,-8.444 27.479,-9.774 27.046,-11.04C26.613,-12.306 26.004,-13.47 25.22,-14.531C24.435,-15.592 23.512,-16.515 22.451,-17.3C21.39,-18.084 20.225,-18.693 18.955,-19.126C17.686,-19.559 16.354,-19.775 14.961,-19.775C13.568,-19.775 12.238,-19.559 10.972,-19.126C9.705,-18.693 8.543,-18.084 7.485,-17.3C6.427,-16.515 5.506,-15.592 4.722,-14.531C3.937,-13.47 3.33,-12.306 2.9,-11.04C2.471,-9.774 2.256,-8.444 2.256,-7.051C2.256,-5.664 2.472,-4.336 2.905,-3.066C3.338,-1.797 3.945,-0.632 4.727,0.43C5.508,1.491 6.429,2.412 7.49,3.193C8.551,3.975 9.715,4.582 10.981,5.015C12.248,5.448 13.578,5.664 14.971,5.664ZM14.971,3.848C13.766,3.848 12.619,3.664 11.528,3.296C10.438,2.928 9.44,2.412 8.535,1.748C7.63,1.084 6.844,0.298 6.177,-0.61C5.509,-1.519 4.993,-2.518 4.629,-3.608C4.264,-4.699 4.082,-5.846 4.082,-7.051C4.082,-8.262 4.264,-9.412 4.629,-10.503C4.993,-11.593 5.508,-12.593 6.172,-13.501C6.836,-14.409 7.62,-15.195 8.525,-15.859C9.43,-16.523 10.428,-17.038 11.519,-17.402C12.609,-17.767 13.756,-17.949 14.961,-17.949C16.172,-17.949 17.323,-17.767 18.413,-17.402C19.504,-17.038 20.503,-16.523 21.411,-15.859C22.319,-15.195 23.105,-14.409 23.77,-13.501C24.434,-12.593 24.95,-11.593 25.317,-10.503C25.685,-9.412 25.869,-8.262 25.869,-7.051C25.876,-5.846 25.697,-4.699 25.332,-3.608C24.967,-2.518 24.452,-1.519 23.784,-0.61C23.117,0.298 22.329,1.084 21.421,1.748C20.513,2.412 19.513,2.928 18.423,3.296C17.332,3.664 16.182,3.848 14.971,3.848ZM9.199,-7.051C9.199,-6.797 9.285,-6.587 9.458,-6.421C9.631,-6.255 9.85,-6.172 10.117,-6.172L14.063,-6.172L14.063,-2.217C14.063,-1.95 14.146,-1.73 14.312,-1.558C14.477,-1.385 14.691,-1.299 14.951,-1.299C15.218,-1.299 15.438,-1.383 15.61,-1.553C15.783,-1.722 15.869,-1.943 15.869,-2.217L15.869,-6.172L19.824,-6.172C20.091,-6.172 20.309,-6.255 20.479,-6.421C20.648,-6.587 20.732,-6.797 20.732,-7.051C20.732,-7.324 20.648,-7.546 20.479,-7.715C20.309,-7.884 20.091,-7.969 19.824,-7.969L15.869,-7.969L15.869,-11.914C15.869,-12.188 15.783,-12.41 15.61,-12.583C15.438,-12.756 15.218,-12.842 14.951,-12.842C14.691,-12.842 14.477,-12.756 14.312,-12.583C14.146,-12.41 14.063,-12.188 14.063,-11.914L14.063,-7.969L10.117,-7.969C9.844,-7.969 9.622,-7.884 9.453,-7.715C9.284,-7.546 9.199,-7.324 9.199,-7.051Z" style="fill-rule:nonzero;"/>
        </g>
        <g transform="matrix(1,0,0,1,263,1953)">
            <text x="0px" y="0px" style="font-family:'LucidaGrande-Bold', 'Lucida Grande', sans-serif;font-weight:600;font-size:13px;">Design Variations</text>
        </g>
        <g transform="matrix(1,0,0,1,263,1971)">
            <text x="0px" y="0px" style="font-family:'LucidaGrande', 'Lucida Grande', sans-serif;font-weight:500;font-size:13px;">Symbols are supported in up to nine weights and three scales.</text>
        </g>
        <g transform="matrix(1,0,0,1,263,1989)">
            <text x="0px" y="0px" style="font-family:'LucidaGrande', 'Lucida Grande', sans-serif;font-weight:500;font-size:13px;">For optimal layout with text and other symbols, vertically align</text>
        </g>
        <g transform="matrix(1,0,0,1,263,2007)">
            <text x="0px" y="0px" style="font-family:'LucidaGrande', 'Lucida Grande', sans-serif;font-weight:500;font-size:13px;">symbols with the adjacent text.</text>
        </g>
        <path d="M776,1919L776,1933" style="fill:none;fill-rule:nonzero;stroke:rgb(0,174,239);stroke-width:0.5px;"/>
        <g transform="matrix(1,0,0,1,776,1933)">
            <path d="M3.311,0.156C3.571,0.156 3.773,0.101 3.916,-0.01C4.059,-0.12 4.176,-0.313 4.268,-0.586L5.527,-4.033L11.289,-4.033L12.549,-0.586C12.64,-0.313 12.757,-0.12 12.9,-0.01C13.044,0.101 13.242,0.156 13.496,0.156C13.756,0.156 13.963,0.085 14.116,-0.059C14.269,-0.202 14.346,-0.397 14.346,-0.645C14.346,-0.794 14.31,-0.97 14.238,-1.172L9.658,-13.369C9.541,-13.669 9.382,-13.893 9.18,-14.043C8.978,-14.193 8.721,-14.268 8.408,-14.268C7.803,-14.268 7.393,-13.971 7.178,-13.379L2.598,-1.162C2.526,-0.96 2.49,-0.785 2.49,-0.635C2.49,-0.387 2.563,-0.194 2.71,-0.054C2.856,0.086 3.057,0.156 3.311,0.156ZM6.006,-5.518L8.379,-12.09L8.428,-12.09L10.801,-5.518L6.006,-5.518Z" style="fill-rule:nonzero;"/>
        </g>
        <path d="M793.197,1919L793.197,1933" style="fill:none;fill-rule:nonzero;stroke:rgb(0,174,239);stroke-width:0.5px;"/>
        <g transform="matrix(1,0,0,1,776,1953)">
            <text x="0px" y="0px" style="font-family:'LucidaGrande-Bold', 'Lucida Grande', sans-serif;font-weight:600;font-size:13px;">Margins</text>
        </g>
        <g transform="matrix(1,0,0,1,776,1971)">
            <text x="0px" y="0px" style="font-family:'LucidaGrande', 'Lucida Grande', sans-serif;font-weight:500;font-size:13px;">Leading and trailing margins on the left and right side of each symbol</text>
        </g>
        <g transform="matrix(1,0,0,1,776,1989)">
            <text x="0px" y="0px" style="font-family:'LucidaGrande', 'Lucida Grande', sans-serif;font-weight:500;font-size:13px;">can be adjusted by modifying the x-location of the margin guidelines.</text>
        </g>
        <g transform="matrix(1,0,0,1,776,2007)">
            <text x="0px" y="0px" style="font-family:'LucidaGrande', 'Lucida Grande', sans-serif;font-weight:500;font-size:13px;">Modiﬁcations are automatically applied proportionally to all</text>
        </g>
        <g transform="matrix(1,0,0,1,776,2025)">
            <text x="0px" y="0px" style="font-family:'LucidaGrande', 'Lucida Grande', sans-serif;font-weight:500;font-size:13px;">scales and weights.</text>
        </g>
        <g transform="matrix(1,0,0,1,1289,1933)">
            <path d="M2.842,1.865L4.541,3.574C4.971,4.01 5.425,4.212 5.903,4.18C6.382,4.147 6.852,3.874 7.314,3.359L18.008,-8.428L17.041,-9.404L6.426,2.275C6.25,2.477 6.073,2.591 5.894,2.617C5.715,2.643 5.508,2.539 5.273,2.305L4.102,1.143C3.867,0.908 3.765,0.701 3.794,0.522C3.823,0.343 3.939,0.163 4.141,-0.02L15.615,-10.82L14.639,-11.787L3.047,-0.898C2.552,-0.443 2.287,0.023 2.251,0.498C2.215,0.973 2.412,1.429 2.842,1.865ZM9.258,-16.328C9.049,-16.126 8.932,-15.895 8.906,-15.635C8.88,-15.374 8.926,-15.146 9.043,-14.951C9.16,-14.769 9.331,-14.632 9.556,-14.541C9.78,-14.45 10.055,-14.443 10.381,-14.522C11.11,-14.691 11.849,-14.761 12.598,-14.731C13.346,-14.702 14.079,-14.453 14.795,-13.984L14.209,-12.529C14.04,-12.113 13.993,-11.75 14.067,-11.44C14.142,-11.131 14.313,-10.84 14.58,-10.566L16.875,-8.252C17.116,-8.005 17.35,-7.861 17.578,-7.822C17.806,-7.783 18.06,-7.79 18.34,-7.842L19.404,-8.037L20.068,-7.363L20.029,-6.807C20.01,-6.559 20.041,-6.331 20.122,-6.123C20.203,-5.915 20.365,-5.69 20.606,-5.449L21.367,-4.707C21.608,-4.466 21.87,-4.341 22.153,-4.331C22.437,-4.321 22.695,-4.434 22.93,-4.668L25.84,-7.588C26.074,-7.822 26.188,-8.078 26.182,-8.354C26.175,-8.631 26.051,-8.89 25.811,-9.131L25.039,-9.893C24.805,-10.133 24.585,-10.298 24.38,-10.386C24.175,-10.474 23.952,-10.508 23.711,-10.488L23.135,-10.44L22.49,-11.074L22.734,-12.197C22.799,-12.477 22.786,-12.739 22.695,-12.983C22.604,-13.228 22.412,-13.496 22.119,-13.789L19.922,-15.977C19.089,-16.803 18.202,-17.424 17.261,-17.837C16.32,-18.25 15.373,-18.465 14.419,-18.481C13.465,-18.498 12.547,-18.324 11.665,-17.959C10.783,-17.594 9.98,-17.051 9.258,-16.328ZM10.752,-15.957C11.357,-16.4 12.007,-16.716 12.7,-16.904C13.394,-17.093 14.095,-17.153 14.805,-17.085C15.514,-17.017 16.203,-16.826 16.87,-16.514C17.537,-16.201 18.148,-15.765 18.701,-15.205L21.133,-12.793C21.25,-12.676 21.323,-12.562 21.353,-12.451C21.382,-12.341 21.377,-12.201 21.338,-12.031L21.016,-10.547L22.52,-9.063L23.506,-9.121C23.63,-9.128 23.724,-9.119 23.789,-9.097C23.854,-9.074 23.936,-9.014 24.033,-8.916L24.609,-8.34L22.168,-5.898L21.592,-6.475C21.494,-6.572 21.432,-6.654 21.406,-6.719C21.38,-6.784 21.37,-6.882 21.377,-7.012L21.445,-7.988L19.951,-9.473L18.428,-9.219C18.265,-9.186 18.136,-9.181 18.042,-9.204C17.948,-9.227 17.839,-9.297 17.715,-9.414L15.713,-11.416C15.583,-11.533 15.509,-11.646 15.493,-11.753C15.477,-11.86 15.508,-12.005 15.586,-12.188L16.465,-14.277C15.684,-15.007 14.805,-15.511 13.828,-15.791C12.852,-16.071 11.855,-16.061 10.84,-15.762C10.762,-15.742 10.711,-15.757 10.689,-15.806C10.666,-15.855 10.687,-15.905 10.752,-15.957Z" style="fill-rule:nonzero;"/>
        </g>
        <g transform="matrix(1,0,0,1,1289,1953)">
            <text x="0px" y="0px" style="font-family:'LucidaGrande-Bold', 'Lucida Grande', sans-serif;font-weight:600;font-size:13px;">Exporting</text>
        </g>
        <g transform="matrix(1,0,0,1,1289,1971)">
            <text x="0px" y="0px" style="font-family:'LucidaGrande', 'Lucida Grande', sans-serif;font-weight:500;font-size:13px;">Symbols should be outlined when exporting to ensure the</text>
        </g>
        <g transform="matrix(1,0,0,1,1289,1989)">
            <text x="0px" y="0px" style="font-family:'LucidaGrande', 'Lucida Grande', sans-serif;font-weight:500;font-size:13px;">design is preserved when submitting to Xcode.</text>
        </g>
        <g id="template-version" transform="matrix(1,0,0,1,3036,1933)">
            <text x="-94.333px" y="0px" style="font-family:'LucidaGrande', 'Lucida Grande', sans-serif;font-weight:500;font-size:13px;">Template v.3.0</text>
        </g>
        <g transform="matrix(1,0,0,1,3036,1951)">
            <text x="-184.336px" y="0px" style="font-family:'LucidaGrande', 'Lucida Grande', sans-serif;font-weight:500;font-size:13px;">Requires Xcode 13 or greater</text>
        </g>
        <g id="descriptive-name" transform="matrix(1,0,0,1,3036,1969)">
            <text x="-206.623px" y="0px" style="font-family:'LucidaGrande', 'Lucida Grande', sans-serif;font-weight:500;font-size:13px;">Generated from chart.xyaxis.line</text>
        </g>
        <g transform="matrix(1,0,0,1,3036,1987)">
            <text x="-137.693px" y="0px" style="font-family:'LucidaGrande', 'Lucida Grande', sans-serif;font-weight:500;font-size:13px;">Typeset at 100 points</text>
        </g>
        <g transform="matrix(1,0,0,1,263,726)">
            <text x="0px" y="0px" style="font-family:'LucidaGrande', 'Lucida Grande', sans-serif;font-weight:500;font-size:13px;">Small</text>
        </g>
        <g transform="matrix(1,0,0,1,263,1156)">
            <text x="0px" y="0px" style="font-family:'LucidaGrande', 'Lucida Grande', sans-serif;font-weight:500;font-size:13px;">Medium</text>
        </g>
        <g transform="matrix(1,0,0,1,263,1586)">
            <text x="0px" y="0px" style="font-family:'LucidaGrande', 'Lucida Grande', sans-serif;font-weight:500;font-size:13px;">Large</text>
        </g>
    </g>
    <g id="Guides">
        <g id="H-reference" transform="matrix(1,0,0,1,339,696)">
            <path d="M0.977,0L3.662,0L29.346,-67.139L30.029,-67.139L30.029,-70.459L28.125,-70.459L0.977,0ZM11.67,-24.463L46.973,-24.463L46.24,-26.709L12.451,-26.709L11.67,-24.463ZM55.127,0L57.764,0L30.615,-70.459L29.443,-70.459L29.443,-67.139L55.127,0Z" style="fill:rgb(39,170,225);fill-rule:nonzero;"/>
        </g>
        <path id="Baseline-S" d="M263,696L3036,696" style="fill:none;fill-rule:nonzero;stroke:rgb(39,170,225);stroke-width:0.5px;"/>
        <path id="Capline-S" d="M263,625.541L3036,625.541" style="fill:none;fill-rule:nonzero;stroke:rgb(39,170,225);stroke-width:0.5px;"/>
        <g id="H-reference1" serif:id="H-reference" transform="matrix(1,0,0,1,339,1126)">
            <path d="M0.977,0L3.662,0L29.346,-67.139L30.029,-67.139L30.029,-70.459L28.125,-70.459L0.977,0ZM11.67,-24.463L46.973,-24.463L46.24,-26.709L12.451,-26.709L11.67,-24.463ZM55.127,0L57.764,0L30.615,-70.459L29.443,-70.459L29.443,-67.139L55.127,0Z" style="fill:rgb(39,170,225);fill-rule:nonzero;"/>
        </g>
        <path id="Baseline-M" d="M263,1126L3036,1126" style="fill:none;fill-rule:nonzero;stroke:rgb(39,170,225);stroke-width:0.5px;"/>
        <path id="Capline-M" d="M263,1055.54L3036,1055.54" style="fill:none;fill-rule:nonzero;stroke:rgb(39,170,225);stroke-width:0.5px;"/>
        <g id="H-reference2" serif:id="H-reference" transform="matrix(1,0,0,1,339,1556)">
            <path d="M0.977,0L3.662,0L29.346,-67.139L30.029,-67.139L30.029,-70.459L28.125,-70.459L0.977,0ZM11.67,-24.463L46.973,-24.463L46.24,-26.709L12.451,-26.709L11.67,-24.463ZM55.127,0L57.764,0L30.615,-70.459L29.443,-70.459L29.443,-67.139L55.127,0Z" style="fill:rgb(39,170,225);fill-rule:nonzero;"/>
        </g>
        <path id="Baseline-L" d="M263,1556L3036,1556" style="fill:none;fill-rule:nonzero;stroke:rgb(39,170,225);stroke-width:0.5px;"/>
        <path id="Capline-L" d="M263,1485.54L3036,1485.54" style="fill:none;fill-rule:nonzero;stroke:rgb(39,170,225);stroke-width:0.5px;"/>
        <path id="left-margin-Regular-M" d="M1384.9,1030.79L1384.9,1150.12" style="fill:none;fill-rule:nonzero;stroke:rgb(0,174,239);stroke-width:0.5px;"/>
        <path id="right-margin-Regular-M" d="M1514.79,1030.79L1514.79,1150.12" style="fill:none;fill-rule:nonzero;stroke:rgb(0,174,239);stroke-width:0.5px;"/>
    </g>
    <g id="Symbols">
        <g id="Black-L" transform="matrix(1,0,0,1,2844.26,1556)">
            <path d="M16.064,22.07C16.064,24.089 16.691,25.724 17.944,26.978C19.198,28.231 20.833,28.857 22.852,28.857L151.855,28.857C154.785,28.857 157.243,27.922 159.229,26.05C161.214,24.178 162.207,21.745 162.207,18.75C162.207,15.755 161.214,13.314 159.229,11.426C157.243,9.538 154.785,8.594 151.855,8.594L38.037,8.594C36.898,8.594 36.328,8.024 36.328,6.885L36.328,-89.941C36.328,-92.871 35.384,-95.329 33.496,-97.315C31.608,-99.3 29.167,-100.293 26.172,-100.293C23.177,-100.293 20.744,-99.3 18.872,-97.315C17,-95.329 16.064,-92.871 16.064,-89.941L16.064,22.07ZM23.584,-19.775L66.113,-44.336L98.584,-17.676L155.176,-51.758L147.705,-64.209L99.707,-35.254L67.334,-61.816L23.584,-36.475L23.584,-19.775ZM66.602,-36.719C69.336,-36.719 71.842,-37.394 74.121,-38.745C76.4,-40.096 78.215,-41.903 79.565,-44.165C80.916,-46.427 81.592,-48.926 81.592,-51.66C81.592,-54.427 80.916,-56.942 79.565,-59.204C78.215,-61.467 76.4,-63.273 74.121,-64.624C71.842,-65.975 69.336,-66.65 66.602,-66.65C63.835,-66.65 61.32,-65.975 59.058,-64.624C56.795,-63.273 54.989,-61.467 53.638,-59.204C52.287,-56.942 51.611,-54.427 51.611,-51.66C51.611,-48.926 52.287,-46.427 53.638,-44.165C54.989,-41.903 56.795,-40.096 59.058,-38.745C61.32,-37.394 63.835,-36.719 66.602,-36.719ZM99.512,-11.426C102.279,-11.426 104.793,-12.101 107.056,-13.452C109.318,-14.803 111.125,-16.61 112.476,-18.872C113.827,-21.134 114.502,-23.649 114.502,-26.416C114.502,-29.15 113.827,-31.657 112.476,-33.936C111.125,-36.214 109.318,-38.029 107.056,-39.38C104.793,-40.731 102.279,-41.406 99.512,-41.406C96.777,-41.406 94.271,-40.731 91.992,-39.38C89.714,-38.029 87.899,-36.214 86.548,-33.936C85.197,-31.657 84.522,-29.15 84.522,-26.416C84.522,-23.649 85.197,-21.134 86.548,-18.872C87.899,-16.61 89.714,-14.803 91.992,-13.452C94.271,-12.101 96.777,-11.426 99.512,-11.426ZM146.729,-40.576C149.496,-40.576 152.01,-41.252 154.272,-42.603C156.535,-43.953 158.341,-45.76 159.692,-48.023C161.043,-50.285 161.719,-52.799 161.719,-55.566C161.719,-58.301 161.043,-60.807 159.692,-63.086C158.341,-65.365 156.535,-67.179 154.272,-68.53C152.01,-69.881 149.496,-70.557 146.729,-70.557C143.994,-70.557 141.488,-69.881 139.209,-68.53C136.93,-67.179 135.116,-65.365 133.765,-63.086C132.414,-60.807 131.738,-58.301 131.738,-55.566C131.738,-52.799 132.414,-50.285 133.765,-48.023C135.116,-45.76 136.93,-43.953 139.209,-42.603C141.488,-41.252 143.994,-40.576 146.729,-40.576Z" style="fill-rule:nonzero;"/>
        </g>
        <g id="Heavy-L" transform="matrix(1,0,0,1,2548.9,1556)">
            <path d="M16.064,21.289C16.064,23.145 16.642,24.65 17.798,25.806C18.953,26.961 20.459,27.539 22.315,27.539L150.586,27.539C153.125,27.539 155.249,26.725 156.958,25.098C158.667,23.47 159.521,21.37 159.521,18.799C159.521,16.227 158.667,14.128 156.958,12.5C155.249,10.872 153.125,10.059 150.586,10.059L35.254,10.059C34.147,10.059 33.594,9.489 33.594,8.35L33.594,-89.697C33.594,-92.204 32.772,-94.32 31.128,-96.045C29.484,-97.77 27.376,-98.633 24.805,-98.633C22.233,-98.633 20.133,-97.77 18.506,-96.045C16.878,-94.32 16.064,-92.204 16.064,-89.697L16.064,21.289ZM23.096,-20.02L65.283,-44.385L97.022,-17.969L152.393,-51.416L145.85,-62.256L97.949,-33.301L66.309,-59.57L23.096,-34.57L23.096,-20.02ZM65.478,-36.621C68.018,-36.621 70.345,-37.248 72.461,-38.501C74.577,-39.754 76.261,-41.439 77.515,-43.555C78.768,-45.671 79.394,-47.998 79.394,-50.537C79.394,-53.076 78.768,-55.404 77.515,-57.52C76.261,-59.635 74.577,-61.32 72.461,-62.573C70.345,-63.826 68.018,-64.453 65.478,-64.453C62.907,-64.453 60.571,-63.826 58.472,-62.573C56.372,-61.32 54.696,-59.635 53.442,-57.52C52.189,-55.404 51.563,-53.076 51.563,-50.537C51.563,-47.998 52.189,-45.671 53.442,-43.555C54.696,-41.439 56.372,-39.754 58.472,-38.501C60.571,-37.248 62.907,-36.621 65.478,-36.621ZM97.656,-11.719C100.228,-11.719 102.564,-12.345 104.663,-13.599C106.762,-14.852 108.447,-16.528 109.717,-18.628C110.986,-20.728 111.621,-23.063 111.621,-25.635C111.621,-28.174 110.986,-30.501 109.717,-32.617C108.447,-34.733 106.762,-36.418 104.663,-37.671C102.564,-38.924 100.228,-39.551 97.656,-39.551C95.117,-39.551 92.79,-38.924 90.674,-37.671C88.558,-36.418 86.873,-34.733 85.62,-32.617C84.367,-30.501 83.74,-28.174 83.74,-25.635C83.74,-23.063 84.367,-20.728 85.62,-18.628C86.873,-16.528 88.558,-14.852 90.674,-13.599C92.79,-12.345 95.117,-11.719 97.656,-11.719ZM144.922,-40.869C147.493,-40.869 149.829,-41.496 151.929,-42.749C154.028,-44.002 155.705,-45.679 156.958,-47.778C158.211,-49.878 158.838,-52.214 158.838,-54.785C158.838,-57.357 158.211,-59.701 156.958,-61.816C155.705,-63.932 154.028,-65.617 151.929,-66.87C149.829,-68.123 147.493,-68.75 144.922,-68.75C142.383,-68.75 140.055,-68.123 137.939,-66.87C135.824,-65.617 134.139,-63.932 132.886,-61.816C131.633,-59.701 131.006,-57.357 131.006,-54.785C131.006,-52.214 131.633,-49.878 132.886,-47.778C134.139,-45.679 135.824,-44.002 137.939,-42.749C140.055,-41.496 142.383,-40.869 144.922,-40.869Z" style="fill-rule:nonzero;"/>
        </g>
        <g id="Bold-L" transform="matrix(1,0,0,1,2253.67,1556)">
            <path d="M16.064,20.41C16.064,22.103 16.585,23.47 17.627,24.512C18.669,25.553 20.036,26.074 21.729,26.074L149.219,26.074C151.27,26.074 153.003,25.399 154.419,24.048C155.835,22.697 156.543,20.98 156.543,18.897C156.543,16.781 155.835,15.047 154.419,13.696C153.003,12.345 151.27,11.67 149.219,11.67L32.178,11.67C31.071,11.67 30.518,11.117 30.518,10.01L30.518,-89.404C30.518,-91.423 29.842,-93.148 28.491,-94.58C27.14,-96.012 25.407,-96.729 23.291,-96.729C21.175,-96.729 19.442,-96.012 18.091,-94.58C16.74,-93.148 16.064,-91.423 16.064,-89.404L16.064,20.41ZM22.559,-20.264L64.307,-44.434L95.264,-18.311L149.268,-51.025L143.75,-60.059L96.045,-31.104L65.234,-57.129L22.559,-32.422L22.559,-20.264ZM64.258,-36.523C66.569,-36.523 68.693,-37.101 70.63,-38.257C72.567,-39.412 74.113,-40.951 75.269,-42.871C76.424,-44.792 77.002,-46.924 77.002,-49.268C77.002,-51.611 76.424,-53.743 75.269,-55.664C74.113,-57.585 72.567,-59.123 70.63,-60.278C68.693,-61.434 66.569,-62.012 64.258,-62.012C61.882,-62.012 59.733,-61.434 57.813,-60.278C55.892,-59.123 54.354,-57.585 53.198,-55.664C52.043,-53.743 51.465,-51.611 51.465,-49.268C51.465,-46.924 52.043,-44.792 53.198,-42.871C54.354,-40.951 55.892,-39.412 57.813,-38.257C59.733,-37.101 61.882,-36.523 64.258,-36.523ZM95.606,-12.012C97.949,-12.012 100.089,-12.589 102.026,-13.745C103.963,-14.901 105.502,-16.439 106.641,-18.359C107.78,-20.28 108.35,-22.412 108.35,-24.756C108.35,-27.1 107.78,-29.24 106.641,-31.177C105.502,-33.114 103.963,-34.652 102.026,-35.791C100.089,-36.93 97.949,-37.5 95.606,-37.5C93.262,-37.5 91.13,-36.93 89.209,-35.791C87.288,-34.652 85.75,-33.114 84.595,-31.177C83.439,-29.24 82.861,-27.1 82.861,-24.756C82.861,-22.412 83.439,-20.28 84.595,-18.359C85.75,-16.439 87.288,-14.901 89.209,-13.745C91.13,-12.589 93.262,-12.012 95.606,-12.012ZM142.92,-41.211C145.264,-41.211 147.396,-41.789 149.316,-42.944C151.237,-44.1 152.775,-45.638 153.931,-47.559C155.086,-49.479 155.664,-51.611 155.664,-53.955C155.664,-56.299 155.086,-58.439 153.931,-60.376C152.775,-62.313 151.237,-63.851 149.316,-64.99C147.396,-66.13 145.264,-66.699 142.92,-66.699C140.576,-66.699 138.436,-66.13 136.499,-64.99C134.562,-63.851 133.024,-62.313 131.885,-60.376C130.746,-58.439 130.176,-56.299 130.176,-53.955C130.176,-51.611 130.746,-49.479 131.885,-47.559C133.024,-45.638 134.562,-44.1 136.499,-42.944C138.436,-41.789 140.576,-41.211 142.92,-41.211Z" style="fill-rule:nonzero;"/>
        </g>
        <g id="Semibold-L" transform="matrix(1,0,0,1,1957.99,1556)">
            <path d="M16.064,19.824C16.064,21.387 16.545,22.648 17.505,23.608C18.465,24.569 19.743,25.049 21.338,25.049L148.242,25.049C149.967,25.049 151.44,24.471 152.661,23.315C153.882,22.16 154.492,20.687 154.492,18.897C154.492,17.139 153.882,15.674 152.661,14.502C151.44,13.33 149.967,12.744 148.242,12.744L30.029,12.744C28.955,12.744 28.418,12.207 28.418,11.133L28.418,-89.16C28.418,-90.885 27.84,-92.358 26.685,-93.579C25.529,-94.8 24.056,-95.41 22.266,-95.41C20.443,-95.41 18.953,-94.8 17.798,-93.579C16.642,-92.358 16.064,-90.885 16.064,-89.16L16.064,19.824ZM22.168,-20.459L63.672,-44.482L94.043,-18.506L147.119,-50.781L142.334,-58.545L94.678,-29.541L64.453,-55.371L22.168,-30.957L22.168,-20.459ZM63.379,-36.475C65.56,-36.475 67.554,-37.004 69.36,-38.062C71.167,-39.119 72.607,-40.56 73.682,-42.383C74.756,-44.206 75.293,-46.191 75.293,-48.34C75.293,-50.553 74.756,-52.564 73.682,-54.37C72.607,-56.177 71.167,-57.617 69.36,-58.691C67.554,-59.766 65.56,-60.303 63.379,-60.303C61.165,-60.303 59.163,-59.766 57.373,-58.691C55.583,-57.617 54.142,-56.177 53.052,-54.37C51.961,-52.564 51.416,-50.553 51.416,-48.34C51.416,-46.191 51.961,-44.206 53.052,-42.383C54.142,-40.56 55.583,-39.119 57.373,-38.062C59.163,-37.004 61.165,-36.475 63.379,-36.475ZM94.19,-12.207C96.37,-12.207 98.364,-12.744 100.171,-13.818C101.978,-14.893 103.418,-16.333 104.492,-18.14C105.567,-19.946 106.104,-21.956 106.104,-24.17C106.104,-26.351 105.567,-28.345 104.492,-30.151C103.418,-31.958 101.978,-33.398 100.171,-34.473C98.364,-35.547 96.37,-36.084 94.19,-36.084C91.976,-36.084 89.974,-35.547 88.184,-34.473C86.393,-33.398 84.961,-31.958 83.887,-30.151C82.813,-28.345 82.275,-26.351 82.275,-24.17C82.275,-21.956 82.813,-19.946 83.887,-18.14C84.961,-16.333 86.393,-14.893 88.184,-13.818C89.974,-12.744 91.976,-12.207 94.19,-12.207ZM141.504,-41.406C143.717,-41.406 145.719,-41.951 147.51,-43.042C149.3,-44.132 150.732,-45.573 151.807,-47.363C152.881,-49.154 153.418,-51.156 153.418,-53.369C153.418,-55.55 152.881,-57.544 151.807,-59.351C150.732,-61.157 149.3,-62.598 147.51,-63.672C145.719,-64.746 143.717,-65.283 141.504,-65.283C139.323,-65.283 137.329,-64.746 135.522,-63.672C133.715,-62.598 132.275,-61.157 131.201,-59.351C130.127,-57.544 129.59,-55.55 129.59,-53.369C129.59,-51.156 130.127,-49.154 131.201,-47.363C132.275,-45.573 133.715,-44.132 135.522,-43.042C137.329,-41.951 139.323,-41.406 141.504,-41.406Z" style="fill-rule:nonzero;"/>
        </g>
        <g id="Medium-L" transform="matrix(1,0,0,1,1662.06,1556)">
            <path d="M16.064,19.336C16.064,20.833 16.52,22.038 17.432,22.949C18.343,23.861 19.531,24.316 20.996,24.316L147.51,24.316C148.975,24.316 150.244,23.804 151.318,22.778C152.393,21.753 152.93,20.475 152.93,18.945C152.93,17.415 152.393,16.146 151.318,15.137C150.244,14.128 148.975,13.623 147.51,13.623L28.418,13.623C27.344,13.623 26.807,13.07 26.807,11.963L26.807,-89.014C26.807,-90.479 26.302,-91.748 25.293,-92.822C24.284,-93.897 22.998,-94.434 21.436,-94.434C19.906,-94.434 18.628,-93.897 17.603,-92.822C16.577,-91.748 16.064,-90.479 16.064,-89.014L16.064,19.336ZM21.924,-20.557L63.135,-44.482L93.115,-18.701L145.508,-50.537L141.211,-57.422L93.652,-28.418L63.867,-54.102L21.924,-29.834L21.924,-20.557ZM62.695,-36.377C64.779,-36.377 66.683,-36.89 68.408,-37.915C70.133,-38.94 71.501,-40.308 72.51,-42.017C73.519,-43.726 74.023,-45.622 74.023,-47.705C74.023,-49.756 73.519,-51.644 72.51,-53.369C71.501,-55.094 70.133,-56.462 68.408,-57.471C66.683,-58.48 64.779,-58.984 62.695,-58.984C60.612,-58.984 58.716,-58.48 57.007,-57.471C55.298,-56.462 53.931,-55.094 52.905,-53.369C51.88,-51.644 51.367,-49.756 51.367,-47.705C51.367,-45.622 51.88,-43.726 52.905,-42.017C53.931,-40.308 55.298,-38.94 57.007,-37.915C58.716,-36.89 60.612,-36.377 62.695,-36.377ZM93.115,-12.402C95.166,-12.402 97.054,-12.907 98.779,-13.916C100.504,-14.925 101.872,-16.292 102.881,-18.018C103.89,-19.743 104.395,-21.631 104.395,-23.682C104.395,-25.798 103.89,-27.702 102.881,-29.395C101.872,-31.087 100.504,-32.446 98.779,-33.472C97.054,-34.497 95.166,-35.01 93.115,-35.01C90.999,-35.01 89.095,-34.497 87.402,-33.472C85.71,-32.446 84.351,-31.087 83.325,-29.395C82.3,-27.702 81.787,-25.798 81.787,-23.682C81.787,-21.631 82.3,-19.743 83.325,-18.018C84.351,-16.292 85.71,-14.925 87.402,-13.916C89.095,-12.907 90.999,-12.402 93.115,-12.402ZM140.43,-41.602C142.546,-41.602 144.45,-42.114 146.143,-43.14C147.836,-44.165 149.195,-45.524 150.22,-47.217C151.245,-48.91 151.758,-50.814 151.758,-52.93C151.758,-54.981 151.245,-56.869 150.22,-58.594C149.195,-60.319 147.836,-61.686 146.143,-62.695C144.45,-63.704 142.546,-64.209 140.43,-64.209C138.379,-64.209 136.491,-63.704 134.766,-62.695C133.041,-61.686 131.673,-60.319 130.664,-58.594C129.655,-56.869 129.15,-54.981 129.15,-52.93C129.15,-50.814 129.655,-48.91 130.664,-47.217C131.673,-45.524 133.041,-44.165 134.766,-43.14C136.491,-42.114 138.379,-41.602 140.43,-41.602Z" style="fill-rule:nonzero;"/>
        </g>
        <g id="Regular-L" transform="matrix(1,0,0,1,1366.37,1556)">
            <path d="M16.064,18.75C16.064,20.117 16.48,21.216 17.31,22.046C18.14,22.876 19.238,23.291 20.606,23.291L146.533,23.291C147.705,23.291 148.722,22.876 149.585,22.046C150.448,21.216 150.879,20.199 150.879,18.994C150.879,17.79 150.448,16.772 149.585,15.942C148.722,15.112 147.705,14.697 146.533,14.697L26.318,14.697C25.244,14.697 24.707,14.16 24.707,13.086L24.707,-88.818C24.707,-89.958 24.3,-90.967 23.486,-91.846C22.673,-92.725 21.647,-93.164 20.41,-93.164C19.173,-93.164 18.14,-92.725 17.31,-91.846C16.48,-90.967 16.064,-89.958 16.064,-88.818L16.064,18.75ZM21.533,-20.752L62.5,-44.531L91.894,-18.897L143.359,-50.293L139.795,-55.908L92.334,-26.904L63.086,-52.393L21.533,-28.369L21.533,-20.752ZM61.865,-36.328C63.786,-36.328 65.544,-36.8 67.139,-37.744C68.734,-38.688 70.003,-39.958 70.947,-41.553C71.891,-43.148 72.363,-44.906 72.363,-46.826C72.363,-48.747 71.891,-50.505 70.947,-52.1C70.003,-53.695 68.734,-54.964 67.139,-55.908C65.544,-56.852 63.786,-57.324 61.865,-57.324C59.912,-57.324 58.146,-56.852 56.567,-55.908C54.989,-54.964 53.719,-53.695 52.759,-52.1C51.799,-50.505 51.318,-48.747 51.318,-46.826C51.318,-44.906 51.799,-43.148 52.759,-41.553C53.719,-39.958 54.989,-38.688 56.567,-37.744C58.146,-36.8 59.912,-36.328 61.865,-36.328ZM91.699,-12.598C93.62,-12.598 95.378,-13.07 96.973,-14.014C98.568,-14.958 99.837,-16.227 100.781,-17.822C101.725,-19.417 102.197,-21.175 102.197,-23.096C102.197,-25.049 101.725,-26.815 100.781,-28.394C99.837,-29.972 98.568,-31.234 96.973,-32.178C95.378,-33.122 93.62,-33.594 91.699,-33.594C89.746,-33.594 87.98,-33.122 86.401,-32.178C84.823,-31.234 83.561,-29.972 82.617,-28.394C81.673,-26.815 81.201,-25.049 81.201,-23.096C81.201,-21.175 81.673,-19.417 82.617,-17.822C83.561,-16.227 84.823,-14.958 86.401,-14.014C87.98,-13.07 89.746,-12.598 91.699,-12.598ZM139.062,-41.797C141.015,-41.797 142.781,-42.277 144.36,-43.237C145.939,-44.198 147.201,-45.467 148.145,-47.046C149.089,-48.625 149.561,-50.391 149.561,-52.344C149.561,-54.264 149.089,-56.022 148.145,-57.617C147.201,-59.212 145.939,-60.482 144.36,-61.426C142.781,-62.37 141.015,-62.842 139.062,-62.842C137.142,-62.842 135.384,-62.37 133.789,-61.426C132.194,-60.482 130.924,-59.212 129.98,-57.617C129.036,-56.022 128.564,-54.264 128.564,-52.344C128.564,-50.391 129.036,-48.625 129.98,-47.046C130.924,-45.467 132.194,-44.198 133.789,-43.237C135.384,-42.277 137.142,-41.797 139.062,-41.797Z" style="fill-rule:nonzero;"/>
        </g>
        <g id="Light-L" transform="matrix(1,0,0,1,1070.13,1556)">
            <path d="M16.064,19.19C16.064,20.394 16.414,21.346 17.114,22.046C17.814,22.746 18.766,23.096 19.971,23.096L146.631,23.096C147.51,23.096 148.283,22.795 148.95,22.192C149.617,21.59 149.951,20.801 149.951,19.824C149.951,18.88 149.617,18.107 148.95,17.505C148.283,16.903 147.51,16.602 146.631,16.602L24.072,16.602C23.128,16.602 22.656,16.146 22.656,15.234L22.656,-89.844C22.656,-90.69 22.355,-91.463 21.753,-92.163C21.151,-92.863 20.378,-93.213 19.434,-93.213C18.424,-93.213 17.611,-92.863 16.992,-92.163C16.374,-91.463 16.064,-90.69 16.064,-89.844L16.064,19.19ZM19.922,-20.801L61.572,-44.971L91.211,-18.555L142.188,-50.586L139.16,-55.078L91.602,-25.098L62.109,-51.367L19.922,-26.953L19.922,-20.801ZM61.133,-37.109C62.891,-37.109 64.502,-37.541 65.967,-38.403C67.432,-39.266 68.595,-40.43 69.458,-41.895C70.321,-43.359 70.752,-44.971 70.752,-46.728C70.752,-48.486 70.321,-50.09 69.458,-51.538C68.595,-52.987 67.432,-54.142 65.967,-55.005C64.502,-55.868 62.891,-56.299 61.133,-56.299C59.375,-56.299 57.772,-55.868 56.323,-55.005C54.875,-54.142 53.719,-52.987 52.856,-51.538C51.994,-50.09 51.563,-48.486 51.563,-46.728C51.563,-44.971 51.994,-43.359 52.856,-41.895C53.719,-40.43 54.875,-39.266 56.323,-38.403C57.772,-37.541 59.375,-37.109 61.133,-37.109ZM91.162,-12.598C92.92,-12.598 94.523,-13.029 95.972,-13.892C97.42,-14.754 98.576,-15.91 99.439,-17.358C100.301,-18.807 100.732,-20.41 100.732,-22.168C100.732,-23.958 100.301,-25.57 99.439,-27.002C98.576,-28.434 97.42,-29.582 95.972,-30.444C94.523,-31.307 92.92,-31.738 91.162,-31.738C89.372,-31.738 87.752,-31.307 86.304,-30.444C84.855,-29.582 83.7,-28.434 82.837,-27.002C81.974,-25.57 81.543,-23.958 81.543,-22.168C81.543,-20.41 81.974,-18.807 82.837,-17.358C83.7,-15.91 84.855,-14.754 86.304,-13.892C87.752,-13.029 89.372,-12.598 91.162,-12.598ZM138.33,-42.529C140.121,-42.529 141.732,-42.969 143.164,-43.848C144.596,-44.727 145.743,-45.89 146.606,-47.339C147.469,-48.787 147.9,-50.391 147.9,-52.148C147.9,-53.906 147.469,-55.509 146.606,-56.958C145.743,-58.407 144.596,-59.562 143.164,-60.425C141.732,-61.287 140.121,-61.719 138.33,-61.719C136.572,-61.719 134.969,-61.287 133.521,-60.425C132.072,-59.562 130.917,-58.407 130.054,-56.958C129.191,-55.509 128.76,-53.906 128.76,-52.148C128.76,-50.391 129.191,-48.787 130.054,-47.339C130.917,-45.89 132.072,-44.727 133.521,-43.848C134.969,-42.969 136.572,-42.529 138.33,-42.529Z" style="fill-rule:nonzero;"/>
        </g>
        <g id="Thin-L" transform="matrix(1,0,0,1,774,1556)">
            <path d="M16.064,19.824C16.064,20.768 16.333,21.509 16.87,22.046C17.407,22.583 18.148,22.852 19.092,22.852L146.777,22.852C147.298,22.852 147.762,22.689 148.169,22.363C148.576,22.038 148.779,21.566 148.779,20.947C148.779,20.329 148.576,19.865 148.169,19.556C147.762,19.246 147.298,19.092 146.777,19.092L21.045,19.092C20.361,19.092 20.02,18.75 20.02,18.066L20.02,-91.211C20.02,-91.699 19.857,-92.155 19.531,-92.578C19.206,-93.001 18.717,-93.213 18.066,-93.213C17.415,-93.213 16.919,-93.001 16.577,-92.578C16.235,-92.155 16.064,-91.699 16.064,-91.211L16.064,19.824ZM17.822,-20.85L60.352,-45.508L90.283,-18.066L140.674,-50.928L138.281,-53.955L90.625,-22.705L60.791,-49.951L17.822,-25.147L17.822,-20.85ZM60.205,-38.184C61.768,-38.184 63.175,-38.566 64.429,-39.331C65.682,-40.096 66.691,-41.105 67.456,-42.358C68.221,-43.612 68.604,-45.02 68.604,-46.582C68.604,-48.112 68.221,-49.512 67.456,-50.781C66.691,-52.051 65.682,-53.06 64.429,-53.809C63.175,-54.557 61.768,-54.932 60.205,-54.932C58.675,-54.932 57.284,-54.557 56.03,-53.809C54.777,-53.06 53.768,-52.051 53.003,-50.781C52.238,-49.512 51.856,-48.112 51.856,-46.582C51.856,-45.02 52.238,-43.612 53.003,-42.358C53.768,-41.105 54.777,-40.096 56.03,-39.331C57.284,-38.566 58.675,-38.184 60.205,-38.184ZM90.381,-12.598C91.943,-12.598 93.359,-12.972 94.629,-13.721C95.898,-14.469 96.899,-15.479 97.632,-16.748C98.364,-18.018 98.731,-19.417 98.731,-20.947C98.731,-22.477 98.364,-23.877 97.632,-25.147C96.899,-26.416 95.898,-27.425 94.629,-28.174C93.359,-28.923 91.943,-29.297 90.381,-29.297C88.851,-29.297 87.459,-28.923 86.206,-28.174C84.953,-27.425 83.944,-26.416 83.179,-25.147C82.414,-23.877 82.031,-22.477 82.031,-20.947C82.031,-19.417 82.414,-18.018 83.179,-16.748C83.944,-15.479 84.953,-14.469 86.206,-13.721C87.459,-12.972 88.851,-12.598 90.381,-12.598ZM137.354,-43.506C138.883,-43.506 140.283,-43.888 141.553,-44.653C142.822,-45.418 143.839,-46.436 144.604,-47.705C145.369,-48.975 145.752,-50.374 145.752,-51.904C145.752,-53.434 145.369,-54.834 144.604,-56.103C143.839,-57.373 142.822,-58.382 141.553,-59.131C140.283,-59.88 138.883,-60.254 137.354,-60.254C135.824,-60.254 134.424,-59.88 133.154,-59.131C131.885,-58.382 130.876,-57.373 130.127,-56.103C129.378,-54.834 129.004,-53.434 129.004,-51.904C129.004,-50.374 129.378,-48.975 130.127,-47.705C130.876,-46.436 131.885,-45.418 133.154,-44.653C134.424,-43.888 135.824,-43.506 137.354,-43.506Z" style="fill-rule:nonzero;"/>
        </g>
        <g id="Ultralight-L" transform="matrix(1,0,0,1,477.607,1556)">
            <path d="M16.064,20.117C16.064,20.931 16.292,21.574 16.748,22.046C17.204,22.518 17.839,22.754 18.652,22.754L146.875,22.754C147.168,22.754 147.452,22.664 147.729,22.485C148.006,22.306 148.145,21.989 148.145,21.533C148.145,21.077 148.006,20.768 147.729,20.606C147.452,20.443 147.168,20.361 146.875,20.361L19.531,20.361C18.913,20.361 18.604,20.068 18.604,19.482L18.604,-91.894C18.604,-92.188 18.514,-92.489 18.335,-92.798C18.156,-93.107 17.855,-93.262 17.432,-93.262C16.943,-93.262 16.593,-93.107 16.382,-92.798C16.17,-92.489 16.064,-92.188 16.064,-91.894L16.064,20.117ZM16.748,-20.898L59.717,-45.801L89.795,-17.871L139.844,-51.123L137.842,-53.418L90.088,-21.484L60.156,-49.268L16.748,-24.17L16.748,-20.898ZM59.717,-38.721C61.149,-38.721 62.451,-39.071 63.623,-39.771C64.795,-40.47 65.731,-41.406 66.431,-42.578C67.131,-43.75 67.481,-45.052 67.481,-46.484C67.481,-47.917 67.131,-49.219 66.431,-50.391C65.731,-51.562 64.795,-52.498 63.623,-53.198C62.451,-53.898 61.149,-54.248 59.717,-54.248C58.317,-54.248 57.031,-53.898 55.859,-53.198C54.688,-52.498 53.752,-51.562 53.052,-50.391C52.352,-49.219 52.002,-47.917 52.002,-46.484C52.002,-45.052 52.352,-43.75 53.052,-42.578C53.752,-41.406 54.688,-40.47 55.859,-39.771C57.031,-39.071 58.317,-38.721 59.717,-38.721ZM90.039,-12.598C91.471,-12.598 92.773,-12.948 93.945,-13.648C95.117,-14.347 96.045,-15.283 96.729,-16.455C97.412,-17.627 97.754,-18.913 97.754,-20.313C97.754,-21.745 97.412,-23.047 96.729,-24.219C96.045,-25.391 95.117,-26.327 93.945,-27.026C92.773,-27.726 91.471,-28.076 90.039,-28.076C88.607,-28.076 87.305,-27.726 86.133,-27.026C84.961,-26.327 84.025,-25.391 83.325,-24.219C82.625,-23.047 82.275,-21.745 82.275,-20.313C82.275,-18.913 82.625,-17.627 83.325,-16.455C84.025,-15.283 84.961,-14.347 86.133,-13.648C87.305,-12.948 88.607,-12.598 90.039,-12.598ZM136.816,-44.043C138.281,-44.043 139.6,-44.393 140.771,-45.093C141.943,-45.793 142.879,-46.729 143.579,-47.9C144.279,-49.072 144.629,-50.374 144.629,-51.807C144.629,-53.206 144.279,-54.492 143.579,-55.664C142.879,-56.836 141.943,-57.772 140.771,-58.472C139.6,-59.172 138.281,-59.522 136.816,-59.522C135.417,-59.522 134.131,-59.172 132.959,-58.472C131.787,-57.772 130.851,-56.836 130.151,-55.664C129.452,-54.492 129.102,-53.206 129.102,-51.807C129.102,-50.374 129.452,-49.072 130.151,-47.9C130.851,-46.729 131.787,-45.793 132.959,-45.093C134.131,-44.393 135.417,-44.043 136.816,-44.043Z" style="fill-rule:nonzero;"/>
        </g>
        <g id="Black-M" transform="matrix(1,0,0,1,2863.33,1126)">
            <path d="M12.451,10.01C12.451,11.637 12.956,12.956 13.965,13.965C14.974,14.974 16.309,15.479 17.969,15.479L118.799,15.479C121.306,15.479 123.413,14.681 125.122,13.086C126.831,11.491 127.686,9.408 127.686,6.836C127.686,4.232 126.831,2.132 125.122,0.537C123.413,-1.058 121.306,-1.855 118.799,-1.855L31.055,-1.855C30.208,-1.855 29.785,-2.279 29.785,-3.125L29.785,-78.174C29.785,-80.713 28.988,-82.837 27.393,-84.546C25.798,-86.255 23.714,-87.109 21.143,-87.109C18.538,-87.109 16.439,-86.255 14.844,-84.546C13.249,-82.837 12.451,-80.713 12.451,-78.174L12.451,10.01ZM18.164,-23.047L51.66,-42.383L77.539,-21.289L122.266,-48.438L115.869,-59.082L78.516,-36.328L52.734,-57.373L18.164,-37.353L18.164,-23.047ZM52.344,-36.719C54.557,-36.719 56.592,-37.272 58.447,-38.379C60.303,-39.486 61.784,-40.959 62.891,-42.798C63.997,-44.637 64.551,-46.68 64.551,-48.926C64.551,-51.172 63.997,-53.215 62.891,-55.054C61.784,-56.893 60.303,-58.366 58.447,-59.473C56.592,-60.579 54.557,-61.133 52.344,-61.133C50.098,-61.133 48.047,-60.579 46.191,-59.473C44.336,-58.366 42.863,-56.893 41.773,-55.054C40.682,-53.215 40.137,-51.172 40.137,-48.926C40.137,-46.68 40.682,-44.637 41.773,-42.798C42.863,-40.959 44.336,-39.486 46.191,-38.379C48.047,-37.272 50.098,-36.719 52.344,-36.719ZM78.516,-16.553C80.762,-16.553 82.804,-17.098 84.644,-18.189C86.483,-19.279 87.956,-20.752 89.063,-22.607C90.169,-24.463 90.723,-26.514 90.723,-28.76C90.723,-30.973 90.169,-33.008 89.063,-34.863C87.956,-36.719 86.483,-38.2 84.644,-39.307C82.804,-40.413 80.762,-40.967 78.516,-40.967C76.27,-40.967 74.227,-40.413 72.388,-39.307C70.549,-38.2 69.076,-36.719 67.969,-34.863C66.862,-33.008 66.309,-30.973 66.309,-28.76C66.309,-26.514 66.862,-24.463 67.969,-22.607C69.076,-20.752 70.549,-19.279 72.388,-18.189C74.227,-17.098 76.27,-16.553 78.516,-16.553ZM115.039,-39.356C117.252,-39.356 119.287,-39.909 121.143,-41.016C122.998,-42.122 124.471,-43.604 125.562,-45.459C126.652,-47.314 127.197,-49.349 127.197,-51.563C127.197,-53.809 126.652,-55.859 125.562,-57.715C124.471,-59.57 122.998,-61.043 121.143,-62.134C119.287,-63.224 117.252,-63.77 115.039,-63.77C112.793,-63.77 110.742,-63.224 108.887,-62.134C107.032,-61.043 105.559,-59.57 104.468,-57.715C103.377,-55.859 102.832,-53.809 102.832,-51.563C102.832,-49.349 103.377,-47.314 104.468,-45.459C105.559,-43.604 107.032,-42.122 108.887,-41.016C110.742,-39.909 112.793,-39.356 115.039,-39.356Z" style="fill-rule:nonzero;"/>
        </g>
        <g id="Heavy-M" transform="matrix(1,0,0,1,2567.84,1126)">
            <path d="M12.451,9.131C12.451,10.661 12.923,11.898 13.867,12.842C14.811,13.786 16.048,14.258 17.578,14.258L117.529,14.258C119.71,14.258 121.541,13.558 123.022,12.158C124.503,10.758 125.244,8.936 125.244,6.689C125.244,4.443 124.503,2.629 123.022,1.245C121.541,-0.138 119.71,-0.83 117.529,-0.83L28.857,-0.83C27.979,-0.83 27.539,-1.27 27.539,-2.148L27.539,-77.686C27.539,-79.867 26.839,-81.706 25.44,-83.203C24.04,-84.701 22.233,-85.449 20.02,-85.449C17.773,-85.449 15.951,-84.701 14.551,-83.203C13.151,-81.706 12.451,-79.867 12.451,-77.686L12.451,9.131ZM18.018,-23.291L51.025,-42.334L76.123,-21.631L119.775,-48.047L114.16,-57.324L76.953,-34.815L51.953,-55.42L18.018,-35.791L18.018,-23.291ZM51.416,-36.475C53.467,-36.475 55.355,-36.987 57.08,-38.013C58.805,-39.038 60.189,-40.405 61.231,-42.114C62.272,-43.823 62.793,-45.736 62.793,-47.852C62.793,-49.935 62.272,-51.831 61.231,-53.54C60.189,-55.249 58.805,-56.616 57.08,-57.642C55.355,-58.667 53.467,-59.18 51.416,-59.18C49.3,-59.18 47.38,-58.667 45.654,-57.642C43.929,-56.616 42.562,-55.249 41.553,-53.54C40.544,-51.831 40.039,-49.935 40.039,-47.852C40.039,-45.736 40.544,-43.823 41.553,-42.114C42.562,-40.405 43.929,-39.038 45.654,-38.013C47.38,-36.987 49.3,-36.475 51.416,-36.475ZM76.856,-16.797C78.939,-16.797 80.835,-17.31 82.544,-18.335C84.253,-19.36 85.62,-20.736 86.646,-22.461C87.671,-24.186 88.184,-26.09 88.184,-28.174C88.184,-30.257 87.671,-32.161 86.646,-33.887C85.62,-35.612 84.253,-36.987 82.544,-38.013C80.835,-39.038 78.939,-39.551 76.856,-39.551C74.74,-39.551 72.827,-39.038 71.118,-38.013C69.409,-36.987 68.042,-35.612 67.017,-33.887C65.991,-32.161 65.478,-30.257 65.478,-28.174C65.478,-26.09 65.991,-24.186 67.017,-22.461C68.042,-20.736 69.409,-19.36 71.118,-18.335C72.827,-17.31 74.74,-16.797 76.856,-16.797ZM113.428,-39.502C115.479,-39.502 117.375,-40.015 119.116,-41.04C120.858,-42.065 122.233,-43.441 123.242,-45.166C124.251,-46.891 124.756,-48.796 124.756,-50.879C124.756,-52.962 124.251,-54.867 123.242,-56.592C122.233,-58.317 120.858,-59.692 119.116,-60.718C117.375,-61.743 115.479,-62.256 113.428,-62.256C111.345,-62.256 109.432,-61.743 107.69,-60.718C105.949,-59.692 104.573,-58.317 103.564,-56.592C102.555,-54.867 102.051,-52.962 102.051,-50.879C102.051,-48.796 102.555,-46.891 103.564,-45.166C104.573,-43.441 105.949,-42.065 107.69,-41.04C109.432,-40.015 111.345,-39.502 113.428,-39.502Z" style="fill-rule:nonzero;"/>
        </g>
        <g id="Bold-M" transform="matrix(1,0,0,1,2272.47,1126)">
            <path d="M12.451,8.203C12.451,9.603 12.883,10.726 13.745,11.572C14.608,12.419 15.755,12.842 17.188,12.842L116.162,12.842C117.953,12.842 119.466,12.256 120.703,11.084C121.94,9.912 122.559,8.415 122.559,6.592C122.559,4.736 121.94,3.223 120.703,2.051C119.466,0.879 117.953,0.293 116.162,0.293L26.367,0.293C25.488,0.293 25.049,-0.163 25.049,-1.074L25.049,-77.197C25.049,-78.988 24.463,-80.501 23.291,-81.738C22.119,-82.975 20.622,-83.594 18.799,-83.594C16.943,-83.594 15.422,-82.975 14.233,-81.738C13.045,-80.501 12.451,-78.988 12.451,-77.197L12.451,8.203ZM17.871,-23.535L50.342,-42.285L74.561,-22.07L117.041,-47.607L112.305,-55.42L75.244,-33.106L51.123,-53.272L17.871,-34.033L17.871,-23.535ZM50.342,-36.182C52.262,-36.182 54.012,-36.654 55.591,-37.598C57.17,-38.542 58.431,-39.803 59.375,-41.382C60.319,-42.961 60.791,-44.71 60.791,-46.631C60.791,-48.551 60.319,-50.301 59.375,-51.88C58.431,-53.459 57.17,-54.712 55.591,-55.64C54.012,-56.567 52.262,-57.031 50.342,-57.031C48.421,-57.031 46.672,-56.567 45.093,-55.64C43.514,-54.712 42.253,-53.459 41.309,-51.88C40.365,-50.301 39.893,-48.551 39.893,-46.631C39.893,-44.71 40.365,-42.961 41.309,-41.382C42.253,-39.803 43.514,-38.542 45.093,-37.598C46.672,-36.654 48.421,-36.182 50.342,-36.182ZM74.951,-17.139C76.872,-17.139 78.621,-17.603 80.2,-18.53C81.779,-19.458 83.04,-20.719 83.984,-22.315C84.928,-23.91 85.4,-25.667 85.4,-27.588C85.4,-29.476 84.928,-31.217 83.984,-32.813C83.04,-34.408 81.779,-35.669 80.2,-36.597C78.621,-37.524 76.872,-37.988 74.951,-37.988C73.031,-37.988 71.281,-37.524 69.702,-36.597C68.123,-35.669 66.862,-34.408 65.918,-32.813C64.974,-31.217 64.502,-29.476 64.502,-27.588C64.502,-25.667 64.974,-23.91 65.918,-22.315C66.862,-20.719 68.123,-19.458 69.702,-18.53C71.281,-17.603 73.031,-17.139 74.951,-17.139ZM111.621,-39.648C113.542,-39.648 115.291,-40.12 116.87,-41.065C118.449,-42.009 119.71,-43.27 120.654,-44.849C121.598,-46.427 122.07,-48.177 122.07,-50.098C122.07,-52.018 121.598,-53.768 120.654,-55.347C119.71,-56.925 118.449,-58.187 116.87,-59.131C115.291,-60.075 113.542,-60.547 111.621,-60.547C109.7,-60.547 107.951,-60.075 106.372,-59.131C104.793,-58.187 103.532,-56.925 102.588,-55.347C101.644,-53.768 101.172,-52.018 101.172,-50.098C101.172,-48.177 101.644,-46.427 102.588,-44.849C103.532,-43.27 104.793,-42.009 106.372,-41.065C107.951,-40.12 109.7,-39.648 111.621,-39.648Z" style="fill-rule:nonzero;"/>
        </g>
        <g id="Semibold-M" transform="matrix(1,0,0,1,1976.69,1126)">
            <path d="M12.451,7.52C12.451,8.822 12.858,9.871 13.672,10.669C14.486,11.466 15.544,11.865 16.846,11.865L115.186,11.865C116.715,11.865 118.017,11.361 119.092,10.352C120.166,9.342 120.703,8.04 120.703,6.445C120.703,4.915 120.166,3.63 119.092,2.588C118.017,1.546 116.715,1.025 115.186,1.025L24.658,1.025C23.779,1.025 23.34,0.586 23.34,-0.293L23.34,-76.807C23.34,-78.337 22.819,-79.639 21.777,-80.713C20.736,-81.787 19.45,-82.324 17.92,-82.324C16.325,-82.324 15.015,-81.787 13.989,-80.713C12.964,-79.639 12.451,-78.337 12.451,-76.807L12.451,7.52ZM17.773,-23.731L49.805,-42.236L73.486,-22.315L115.088,-47.266L110.986,-54.053L74.072,-31.885L50.488,-51.758L17.773,-32.813L17.773,-23.731ZM49.609,-35.938C51.4,-35.938 53.044,-36.385 54.541,-37.28C56.038,-38.175 57.227,-39.364 58.106,-40.845C58.984,-42.326 59.424,-43.962 59.424,-45.752C59.424,-47.575 58.984,-49.227 58.106,-50.708C57.227,-52.189 56.038,-53.361 54.541,-54.224C53.044,-55.086 51.4,-55.518 49.609,-55.518C47.819,-55.518 46.175,-55.086 44.678,-54.224C43.18,-53.361 41.992,-52.189 41.113,-50.708C40.234,-49.227 39.795,-47.575 39.795,-45.752C39.795,-43.962 40.234,-42.326 41.113,-40.845C41.992,-39.364 43.18,-38.175 44.678,-37.28C46.175,-36.385 47.819,-35.938 49.609,-35.938ZM73.633,-17.334C75.456,-17.334 77.108,-17.773 78.589,-18.652C80.07,-19.531 81.25,-20.711 82.129,-22.192C83.008,-23.674 83.447,-25.326 83.447,-27.148C83.447,-28.939 83.008,-30.575 82.129,-32.056C81.25,-33.537 80.07,-34.717 78.589,-35.596C77.108,-36.475 75.456,-36.914 73.633,-36.914C71.842,-36.914 70.207,-36.475 68.726,-35.596C67.244,-34.717 66.064,-33.537 65.186,-32.056C64.307,-30.575 63.867,-28.939 63.867,-27.148C63.867,-25.326 64.307,-23.674 65.186,-22.192C66.064,-20.711 67.244,-19.531 68.726,-18.652C70.207,-17.773 71.842,-17.334 73.633,-17.334ZM110.4,-39.746C112.191,-39.746 113.827,-40.186 115.308,-41.065C116.789,-41.943 117.969,-43.123 118.848,-44.605C119.727,-46.086 120.166,-47.721 120.166,-49.512C120.166,-51.335 119.727,-52.987 118.848,-54.468C117.969,-55.949 116.789,-57.129 115.308,-58.008C113.827,-58.887 112.191,-59.326 110.4,-59.326C108.577,-59.326 106.925,-58.887 105.444,-58.008C103.963,-57.129 102.783,-55.949 101.904,-54.468C101.025,-52.987 100.586,-51.335 100.586,-49.512C100.586,-47.721 101.025,-46.086 101.904,-44.605C102.783,-43.123 103.963,-41.943 105.444,-41.065C106.925,-40.186 108.577,-39.746 110.4,-39.746Z" style="fill-rule:nonzero;"/>
        </g>
        <g id="Medium-M" transform="matrix(1,0,0,1,1680.69,1126)">
            <path d="M12.451,6.982C12.451,8.252 12.834,9.261 13.599,10.01C14.364,10.758 15.381,11.133 16.65,11.133L114.453,11.133C115.788,11.133 116.927,10.685 117.871,9.79C118.815,8.895 119.287,7.764 119.287,6.396C119.287,5.062 118.815,3.931 117.871,3.003C116.927,2.075 115.788,1.611 114.453,1.611L23.389,1.611C22.477,1.611 22.022,1.172 22.022,0.293L22.022,-76.514C22.022,-77.848 21.566,-78.988 20.654,-79.932C19.743,-80.876 18.604,-81.348 17.236,-81.348C15.869,-81.348 14.73,-80.876 13.818,-79.932C12.907,-78.988 12.451,-77.848 12.451,-76.514L12.451,6.982ZM17.676,-23.828L49.463,-42.236L72.656,-22.51L113.672,-47.022L109.961,-53.027L73.144,-31.006L50.049,-50.586L17.676,-31.885L17.676,-23.828ZM49.072,-35.791C50.765,-35.791 52.319,-36.214 53.735,-37.061C55.151,-37.907 56.283,-39.03 57.129,-40.43C57.975,-41.829 58.398,-43.392 58.398,-45.117C58.398,-46.842 57.975,-48.405 57.129,-49.805C56.283,-51.204 55.151,-52.319 53.735,-53.149C52.319,-53.979 50.765,-54.395 49.072,-54.395C47.347,-54.395 45.776,-53.979 44.36,-53.149C42.944,-52.319 41.821,-51.204 40.991,-49.805C40.161,-48.405 39.746,-46.842 39.746,-45.117C39.746,-43.392 40.161,-41.829 40.991,-40.43C41.821,-39.03 42.944,-37.907 44.36,-37.061C45.776,-36.214 47.347,-35.791 49.072,-35.791ZM72.656,-17.481C74.381,-17.481 75.952,-17.896 77.368,-18.726C78.784,-19.556 79.899,-20.679 80.713,-22.095C81.527,-23.511 81.934,-25.081 81.934,-26.807C81.934,-28.499 81.527,-30.054 80.713,-31.47C79.899,-32.886 78.784,-34.009 77.368,-34.839C75.952,-35.669 74.381,-36.084 72.656,-36.084C70.964,-36.084 69.409,-35.669 67.993,-34.839C66.577,-34.009 65.446,-32.886 64.6,-31.47C63.753,-30.054 63.33,-28.499 63.33,-26.807C63.33,-25.081 63.753,-23.511 64.6,-22.095C65.446,-20.679 66.577,-19.556 67.993,-18.726C69.409,-17.896 70.964,-17.481 72.656,-17.481ZM109.424,-39.795C111.149,-39.795 112.72,-40.218 114.136,-41.065C115.552,-41.911 116.675,-43.042 117.505,-44.458C118.335,-45.874 118.75,-47.428 118.75,-49.121C118.75,-50.846 118.335,-52.417 117.505,-53.833C116.675,-55.249 115.552,-56.372 114.136,-57.202C112.72,-58.032 111.149,-58.447 109.424,-58.447C107.731,-58.447 106.177,-58.032 104.761,-57.202C103.345,-56.372 102.214,-55.249 101.367,-53.833C100.521,-52.417 100.098,-50.846 100.098,-49.121C100.098,-47.428 100.521,-45.874 101.367,-44.458C102.214,-43.042 103.345,-41.911 104.761,-41.065C106.177,-40.218 107.731,-39.795 109.424,-39.795Z" style="fill-rule:nonzero;"/>
        </g>
        <g id="Regular-M" transform="matrix(1,0,0,1,1384.9,1126)">
            <g transform="matrix(0.180566,0,0,0.180566,64.9416,-34.9365)">
                <g id="Regular-M1" serif:id="Regular-M">
                    <g transform="matrix(1,0,0,1,-312.5,-250)">
                        <clipPath id="_clip1">
                            <rect x="0" y="0" width="625" height="500"/>
                        </clipPath>
                        <g clip-path="url(#_clip1)">
                            <path d="M448.048,136.489C419.612,116.225 396.146,99.457 387.918,93.451C365.222,76.882 572.988,-20.691 607.587,3.973C642.187,28.637 618.314,257.729 595.516,241.435C587.231,235.513 563.737,218.808 535.287,198.575L384.516,411.309C379.213,418.79 370.762,422.723 362.235,422.584C356.904,422.571 351.523,420.968 346.846,417.649L210.955,321.203L92.229,488.722C83.686,500.776 66.97,503.617 54.924,495.063L11.274,464.064C-0.772,455.51 -3.616,438.779 4.927,426.725L169.461,194.572C172.502,190.281 176.58,187.157 181.111,185.301C189.547,181.362 199.806,181.943 207.938,187.715L343.536,283.953L448.048,136.489Z"/>
                        </g>
                    </g>
                </g>
            </g>
        </g>
        <g id="Light-M" transform="matrix(1,0,0,1,1088.61,1126)">
            <path d="M12.451,6.738C12.451,7.747 12.752,8.553 13.355,9.155C13.957,9.757 14.762,10.059 15.772,10.059L113.574,10.059C114.388,10.059 115.096,9.774 115.698,9.204C116.301,8.634 116.602,7.926 116.602,7.08C116.602,6.234 116.301,5.526 115.698,4.956C115.096,4.386 114.388,4.102 113.574,4.102L19.629,4.102C18.88,4.102 18.506,3.711 18.506,2.93L18.506,-77.1C18.506,-77.881 18.221,-78.581 17.651,-79.199C17.082,-79.818 16.374,-80.127 15.527,-80.127C14.648,-80.127 13.916,-79.818 13.33,-79.199C12.744,-78.581 12.451,-77.881 12.451,-77.1L12.451,6.738ZM16.162,-24.072L48.145,-42.578L70.996,-22.461L110.742,-46.973L108.105,-50.977L71.338,-28.223L48.584,-48.193L16.162,-29.492L16.162,-24.072ZM47.705,-36.328C49.137,-36.328 50.456,-36.686 51.66,-37.402C52.865,-38.119 53.817,-39.063 54.517,-40.234C55.216,-41.406 55.566,-42.725 55.566,-44.19C55.566,-45.622 55.216,-46.932 54.517,-48.12C53.817,-49.308 52.865,-50.252 51.66,-50.952C50.456,-51.652 49.137,-52.002 47.705,-52.002C46.273,-52.002 44.963,-51.652 43.774,-50.952C42.586,-50.252 41.634,-49.308 40.918,-48.12C40.202,-46.932 39.844,-45.622 39.844,-44.19C39.844,-42.725 40.202,-41.406 40.918,-40.234C41.634,-39.063 42.586,-38.119 43.774,-37.402C44.963,-36.686 46.273,-36.328 47.705,-36.328ZM70.898,-17.676C72.331,-17.676 73.641,-18.026 74.829,-18.726C76.017,-19.425 76.961,-20.378 77.661,-21.582C78.361,-22.786 78.711,-24.105 78.711,-25.537C78.711,-26.969 78.361,-28.288 77.661,-29.492C76.961,-30.697 76.017,-31.641 74.829,-32.324C73.641,-33.008 72.331,-33.35 70.898,-33.35C69.434,-33.35 68.107,-33.008 66.919,-32.324C65.731,-31.641 64.787,-30.697 64.087,-29.492C63.387,-28.288 63.037,-26.969 63.037,-25.537C63.037,-24.105 63.387,-22.786 64.087,-21.582C64.787,-20.378 65.731,-19.425 66.919,-18.726C68.107,-18.026 69.434,-17.676 70.898,-17.676ZM107.52,-40.576C108.985,-40.576 110.311,-40.926 111.499,-41.626C112.687,-42.326 113.631,-43.27 114.331,-44.458C115.031,-45.646 115.381,-46.973 115.381,-48.438C115.381,-49.87 115.031,-51.18 114.331,-52.368C113.631,-53.556 112.687,-54.508 111.499,-55.225C110.311,-55.941 108.985,-56.299 107.52,-56.299C106.087,-56.299 104.777,-55.941 103.589,-55.225C102.401,-54.508 101.449,-53.556 100.732,-52.368C100.016,-51.18 99.658,-49.87 99.658,-48.438C99.658,-46.973 100.016,-45.646 100.732,-44.458C101.449,-43.27 102.401,-42.326 103.589,-41.626C104.777,-40.926 106.087,-40.576 107.52,-40.576Z" style="fill-rule:nonzero;"/>
        </g>
        <g id="Thin-M" transform="matrix(1,0,0,1,792.433,1126)">
            <path d="M12.451,7.275C12.451,8.089 12.679,8.716 13.135,9.155C13.591,9.595 14.209,9.814 14.99,9.814L113.721,9.814C114.176,9.814 114.591,9.66 114.966,9.351C115.34,9.041 115.527,8.626 115.527,8.105C115.527,7.552 115.34,7.121 114.966,6.812C114.591,6.502 114.176,6.348 113.721,6.348L16.992,6.348C16.406,6.348 16.113,6.055 16.113,5.469L16.113,-78.32C16.113,-78.776 15.951,-79.199 15.625,-79.59C15.299,-79.98 14.876,-80.176 14.355,-80.176C13.737,-80.176 13.265,-79.98 12.94,-79.59C12.614,-79.199 12.451,-78.776 12.451,-78.32L12.451,7.275ZM14.258,-24.072L47.022,-43.066L70.166,-22.07L109.326,-47.315L107.373,-50L70.459,-26.025L47.412,-46.924L14.258,-27.832L14.258,-24.072ZM46.875,-37.305C48.112,-37.305 49.243,-37.606 50.269,-38.208C51.294,-38.81 52.108,-39.624 52.71,-40.649C53.312,-41.675 53.613,-42.806 53.613,-44.043C53.613,-45.28 53.312,-46.411 52.71,-47.437C52.108,-48.462 51.294,-49.276 50.269,-49.878C49.243,-50.48 48.112,-50.781 46.875,-50.781C45.638,-50.781 44.507,-50.48 43.481,-49.878C42.456,-49.276 41.634,-48.462 41.016,-47.437C40.397,-46.411 40.088,-45.28 40.088,-44.043C40.088,-42.806 40.397,-41.675 41.016,-40.649C41.634,-39.624 42.456,-38.81 43.481,-38.208C44.507,-37.606 45.638,-37.305 46.875,-37.305ZM70.215,-17.676C71.452,-17.676 72.583,-17.977 73.608,-18.579C74.634,-19.181 75.448,-19.995 76.05,-21.02C76.652,-22.046 76.953,-23.177 76.953,-24.414C76.953,-25.684 76.652,-26.831 76.05,-27.856C75.448,-28.882 74.634,-29.696 73.608,-30.298C72.583,-30.9 71.452,-31.201 70.215,-31.201C68.978,-31.201 67.847,-30.9 66.821,-30.298C65.796,-29.696 64.982,-28.882 64.38,-27.856C63.778,-26.831 63.477,-25.684 63.477,-24.414C63.477,-23.177 63.778,-22.046 64.38,-21.02C64.982,-19.995 65.796,-19.181 66.821,-18.579C67.847,-17.977 68.978,-17.676 70.215,-17.676ZM106.641,-41.455C107.91,-41.455 109.058,-41.764 110.083,-42.383C111.108,-43.001 111.922,-43.815 112.524,-44.824C113.127,-45.833 113.428,-46.956 113.428,-48.193C113.428,-49.43 113.127,-50.562 112.524,-51.587C111.922,-52.612 111.108,-53.426 110.083,-54.028C109.058,-54.631 107.91,-54.932 106.641,-54.932C105.404,-54.932 104.28,-54.631 103.271,-54.028C102.262,-53.426 101.449,-52.612 100.83,-51.587C100.212,-50.562 99.902,-49.43 99.902,-48.193C99.902,-46.956 100.212,-45.833 100.83,-44.824C101.449,-43.815 102.262,-43.001 103.271,-42.383C104.28,-41.764 105.404,-41.455 106.641,-41.455Z" style="fill-rule:nonzero;"/>
        </g>
        <g id="Ultralight-M" transform="matrix(1,0,0,1,495.99,1126)">
            <path d="M12.451,7.568C12.451,8.252 12.647,8.781 13.037,9.155C13.428,9.53 13.949,9.717 14.6,9.717L113.818,9.717C114.079,9.717 114.339,9.627 114.6,9.448C114.86,9.269 114.99,8.984 114.99,8.594C114.99,8.203 114.86,7.918 114.6,7.739C114.339,7.56 114.079,7.471 113.818,7.471L15.576,7.471C15.088,7.471 14.844,7.227 14.844,6.738L14.844,-78.955C14.844,-79.215 14.754,-79.492 14.575,-79.785C14.396,-80.078 14.111,-80.225 13.721,-80.225C13.298,-80.225 12.98,-80.078 12.769,-79.785C12.557,-79.492 12.451,-79.215 12.451,-78.955L12.451,7.568ZM13.33,-24.121L46.484,-43.311L69.775,-21.826L108.643,-47.51L106.982,-49.463L70.019,-24.951L46.826,-46.289L13.33,-27.002L13.33,-24.121ZM46.436,-37.793C47.575,-37.793 48.617,-38.078 49.561,-38.648C50.505,-39.217 51.253,-39.958 51.807,-40.869C52.36,-41.781 52.637,-42.806 52.637,-43.945C52.637,-45.117 52.36,-46.167 51.807,-47.095C51.253,-48.022 50.505,-48.763 49.561,-49.316C48.617,-49.87 47.575,-50.147 46.436,-50.147C45.329,-50.147 44.303,-49.87 43.359,-49.316C42.415,-48.763 41.659,-48.022 41.089,-47.095C40.519,-46.167 40.234,-45.117 40.234,-43.945C40.234,-42.806 40.519,-41.781 41.089,-40.869C41.659,-39.958 42.415,-39.217 43.359,-38.648C44.303,-38.078 45.329,-37.793 46.436,-37.793ZM69.873,-17.676C71.012,-17.676 72.054,-17.953 72.998,-18.506C73.942,-19.059 74.691,-19.808 75.244,-20.752C75.798,-21.696 76.074,-22.738 76.074,-23.877C76.074,-25.016 75.798,-26.058 75.244,-27.002C74.691,-27.946 73.942,-28.695 72.998,-29.248C72.054,-29.801 71.012,-30.078 69.873,-30.078C68.734,-30.078 67.7,-29.801 66.772,-29.248C65.845,-28.695 65.096,-27.946 64.526,-27.002C63.957,-26.058 63.672,-25.016 63.672,-23.877C63.672,-22.738 63.957,-21.696 64.526,-20.752C65.096,-19.808 65.845,-19.059 66.772,-18.506C67.7,-17.953 68.734,-17.676 69.873,-17.676ZM106.201,-41.895C107.34,-41.895 108.382,-42.179 109.326,-42.749C110.27,-43.319 111.019,-44.067 111.572,-44.995C112.125,-45.923 112.402,-46.956 112.402,-48.096C112.402,-49.235 112.125,-50.277 111.572,-51.221C111.019,-52.165 110.27,-52.913 109.326,-53.467C108.382,-54.02 107.34,-54.297 106.201,-54.297C105.062,-54.297 104.028,-54.02 103.101,-53.467C102.173,-52.913 101.424,-52.165 100.854,-51.221C100.285,-50.277 100,-49.235 100,-48.096C100,-46.956 100.285,-45.923 100.854,-44.995C101.424,-44.067 102.173,-43.319 103.101,-42.749C104.028,-42.179 105.062,-41.895 106.201,-41.895Z" style="fill-rule:nonzero;"/>
        </g>
        <g id="Black-S" transform="matrix(1,0,0,1,2878.15,696)">
            <path d="M9.766,0.488C9.766,1.79 10.173,2.848 10.986,3.662C11.8,4.476 12.858,4.883 14.16,4.883L93.457,4.883C95.54,4.883 97.274,4.232 98.657,2.93C100.04,1.628 100.732,-0.081 100.732,-2.197C100.732,-4.313 100.04,-6.022 98.657,-7.324C97.274,-8.626 95.54,-9.277 93.457,-9.277L24.902,-9.277C24.251,-9.277 23.926,-9.603 23.926,-10.254L23.926,-69.092C23.926,-71.175 23.275,-72.909 21.973,-74.292C20.671,-75.675 18.962,-76.367 16.846,-76.367C14.73,-76.367 13.021,-75.675 11.719,-74.292C10.417,-72.909 9.766,-71.175 9.766,-69.092L9.766,0.488ZM14.209,-25.635L40.625,-40.869L61.133,-24.17L96.484,-45.703L91.26,-54.395L61.963,-36.475L41.504,-53.125L14.209,-37.305L14.209,-25.635ZM41.26,-36.523C43.962,-36.523 46.265,-37.484 48.169,-39.404C50.073,-41.325 51.025,-43.62 51.025,-46.289C51.025,-48.991 50.073,-51.294 48.169,-53.198C46.265,-55.103 43.962,-56.055 41.26,-56.055C38.591,-56.055 36.296,-55.103 34.375,-53.198C32.454,-51.294 31.494,-48.991 31.494,-46.289C31.494,-43.62 32.454,-41.325 34.375,-39.404C36.296,-37.484 38.591,-36.523 41.26,-36.523ZM62.012,-20.508C64.714,-20.508 67.017,-21.468 68.921,-23.389C70.825,-25.309 71.777,-27.604 71.777,-30.273C71.777,-32.975 70.825,-35.278 68.921,-37.183C67.017,-39.087 64.714,-40.039 62.012,-40.039C59.342,-40.039 57.048,-39.087 55.127,-37.183C53.206,-35.278 52.246,-32.975 52.246,-30.273C52.246,-27.604 53.206,-25.309 55.127,-23.389C57.048,-21.468 59.342,-20.508 62.012,-20.508ZM90.576,-38.477C93.278,-38.477 95.581,-39.437 97.485,-41.357C99.39,-43.278 100.342,-45.573 100.342,-48.242C100.342,-50.944 99.39,-53.247 97.485,-55.151C95.581,-57.056 93.278,-58.008 90.576,-58.008C87.907,-58.008 85.612,-57.056 83.691,-55.151C81.771,-53.247 80.811,-50.944 80.811,-48.242C80.811,-45.573 81.771,-43.278 83.691,-41.357C85.612,-39.437 87.907,-38.477 90.576,-38.477Z" style="fill-rule:nonzero;"/>
        </g>
        <g id="Heavy-S" transform="matrix(1,0,0,1,2582.42,696)">
            <path d="M9.766,-0.293C9.766,0.944 10.148,1.945 10.913,2.71C11.678,3.475 12.679,3.857 13.916,3.857L92.383,3.857C94.206,3.857 95.728,3.271 96.948,2.1C98.169,0.928 98.779,-0.57 98.779,-2.393C98.779,-4.248 98.169,-5.754 96.948,-6.909C95.728,-8.065 94.206,-8.643 92.383,-8.643L23.291,-8.643C22.607,-8.643 22.266,-8.984 22.266,-9.668L22.266,-68.555C22.266,-70.378 21.688,-71.899 20.532,-73.12C19.377,-74.341 17.871,-74.951 16.016,-74.951C14.16,-74.951 12.655,-74.341 11.499,-73.12C10.343,-71.899 9.766,-70.378 9.766,-68.555L9.766,-0.293ZM14.258,-25.83L40.186,-40.772L60.01,-24.512L94.482,-45.313L89.893,-53.027L60.742,-35.352L40.967,-51.563L14.258,-36.133L14.258,-25.83ZM40.527,-36.182C43.066,-36.182 45.231,-37.085 47.022,-38.892C48.812,-40.698 49.707,-42.855 49.707,-45.361C49.707,-47.9 48.812,-50.065 47.022,-51.856C45.231,-53.646 43.066,-54.541 40.527,-54.541C38.021,-54.541 35.872,-53.646 34.082,-51.856C32.292,-50.065 31.397,-47.9 31.397,-45.361C31.397,-42.855 32.292,-40.698 34.082,-38.892C35.872,-37.085 38.021,-36.182 40.527,-36.182ZM60.645,-20.752C63.184,-20.752 65.34,-21.647 67.114,-23.438C68.888,-25.228 69.775,-27.376 69.775,-29.883C69.775,-32.422 68.888,-34.587 67.114,-36.377C65.34,-38.167 63.184,-39.063 60.645,-39.063C58.138,-39.063 55.981,-38.167 54.175,-36.377C52.368,-34.587 51.465,-32.422 51.465,-29.883C51.465,-27.376 52.368,-25.228 54.175,-23.438C55.981,-21.647 58.138,-20.752 60.645,-20.752ZM89.307,-38.477C91.813,-38.477 93.962,-39.38 95.752,-41.187C97.542,-42.993 98.438,-45.15 98.438,-47.656C98.438,-50.195 97.542,-52.36 95.752,-54.15C93.962,-55.941 91.813,-56.836 89.307,-56.836C86.8,-56.836 84.644,-55.941 82.837,-54.15C81.03,-52.36 80.127,-50.195 80.127,-47.656C80.127,-45.15 81.03,-42.993 82.837,-41.187C84.644,-39.38 86.8,-38.477 89.307,-38.477Z" style="fill-rule:nonzero;"/>
        </g>
        <g id="Bold-S" transform="matrix(1,0,0,1,2286.8,696)">
            <path d="M9.766,-1.221C9.766,-0.049 10.124,0.895 10.84,1.611C11.556,2.327 12.484,2.686 13.623,2.686L91.162,2.686C92.692,2.686 93.978,2.181 95.019,1.172C96.061,0.163 96.582,-1.107 96.582,-2.637C96.582,-4.167 96.061,-5.436 95.019,-6.445C93.978,-7.454 92.692,-7.959 91.162,-7.959L21.484,-7.959C20.736,-7.959 20.361,-8.317 20.361,-9.033L20.361,-67.969C20.361,-69.499 19.865,-70.785 18.872,-71.826C17.879,-72.868 16.618,-73.389 15.088,-73.389C13.525,-73.389 12.248,-72.868 11.255,-71.826C10.262,-70.785 9.766,-69.499 9.766,-67.969L9.766,-1.221ZM14.355,-26.025L39.697,-40.674L58.789,-24.902L92.285,-44.922L88.379,-51.465L59.375,-34.131L40.332,-49.853L14.355,-34.815L14.355,-26.025ZM39.746,-35.84C42.09,-35.84 44.084,-36.678 45.728,-38.355C47.371,-40.031 48.193,-42.025 48.193,-44.336C48.193,-46.68 47.371,-48.682 45.728,-50.342C44.084,-52.002 42.09,-52.832 39.746,-52.832C37.402,-52.832 35.4,-52.002 33.74,-50.342C32.08,-48.682 31.25,-46.68 31.25,-44.336C31.25,-42.025 32.08,-40.031 33.74,-38.355C35.4,-36.678 37.402,-35.84 39.746,-35.84ZM59.082,-20.996C61.458,-20.996 63.468,-21.826 65.112,-23.486C66.756,-25.147 67.578,-27.148 67.578,-29.492C67.578,-31.836 66.756,-33.838 65.112,-35.498C63.468,-37.158 61.458,-37.988 59.082,-37.988C56.771,-37.988 54.785,-37.158 53.125,-35.498C51.465,-33.838 50.635,-31.836 50.635,-29.492C50.635,-27.148 51.465,-25.147 53.125,-23.486C54.785,-21.826 56.771,-20.996 59.082,-20.996ZM87.842,-38.525C90.186,-38.525 92.188,-39.355 93.848,-41.016C95.508,-42.676 96.338,-44.678 96.338,-47.022C96.338,-49.365 95.508,-51.367 93.848,-53.027C92.188,-54.688 90.186,-55.518 87.842,-55.518C85.531,-55.518 83.545,-54.688 81.885,-53.027C80.225,-51.367 79.394,-49.365 79.394,-47.022C79.394,-44.678 80.225,-42.676 81.885,-41.016C83.545,-39.355 85.531,-38.525 87.842,-38.525Z" style="fill-rule:nonzero;"/>
        </g>
        <g id="Semibold-S" transform="matrix(1,0,0,1,1990.87,696)">
            <path d="M9.766,-1.807C9.766,-0.7 10.099,0.187 10.767,0.854C11.434,1.522 12.321,1.855 13.428,1.855L90.332,1.855C91.667,1.855 92.782,1.416 93.677,0.537C94.572,-0.342 95.019,-1.449 95.019,-2.783C95.019,-4.118 94.572,-5.225 93.677,-6.104C92.782,-6.982 91.667,-7.422 90.332,-7.422L20.215,-7.422C19.434,-7.422 19.043,-7.796 19.043,-8.545L19.043,-67.578C19.043,-68.88 18.604,-69.987 17.725,-70.898C16.846,-71.81 15.739,-72.266 14.404,-72.266C13.07,-72.266 11.963,-71.81 11.084,-70.898C10.205,-69.987 9.766,-68.88 9.766,-67.578L9.766,-1.807ZM14.355,-26.172L39.356,-40.625L57.91,-25.147L90.772,-44.629L87.305,-50.391L58.398,-33.301L39.893,-48.682L14.355,-33.887L14.355,-26.172ZM39.16,-35.596C41.374,-35.596 43.262,-36.385 44.824,-37.964C46.387,-39.543 47.168,-41.423 47.168,-43.603C47.168,-45.817 46.387,-47.705 44.824,-49.268C43.262,-50.83 41.374,-51.611 39.16,-51.611C36.947,-51.611 35.059,-50.83 33.496,-49.268C31.934,-47.705 31.152,-45.817 31.152,-43.603C31.152,-41.423 31.934,-39.543 33.496,-37.964C35.059,-36.385 36.947,-35.596 39.16,-35.596ZM58.008,-21.191C60.254,-21.191 62.158,-21.973 63.721,-23.535C65.283,-25.098 66.065,-26.969 66.065,-29.15C66.065,-31.396 65.283,-33.301 63.721,-34.863C62.158,-36.426 60.254,-37.207 58.008,-37.207C55.794,-37.207 53.906,-36.426 52.344,-34.863C50.781,-33.301 50,-31.396 50,-29.15C50,-26.969 50.781,-25.098 52.344,-23.535C53.906,-21.973 55.794,-21.191 58.008,-21.191ZM86.865,-38.525C89.079,-38.525 90.959,-39.315 92.505,-40.894C94.051,-42.472 94.824,-44.352 94.824,-46.533C94.824,-48.779 94.051,-50.684 92.505,-52.246C90.959,-53.809 89.079,-54.59 86.865,-54.59C84.652,-54.59 82.764,-53.809 81.201,-52.246C79.639,-50.684 78.857,-48.779 78.857,-46.533C78.857,-44.352 79.639,-42.472 81.201,-40.894C82.764,-39.315 84.652,-38.525 86.865,-38.525Z" style="fill-rule:nonzero;"/>
        </g>
        <g id="Medium-S" transform="matrix(1,0,0,1,1694.72,696)">
            <path d="M9.766,-2.295C9.766,-1.221 10.083,-0.366 10.718,0.269C11.353,0.903 12.207,1.221 13.281,1.221L89.697,1.221C90.869,1.221 91.862,0.83 92.676,0.049C93.49,-0.732 93.897,-1.725 93.897,-2.93C93.897,-4.069 93.49,-5.046 92.676,-5.859C91.862,-6.673 90.869,-7.08 89.697,-7.08L19.238,-7.08C18.457,-7.08 18.066,-7.454 18.066,-8.203L18.066,-67.236C18.066,-68.408 17.668,-69.401 16.87,-70.215C16.073,-71.029 15.088,-71.436 13.916,-71.436C12.744,-71.436 11.759,-71.029 10.962,-70.215C10.164,-69.401 9.766,-68.408 9.766,-67.236L9.766,-2.295ZM14.404,-26.27L39.111,-40.527L57.227,-25.391L89.6,-44.434L86.475,-49.609L57.666,-32.617L39.6,-47.754L14.404,-33.203L14.404,-26.27ZM38.721,-35.4C40.837,-35.4 42.643,-36.157 44.141,-37.671C45.638,-39.185 46.387,-40.983 46.387,-43.066C46.387,-45.182 45.638,-46.989 44.141,-48.486C42.643,-49.984 40.837,-50.732 38.721,-50.732C36.637,-50.732 34.847,-49.984 33.35,-48.486C31.852,-46.989 31.104,-45.182 31.104,-43.066C31.104,-40.983 31.852,-39.185 33.35,-37.671C34.847,-36.157 36.637,-35.4 38.721,-35.4ZM57.227,-21.289C59.342,-21.289 61.149,-22.038 62.647,-23.535C64.144,-25.033 64.893,-26.839 64.893,-28.955C64.893,-31.104 64.144,-32.918 62.647,-34.399C61.149,-35.881 59.342,-36.621 57.227,-36.621C55.111,-36.621 53.304,-35.881 51.807,-34.399C50.309,-32.918 49.561,-31.104 49.561,-28.955C49.561,-26.839 50.309,-25.033 51.807,-23.535C53.304,-22.038 55.111,-21.289 57.227,-21.289ZM86.084,-38.574C88.2,-38.574 90.007,-39.315 91.504,-40.796C93.001,-42.277 93.75,-44.076 93.75,-46.191C93.75,-48.34 93.001,-50.163 91.504,-51.66C90.007,-53.158 88.2,-53.906 86.084,-53.906C83.968,-53.906 82.17,-53.158 80.689,-51.66C79.207,-50.163 78.467,-48.34 78.467,-46.191C78.467,-44.076 79.207,-42.277 80.689,-40.796C82.17,-39.315 83.968,-38.574 86.084,-38.574Z" style="fill-rule:nonzero;"/>
        </g>
        <g id="Regular-S" transform="matrix(1,0,0,1,1398.77,696)">
            <path d="M9.766,-2.881C9.766,-1.872 10.067,-1.066 10.669,-0.464C11.271,0.138 12.077,0.439 13.086,0.439L88.867,0.439C89.844,0.439 90.674,0.098 91.357,-0.586C92.041,-1.27 92.383,-2.1 92.383,-3.076C92.383,-4.02 92.041,-4.842 91.357,-5.542C90.674,-6.242 89.844,-6.592 88.867,-6.592L18.018,-6.592C17.204,-6.592 16.797,-6.982 16.797,-7.764L16.797,-66.846C16.797,-67.79 16.455,-68.612 15.772,-69.312C15.088,-70.011 14.258,-70.361 13.281,-70.361C12.305,-70.361 11.475,-70.011 10.791,-69.312C10.107,-68.612 9.766,-67.79 9.766,-66.846L9.766,-2.881ZM14.453,-26.416L38.77,-40.478L56.397,-25.635L88.086,-44.141L85.449,-48.535L56.738,-31.787L39.16,-46.582L14.453,-32.275L14.453,-26.416ZM38.184,-35.156C40.169,-35.156 41.862,-35.864 43.262,-37.28C44.661,-38.696 45.361,-40.397 45.361,-42.383C45.361,-44.368 44.661,-46.061 43.262,-47.461C41.862,-48.861 40.169,-49.561 38.184,-49.561C36.198,-49.561 34.505,-48.861 33.106,-47.461C31.706,-46.061 31.006,-44.368 31.006,-42.383C31.006,-40.397 31.706,-38.696 33.106,-37.28C34.505,-35.864 36.198,-35.156 38.184,-35.156ZM56.152,-21.484C58.171,-21.484 59.88,-22.184 61.279,-23.584C62.679,-24.984 63.379,-26.676 63.379,-28.662C63.379,-30.68 62.679,-32.389 61.279,-33.789C59.88,-35.189 58.171,-35.889 56.152,-35.889C54.167,-35.889 52.474,-35.189 51.074,-33.789C49.674,-32.389 48.975,-30.68 48.975,-28.662C48.975,-26.676 49.674,-24.984 51.074,-23.584C52.474,-22.184 54.167,-21.484 56.152,-21.484ZM85.107,-38.574C87.093,-38.574 88.786,-39.274 90.186,-40.674C91.585,-42.074 92.285,-43.766 92.285,-45.752C92.285,-47.77 91.585,-49.479 90.186,-50.879C88.786,-52.279 87.093,-52.978 85.107,-52.978C83.122,-52.978 81.429,-52.279 80.029,-50.879C78.63,-49.479 77.93,-47.77 77.93,-45.752C77.93,-43.766 78.63,-42.074 80.029,-40.674C81.429,-39.274 83.122,-38.574 85.107,-38.574Z" style="fill-rule:nonzero;"/>
        </g>
        <g id="Light-S" transform="matrix(1,0,0,1,1102.43,696)">
            <path d="M9.766,-2.49C9.766,-1.644 10.018,-0.968 10.523,-0.464C11.027,0.041 11.702,0.293 12.549,0.293L88.965,0.293C89.714,0.293 90.348,0.033 90.869,-0.488C91.39,-1.009 91.65,-1.644 91.65,-2.393C91.65,-3.141 91.39,-3.776 90.869,-4.297C90.348,-4.818 89.714,-5.078 88.965,-5.078L16.211,-5.078C15.527,-5.078 15.185,-5.42 15.185,-6.104L15.185,-67.676C15.185,-68.392 14.925,-69.027 14.404,-69.58C13.883,-70.134 13.249,-70.41 12.5,-70.41C11.719,-70.41 11.068,-70.134 10.547,-69.58C10.026,-69.027 9.766,-68.392 9.766,-67.676L9.766,-2.49ZM13.184,-26.465L38.037,-40.82L55.859,-25.342L87.158,-44.336L84.912,-47.852L56.152,-30.371L38.379,-45.752L13.184,-31.152L13.184,-26.465ZM37.647,-35.791C39.404,-35.791 40.918,-36.426 42.188,-37.695C43.457,-38.965 44.092,-40.495 44.092,-42.285C44.092,-44.076 43.457,-45.597 42.188,-46.851C40.918,-48.104 39.404,-48.731 37.647,-48.731C35.856,-48.731 34.326,-48.104 33.057,-46.851C31.787,-45.597 31.152,-44.076 31.152,-42.285C31.152,-40.495 31.787,-38.965 33.057,-37.695C34.326,-36.426 35.856,-35.791 37.647,-35.791ZM55.713,-21.484C57.536,-21.484 59.074,-22.111 60.327,-23.364C61.58,-24.618 62.207,-26.139 62.207,-27.93C62.207,-29.753 61.58,-31.291 60.327,-32.544C59.074,-33.797 57.536,-34.424 55.713,-34.424C53.955,-34.424 52.441,-33.797 51.172,-32.544C49.902,-31.291 49.268,-29.753 49.268,-27.93C49.268,-26.139 49.902,-24.618 51.172,-23.364C52.441,-22.111 53.955,-21.484 55.713,-21.484ZM84.522,-39.16C86.312,-39.16 87.834,-39.787 89.087,-41.04C90.34,-42.293 90.967,-43.815 90.967,-45.606C90.967,-47.428 90.34,-48.966 89.087,-50.22C87.834,-51.473 86.312,-52.1 84.522,-52.1C82.731,-52.1 81.209,-51.473 79.956,-50.22C78.703,-48.966 78.076,-47.428 78.076,-45.606C78.076,-43.815 78.703,-42.293 79.956,-41.04C81.209,-39.787 82.731,-39.16 84.522,-39.16Z" style="fill-rule:nonzero;"/>
        </g>
        <g id="Thin-S" transform="matrix(1,0,0,1,806.178,696)">
            <path d="M9.766,-2.002C9.766,-1.351 9.953,-0.83 10.327,-0.439C10.702,-0.049 11.23,0.146 11.914,0.146L89.063,0.146C89.518,0.146 89.909,-0.008 90.234,-0.317C90.56,-0.627 90.723,-1.025 90.723,-1.514C90.723,-1.969 90.56,-2.352 90.234,-2.661C89.909,-2.97 89.518,-3.125 89.063,-3.125L13.818,-3.125C13.33,-3.125 13.086,-3.369 13.086,-3.857L13.086,-68.75C13.086,-69.173 12.931,-69.556 12.622,-69.897C12.313,-70.239 11.93,-70.41 11.475,-70.41C10.954,-70.41 10.539,-70.239 10.23,-69.897C9.92,-69.556 9.766,-69.173 9.766,-68.75L9.766,-2.002ZM11.523,-26.465L37.061,-41.26L55.127,-25L85.938,-44.629L84.277,-46.973L55.371,-28.467L37.353,-44.629L11.523,-29.688L11.523,-26.465ZM36.865,-36.67C38.395,-36.67 39.697,-37.207 40.772,-38.281C41.846,-39.355 42.383,-40.658 42.383,-42.188C42.383,-43.685 41.846,-44.971 40.772,-46.045C39.697,-47.119 38.395,-47.656 36.865,-47.656C35.368,-47.656 34.082,-47.119 33.008,-46.045C31.934,-44.971 31.397,-43.685 31.397,-42.188C31.397,-40.658 31.934,-39.355 33.008,-38.281C34.082,-37.207 35.368,-36.67 36.865,-36.67ZM55.127,-21.484C56.657,-21.484 57.959,-22.022 59.033,-23.096C60.107,-24.17 60.645,-25.456 60.645,-26.953C60.645,-28.483 60.107,-29.785 59.033,-30.859C57.959,-31.934 56.657,-32.471 55.127,-32.471C53.63,-32.471 52.344,-31.934 51.27,-30.859C50.195,-29.785 49.658,-28.483 49.658,-26.953C49.658,-25.456 50.195,-24.17 51.27,-23.096C52.344,-22.022 53.63,-21.484 55.127,-21.484ZM83.74,-39.941C85.27,-39.941 86.564,-40.479 87.622,-41.553C88.68,-42.627 89.209,-43.929 89.209,-45.459C89.209,-46.956 88.68,-48.242 87.622,-49.316C86.564,-50.391 85.27,-50.928 83.74,-50.928C82.21,-50.928 80.908,-50.391 79.834,-49.316C78.76,-48.242 78.223,-46.956 78.223,-45.459C78.223,-43.929 78.76,-42.627 79.834,-41.553C80.908,-40.479 82.21,-39.941 83.74,-39.941Z" style="fill-rule:nonzero;"/>
        </g>
        <g id="Ultralight-S" transform="matrix(1,0,0,1,509.711,696)">
            <path d="M9.766,-1.758C9.766,-1.204 9.92,-0.765 10.23,-0.439C10.539,-0.114 10.97,0.049 11.523,0.049L89.16,0.049C89.421,0.049 89.665,-0.049 89.893,-0.244C90.12,-0.439 90.234,-0.7 90.234,-1.025C90.234,-1.383 90.12,-1.652 89.893,-1.831C89.665,-2.01 89.421,-2.1 89.16,-2.1L12.549,-2.1C12.158,-2.1 11.963,-2.311 11.963,-2.734L11.963,-69.287C11.963,-69.58 11.873,-69.849 11.694,-70.093C11.515,-70.337 11.263,-70.459 10.938,-70.459C10.547,-70.459 10.254,-70.337 10.059,-70.093C9.863,-69.849 9.766,-69.58 9.766,-69.287L9.766,-1.758ZM10.693,-26.514L36.572,-41.455L54.785,-24.805L85.303,-44.775L83.887,-46.533L54.981,-27.49L36.865,-44.092L10.693,-28.955L10.693,-26.514ZM36.523,-37.109C37.891,-37.109 39.063,-37.598 40.039,-38.574C41.016,-39.551 41.504,-40.723 41.504,-42.09C41.504,-43.49 41.016,-44.678 40.039,-45.654C39.063,-46.631 37.891,-47.119 36.523,-47.119C35.124,-47.119 33.936,-46.631 32.959,-45.654C31.982,-44.678 31.494,-43.49 31.494,-42.09C31.494,-40.723 31.982,-39.551 32.959,-38.574C33.936,-37.598 35.124,-37.109 36.523,-37.109ZM54.834,-21.484C56.234,-21.484 57.414,-21.973 58.374,-22.949C59.334,-23.926 59.815,-25.098 59.815,-26.465C59.815,-27.865 59.334,-29.053 58.374,-30.029C57.414,-31.006 56.234,-31.494 54.834,-31.494C53.499,-31.494 52.336,-31.006 51.343,-30.029C50.35,-29.053 49.853,-27.865 49.853,-26.465C49.853,-25.098 50.35,-23.926 51.343,-22.949C52.336,-21.973 53.499,-21.484 54.834,-21.484ZM83.35,-40.332C84.717,-40.332 85.889,-40.82 86.865,-41.797C87.842,-42.773 88.33,-43.962 88.33,-45.361C88.33,-46.729 87.842,-47.9 86.865,-48.877C85.889,-49.854 84.717,-50.342 83.35,-50.342C81.95,-50.342 80.762,-49.854 79.785,-48.877C78.809,-47.9 78.32,-46.729 78.32,-45.361C78.32,-43.962 78.809,-42.773 79.785,-41.797C80.762,-40.82 81.95,-40.332 83.35,-40.332Z" style="fill-rule:nonzero;"/>
        </g>
    </g>
</svg>
