<?xml version="1.0" encoding="UTF-8" standalone="no"?>
<!DOCTYPE svg PUBLIC "-//W3C//DTD SVG 1.1//EN" "http://www.w3.org/Graphics/SVG/1.1/DTD/svg11.dtd">
<svg width="100%" height="100%" viewBox="0 0 3300 2200" version="1.1" xmlns="http://www.w3.org/2000/svg" xmlns:xlink="http://www.w3.org/1999/xlink" xml:space="preserve" xmlns:serif="http://www.serif.com/" style="fill-rule:evenodd;clip-rule:evenodd;">
    <g id="Notes">
        <rect id="artboard" x="0" y="0" width="3300" height="2200" style="fill:white;"/>
        <path d="M263,292L3036,292" style="fill:none;fill-rule:nonzero;stroke:black;stroke-width:0.5px;"/>
        <g transform="matrix(1,0,0,1,263,322)">
            <text x="0px" y="0px" style="font-family:'LucidaGrande-Bold', 'Lucida Grande', sans-serif;font-weight:600;font-size:13px;">Weight/Scale Variations</text>
        </g>
        <g transform="matrix(1,0,0,1,530.372,322)">
            <text x="0px" y="0px" style="font-family:'LucidaGrande', 'Lucida Grande', sans-serif;font-weight:500;font-size:13px;">Ultralight</text>
        </g>
        <g transform="matrix(1,0,0,1,842.365,322)">
            <text x="0px" y="0px" style="font-family:'LucidaGrande', 'Lucida Grande', sans-serif;font-weight:500;font-size:13px;">Thin</text>
        </g>
        <g transform="matrix(1,0,0,1,1137.27,322)">
            <text x="0px" y="0px" style="font-family:'LucidaGrande', 'Lucida Grande', sans-serif;font-weight:500;font-size:13px;">Light</text>
        </g>
        <g transform="matrix(1,0,0,1,1425.89,322)">
            <text x="0px" y="0px" style="font-family:'LucidaGrande', 'Lucida Grande', sans-serif;font-weight:500;font-size:13px;">Regular</text>
        </g>
        <g transform="matrix(1,0,0,1,1721.27,322)">
            <text x="0px" y="0px" style="font-family:'LucidaGrande', 'Lucida Grande', sans-serif;font-weight:500;font-size:13px;">Medium</text>
        </g>
        <g transform="matrix(1,0,0,1,2014.15,322)">
            <text x="0px" y="0px" style="font-family:'LucidaGrande', 'Lucida Grande', sans-serif;font-weight:500;font-size:13px;">Semibold</text>
        </g>
        <g transform="matrix(1,0,0,1,2326.28,322)">
            <text x="0px" y="0px" style="font-family:'LucidaGrande', 'Lucida Grande', sans-serif;font-weight:500;font-size:13px;">Bold</text>
        </g>
        <g transform="matrix(1,0,0,1,2617.94,322)">
            <text x="0px" y="0px" style="font-family:'LucidaGrande', 'Lucida Grande', sans-serif;font-weight:500;font-size:13px;">Heavy</text>
        </g>
        <g transform="matrix(1,0,0,1,2917.06,322)">
            <text x="0px" y="0px" style="font-family:'LucidaGrande', 'Lucida Grande', sans-serif;font-weight:500;font-size:13px;">Black</text>
        </g>
        <path d="M263,1903L3036,1903" style="fill:none;fill-rule:nonzero;stroke:black;stroke-width:0.5px;"/>
        <g transform="matrix(1,0,0,1,263,1933)">
            <path d="M9.248,0.83C10.329,0.83 11.344,0.625 12.295,0.215C13.245,-0.195 14.084,-0.765 14.81,-1.494C15.535,-2.223 16.105,-3.063 16.519,-4.014C16.932,-4.964 17.139,-5.977 17.139,-7.051C17.139,-8.125 16.932,-9.137 16.519,-10.088C16.105,-11.038 15.534,-11.878 14.805,-12.607C14.076,-13.337 13.236,-13.906 12.285,-14.316C11.335,-14.727 10.319,-14.932 9.238,-14.932C8.164,-14.932 7.152,-14.727 6.201,-14.316C5.251,-13.906 4.414,-13.337 3.691,-12.607C2.969,-11.878 2.401,-11.038 1.987,-10.088C1.574,-9.137 1.367,-8.125 1.367,-7.051C1.367,-5.977 1.574,-4.964 1.987,-4.014C2.401,-3.063 2.97,-2.223 3.696,-1.494C4.422,-0.765 5.26,-0.195 6.211,0.215C7.161,0.625 8.174,0.83 9.248,0.83ZM9.248,-0.654C8.363,-0.654 7.534,-0.819 6.763,-1.147C5.991,-1.476 5.314,-1.934 4.731,-2.52C4.149,-3.105 3.693,-3.786 3.364,-4.561C3.035,-5.335 2.871,-6.165 2.871,-7.051C2.871,-7.936 3.034,-8.766 3.359,-9.541C3.685,-10.316 4.139,-10.996 4.722,-11.582C5.304,-12.168 5.981,-12.625 6.753,-12.954C7.524,-13.283 8.353,-13.447 9.238,-13.447C10.13,-13.447 10.962,-13.283 11.733,-12.954C12.505,-12.625 13.184,-12.168 13.77,-11.582C14.355,-10.996 14.814,-10.316 15.147,-9.541C15.479,-8.766 15.645,-7.936 15.645,-7.051C15.645,-6.165 15.48,-5.335 15.151,-4.561C14.823,-3.786 14.367,-3.105 13.784,-2.52C13.202,-1.934 12.523,-1.476 11.748,-1.147C10.973,-0.819 10.14,-0.654 9.248,-0.654ZM5.654,-7.051C5.654,-6.836 5.723,-6.662 5.859,-6.528C5.996,-6.395 6.178,-6.328 6.406,-6.328L8.516,-6.328L8.516,-4.209C8.516,-3.994 8.581,-3.817 8.711,-3.677C8.841,-3.537 9.017,-3.467 9.238,-3.467C9.453,-3.467 9.631,-3.537 9.771,-3.677C9.91,-3.817 9.98,-3.994 9.98,-4.209L9.98,-6.328L12.09,-6.328C12.311,-6.328 12.49,-6.395 12.627,-6.528C12.764,-6.662 12.832,-6.836 12.832,-7.051C12.832,-7.272 12.764,-7.451 12.627,-7.588C12.49,-7.725 12.311,-7.793 12.09,-7.793L9.98,-7.793L9.98,-9.902C9.98,-10.124 9.91,-10.304 9.771,-10.444C9.631,-10.584 9.453,-10.654 9.238,-10.654C9.017,-10.654 8.841,-10.584 8.711,-10.444C8.581,-10.304 8.516,-10.124 8.516,-9.902L8.516,-7.793L6.406,-7.793C6.178,-7.793 5.996,-7.725 5.859,-7.588C5.723,-7.451 5.654,-7.272 5.654,-7.051Z" style="fill-rule:nonzero;"/>
        </g>
        <g transform="matrix(1,0,0,1,281.867,1933)">
            <path d="M11.709,2.91C13.07,2.91 14.351,2.65 15.552,2.129C16.753,1.608 17.813,0.889 18.731,-0.029C19.648,-0.947 20.368,-2.007 20.889,-3.208C21.409,-4.409 21.67,-5.69 21.67,-7.051C21.67,-8.411 21.409,-9.692 20.889,-10.894C20.368,-12.095 19.648,-13.154 18.731,-14.072C17.813,-14.99 16.751,-15.71 15.547,-16.23C14.342,-16.751 13.06,-17.012 11.699,-17.012C10.339,-17.012 9.058,-16.751 7.856,-16.23C6.655,-15.71 5.597,-14.99 4.683,-14.072C3.768,-13.154 3.05,-12.095 2.529,-10.894C2.008,-9.692 1.748,-8.411 1.748,-7.051C1.748,-5.69 2.008,-4.409 2.529,-3.208C3.05,-2.007 3.77,-0.947 4.688,-0.029C5.605,0.889 6.665,1.608 7.866,2.129C9.067,2.65 10.348,2.91 11.709,2.91ZM11.709,1.25C10.557,1.25 9.479,1.035 8.477,0.605C7.474,0.176 6.593,-0.418 5.835,-1.177C5.076,-1.935 4.484,-2.816 4.058,-3.818C3.631,-4.821 3.418,-5.898 3.418,-7.051C3.418,-8.203 3.631,-9.281 4.058,-10.283C4.484,-11.286 5.075,-12.168 5.83,-12.93C6.585,-13.691 7.464,-14.286 8.467,-14.712C9.469,-15.138 10.547,-15.352 11.699,-15.352C12.852,-15.352 13.929,-15.138 14.932,-14.712C15.934,-14.286 16.816,-13.691 17.578,-12.93C18.34,-12.168 18.936,-11.286 19.365,-10.283C19.795,-9.281 20.01,-8.203 20.01,-7.051C20.01,-5.898 19.797,-4.821 19.37,-3.818C18.944,-2.816 18.351,-1.935 17.593,-1.177C16.834,-0.418 15.952,0.176 14.946,0.605C13.94,1.035 12.861,1.25 11.709,1.25ZM7.178,-7.051C7.178,-6.816 7.256,-6.624 7.412,-6.475C7.568,-6.325 7.77,-6.25 8.018,-6.25L10.889,-6.25L10.889,-3.369C10.889,-3.122 10.964,-2.922 11.113,-2.769C11.263,-2.616 11.455,-2.539 11.69,-2.539C11.937,-2.539 12.137,-2.616 12.29,-2.769C12.443,-2.922 12.52,-3.122 12.52,-3.369L12.52,-6.25L15.4,-6.25C15.648,-6.25 15.848,-6.325 16.001,-6.475C16.154,-6.624 16.23,-6.816 16.23,-7.051C16.23,-7.298 16.154,-7.498 16.001,-7.651C15.848,-7.804 15.648,-7.881 15.4,-7.881L12.52,-7.881L12.52,-10.752C12.52,-11.006 12.443,-11.209 12.29,-11.362C12.137,-11.515 11.937,-11.592 11.69,-11.592C11.455,-11.592 11.263,-11.514 11.113,-11.357C10.964,-11.201 10.889,-10.999 10.889,-10.752L10.889,-7.881L8.018,-7.881C7.764,-7.881 7.56,-7.804 7.407,-7.651C7.254,-7.498 7.178,-7.298 7.178,-7.051Z" style="fill-rule:nonzero;"/>
        </g>
        <g transform="matrix(1,0,0,1,305.646,1933)">
            <path d="M14.971,5.664C16.364,5.664 17.694,5.448 18.96,5.015C20.226,4.582 21.39,3.975 22.451,3.193C23.512,2.412 24.435,1.491 25.22,0.43C26.004,-0.632 26.613,-1.797 27.046,-3.066C27.479,-4.336 27.695,-5.664 27.695,-7.051C27.695,-8.444 27.479,-9.774 27.046,-11.04C26.613,-12.306 26.004,-13.47 25.22,-14.531C24.435,-15.592 23.512,-16.515 22.451,-17.3C21.39,-18.084 20.225,-18.693 18.955,-19.126C17.686,-19.559 16.354,-19.775 14.961,-19.775C13.568,-19.775 12.238,-19.559 10.972,-19.126C9.705,-18.693 8.543,-18.084 7.485,-17.3C6.427,-16.515 5.506,-15.592 4.722,-14.531C3.937,-13.47 3.33,-12.306 2.9,-11.04C2.471,-9.774 2.256,-8.444 2.256,-7.051C2.256,-5.664 2.472,-4.336 2.905,-3.066C3.338,-1.797 3.945,-0.632 4.727,0.43C5.508,1.491 6.429,2.412 7.49,3.193C8.551,3.975 9.715,4.582 10.981,5.015C12.248,5.448 13.578,5.664 14.971,5.664ZM14.971,3.848C13.766,3.848 12.619,3.664 11.528,3.296C10.438,2.928 9.44,2.412 8.535,1.748C7.63,1.084 6.844,0.298 6.177,-0.61C5.509,-1.519 4.993,-2.518 4.629,-3.608C4.264,-4.699 4.082,-5.846 4.082,-7.051C4.082,-8.262 4.264,-9.412 4.629,-10.503C4.993,-11.593 5.508,-12.593 6.172,-13.501C6.836,-14.409 7.62,-15.195 8.525,-15.859C9.43,-16.523 10.428,-17.038 11.519,-17.402C12.609,-17.767 13.756,-17.949 14.961,-17.949C16.172,-17.949 17.323,-17.767 18.413,-17.402C19.504,-17.038 20.503,-16.523 21.411,-15.859C22.319,-15.195 23.105,-14.409 23.77,-13.501C24.434,-12.593 24.95,-11.593 25.317,-10.503C25.685,-9.412 25.869,-8.262 25.869,-7.051C25.876,-5.846 25.697,-4.699 25.332,-3.608C24.967,-2.518 24.452,-1.519 23.784,-0.61C23.117,0.298 22.329,1.084 21.421,1.748C20.513,2.412 19.513,2.928 18.423,3.296C17.332,3.664 16.182,3.848 14.971,3.848ZM9.199,-7.051C9.199,-6.797 9.285,-6.587 9.458,-6.421C9.631,-6.255 9.85,-6.172 10.117,-6.172L14.063,-6.172L14.063,-2.217C14.063,-1.95 14.146,-1.73 14.312,-1.558C14.477,-1.385 14.691,-1.299 14.951,-1.299C15.218,-1.299 15.438,-1.383 15.61,-1.553C15.783,-1.722 15.869,-1.943 15.869,-2.217L15.869,-6.172L19.824,-6.172C20.091,-6.172 20.309,-6.255 20.479,-6.421C20.648,-6.587 20.732,-6.797 20.732,-7.051C20.732,-7.324 20.648,-7.546 20.479,-7.715C20.309,-7.884 20.091,-7.969 19.824,-7.969L15.869,-7.969L15.869,-11.914C15.869,-12.188 15.783,-12.41 15.61,-12.583C15.438,-12.756 15.218,-12.842 14.951,-12.842C14.691,-12.842 14.477,-12.756 14.312,-12.583C14.146,-12.41 14.063,-12.188 14.063,-11.914L14.063,-7.969L10.117,-7.969C9.844,-7.969 9.622,-7.884 9.453,-7.715C9.284,-7.546 9.199,-7.324 9.199,-7.051Z" style="fill-rule:nonzero;"/>
        </g>
        <g transform="matrix(1,0,0,1,263,1953)">
            <text x="0px" y="0px" style="font-family:'LucidaGrande-Bold', 'Lucida Grande', sans-serif;font-weight:600;font-size:13px;">Design Variations</text>
        </g>
        <g transform="matrix(1,0,0,1,263,1971)">
            <text x="0px" y="0px" style="font-family:'LucidaGrande', 'Lucida Grande', sans-serif;font-weight:500;font-size:13px;">Symbols are supported in up to nine weights and three scales.</text>
        </g>
        <g transform="matrix(1,0,0,1,263,1989)">
            <text x="0px" y="0px" style="font-family:'LucidaGrande', 'Lucida Grande', sans-serif;font-weight:500;font-size:13px;">For optimal layout with text and other symbols, vertically align</text>
        </g>
        <g transform="matrix(1,0,0,1,263,2007)">
            <text x="0px" y="0px" style="font-family:'LucidaGrande', 'Lucida Grande', sans-serif;font-weight:500;font-size:13px;">symbols with the adjacent text.</text>
        </g>
        <path d="M776,1919L776,1933" style="fill:none;fill-rule:nonzero;stroke:rgb(0,174,239);stroke-width:0.5px;"/>
        <g transform="matrix(1,0,0,1,776,1933)">
            <path d="M3.311,0.156C3.571,0.156 3.773,0.101 3.916,-0.01C4.059,-0.12 4.176,-0.313 4.268,-0.586L5.527,-4.033L11.289,-4.033L12.549,-0.586C12.64,-0.313 12.757,-0.12 12.9,-0.01C13.044,0.101 13.242,0.156 13.496,0.156C13.756,0.156 13.963,0.085 14.116,-0.059C14.269,-0.202 14.346,-0.397 14.346,-0.645C14.346,-0.794 14.31,-0.97 14.238,-1.172L9.658,-13.369C9.541,-13.669 9.382,-13.893 9.18,-14.043C8.978,-14.193 8.721,-14.268 8.408,-14.268C7.803,-14.268 7.393,-13.971 7.178,-13.379L2.598,-1.162C2.526,-0.96 2.49,-0.785 2.49,-0.635C2.49,-0.387 2.563,-0.194 2.71,-0.054C2.856,0.086 3.057,0.156 3.311,0.156ZM6.006,-5.518L8.379,-12.09L8.428,-12.09L10.801,-5.518L6.006,-5.518Z" style="fill-rule:nonzero;"/>
        </g>
        <path d="M793.197,1919L793.197,1933" style="fill:none;fill-rule:nonzero;stroke:rgb(0,174,239);stroke-width:0.5px;"/>
        <g transform="matrix(1,0,0,1,776,1953)">
            <text x="0px" y="0px" style="font-family:'LucidaGrande-Bold', 'Lucida Grande', sans-serif;font-weight:600;font-size:13px;">Margins</text>
        </g>
        <g transform="matrix(1,0,0,1,776,1971)">
            <text x="0px" y="0px" style="font-family:'LucidaGrande', 'Lucida Grande', sans-serif;font-weight:500;font-size:13px;">Leading and trailing margins on the left and right side of each symbol</text>
        </g>
        <g transform="matrix(1,0,0,1,776,1989)">
            <text x="0px" y="0px" style="font-family:'LucidaGrande', 'Lucida Grande', sans-serif;font-weight:500;font-size:13px;">can be adjusted by modifying the x-location of the margin guidelines.</text>
        </g>
        <g transform="matrix(1,0,0,1,776,2007)">
            <text x="0px" y="0px" style="font-family:'LucidaGrande', 'Lucida Grande', sans-serif;font-weight:500;font-size:13px;">Modiﬁcations are automatically applied proportionally to all</text>
        </g>
        <g transform="matrix(1,0,0,1,776,2025)">
            <text x="0px" y="0px" style="font-family:'LucidaGrande', 'Lucida Grande', sans-serif;font-weight:500;font-size:13px;">scales and weights.</text>
        </g>
        <g transform="matrix(1,0,0,1,1289,1933)">
            <path d="M2.842,1.865L4.541,3.574C4.971,4.01 5.425,4.212 5.903,4.18C6.382,4.147 6.852,3.874 7.314,3.359L18.008,-8.428L17.041,-9.404L6.426,2.275C6.25,2.477 6.073,2.591 5.894,2.617C5.715,2.643 5.508,2.539 5.273,2.305L4.102,1.143C3.867,0.908 3.765,0.701 3.794,0.522C3.823,0.343 3.939,0.163 4.141,-0.02L15.615,-10.82L14.639,-11.787L3.047,-0.898C2.552,-0.443 2.287,0.023 2.251,0.498C2.215,0.973 2.412,1.429 2.842,1.865ZM9.258,-16.328C9.049,-16.126 8.932,-15.895 8.906,-15.635C8.88,-15.374 8.926,-15.146 9.043,-14.951C9.16,-14.769 9.331,-14.632 9.556,-14.541C9.78,-14.45 10.055,-14.443 10.381,-14.522C11.11,-14.691 11.849,-14.761 12.598,-14.731C13.346,-14.702 14.079,-14.453 14.795,-13.984L14.209,-12.529C14.04,-12.113 13.993,-11.75 14.067,-11.44C14.142,-11.131 14.313,-10.84 14.58,-10.566L16.875,-8.252C17.116,-8.005 17.35,-7.861 17.578,-7.822C17.806,-7.783 18.06,-7.79 18.34,-7.842L19.404,-8.037L20.068,-7.363L20.029,-6.807C20.01,-6.559 20.041,-6.331 20.122,-6.123C20.203,-5.915 20.365,-5.69 20.606,-5.449L21.367,-4.707C21.608,-4.466 21.87,-4.341 22.153,-4.331C22.437,-4.321 22.695,-4.434 22.93,-4.668L25.84,-7.588C26.074,-7.822 26.188,-8.078 26.182,-8.354C26.175,-8.631 26.051,-8.89 25.811,-9.131L25.039,-9.893C24.805,-10.133 24.585,-10.298 24.38,-10.386C24.175,-10.474 23.952,-10.508 23.711,-10.488L23.135,-10.44L22.49,-11.074L22.734,-12.197C22.799,-12.477 22.786,-12.739 22.695,-12.983C22.604,-13.228 22.412,-13.496 22.119,-13.789L19.922,-15.977C19.089,-16.803 18.202,-17.424 17.261,-17.837C16.32,-18.25 15.373,-18.465 14.419,-18.481C13.465,-18.498 12.547,-18.324 11.665,-17.959C10.783,-17.594 9.98,-17.051 9.258,-16.328ZM10.752,-15.957C11.357,-16.4 12.007,-16.716 12.7,-16.904C13.394,-17.093 14.095,-17.153 14.805,-17.085C15.514,-17.017 16.203,-16.826 16.87,-16.514C17.537,-16.201 18.148,-15.765 18.701,-15.205L21.133,-12.793C21.25,-12.676 21.323,-12.562 21.353,-12.451C21.382,-12.341 21.377,-12.201 21.338,-12.031L21.016,-10.547L22.52,-9.063L23.506,-9.121C23.63,-9.128 23.724,-9.119 23.789,-9.097C23.854,-9.074 23.936,-9.014 24.033,-8.916L24.609,-8.34L22.168,-5.898L21.592,-6.475C21.494,-6.572 21.432,-6.654 21.406,-6.719C21.38,-6.784 21.37,-6.882 21.377,-7.012L21.445,-7.988L19.951,-9.473L18.428,-9.219C18.265,-9.186 18.136,-9.181 18.042,-9.204C17.948,-9.227 17.839,-9.297 17.715,-9.414L15.713,-11.416C15.583,-11.533 15.509,-11.646 15.493,-11.753C15.477,-11.86 15.508,-12.005 15.586,-12.188L16.465,-14.277C15.684,-15.007 14.805,-15.511 13.828,-15.791C12.852,-16.071 11.855,-16.061 10.84,-15.762C10.762,-15.742 10.711,-15.757 10.689,-15.806C10.666,-15.855 10.687,-15.905 10.752,-15.957Z" style="fill-rule:nonzero;"/>
        </g>
        <g transform="matrix(1,0,0,1,1289,1953)">
            <text x="0px" y="0px" style="font-family:'LucidaGrande-Bold', 'Lucida Grande', sans-serif;font-weight:600;font-size:13px;">Exporting</text>
        </g>
        <g transform="matrix(1,0,0,1,1289,1971)">
            <text x="0px" y="0px" style="font-family:'LucidaGrande', 'Lucida Grande', sans-serif;font-weight:500;font-size:13px;">Symbols should be outlined when exporting to ensure the</text>
        </g>
        <g transform="matrix(1,0,0,1,1289,1989)">
            <text x="0px" y="0px" style="font-family:'LucidaGrande', 'Lucida Grande', sans-serif;font-weight:500;font-size:13px;">design is preserved when submitting to Xcode.</text>
        </g>
        <g transform="matrix(1,0,0,1,2941.67,1933)">
            <g id="template-version">
                <text x="0px" y="0px" style="font-family:'LucidaGrande', 'Lucida Grande', sans-serif;font-weight:500;font-size:13px;">Template v.3.0</text>
            </g>
        </g>
        <g transform="matrix(1,0,0,1,2851.66,1951)">
            <text x="0px" y="0px" style="font-family:'LucidaGrande', 'Lucida Grande', sans-serif;font-weight:500;font-size:13px;">Requires Xcode 13 or greater</text>
        </g>
        <g transform="matrix(1,0,0,1,2817.15,1969)">
            <g id="descriptive-name">
                <text x="0px" y="0px" style="font-family:'LucidaGrande', 'Lucida Grande', sans-serif;font-weight:500;font-size:13px;">Generated from cup.and.saucer.ﬁll</text>
            </g>
        </g>
        <g transform="matrix(1,0,0,1,2898.31,1987)">
            <text x="0px" y="0px" style="font-family:'LucidaGrande', 'Lucida Grande', sans-serif;font-weight:500;font-size:13px;">Typeset at 100 points</text>
        </g>
        <g transform="matrix(1,0,0,1,263,726)">
            <text x="0px" y="0px" style="font-family:'LucidaGrande', 'Lucida Grande', sans-serif;font-weight:500;font-size:13px;">Small</text>
        </g>
        <g transform="matrix(1,0,0,1,263,1156)">
            <text x="0px" y="0px" style="font-family:'LucidaGrande', 'Lucida Grande', sans-serif;font-weight:500;font-size:13px;">Medium</text>
        </g>
        <g transform="matrix(1,0,0,1,263,1586)">
            <text x="0px" y="0px" style="font-family:'LucidaGrande', 'Lucida Grande', sans-serif;font-weight:500;font-size:13px;">Large</text>
        </g>
    </g>
    <g id="Guides">
        <g id="H-reference" transform="matrix(1,0,0,1,339,696)">
            <path d="M0.977,0L3.662,0L29.346,-67.139L30.029,-67.139L30.029,-70.459L28.125,-70.459L0.977,0ZM11.67,-24.463L46.973,-24.463L46.24,-26.709L12.451,-26.709L11.67,-24.463ZM55.127,0L57.764,0L30.615,-70.459L29.443,-70.459L29.443,-67.139L55.127,0Z" style="fill:rgb(39,170,225);fill-rule:nonzero;"/>
        </g>
        <path id="Baseline-S" d="M263,696L3036,696" style="fill:none;fill-rule:nonzero;stroke:rgb(39,170,225);stroke-width:0.5px;"/>
        <path id="Capline-S" d="M263,625.541L3036,625.541" style="fill:none;fill-rule:nonzero;stroke:rgb(39,170,225);stroke-width:0.5px;"/>
        <g id="H-reference1" serif:id="H-reference" transform="matrix(1,0,0,1,339,1126)">
            <path d="M0.977,0L3.662,0L29.346,-67.139L30.029,-67.139L30.029,-70.459L28.125,-70.459L0.977,0ZM11.67,-24.463L46.973,-24.463L46.24,-26.709L12.451,-26.709L11.67,-24.463ZM55.127,0L57.764,0L30.615,-70.459L29.443,-70.459L29.443,-67.139L55.127,0Z" style="fill:rgb(39,170,225);fill-rule:nonzero;"/>
        </g>
        <path id="Baseline-M" d="M263,1126L3036,1126" style="fill:none;fill-rule:nonzero;stroke:rgb(39,170,225);stroke-width:0.5px;"/>
        <path id="Capline-M" d="M263,1055.54L3036,1055.54" style="fill:none;fill-rule:nonzero;stroke:rgb(39,170,225);stroke-width:0.5px;"/>
        <g id="H-reference2" serif:id="H-reference" transform="matrix(1,0,0,1,339,1556)">
            <path d="M0.977,0L3.662,0L29.346,-67.139L30.029,-67.139L30.029,-70.459L28.125,-70.459L0.977,0ZM11.67,-24.463L46.973,-24.463L46.24,-26.709L12.451,-26.709L11.67,-24.463ZM55.127,0L57.764,0L30.615,-70.459L29.443,-70.459L29.443,-67.139L55.127,0Z" style="fill:rgb(39,170,225);fill-rule:nonzero;"/>
        </g>
        <path id="Baseline-L" d="M263,1556L3036,1556" style="fill:none;fill-rule:nonzero;stroke:rgb(39,170,225);stroke-width:0.5px;"/>
        <path id="Capline-L" d="M263,1485.54L3036,1485.54" style="fill:none;fill-rule:nonzero;stroke:rgb(39,170,225);stroke-width:0.5px;"/>
        <path id="left-margin-Regular-M" d="M1373.97,1030.79L1373.97,1150.12" style="fill:none;fill-rule:nonzero;stroke:rgb(0,174,239);stroke-width:0.5px;"/>
        <path id="right-margin-Regular-M" d="M1525.72,1030.79L1525.72,1150.12" style="fill:none;fill-rule:nonzero;stroke:rgb(0,174,239);stroke-width:0.5px;"/>
    </g>
    <g id="Symbols">
        <g id="Black-L" transform="matrix(1,0,0,1,2828.52,1556)">
            <path d="M102.051,-0.928L108.643,-0.928C117.236,-0.928 125.032,-2.344 132.031,-5.176C139.03,-8.008 145.036,-12.036 150.049,-17.261C155.062,-22.485 158.919,-28.703 161.621,-35.913C164.323,-43.123 165.674,-51.074 165.674,-59.766L165.674,-73.34C165.674,-77.734 164.242,-81.722 161.377,-85.303C158.512,-88.883 154.419,-91.943 149.097,-94.482C143.774,-97.021 137.418,-98.966 130.029,-100.317C122.64,-101.668 114.42,-102.344 105.371,-102.344C96.289,-102.344 88.045,-101.668 80.64,-100.317C73.234,-98.966 66.878,-97.021 61.572,-94.482C56.266,-91.943 52.181,-88.883 49.316,-85.303C46.452,-81.722 45.02,-77.734 45.02,-73.34L45.02,-59.766C45.02,-51.172 46.37,-43.278 49.072,-36.084C51.774,-28.89 55.623,-22.664 60.62,-17.407C65.617,-12.15 71.615,-8.089 78.613,-5.225C85.612,-2.36 93.425,-0.928 102.051,-0.928ZM105.371,-60.645C99.284,-60.645 93.587,-60.994 88.281,-61.694C82.975,-62.394 78.312,-63.338 74.292,-64.526C70.272,-65.715 67.122,-67.065 64.844,-68.579C62.565,-70.093 61.426,-71.68 61.426,-73.34C61.426,-74.967 62.557,-76.538 64.819,-78.052C67.082,-79.565 70.223,-80.916 74.243,-82.105C78.263,-83.293 82.926,-84.229 88.232,-84.912C93.538,-85.596 99.251,-85.938 105.371,-85.938C111.458,-85.938 117.155,-85.596 122.461,-84.912C127.767,-84.229 132.43,-83.293 136.45,-82.105C140.47,-80.916 143.603,-79.565 145.85,-78.052C148.096,-76.538 149.219,-74.967 149.219,-73.34C149.219,-71.68 148.088,-70.093 145.825,-68.579C143.563,-67.065 140.43,-65.715 136.426,-64.526C132.422,-63.338 127.767,-62.394 122.461,-61.694C117.155,-60.994 111.458,-60.645 105.371,-60.645ZM156.396,-31.641L163.281,-31.641C171.094,-31.641 177.238,-33.602 181.714,-37.524C186.19,-41.447 188.428,-46.842 188.428,-53.711C188.428,-60.514 186.182,-65.877 181.689,-69.8C177.197,-73.722 171.061,-75.684 163.281,-75.684L156.396,-75.684L156.396,-60.254L163.281,-60.254C166.471,-60.254 168.88,-59.684 170.508,-58.545C172.135,-57.406 172.949,-55.794 172.949,-53.711C172.949,-51.595 172.127,-49.959 170.483,-48.804C168.84,-47.648 166.439,-47.07 163.281,-47.07L156.396,-47.07L156.396,-31.641ZM104.883,31.982C118.002,31.982 129.997,31.071 140.869,29.248C151.742,27.425 161.125,24.837 169.019,21.484C176.912,18.132 182.999,14.111 187.28,9.424C191.561,4.736 193.701,-0.472 193.701,-6.201C193.701,-10.042 192.684,-13.68 190.649,-17.114C188.615,-20.549 185.677,-23.698 181.836,-26.563C179.492,-25.358 176.945,-24.414 174.194,-23.731C171.443,-23.047 168.522,-22.624 165.43,-22.461C161.719,-16.081 157.047,-10.596 151.416,-6.006C145.785,-1.416 139.364,2.116 132.153,4.59C124.943,7.064 117.106,8.301 108.643,8.301L102.051,8.301C92.09,8.301 83.008,6.592 74.805,3.174C66.602,-0.244 59.546,-5.086 53.638,-11.352C47.73,-17.619 43.262,-25.016 40.234,-33.545C32.487,-30.192 26.522,-26.196 22.339,-21.558C18.156,-16.919 16.064,-11.8 16.064,-6.201C16.064,-0.472 18.213,4.736 22.51,9.424C26.807,14.111 32.91,18.132 40.82,21.484C48.73,24.837 58.114,27.425 68.97,29.248C79.826,31.071 91.797,31.982 104.883,31.982Z" style="fill-rule:nonzero;"/>
        </g>
        <g id="Heavy-L" transform="matrix(1,0,0,1,2533.86,1556)">
            <path d="M100.146,-1.758L106.396,-1.758C114.827,-1.758 122.477,-3.133 129.346,-5.884C136.214,-8.634 142.098,-12.557 146.997,-17.651C151.896,-22.746 155.664,-28.825 158.301,-35.889C160.938,-42.953 162.256,-50.765 162.256,-59.326L162.256,-72.656C162.256,-76.855 160.856,-80.672 158.057,-84.106C155.257,-87.541 151.253,-90.487 146.045,-92.944C140.836,-95.402 134.611,-97.29 127.368,-98.608C120.125,-99.927 112.093,-100.586 103.271,-100.586C94.417,-100.586 86.369,-99.927 79.126,-98.608C71.883,-97.29 65.658,-95.402 60.449,-92.944C55.241,-90.487 51.229,-87.541 48.413,-84.106C45.597,-80.672 44.19,-76.855 44.19,-72.656L44.19,-59.326C44.19,-50.895 45.516,-43.164 48.169,-36.133C50.822,-29.102 54.598,-23.014 59.497,-17.871C64.396,-12.728 70.272,-8.756 77.124,-5.957C83.976,-3.158 91.65,-1.758 100.146,-1.758ZM103.271,-59.131C97.021,-59.131 91.203,-59.497 85.815,-60.23C80.428,-60.962 75.708,-61.955 71.655,-63.208C67.603,-64.461 64.437,-65.894 62.158,-67.505C59.88,-69.116 58.74,-70.833 58.74,-72.656C58.74,-74.414 59.871,-76.099 62.134,-77.71C64.396,-79.321 67.554,-80.754 71.606,-82.007C75.659,-83.26 80.387,-84.245 85.791,-84.961C91.195,-85.677 97.021,-86.035 103.271,-86.035C109.521,-86.035 115.34,-85.677 120.728,-84.961C126.115,-84.245 130.835,-83.26 134.888,-82.007C138.941,-80.754 142.098,-79.321 144.36,-77.71C146.623,-76.099 147.754,-74.414 147.754,-72.656C147.754,-70.833 146.615,-69.116 144.336,-67.505C142.057,-65.894 138.9,-64.461 134.863,-63.208C130.827,-61.955 126.115,-60.962 120.728,-60.23C115.34,-59.497 109.521,-59.131 103.271,-59.131ZM153.662,-31.787L160.107,-31.787C167.66,-31.787 173.601,-33.683 177.93,-37.476C182.259,-41.268 184.424,-46.484 184.424,-53.125C184.424,-59.701 182.251,-64.884 177.905,-68.677C173.56,-72.469 167.627,-74.365 160.107,-74.365L154.102,-74.365L154.102,-60.596L160.107,-60.596C163.525,-60.596 166.129,-59.937 167.92,-58.618C169.71,-57.3 170.605,-55.469 170.605,-53.125C170.605,-50.716 169.702,-48.853 167.896,-47.534C166.089,-46.216 163.493,-45.557 160.107,-45.557L153.662,-45.557L153.662,-31.787ZM102.832,30.225C115.625,30.225 127.327,29.346 137.939,27.588C148.551,25.83 157.715,23.332 165.43,20.093C173.145,16.854 179.102,12.98 183.301,8.472C187.5,3.963 189.6,-1.058 189.6,-6.592C189.6,-10.4 188.509,-14.014 186.328,-17.432C184.147,-20.85 181.006,-23.975 176.904,-26.807C174.723,-25.732 172.38,-24.894 169.873,-24.292C167.366,-23.69 164.697,-23.324 161.865,-23.193C158.252,-16.911 153.703,-11.532 148.218,-7.056C142.733,-2.58 136.458,0.871 129.395,3.296C122.331,5.721 114.665,6.934 106.396,6.934L100.146,6.934C90.511,6.934 81.722,5.298 73.779,2.026C65.837,-1.245 58.993,-5.876 53.247,-11.865C47.502,-17.855 43.132,-24.919 40.137,-33.057C32.422,-29.834 26.481,-25.968 22.315,-21.46C18.148,-16.952 16.064,-11.995 16.064,-6.592C16.064,-1.058 18.172,3.963 22.388,8.472C26.603,12.98 32.576,16.854 40.308,20.093C48.039,23.332 57.202,25.83 67.798,27.588C78.394,29.346 90.072,30.225 102.832,30.225Z" style="fill-rule:nonzero;"/>
        </g>
        <g id="Bold-L" transform="matrix(1,0,0,1,2239.42,1556)">
            <path d="M97.998,-2.686L103.857,-2.686C112.126,-2.686 119.613,-4.02 126.318,-6.689C133.024,-9.359 138.778,-13.175 143.579,-18.14C148.38,-23.104 152.067,-29.028 154.639,-35.913C157.21,-42.798 158.496,-50.423 158.496,-58.789L158.496,-71.875C158.496,-75.879 157.121,-79.517 154.37,-82.788C151.619,-86.06 147.697,-88.875 142.603,-91.235C137.508,-93.595 131.437,-95.41 124.39,-96.68C117.342,-97.949 109.521,-98.584 100.928,-98.584C92.302,-98.584 84.465,-97.949 77.417,-96.68C70.369,-95.41 64.298,-93.595 59.204,-91.235C54.11,-88.875 50.187,-86.06 47.437,-82.788C44.686,-79.517 43.311,-75.879 43.311,-71.875L43.311,-58.789C43.311,-50.586 44.596,-43.05 47.168,-36.182C49.74,-29.313 53.418,-23.381 58.203,-18.384C62.988,-13.387 68.742,-9.522 75.464,-6.787C82.186,-4.053 89.697,-2.686 97.998,-2.686ZM100.928,-57.471C94.515,-57.471 88.566,-57.845 83.081,-58.594C77.596,-59.342 72.811,-60.384 68.726,-61.719C64.64,-63.053 61.45,-64.583 59.155,-66.309C56.86,-68.034 55.713,-69.889 55.713,-71.875C55.713,-73.796 56.852,-75.627 59.131,-77.368C61.41,-79.11 64.6,-80.64 68.701,-81.958C72.803,-83.276 77.596,-84.31 83.081,-85.059C88.566,-85.807 94.515,-86.182 100.928,-86.182C107.341,-86.182 113.289,-85.807 118.774,-85.059C124.259,-84.31 129.045,-83.276 133.13,-81.958C137.215,-80.64 140.397,-79.11 142.676,-77.368C144.955,-75.627 146.094,-73.796 146.094,-71.875C146.094,-69.889 144.955,-68.034 142.676,-66.309C140.397,-64.583 137.215,-63.053 133.13,-61.719C129.045,-60.384 124.259,-59.342 118.774,-58.594C113.289,-57.845 107.341,-57.471 100.928,-57.471ZM150.635,-31.982L156.592,-31.982C163.819,-31.982 169.515,-33.805 173.682,-37.451C177.849,-41.097 179.932,-46.094 179.932,-52.441C179.932,-58.757 177.84,-63.737 173.657,-67.383C169.474,-71.029 163.786,-72.852 156.592,-72.852L151.514,-72.852L151.514,-60.986L156.592,-60.986C160.238,-60.986 163.054,-60.238 165.039,-58.74C167.025,-57.243 168.018,-55.143 168.018,-52.441C168.018,-49.772 167.017,-47.673 165.015,-46.143C163.013,-44.613 160.205,-43.848 156.592,-43.848L150.635,-43.848L150.635,-31.982ZM100.537,28.32C112.94,28.32 124.309,27.466 134.644,25.757C144.979,24.048 153.906,21.639 161.426,18.53C168.945,15.422 174.764,11.711 178.882,7.397C183,3.084 185.059,-1.709 185.059,-6.982C185.059,-10.824 183.879,-14.437 181.519,-17.822C179.159,-21.208 175.798,-24.284 171.436,-27.051C169.45,-26.139 167.326,-25.423 165.063,-24.902C162.801,-24.382 160.4,-24.072 157.861,-23.975C154.378,-17.855 149.968,-12.606 144.629,-8.228C139.29,-3.849 133.187,-0.488 126.318,1.855C119.45,4.199 111.963,5.371 103.857,5.371L97.998,5.371C88.753,5.371 80.306,3.825 72.656,0.732C65.006,-2.36 58.398,-6.746 52.832,-12.427C47.266,-18.107 43.001,-24.821 40.039,-32.568C32.389,-29.443 26.481,-25.708 22.315,-21.362C18.148,-17.017 16.064,-12.223 16.064,-6.982C16.064,-1.709 18.123,3.084 22.241,7.397C26.359,11.711 32.186,15.422 39.722,18.53C47.258,21.639 56.185,24.048 66.504,25.757C76.823,27.466 88.167,28.32 100.537,28.32Z" style="fill-rule:nonzero;"/>
        </g>
        <g id="Semibold-L" transform="matrix(1,0,0,1,1944.29,1556)">
            <path d="M96.484,-3.271L102.1,-3.271C110.238,-3.271 117.611,-4.582 124.219,-7.202C130.827,-9.823 136.491,-13.566 141.211,-18.433C145.931,-23.299 149.552,-29.118 152.075,-35.889C154.598,-42.66 155.859,-50.179 155.859,-58.447L155.859,-71.289C155.859,-75.163 154.5,-78.687 151.782,-81.86C149.064,-85.034 145.207,-87.769 140.21,-90.064C135.213,-92.358 129.248,-94.124 122.314,-95.361C115.381,-96.598 107.699,-97.217 99.268,-97.217C90.837,-97.217 83.154,-96.598 76.221,-95.361C69.287,-94.124 63.322,-92.358 58.325,-90.064C53.328,-87.769 49.471,-85.034 46.753,-81.86C44.035,-78.687 42.676,-75.163 42.676,-71.289L42.676,-58.447C42.676,-50.342 43.937,-42.92 46.46,-36.182C48.983,-29.443 52.604,-23.625 57.324,-18.726C62.044,-13.827 67.708,-10.026 74.316,-7.324C80.924,-4.622 88.314,-3.271 96.484,-3.271ZM99.268,-56.299C92.757,-56.299 86.727,-56.681 81.177,-57.446C75.627,-58.211 70.793,-59.286 66.675,-60.669C62.557,-62.052 59.351,-63.647 57.056,-65.454C54.761,-67.261 53.613,-69.206 53.613,-71.289C53.613,-73.34 54.761,-75.277 57.056,-77.1C59.351,-78.923 62.557,-80.518 66.675,-81.885C70.793,-83.252 75.627,-84.326 81.177,-85.107C86.727,-85.889 92.757,-86.279 99.268,-86.279C105.811,-86.279 111.857,-85.889 117.407,-85.107C122.957,-84.326 127.791,-83.252 131.909,-81.885C136.027,-80.518 139.225,-78.923 141.504,-77.1C143.783,-75.277 144.922,-73.34 144.922,-71.289C144.922,-69.206 143.783,-67.261 141.504,-65.454C139.225,-63.647 136.027,-62.052 131.909,-60.669C127.791,-59.286 122.957,-58.211 117.407,-57.446C111.857,-56.681 105.811,-56.299 99.268,-56.299ZM148.486,-32.08L154.102,-32.08C161.165,-32.08 166.715,-33.854 170.752,-37.402C174.789,-40.951 176.807,-45.817 176.807,-52.002C176.807,-58.122 174.781,-62.956 170.728,-66.504C166.675,-70.052 161.133,-71.826 154.102,-71.826L149.707,-71.826L149.707,-61.231L154.102,-61.231C157.943,-61.231 160.921,-60.417 163.037,-58.789C165.153,-57.162 166.211,-54.899 166.211,-52.002C166.211,-49.105 165.145,-46.826 163.013,-45.166C160.88,-43.506 157.91,-42.676 154.102,-42.676L148.486,-42.676L148.486,-32.08ZM98.975,26.953C111.117,26.953 122.25,26.123 132.373,24.463C142.497,22.803 151.254,20.467 158.643,17.456C166.032,14.445 171.753,10.84 175.806,6.641C179.859,2.441 181.885,-2.197 181.885,-7.275C181.885,-11.084 180.648,-14.681 178.174,-18.066C175.7,-21.452 172.184,-24.512 167.627,-27.246C165.772,-26.4 163.802,-25.757 161.719,-25.317C159.636,-24.878 157.422,-24.609 155.078,-24.512C151.66,-18.49 147.347,-13.33 142.139,-9.033C136.93,-4.736 130.949,-1.44 124.194,0.854C117.439,3.149 110.075,4.297 102.1,4.297L96.484,4.297C87.5,4.297 79.289,2.808 71.851,-0.171C64.412,-3.149 57.975,-7.365 52.539,-12.817C47.103,-18.27 42.904,-24.723 39.941,-32.178C32.324,-29.15 26.44,-25.513 22.29,-21.265C18.14,-17.017 16.064,-12.354 16.064,-7.275C16.064,-2.197 18.091,2.441 22.144,6.641C26.196,10.84 31.926,14.445 39.331,17.456C46.737,20.467 55.493,22.803 65.601,24.463C75.708,26.123 86.833,26.953 98.975,26.953Z" style="fill-rule:nonzero;"/>
        </g>
        <g id="Medium-L" transform="matrix(0.127601,0,0,0.127601,1681.23,1460.63)">
            <path d="M243.099,950.588C171.752,950.588 113.827,892.663 113.827,821.315C113.827,821.315 116.807,548.013 113.827,483.51C113.022,466.074 110.996,449.341 95.949,434.294C89.278,427.623 75.935,413.262 75.935,402.216L75.935,374.252C75.935,363.205 84.903,354.237 95.949,354.237L928.051,354.237C939.097,354.237 948.065,363.205 948.065,374.252L948.065,402.216C948.065,413.262 934.722,427.623 928.051,434.294C913.004,449.341 910.978,466.074 910.173,483.51C907.193,548.013 910.173,821.315 910.173,821.315C910.173,892.663 852.248,950.588 780.901,950.588L243.099,950.588ZM274.154,182.089C295.866,74.704 394.167,-6.452 512,-6.452C629.833,-6.452 728.134,74.704 749.846,182.089C813.029,194.606 868.436,208.106 900.026,215.873C927.241,222.564 933.95,241.506 933.95,259.533C933.95,277.559 918.749,281.197 900.026,281.197L123.974,281.197C105.251,281.197 90.05,277.559 90.05,259.533C90.05,241.506 96.759,222.564 123.974,215.873C155.564,208.106 210.971,194.606 274.154,182.089ZM658.953,166.045C634.449,111.266 577.845,72.869 512,72.869C446.155,72.869 389.551,111.266 365.047,166.045C416.208,158.268 467.584,152.878 512,152.878C556.416,152.878 607.792,158.268 658.953,166.045Z"/>
        </g>
        <g id="Regular-L" transform="matrix(0.124704,0,0,0.124704,1386,1462.07)">
            <path d="M243.099,950.588C171.752,950.588 113.827,892.663 113.827,821.315C113.827,821.315 116.807,548.013 113.827,483.51C113.022,466.074 110.996,449.341 95.949,434.294C89.278,427.623 75.935,413.262 75.935,402.216L75.935,374.252C75.935,363.205 84.903,354.237 95.949,354.237L928.051,354.237C939.097,354.237 948.065,363.205 948.065,374.252L948.065,402.216C948.065,413.262 934.722,427.623 928.051,434.294C913.004,449.341 910.978,466.074 910.173,483.51C907.193,548.013 910.173,821.315 910.173,821.315C910.173,892.663 852.248,950.588 780.901,950.588L243.099,950.588ZM274.154,182.089C295.866,74.704 394.167,-6.452 512,-6.452C629.833,-6.452 728.134,74.704 749.846,182.089C813.029,194.606 868.436,208.106 900.026,215.873C927.241,222.564 933.95,241.506 933.95,259.533C933.95,277.559 918.749,281.197 900.026,281.197L123.974,281.197C105.251,281.197 90.05,277.559 90.05,259.533C90.05,241.506 96.759,222.564 123.974,215.873C155.564,208.106 210.971,194.606 274.154,182.089ZM658.953,166.045C634.449,111.266 577.845,72.869 512,72.869C446.155,72.869 389.551,111.266 365.047,166.045C416.208,158.268 467.584,152.878 512,152.878C556.416,152.878 607.792,158.268 658.953,166.045Z"/>
        </g>
        <g id="Light-L" transform="matrix(1,0,0,1,1059.24,1556)">
            <path d="M91.846,-4.736L96.191,-4.736C104.232,-4.736 111.45,-5.99 117.847,-8.496C124.243,-11.003 129.671,-14.567 134.131,-19.19C138.59,-23.812 142,-29.338 144.36,-35.767C146.72,-42.196 147.9,-49.333 147.9,-57.178L147.9,-69.336C147.9,-72.754 146.598,-75.895 143.994,-78.76C141.39,-81.624 137.695,-84.106 132.91,-86.206C128.125,-88.306 122.436,-89.941 115.845,-91.113C109.253,-92.285 101.969,-92.871 93.994,-92.871C86.051,-92.871 78.792,-92.285 72.217,-91.113C65.641,-89.941 59.953,-88.306 55.151,-86.206C50.35,-84.106 46.647,-81.624 44.043,-78.76C41.439,-75.895 40.137,-72.754 40.137,-69.336L40.137,-57.178C40.137,-49.463 41.309,-42.399 43.652,-35.986C45.996,-29.574 49.406,-24.04 53.882,-19.385C58.358,-14.73 63.786,-11.125 70.166,-8.569C76.546,-6.014 83.773,-4.736 91.846,-4.736ZM93.994,-52.246C87.126,-52.246 80.802,-52.677 75.024,-53.54C69.246,-54.403 64.233,-55.615 59.985,-57.178C55.737,-58.74 52.441,-60.555 50.098,-62.622C47.754,-64.689 46.582,-66.927 46.582,-69.336C46.582,-71.712 47.754,-73.934 50.098,-76.001C52.441,-78.068 55.737,-79.883 59.985,-81.445C64.233,-83.008 69.246,-84.22 75.024,-85.083C80.802,-85.946 87.126,-86.377 93.994,-86.377C100.895,-86.377 107.243,-85.946 113.037,-85.083C118.832,-84.22 123.853,-83.008 128.101,-81.445C132.349,-79.883 135.637,-78.068 137.964,-76.001C140.291,-73.934 141.455,-71.712 141.455,-69.336C141.455,-66.927 140.291,-64.689 137.964,-62.622C135.637,-60.555 132.349,-58.74 128.101,-57.178C123.853,-55.615 118.832,-54.403 113.037,-53.54C107.243,-52.677 100.895,-52.246 93.994,-52.246ZM141.895,-32.715L147.021,-32.715C153.206,-32.715 158.114,-34.334 161.743,-37.573C165.373,-40.812 167.188,-45.166 167.188,-50.635C167.188,-56.104 165.365,-60.449 161.719,-63.672C158.073,-66.895 153.174,-68.506 147.021,-68.506L144.678,-68.506L144.678,-62.158L147.021,-62.158C151.22,-62.158 154.565,-61.125 157.056,-59.058C159.546,-56.991 160.791,-54.183 160.791,-50.635C160.791,-47.119 159.546,-44.32 157.056,-42.236C154.565,-40.153 151.22,-39.111 147.021,-39.111L141.895,-39.111L141.895,-32.715ZM93.848,22.607C105.176,22.607 115.584,21.851 125.073,20.337C134.562,18.823 142.79,16.699 149.756,13.965C156.722,11.23 162.126,7.975 165.967,4.199C169.808,0.423 171.729,-3.743 171.729,-8.301C171.729,-12.109 170.288,-15.69 167.407,-19.043C164.526,-22.396 160.417,-25.374 155.078,-27.979C153.776,-27.555 152.474,-27.23 151.172,-27.002C149.87,-26.774 148.438,-26.66 146.875,-26.66C143.782,-20.736 139.754,-15.682 134.79,-11.499C129.826,-7.316 124.097,-4.126 117.603,-1.929C111.108,0.269 103.971,1.367 96.191,1.367L91.846,1.367C83.447,1.367 75.806,0.065 68.921,-2.539C62.036,-5.143 56.071,-8.862 51.025,-13.696C45.98,-18.53 42.008,-24.284 39.111,-30.957C31.755,-28.158 26.074,-24.821 22.07,-20.947C18.066,-17.074 16.064,-12.858 16.064,-8.301C16.064,-3.743 17.977,0.423 21.802,4.199C25.627,7.975 31.03,11.23 38.013,13.965C44.995,16.699 53.223,18.823 62.695,20.337C72.168,21.851 82.552,22.607 93.848,22.607Z" style="fill-rule:nonzero;"/>
        </g>
        <g id="Thin-L" transform="matrix(1,0,0,1,765.602,1556)">
            <path d="M89.063,-5.176L92.481,-5.176C100.651,-5.176 107.91,-6.413 114.258,-8.887C120.605,-11.361 125.936,-14.868 130.249,-19.409C134.562,-23.95 137.834,-29.354 140.063,-35.62C142.293,-41.886 143.408,-48.796 143.408,-56.348L143.408,-67.969C143.408,-71.126 142.13,-74.056 139.575,-76.758C137.02,-79.46 133.39,-81.82 128.687,-83.838C123.983,-85.856 118.425,-87.427 112.012,-88.55C105.599,-89.673 98.535,-90.234 90.82,-90.234C83.105,-90.234 76.042,-89.673 69.629,-88.55C63.216,-87.427 57.666,-85.856 52.978,-83.838C48.291,-81.82 44.661,-79.46 42.09,-76.758C39.518,-74.056 38.232,-71.126 38.232,-67.969L38.232,-56.348C38.232,-48.796 39.339,-41.895 41.553,-35.645C43.766,-29.395 47.03,-23.999 51.343,-19.458C55.656,-14.917 60.978,-11.401 67.31,-8.911C73.641,-6.421 80.892,-5.176 89.063,-5.176ZM90.82,-49.561C83.724,-49.561 77.205,-50.033 71.265,-50.977C65.324,-51.921 60.173,-53.231 55.811,-54.907C51.449,-56.584 48.071,-58.537 45.679,-60.767C43.286,-62.996 42.09,-65.397 42.09,-67.969C42.09,-70.508 43.286,-72.9 45.679,-75.147C48.071,-77.393 51.449,-79.354 55.811,-81.03C60.173,-82.707 65.324,-84.017 71.265,-84.961C77.205,-85.905 83.724,-86.377 90.82,-86.377C97.917,-86.377 104.443,-85.905 110.4,-84.961C116.357,-84.017 121.509,-82.707 125.854,-81.03C130.2,-79.354 133.569,-77.393 135.962,-75.147C138.355,-72.9 139.551,-70.508 139.551,-67.969C139.551,-65.397 138.355,-62.996 135.962,-60.767C133.569,-58.537 130.2,-56.584 125.854,-54.907C121.509,-53.231 116.357,-51.921 110.4,-50.977C104.443,-50.033 97.917,-49.561 90.82,-49.561ZM138.037,-33.252L143.262,-33.252C148.795,-33.252 153.247,-34.774 156.616,-37.817C159.985,-40.861 161.67,-44.906 161.67,-49.951C161.67,-54.932 159.985,-58.936 156.616,-61.963C153.247,-64.99 148.795,-66.504 143.262,-66.504L142.188,-66.504L142.188,-62.695L143.262,-62.695C147.624,-62.695 151.14,-61.532 153.809,-59.204C156.478,-56.877 157.812,-53.792 157.812,-49.951C157.812,-46.077 156.478,-42.969 153.809,-40.625C151.14,-38.281 147.624,-37.109 143.262,-37.109L138.037,-37.109L138.037,-33.252ZM90.772,19.971C101.579,19.971 111.539,19.255 120.654,17.822C129.769,16.39 137.687,14.388 144.409,11.816C151.131,9.245 156.339,6.193 160.034,2.661C163.729,-0.871 165.576,-4.736 165.576,-8.936C165.576,-12.744 163.989,-16.333 160.815,-19.702C157.642,-23.071 153.125,-26.042 147.266,-28.613C146.387,-28.45 145.597,-28.337 144.897,-28.272C144.198,-28.206 143.392,-28.174 142.48,-28.174C139.518,-22.152 135.62,-17.057 130.786,-12.891C125.952,-8.724 120.304,-5.542 113.843,-3.345C107.381,-1.147 100.26,-0.049 92.481,-0.049L89.063,-0.049C80.925,-0.049 73.535,-1.253 66.894,-3.662C60.254,-6.071 54.517,-9.521 49.683,-14.014C44.849,-18.506 41.032,-23.893 38.232,-30.176C31.104,-27.507 25.627,-24.349 21.802,-20.703C17.977,-17.057 16.064,-13.135 16.064,-8.936C16.064,-4.736 17.912,-0.871 21.606,2.661C25.301,6.193 30.509,9.245 37.231,11.816C43.953,14.388 51.856,16.39 60.938,17.822C70.02,19.255 79.964,19.971 90.772,19.971Z" style="fill-rule:nonzero;"/>
        </g>
        <g id="Ultralight-L" transform="matrix(1,0,0,1,470.478,1556)">
            <path d="M87.695,-5.371L90.576,-5.371C98.812,-5.371 106.087,-6.608 112.402,-9.082C118.717,-11.556 123.999,-15.047 128.247,-19.556C132.495,-24.064 135.71,-29.395 137.891,-35.547C140.072,-41.699 141.162,-48.486 141.162,-55.908L141.162,-67.285C141.162,-70.313 139.884,-73.136 137.329,-75.757C134.774,-78.377 131.169,-80.672 126.514,-82.642C121.859,-84.611 116.365,-86.149 110.034,-87.256C103.703,-88.363 96.745,-88.916 89.16,-88.916C81.608,-88.916 74.658,-88.363 68.311,-87.256C61.963,-86.149 56.47,-84.611 51.831,-82.642C47.192,-80.672 43.603,-78.377 41.065,-75.757C38.525,-73.136 37.256,-70.313 37.256,-67.285L37.256,-55.908C37.256,-48.454 38.33,-41.642 40.478,-35.474C42.627,-29.305 45.825,-23.975 50.073,-19.482C54.321,-14.99 59.587,-11.515 65.869,-9.058C72.152,-6.6 79.427,-5.371 87.695,-5.371ZM89.16,-48.193C81.934,-48.193 75.317,-48.69 69.312,-49.683C63.306,-50.675 58.097,-52.035 53.687,-53.76C49.276,-55.485 45.858,-57.503 43.433,-59.815C41.007,-62.126 39.795,-64.616 39.795,-67.285C39.795,-69.922 41.007,-72.396 43.433,-74.707C45.858,-77.018 49.276,-79.045 53.687,-80.786C58.097,-82.528 63.306,-83.887 69.312,-84.863C75.317,-85.84 81.934,-86.328 89.16,-86.328C96.387,-86.328 103.011,-85.84 109.033,-84.863C115.055,-83.887 120.272,-82.528 124.683,-80.786C129.094,-79.045 132.512,-77.018 134.937,-74.707C137.362,-72.396 138.574,-69.922 138.574,-67.285C138.574,-64.616 137.362,-62.126 134.937,-59.815C132.512,-57.503 129.094,-55.485 124.683,-53.76C120.272,-52.035 115.055,-50.675 109.033,-49.683C103.011,-48.69 96.387,-48.193 89.16,-48.193ZM136.084,-33.545L141.309,-33.545C146.55,-33.545 150.773,-35.018 153.979,-37.964C157.186,-40.91 158.789,-44.775 158.789,-49.561C158.789,-54.313 157.178,-58.154 153.955,-61.084C150.732,-64.014 146.517,-65.478 141.309,-65.478L140.918,-65.478L140.918,-62.988L141.309,-62.988C145.768,-62.988 149.381,-61.759 152.148,-59.302C154.915,-56.844 156.299,-53.597 156.299,-49.561C156.299,-45.524 154.915,-42.269 152.148,-39.795C149.381,-37.321 145.768,-36.084 141.309,-36.084L136.084,-36.084L136.084,-33.545ZM89.209,18.604C99.756,18.604 109.489,17.912 118.408,16.528C127.327,15.145 135.083,13.208 141.675,10.718C148.266,8.228 153.369,5.282 156.982,1.88C160.595,-1.522 162.402,-5.257 162.402,-9.326C162.402,-13.135 160.75,-16.724 157.446,-20.093C154.142,-23.462 149.414,-26.4 143.262,-28.906C142.611,-28.874 142.09,-28.874 141.699,-28.906C141.308,-28.939 140.804,-28.971 140.186,-29.004C137.354,-22.917 133.537,-17.782 128.735,-13.599C123.934,-9.416 118.319,-6.234 111.89,-4.053C105.461,-1.872 98.356,-0.781 90.576,-0.781L87.695,-0.781C79.622,-0.781 72.339,-1.929 65.845,-4.224C59.351,-6.519 53.743,-9.831 49.023,-14.16C44.303,-18.49 40.56,-23.698 37.793,-29.785C30.794,-27.181 25.423,-24.121 21.68,-20.606C17.936,-17.09 16.064,-13.33 16.064,-9.326C16.064,-5.257 17.871,-1.522 21.484,1.88C25.098,5.282 30.2,8.228 36.792,10.718C43.384,13.208 51.131,15.145 60.034,16.528C68.937,17.912 78.662,18.604 89.209,18.604Z" style="fill-rule:nonzero;"/>
        </g>
        <g id="Black-M" transform="matrix(1,0,0,1,2851.15,1126)">
            <path d="M80.029,-8.057L85.156,-8.057C92.025,-8.057 98.218,-9.18 103.735,-11.426C109.253,-13.672 113.981,-16.862 117.92,-20.996C121.859,-25.13 124.878,-30.037 126.978,-35.718C129.077,-41.398 130.127,-47.64 130.127,-54.443L130.127,-64.99C130.127,-69.71 128.158,-73.796 124.219,-77.246C120.28,-80.697 114.746,-83.366 107.617,-85.254C100.488,-87.142 92.155,-88.086 82.617,-88.086C73.079,-88.086 64.746,-87.142 57.617,-85.254C50.488,-83.366 44.954,-80.697 41.016,-77.246C37.077,-73.796 35.107,-69.71 35.107,-64.99L35.107,-54.443C35.107,-47.64 36.157,-41.406 38.257,-35.742C40.356,-30.078 43.367,-25.179 47.29,-21.045C51.213,-16.911 55.941,-13.713 61.475,-11.45C67.008,-9.188 73.193,-8.057 80.029,-8.057ZM82.617,-55.566C76.432,-55.566 70.776,-56.014 65.649,-56.909C60.522,-57.804 56.429,-58.976 53.369,-60.425C50.309,-61.873 48.779,-63.395 48.779,-64.99C48.779,-66.618 50.309,-68.14 53.369,-69.556C56.429,-70.972 60.514,-72.135 65.625,-73.047C70.736,-73.958 76.4,-74.414 82.617,-74.414C88.835,-74.414 94.499,-73.958 99.609,-73.047C104.72,-72.135 108.805,-70.972 111.865,-69.556C114.925,-68.14 116.455,-66.618 116.455,-64.99C116.455,-63.395 114.925,-61.873 111.865,-60.425C108.805,-58.976 104.712,-57.804 99.585,-56.909C94.458,-56.014 88.802,-55.566 82.617,-55.566ZM122.559,-32.471L128.271,-32.471C134.424,-32.471 139.258,-34.017 142.773,-37.109C146.289,-40.202 148.047,-44.466 148.047,-49.902C148.047,-55.241 146.281,-59.456 142.749,-62.549C139.217,-65.641 134.391,-67.188 128.271,-67.188L122.559,-67.188L122.559,-54.443L128.271,-54.443C130.615,-54.443 132.373,-54.053 133.545,-53.272C134.717,-52.49 135.303,-51.367 135.303,-49.902C135.303,-48.405 134.709,-47.249 133.521,-46.436C132.332,-45.622 130.582,-45.215 128.271,-45.215L122.559,-45.215L122.559,-32.471ZM82.275,17.676C92.594,17.676 102.026,16.96 110.571,15.527C119.116,14.095 126.481,12.044 132.666,9.375C138.851,6.706 143.628,3.516 146.997,-0.195C150.366,-3.906 152.051,-8.04 152.051,-12.598C152.051,-15.56 151.294,-18.384 149.78,-21.069C148.267,-23.755 146.061,-26.221 143.164,-28.467C141.309,-27.49 139.29,-26.717 137.109,-26.148C134.928,-25.578 132.601,-25.244 130.127,-25.147C125.732,-17.529 119.661,-11.548 111.914,-7.202C104.167,-2.856 95.247,-0.684 85.156,-0.684L80.029,-0.684C72.087,-0.684 64.86,-2.051 58.35,-4.785C51.839,-7.52 46.248,-11.385 41.577,-16.382C36.906,-21.379 33.382,-27.295 31.006,-34.131C25.049,-31.462 20.467,-28.304 17.261,-24.658C14.054,-21.012 12.451,-16.992 12.451,-12.598C12.451,-8.04 14.136,-3.906 17.505,-0.195C20.874,3.516 25.659,6.706 31.86,9.375C38.062,12.044 45.435,14.095 53.98,15.527C62.524,16.96 71.956,17.676 82.275,17.676Z" style="fill-rule:nonzero;"/>
        </g>
        <g id="Heavy-M" transform="matrix(1,0,0,1,2555.95,1126)">
            <path d="M78.565,-8.789L83.545,-8.789C90.251,-8.789 96.297,-9.88 101.685,-12.06C107.072,-14.242 111.695,-17.342 115.552,-21.362C119.409,-25.383 122.371,-30.176 124.438,-35.742C126.505,-41.309 127.539,-47.445 127.539,-54.15L127.539,-64.551C127.539,-69.043 125.61,-72.957 121.753,-76.294C117.896,-79.631 112.484,-82.21 105.518,-84.033C98.552,-85.856 90.413,-86.768 81.104,-86.768C71.794,-86.768 63.647,-85.856 56.665,-84.033C49.683,-82.21 44.263,-79.631 40.405,-76.294C36.548,-72.957 34.619,-69.043 34.619,-64.551L34.619,-54.15C34.619,-47.477 35.653,-41.374 37.72,-35.84C39.787,-30.306 42.741,-25.521 46.582,-21.484C50.423,-17.448 55.054,-14.323 60.474,-12.109C65.894,-9.896 71.924,-8.789 78.565,-8.789ZM81.104,-54.541C74.756,-54.541 68.994,-55.005 63.818,-55.933C58.643,-56.86 54.525,-58.089 51.465,-59.619C48.405,-61.149 46.875,-62.793 46.875,-64.551C46.875,-66.309 48.405,-67.936 51.465,-69.434C54.525,-70.931 58.634,-72.16 63.794,-73.12C68.953,-74.08 74.723,-74.561 81.104,-74.561C87.451,-74.561 93.205,-74.08 98.364,-73.12C103.524,-72.16 107.642,-70.931 110.718,-69.434C113.794,-67.936 115.332,-66.309 115.332,-64.551C115.332,-62.793 113.794,-61.149 110.718,-59.619C107.642,-58.089 103.516,-56.86 98.34,-55.933C93.164,-55.005 87.419,-54.541 81.104,-54.541ZM120.508,-32.52L125.781,-32.52C131.771,-32.52 136.475,-34.025 139.893,-37.036C143.311,-40.047 145.02,-44.173 145.02,-49.414C145.02,-54.622 143.303,-58.724 139.868,-61.719C136.434,-64.714 131.738,-66.211 125.781,-66.211L120.703,-66.211L120.703,-54.688L125.781,-54.688C128.32,-54.688 130.241,-54.232 131.543,-53.32C132.845,-52.409 133.496,-51.107 133.496,-49.414C133.496,-47.721 132.837,-46.403 131.519,-45.459C130.2,-44.515 128.288,-44.043 125.781,-44.043L120.508,-44.043L120.508,-32.52ZM80.762,16.406C90.853,16.406 100.073,15.714 108.423,14.331C116.772,12.948 123.974,10.962 130.029,8.374C136.084,5.786 140.763,2.702 144.067,-0.879C147.371,-4.46 149.023,-8.447 149.023,-12.842C149.023,-15.804 148.217,-18.62 146.606,-21.289C144.995,-23.958 142.659,-26.4 139.6,-28.613C137.842,-27.702 135.938,-26.994 133.887,-26.489C131.836,-25.985 129.655,-25.684 127.344,-25.586C123.079,-18.164 117.171,-12.345 109.619,-8.13C102.067,-3.914 93.376,-1.807 83.545,-1.807L78.565,-1.807C70.947,-1.807 63.989,-3.117 57.69,-5.737C51.392,-8.358 45.972,-12.052 41.431,-16.821C36.89,-21.59 33.431,-27.246 31.055,-33.789C25.098,-31.217 20.508,-28.158 17.285,-24.609C14.063,-21.061 12.451,-17.139 12.451,-12.842C12.451,-8.447 14.103,-4.46 17.407,-0.879C20.711,2.702 25.399,5.786 31.47,8.374C37.541,10.962 44.759,12.948 53.125,14.331C61.491,15.714 70.703,16.406 80.762,16.406Z" style="fill-rule:nonzero;"/>
        </g>
        <g id="Bold-M" transform="matrix(1,0,0,1,2260.9,1126)">
            <path d="M77.002,-9.619L81.738,-9.619C88.249,-9.619 94.132,-10.669 99.39,-12.769C104.647,-14.868 109.163,-17.871 112.939,-21.777C116.716,-25.684 119.613,-30.347 121.631,-35.767C123.649,-41.187 124.658,-47.201 124.658,-53.809L124.658,-64.014C124.658,-68.311 122.77,-72.054 118.994,-75.244C115.218,-78.434 109.936,-80.916 103.149,-82.69C96.362,-84.465 88.444,-85.352 79.394,-85.352C70.345,-85.352 62.419,-84.465 55.615,-82.69C48.812,-80.916 43.522,-78.434 39.746,-75.244C35.97,-72.054 34.082,-68.311 34.082,-64.014L34.082,-53.809C34.082,-47.298 35.099,-41.349 37.134,-35.962C39.168,-30.575 42.065,-25.912 45.825,-21.973C49.585,-18.034 54.102,-14.99 59.375,-12.842C64.648,-10.693 70.524,-9.619 77.002,-9.619ZM79.394,-53.369C72.884,-53.369 67.017,-53.857 61.792,-54.834C56.567,-55.811 52.417,-57.104 49.341,-58.716C46.265,-60.327 44.727,-62.093 44.727,-64.014C44.727,-65.967 46.265,-67.741 49.341,-69.336C52.417,-70.931 56.567,-72.225 61.792,-73.218C67.017,-74.211 72.884,-74.707 79.394,-74.707C85.905,-74.707 91.773,-74.211 96.997,-73.218C102.222,-72.225 106.372,-70.931 109.448,-69.336C112.524,-67.741 114.062,-65.967 114.062,-64.014C114.062,-62.093 112.524,-60.327 109.448,-58.716C106.372,-57.104 102.222,-55.811 96.997,-54.834C91.773,-53.857 85.905,-53.369 79.394,-53.369ZM118.262,-32.617L123.047,-32.617C128.841,-32.617 133.39,-34.066 136.694,-36.963C139.998,-39.86 141.65,-43.848 141.65,-48.926C141.65,-53.939 139.99,-57.894 136.67,-60.791C133.349,-63.688 128.808,-65.137 123.047,-65.137L118.604,-65.137L118.604,-54.981L123.047,-54.981C125.749,-54.981 127.824,-54.452 129.272,-53.394C130.721,-52.336 131.445,-50.846 131.445,-48.926C131.445,-46.973 130.721,-45.459 129.272,-44.385C127.824,-43.311 125.749,-42.773 123.047,-42.773L118.262,-42.773L118.262,-32.617ZM79.102,14.99C88.9,14.99 97.868,14.323 106.006,12.988C114.144,11.654 121.175,9.741 127.1,7.251C133.024,4.761 137.606,1.79 140.845,-1.66C144.084,-5.111 145.703,-8.936 145.703,-13.135C145.703,-16.097 144.832,-18.896 143.091,-21.533C141.35,-24.17 138.868,-26.579 135.645,-28.76C133.984,-27.946 132.21,-27.319 130.322,-26.88C128.434,-26.44 126.4,-26.172 124.219,-26.074C120.085,-18.88 114.364,-13.249 107.056,-9.18C99.748,-5.111 91.309,-3.076 81.738,-3.076L77.002,-3.076C69.678,-3.076 62.988,-4.321 56.934,-6.812C50.879,-9.302 45.654,-12.809 41.26,-17.334C36.865,-21.859 33.48,-27.23 31.104,-33.447C25.179,-30.941 20.589,-27.97 17.334,-24.536C14.079,-21.102 12.451,-17.301 12.451,-13.135C12.451,-8.936 14.071,-5.111 17.31,-1.66C20.549,1.79 25.138,4.761 31.079,7.251C37.02,9.741 44.059,11.654 52.197,12.988C60.335,14.323 69.303,14.99 79.102,14.99Z" style="fill-rule:nonzero;"/>
        </g>
        <g id="Semibold-M" transform="matrix(1,0,0,1,1965.36,1126)">
            <path d="M75.879,-10.156L80.518,-10.156C86.865,-10.156 92.619,-11.182 97.778,-13.232C102.938,-15.283 107.373,-18.221 111.084,-22.046C114.795,-25.871 117.651,-30.444 119.653,-35.767C121.655,-41.089 122.656,-47.022 122.656,-53.565L122.656,-63.672C122.656,-67.806 120.801,-71.419 117.09,-74.512C113.379,-77.604 108.187,-80.013 101.514,-81.738C94.841,-83.464 87.061,-84.326 78.174,-84.326C69.32,-84.326 61.556,-83.464 54.883,-81.738C48.21,-80.013 43.009,-77.604 39.282,-74.512C35.555,-71.419 33.691,-67.806 33.691,-63.672L33.691,-53.565C33.691,-47.184 34.692,-41.349 36.694,-36.06C38.696,-30.77 41.553,-26.188 45.264,-22.315C48.975,-18.441 53.418,-15.446 58.594,-13.33C63.77,-11.214 69.531,-10.156 75.879,-10.156ZM78.174,-52.539C71.566,-52.539 65.625,-53.044 60.352,-54.053C55.078,-55.062 50.911,-56.405 47.852,-58.081C44.792,-59.758 43.262,-61.621 43.262,-63.672C43.262,-65.723 44.792,-67.578 47.852,-69.238C50.911,-70.898 55.078,-72.241 60.352,-73.267C65.625,-74.292 71.566,-74.805 78.174,-74.805C84.814,-74.805 90.772,-74.292 96.045,-73.267C101.318,-72.241 105.485,-70.898 108.545,-69.238C111.605,-67.578 113.135,-65.723 113.135,-63.672C113.135,-61.621 111.605,-59.758 108.545,-58.081C105.485,-56.405 101.318,-55.062 96.045,-54.053C90.772,-53.044 84.814,-52.539 78.174,-52.539ZM116.65,-32.617L121.094,-32.617C126.758,-32.617 131.209,-34.033 134.448,-36.865C137.687,-39.697 139.307,-43.587 139.307,-48.535C139.307,-53.451 137.679,-57.324 134.424,-60.156C131.169,-62.988 126.725,-64.404 121.094,-64.404L117.188,-64.404L117.188,-55.176L121.094,-55.176C123.959,-55.176 126.164,-54.59 127.71,-53.418C129.256,-52.246 130.029,-50.619 130.029,-48.535C130.029,-46.452 129.256,-44.816 127.71,-43.628C126.164,-42.44 123.959,-41.846 121.094,-41.846L116.65,-41.846L116.65,-32.617ZM77.93,13.965C87.533,13.965 96.33,13.314 104.321,12.012C112.313,10.71 119.23,8.846 125.073,6.421C130.916,3.996 135.425,1.123 138.599,-2.197C141.772,-5.518 143.359,-9.212 143.359,-13.281C143.359,-16.243 142.456,-19.043 140.649,-21.68C138.842,-24.316 136.263,-26.709 132.91,-28.857C131.315,-28.109 129.623,-27.531 127.832,-27.124C126.041,-26.717 124.121,-26.481 122.07,-26.416C118.034,-19.385 112.435,-13.875 105.273,-9.888C98.112,-5.9 89.86,-3.906 80.518,-3.906L75.879,-3.906C68.783,-3.906 62.297,-5.111 56.421,-7.52C50.545,-9.928 45.451,-13.314 41.138,-17.676C36.825,-22.038 33.496,-27.197 31.152,-33.154C25.195,-30.745 20.589,-27.856 17.334,-24.487C14.079,-21.118 12.451,-17.383 12.451,-13.281C12.451,-9.212 14.046,-5.518 17.236,-2.197C20.426,1.123 24.943,3.996 30.786,6.421C36.629,8.846 43.538,10.71 51.514,12.012C59.489,13.314 68.294,13.965 77.93,13.965Z" style="fill-rule:nonzero;"/>
        </g>
        <g id="Medium-M" transform="matrix(1,0,0,1,1669.53,1126)">
            <path d="M75,-10.596L79.541,-10.596C85.791,-10.596 91.463,-11.605 96.558,-13.623C101.652,-15.641 106.038,-18.53 109.717,-22.29C113.395,-26.05 116.219,-30.558 118.188,-35.815C120.158,-41.073 121.143,-46.924 121.143,-53.369L121.143,-63.379C121.143,-67.415 119.312,-70.947 115.649,-73.975C111.987,-77.002 106.86,-79.354 100.269,-81.03C93.677,-82.707 86.019,-83.545 77.295,-83.545C68.571,-83.545 60.913,-82.707 54.321,-81.03C47.73,-79.354 42.603,-77.002 38.94,-73.975C35.278,-70.947 33.447,-67.415 33.447,-63.379L33.447,-53.369C33.447,-47.054 34.432,-41.292 36.401,-36.084C38.371,-30.876 41.195,-26.367 44.873,-22.559C48.551,-18.75 52.938,-15.804 58.032,-13.721C63.127,-11.637 68.783,-10.596 75,-10.596ZM77.295,-51.904C70.589,-51.904 64.591,-52.425 59.302,-53.467C54.012,-54.508 49.829,-55.892 46.753,-57.617C43.677,-59.342 42.139,-61.263 42.139,-63.379C42.139,-65.527 43.677,-67.464 46.753,-69.19C49.829,-70.915 54.012,-72.29 59.302,-73.315C64.591,-74.341 70.589,-74.854 77.295,-74.854C84.033,-74.854 90.047,-74.341 95.337,-73.315C100.626,-72.29 104.809,-70.915 107.886,-69.19C110.962,-67.464 112.5,-65.527 112.5,-63.379C112.5,-61.263 110.962,-59.342 107.886,-57.617C104.809,-55.892 100.618,-54.508 95.313,-53.467C90.007,-52.425 84.001,-51.904 77.295,-51.904ZM115.479,-32.666L119.678,-32.666C125.244,-32.666 129.606,-34.049 132.764,-36.816C135.921,-39.583 137.5,-43.392 137.5,-48.242C137.5,-53.092 135.913,-56.901 132.739,-59.668C129.566,-62.435 125.212,-63.818 119.678,-63.818L116.064,-63.818L116.064,-55.322L119.678,-55.322C122.64,-55.322 124.927,-54.696 126.538,-53.442C128.149,-52.189 128.955,-50.456 128.955,-48.242C128.955,-46.029 128.141,-44.295 126.514,-43.042C124.886,-41.789 122.607,-41.162 119.678,-41.162L115.479,-41.162L115.479,-32.666ZM77.051,13.232C86.491,13.232 95.158,12.598 103.052,11.328C110.946,10.059 117.774,8.236 123.535,5.859C129.297,3.483 133.749,0.667 136.89,-2.588C140.031,-5.843 141.602,-9.456 141.602,-13.428C141.602,-16.39 140.666,-19.181 138.794,-21.802C136.922,-24.422 134.261,-26.79 130.811,-28.906C129.281,-28.223 127.661,-27.694 125.952,-27.319C124.243,-26.945 122.412,-26.725 120.459,-26.66C116.488,-19.727 110.978,-14.315 103.931,-10.425C96.883,-6.535 88.753,-4.59 79.541,-4.59L75,-4.59C68.099,-4.59 61.768,-5.754 56.006,-8.081C50.244,-10.409 45.247,-13.688 41.016,-17.92C36.784,-22.152 33.496,-27.165 31.152,-32.959C25.228,-30.583 20.63,-27.743 17.358,-24.439C14.087,-21.134 12.451,-17.464 12.451,-13.428C12.451,-9.456 14.03,-5.843 17.188,-2.588C20.345,0.667 24.805,3.483 30.566,5.859C36.328,8.236 43.148,10.059 51.025,11.328C58.903,12.598 67.578,13.232 77.051,13.232Z" style="fill-rule:nonzero;"/>
        </g>
        <g id="Regular-M" transform="matrix(0.10188,0,0,0.10188,1397.69,1042.41)">
            <path d="M243.099,950.588C171.752,950.588 113.827,892.663 113.827,821.315C113.827,821.315 116.807,548.013 113.827,483.51C113.022,466.074 110.996,449.341 95.949,434.294C89.278,427.623 75.935,413.262 75.935,402.216L75.935,374.252C75.935,363.205 84.903,354.237 95.949,354.237L928.051,354.237C939.097,354.237 948.065,363.205 948.065,374.252L948.065,402.216C948.065,413.262 934.722,427.623 928.051,434.294C913.004,449.341 910.978,466.074 910.173,483.51C907.193,548.013 910.173,821.315 910.173,821.315C910.173,892.663 852.248,950.588 780.901,950.588L243.099,950.588ZM274.154,182.089C295.866,74.704 394.167,-6.452 512,-6.452C629.833,-6.452 728.134,74.704 749.846,182.089C813.029,194.606 868.436,208.106 900.026,215.873C927.241,222.564 933.95,241.506 933.95,259.533C933.95,277.559 918.749,281.197 900.026,281.197L123.974,281.197C105.251,281.197 90.05,277.559 90.05,259.533C90.05,241.506 96.759,222.564 123.974,215.873C155.564,208.106 210.971,194.606 274.154,182.089ZM658.953,166.045C634.449,111.266 577.845,72.869 512,72.869C446.155,72.869 389.551,111.266 365.047,166.045C416.208,158.268 467.584,152.878 512,152.878C556.416,152.878 607.792,158.268 658.953,166.045Z"/>
        </g>
        <g id="Light-M" transform="matrix(1,0,0,1,1079.33,1126)">
            <path d="M72.07,-11.426L75.83,-11.426C82.015,-11.426 87.59,-12.402 92.554,-14.355C97.518,-16.309 101.758,-19.092 105.273,-22.705C108.789,-26.318 111.483,-30.648 113.354,-35.693C115.226,-40.739 116.162,-46.354 116.162,-52.539L116.162,-62.109C116.162,-65.755 114.38,-68.986 110.815,-71.802C107.251,-74.618 102.303,-76.823 95.972,-78.418C89.64,-80.013 82.308,-80.811 73.975,-80.811C65.609,-80.811 58.26,-80.013 51.929,-78.418C45.597,-76.823 40.649,-74.618 37.085,-71.802C33.521,-68.986 31.738,-65.755 31.738,-62.109L31.738,-52.539C31.738,-46.484 32.674,-40.951 34.546,-35.938C36.418,-30.925 39.111,-26.587 42.627,-22.925C46.143,-19.263 50.383,-16.431 55.347,-14.429C60.311,-12.427 65.885,-11.426 72.07,-11.426ZM73.975,-49.316C66.943,-49.316 60.693,-49.886 55.225,-51.025C49.756,-52.165 45.459,-53.695 42.334,-55.615C39.209,-57.536 37.647,-59.701 37.647,-62.109C37.647,-64.518 39.209,-66.683 42.334,-68.604C45.459,-70.524 49.756,-72.054 55.225,-73.193C60.693,-74.333 66.943,-74.902 73.975,-74.902C80.973,-74.902 87.207,-74.333 92.676,-73.193C98.145,-72.054 102.45,-70.524 105.591,-68.604C108.732,-66.683 110.303,-64.518 110.303,-62.109C110.303,-59.701 108.732,-57.536 105.591,-55.615C102.45,-53.695 98.145,-52.165 92.676,-51.025C87.207,-49.886 80.973,-49.316 73.975,-49.316ZM111.279,-33.106L115.234,-33.106C120.247,-33.106 124.203,-34.391 127.1,-36.963C129.997,-39.535 131.445,-43.018 131.445,-47.412C131.445,-51.807 129.988,-55.29 127.075,-57.861C124.162,-60.433 120.215,-61.719 115.234,-61.719L112.939,-61.719L112.939,-55.908L115.234,-55.908C118.425,-55.908 120.948,-55.143 122.803,-53.613C124.658,-52.083 125.586,-50.016 125.586,-47.412C125.586,-44.808 124.658,-42.741 122.803,-41.211C120.948,-39.681 118.425,-38.916 115.234,-38.916L111.279,-38.916L111.279,-33.106ZM73.779,10.449C82.731,10.449 90.95,9.863 98.438,8.691C105.925,7.52 112.411,5.835 117.896,3.638C123.381,1.44 127.629,-1.156 130.64,-4.15C133.651,-7.145 135.156,-10.465 135.156,-14.111C135.156,-17.074 134.082,-19.857 131.934,-22.461C129.785,-25.065 126.758,-27.376 122.852,-29.395C121.68,-28.971 120.492,-28.654 119.287,-28.442C118.082,-28.231 116.764,-28.092 115.332,-28.027C111.621,-21.191 106.364,-15.877 99.561,-12.085C92.757,-8.293 84.847,-6.396 75.83,-6.396L72.07,-6.396C65.527,-6.396 59.546,-7.446 54.126,-9.546C48.706,-11.645 44.002,-14.616 40.015,-18.457C36.027,-22.298 32.894,-26.872 30.615,-32.178C24.854,-29.964 20.386,-27.319 17.212,-24.243C14.038,-21.167 12.451,-17.79 12.451,-14.111C12.451,-10.465 13.957,-7.145 16.968,-4.15C19.979,-1.156 24.235,1.44 29.736,3.638C35.238,5.835 41.724,7.52 49.194,8.691C56.665,9.863 64.86,10.449 73.779,10.449Z" style="fill-rule:nonzero;"/>
        </g>
        <g id="Thin-M" transform="matrix(1,0,0,1,785.377,1126)">
            <path d="M69.629,-11.816L72.461,-11.816C78.776,-11.816 84.391,-12.785 89.307,-14.722C94.222,-16.659 98.38,-19.393 101.782,-22.925C105.184,-26.457 107.756,-30.664 109.497,-35.547C111.238,-40.43 112.109,-45.833 112.109,-51.758L112.109,-60.889C112.109,-64.242 110.359,-67.236 106.86,-69.873C103.361,-72.51 98.527,-74.601 92.358,-76.147C86.19,-77.694 79.102,-78.467 71.094,-78.467C63.053,-78.467 55.949,-77.694 49.78,-76.147C43.612,-74.601 38.778,-72.51 35.278,-69.873C31.779,-67.236 30.029,-64.242 30.029,-60.889L30.029,-51.758C30.029,-45.866 30.908,-40.487 32.666,-35.62C34.424,-30.754 36.987,-26.546 40.356,-22.998C43.726,-19.45 47.868,-16.699 52.783,-14.746C57.699,-12.793 63.314,-11.816 69.629,-11.816ZM71.094,-46.924C63.835,-46.924 57.381,-47.542 51.733,-48.779C46.086,-50.016 41.65,-51.693 38.428,-53.809C35.205,-55.924 33.594,-58.285 33.594,-60.889C33.594,-63.493 35.205,-65.845 38.428,-67.944C41.65,-70.044 46.086,-71.72 51.733,-72.974C57.381,-74.227 63.835,-74.854 71.094,-74.854C78.353,-74.854 84.806,-74.227 90.454,-72.974C96.102,-71.72 100.529,-70.044 103.735,-67.944C106.942,-65.845 108.545,-63.493 108.545,-60.889C108.545,-58.285 106.942,-55.924 103.735,-53.809C100.529,-51.693 96.102,-50.016 90.454,-48.779C84.806,-47.542 78.353,-46.924 71.094,-46.924ZM107.812,-33.594L111.816,-33.594C116.276,-33.594 119.832,-34.79 122.485,-37.183C125.138,-39.575 126.465,-42.773 126.465,-46.777C126.465,-50.749 125.138,-53.931 122.485,-56.323C119.832,-58.716 116.276,-59.912 111.816,-59.912L110.693,-59.912L110.693,-56.397L111.816,-56.397C115.169,-56.397 117.863,-55.526 119.897,-53.784C121.932,-52.043 122.949,-49.707 122.949,-46.777C122.949,-43.848 121.932,-41.504 119.897,-39.746C117.863,-37.988 115.169,-37.109 111.816,-37.109L107.812,-37.109L107.812,-33.594ZM71.045,8.105C79.541,8.105 87.354,7.544 94.482,6.421C101.611,5.298 107.813,3.719 113.086,1.685C118.359,-0.35 122.436,-2.759 125.317,-5.542C128.198,-8.325 129.639,-11.377 129.639,-14.697C129.639,-17.66 128.443,-20.443 126.05,-23.047C123.657,-25.651 120.247,-27.946 115.82,-29.932C115.071,-29.769 114.355,-29.647 113.672,-29.565C112.988,-29.484 112.207,-29.443 111.328,-29.443C107.877,-22.477 102.791,-17.106 96.069,-13.33C89.347,-9.554 81.478,-7.666 72.461,-7.666L69.629,-7.666C63.281,-7.666 57.511,-8.618 52.319,-10.523C47.127,-12.427 42.627,-15.161 38.818,-18.726C35.01,-22.29 32.015,-26.546 29.834,-31.494C24.268,-29.378 19.979,-26.888 16.968,-24.023C13.957,-21.159 12.451,-18.05 12.451,-14.697C12.451,-11.377 13.9,-8.325 16.797,-5.542C19.694,-2.759 23.771,-0.35 29.028,1.685C34.286,3.719 40.479,5.298 47.607,6.421C54.736,7.544 62.549,8.105 71.045,8.105Z" style="fill-rule:nonzero;"/>
        </g>
        <g id="Ultralight-M" transform="matrix(1,0,0,1,490.082,1126)">
            <path d="M68.408,-12.06L70.801,-12.06C77.148,-12.06 82.772,-13.013 87.671,-14.917C92.57,-16.821 96.68,-19.523 100,-23.023C103.32,-26.522 105.827,-30.672 107.52,-35.474C109.213,-40.275 110.059,-45.573 110.059,-51.367L110.059,-60.254C110.059,-63.444 108.325,-66.325 104.858,-68.897C101.391,-71.468 96.623,-73.503 90.552,-75C84.481,-76.497 77.507,-77.246 69.629,-77.246C61.719,-77.246 54.728,-76.497 48.657,-75C42.586,-73.503 37.817,-71.468 34.351,-68.897C30.884,-66.325 29.15,-63.444 29.15,-60.254L29.15,-51.367C29.15,-45.573 29.997,-40.275 31.69,-35.474C33.382,-30.672 35.889,-26.522 39.209,-23.023C42.529,-19.523 46.623,-16.821 51.489,-14.917C56.356,-13.013 61.995,-12.06 68.408,-12.06ZM69.629,-45.654C62.207,-45.654 55.631,-46.305 49.902,-47.607C44.173,-48.909 39.681,-50.667 36.426,-52.881C33.171,-55.094 31.543,-57.552 31.543,-60.254C31.543,-62.956 33.171,-65.405 36.426,-67.603C39.681,-69.8 44.173,-71.549 49.902,-72.852C55.631,-74.154 62.207,-74.805 69.629,-74.805C77.018,-74.805 83.577,-74.154 89.307,-72.852C95.036,-71.549 99.528,-69.8 102.783,-67.603C106.038,-65.405 107.666,-62.956 107.666,-60.254C107.666,-57.552 106.038,-55.094 102.783,-52.881C99.528,-50.667 95.036,-48.909 89.307,-47.607C83.577,-46.305 77.018,-45.654 69.629,-45.654ZM106.055,-33.838L110.107,-33.838C114.274,-33.838 117.619,-34.994 120.142,-37.305C122.665,-39.616 123.926,-42.66 123.926,-46.436C123.926,-50.179 122.665,-53.206 120.142,-55.518C117.619,-57.829 114.274,-58.984 110.107,-58.984L109.57,-58.984L109.57,-56.641L110.107,-56.641C113.525,-56.641 116.292,-55.713 118.408,-53.857C120.524,-52.002 121.582,-49.528 121.582,-46.436C121.582,-43.376 120.524,-40.902 118.408,-39.014C116.292,-37.126 113.525,-36.182 110.107,-36.182L106.055,-36.182L106.055,-33.838ZM69.629,6.885C77.897,6.885 85.514,6.348 92.481,5.273C99.447,4.199 105.502,2.677 110.645,0.708C115.788,-1.261 119.767,-3.581 122.583,-6.25C125.399,-8.919 126.807,-11.849 126.807,-15.039C126.807,-18.001 125.545,-20.784 123.022,-23.389C120.499,-25.993 116.911,-28.271 112.256,-30.225C111.67,-30.192 111.182,-30.168 110.791,-30.151C110.4,-30.135 109.912,-30.127 109.326,-30.127C105.973,-23.128 100.968,-17.749 94.312,-13.989C87.655,-10.23 79.818,-8.35 70.801,-8.35L68.408,-8.35C62.126,-8.35 56.445,-9.253 51.367,-11.06C46.289,-12.866 41.895,-15.47 38.184,-18.872C34.473,-22.274 31.559,-26.351 29.443,-31.104C23.975,-29.085 19.775,-26.693 16.846,-23.926C13.916,-21.159 12.451,-18.197 12.451,-15.039C12.451,-11.849 13.867,-8.919 16.699,-6.25C19.531,-3.581 23.519,-1.261 28.662,0.708C33.805,2.677 39.852,4.199 46.802,5.273C53.752,6.348 61.361,6.885 69.629,6.885Z" style="fill-rule:nonzero;"/>
        </g>
        <g id="Black-S" transform="matrix(1,0,0,1,2868.61,696)">
            <path d="M63.037,-13.721L67.09,-13.721C74.316,-13.721 80.591,-15.283 85.913,-18.408C91.235,-21.533 95.345,-25.855 98.242,-31.372C101.139,-36.89 102.588,-43.213 102.588,-50.342L102.588,-58.643C102.588,-62.386 101.034,-65.625 97.925,-68.359C94.816,-71.094 90.446,-73.21 84.815,-74.707C79.183,-76.204 72.607,-76.953 65.088,-76.953C57.568,-76.953 50.993,-76.204 45.361,-74.707C39.73,-73.21 35.36,-71.094 32.251,-68.359C29.142,-65.625 27.588,-62.386 27.588,-58.643L27.588,-50.342C27.588,-43.213 29.036,-36.89 31.934,-31.372C34.831,-25.855 38.932,-21.533 44.238,-18.408C49.544,-15.283 55.811,-13.721 63.037,-13.721ZM65.088,-51.367C60.27,-51.367 55.859,-51.717 51.856,-52.417C47.852,-53.117 44.645,-54.028 42.236,-55.151C39.827,-56.274 38.623,-57.438 38.623,-58.643C38.623,-59.88 39.819,-61.043 42.212,-62.134C44.605,-63.224 47.811,-64.119 51.831,-64.819C55.851,-65.519 60.27,-65.869 65.088,-65.869C69.938,-65.869 74.357,-65.519 78.345,-64.819C82.332,-64.119 85.522,-63.224 87.915,-62.134C90.308,-61.043 91.504,-59.88 91.504,-58.643C91.504,-57.438 90.308,-56.274 87.915,-55.151C85.522,-54.028 82.324,-53.117 78.32,-52.417C74.316,-51.717 69.906,-51.367 65.088,-51.367ZM96.484,-33.057L101.123,-33.057C105.973,-33.057 109.782,-34.285 112.549,-36.743C115.316,-39.201 116.699,-42.562 116.699,-46.826C116.699,-51.058 115.307,-54.395 112.524,-56.836C109.741,-59.277 105.941,-60.498 101.123,-60.498L96.484,-60.498L96.484,-50.244L101.123,-50.244C102.914,-50.244 104.248,-49.951 105.127,-49.365C106.006,-48.779 106.445,-47.933 106.445,-46.826C106.445,-45.719 105.998,-44.857 105.103,-44.238C104.208,-43.62 102.881,-43.311 101.123,-43.311L96.484,-43.311L96.484,-33.057ZM64.795,6.494C72.965,6.494 80.412,5.924 87.134,4.785C93.856,3.646 99.658,2.026 104.541,-0.073C109.424,-2.173 113.192,-4.688 115.845,-7.617C118.498,-10.547 119.824,-13.818 119.824,-17.432C119.824,-19.775 119.238,-21.997 118.066,-24.097C116.895,-26.196 115.186,-28.141 112.939,-29.932C111.474,-29.15 109.879,-28.532 108.154,-28.076C106.429,-27.62 104.59,-27.344 102.637,-27.246C99.186,-21.224 94.393,-16.488 88.257,-13.037C82.121,-9.587 75.065,-7.861 67.09,-7.861L63.037,-7.861C56.755,-7.861 51.025,-8.944 45.85,-11.108C40.674,-13.273 36.247,-16.349 32.568,-20.337C28.89,-24.325 26.123,-29.02 24.268,-34.424C19.613,-32.34 16.032,-29.858 13.525,-26.978C11.019,-24.097 9.766,-20.915 9.766,-17.432C9.766,-13.818 11.092,-10.547 13.745,-7.617C16.398,-4.688 20.166,-2.173 25.049,-0.073C29.932,2.026 35.742,3.646 42.481,4.785C49.219,5.924 56.657,6.494 64.795,6.494Z" style="fill-rule:nonzero;"/>
        </g>
        <g id="Heavy-S" transform="matrix(1,0,0,1,2572.92,696)">
            <path d="M62.06,-14.307L66.016,-14.307C73.047,-14.307 79.167,-15.82 84.375,-18.848C89.583,-21.875 93.612,-26.082 96.46,-31.47C99.308,-36.857 100.732,-43.083 100.732,-50.147L100.732,-58.35C100.732,-61.963 99.21,-65.088 96.167,-67.725C93.123,-70.361 88.851,-72.412 83.35,-73.877C77.848,-75.342 71.419,-76.074 64.063,-76.074C56.706,-76.074 50.269,-75.342 44.751,-73.877C39.233,-72.412 34.953,-70.361 31.909,-67.725C28.866,-65.088 27.344,-61.963 27.344,-58.35L27.344,-50.147C27.344,-43.148 28.776,-36.955 31.641,-31.567C34.505,-26.18 38.534,-21.956 43.726,-18.897C48.918,-15.837 55.029,-14.307 62.06,-14.307ZM64.063,-50.684C59.147,-50.684 54.671,-51.05 50.635,-51.782C46.598,-52.515 43.384,-53.467 40.991,-54.639C38.599,-55.811 37.402,-57.048 37.402,-58.35C37.402,-59.684 38.59,-60.929 40.967,-62.085C43.343,-63.241 46.558,-64.176 50.61,-64.893C54.663,-65.609 59.147,-65.967 64.063,-65.967C69.01,-65.967 73.494,-65.609 77.515,-64.893C81.535,-64.176 84.733,-63.241 87.109,-62.085C89.486,-60.929 90.674,-59.684 90.674,-58.35C90.674,-57.048 89.486,-55.811 87.109,-54.639C84.733,-53.467 81.527,-52.515 77.49,-51.782C73.454,-51.05 68.978,-50.684 64.063,-50.684ZM95.068,-33.057L99.316,-33.057C104.069,-33.057 107.804,-34.253 110.522,-36.646C113.241,-39.038 114.6,-42.318 114.6,-46.484C114.6,-50.618 113.241,-53.882 110.522,-56.274C107.804,-58.667 104.069,-59.863 99.316,-59.863L95.117,-59.863L95.117,-50.391L99.316,-50.391C101.237,-50.391 102.694,-50.057 103.687,-49.39C104.68,-48.722 105.176,-47.754 105.176,-46.484C105.176,-45.215 104.68,-44.23 103.687,-43.53C102.694,-42.83 101.237,-42.481 99.316,-42.481L95.068,-42.481L95.068,-33.057ZM63.77,5.615C71.777,5.615 79.077,5.062 85.669,3.955C92.261,2.848 97.957,1.278 102.759,-0.757C107.56,-2.791 111.263,-5.233 113.867,-8.081C116.471,-10.929 117.773,-14.095 117.773,-17.578C117.773,-19.922 117.155,-22.135 115.918,-24.219C114.681,-26.302 112.907,-28.223 110.596,-29.981C109.163,-29.264 107.617,-28.695 105.957,-28.272C104.297,-27.848 102.523,-27.588 100.635,-27.49C97.282,-21.663 92.619,-17.074 86.646,-13.721C80.672,-10.368 73.796,-8.691 66.016,-8.691L62.06,-8.691C56.006,-8.691 50.472,-9.733 45.459,-11.816C40.446,-13.9 36.141,-16.854 32.544,-20.679C28.947,-24.504 26.221,-29.02 24.365,-34.228C19.71,-32.178 16.113,-29.744 13.574,-26.929C11.035,-24.113 9.766,-20.996 9.766,-17.578C9.766,-14.095 11.068,-10.929 13.672,-8.081C16.276,-5.233 19.979,-2.791 24.78,-0.757C29.582,1.278 35.286,2.848 41.895,3.955C48.503,5.062 55.794,5.615 63.77,5.615Z" style="fill-rule:nonzero;"/>
        </g>
        <g id="Bold-S" transform="matrix(1,0,0,1,2277.33,696)">
            <path d="M60.938,-14.99L64.844,-14.99C71.615,-14.99 77.547,-16.447 82.642,-19.36C87.736,-22.274 91.691,-26.359 94.507,-31.616C97.323,-36.873 98.731,-42.985 98.731,-49.951L98.731,-58.057C98.731,-61.507 97.241,-64.502 94.263,-67.041C91.284,-69.58 87.109,-71.549 81.738,-72.949C76.367,-74.349 70.085,-75.049 62.891,-75.049C55.729,-75.049 49.463,-74.349 44.092,-72.949C38.721,-71.549 34.546,-69.58 31.567,-67.041C28.589,-64.502 27.1,-61.507 27.1,-58.057L27.1,-49.951C27.1,-43.115 28.507,-37.069 31.323,-31.811C34.139,-26.554 38.086,-22.437 43.164,-19.458C48.242,-16.479 54.167,-14.99 60.938,-14.99ZM62.891,-49.951C57.878,-49.951 53.337,-50.326 49.268,-51.074C45.199,-51.823 41.968,-52.816 39.575,-54.053C37.183,-55.29 35.986,-56.624 35.986,-58.057C35.986,-59.521 37.183,-60.864 39.575,-62.085C41.968,-63.306 45.199,-64.282 49.268,-65.015C53.337,-65.747 57.878,-66.113 62.891,-66.113C67.969,-66.113 72.534,-65.747 76.587,-65.015C80.64,-64.282 83.854,-63.306 86.231,-62.085C88.607,-60.864 89.795,-59.521 89.795,-58.057C89.795,-56.624 88.607,-55.29 86.231,-54.053C83.854,-52.816 80.632,-51.823 76.563,-51.074C72.494,-50.326 67.936,-49.951 62.891,-49.951ZM93.506,-33.057L97.315,-33.057C101.97,-33.057 105.623,-34.22 108.276,-36.548C110.929,-38.875 112.256,-42.057 112.256,-46.094C112.256,-50.163 110.929,-53.353 108.276,-55.664C105.623,-57.975 101.97,-59.131 97.315,-59.131L93.604,-59.131L93.604,-50.586L97.315,-50.586C99.397,-50.586 100.984,-50.203 102.075,-49.439C103.166,-48.673 103.711,-47.559 103.711,-46.094C103.711,-44.694 103.166,-43.595 102.075,-42.798C100.984,-42 99.397,-41.602 97.315,-41.602L93.506,-41.602L93.506,-33.057ZM62.647,4.688C70.459,4.688 77.588,4.15 84.033,3.076C90.479,2.002 96.053,0.472 100.757,-1.514C105.46,-3.499 109.098,-5.868 111.67,-8.618C114.241,-11.369 115.527,-14.421 115.527,-17.773C115.527,-20.117 114.876,-22.323 113.574,-24.39C112.272,-26.457 110.4,-28.337 107.959,-30.029C106.592,-29.378 105.111,-28.857 103.516,-28.467C101.921,-28.076 100.212,-27.848 98.389,-27.783C95.134,-22.152 90.609,-17.725 84.815,-14.502C79.02,-11.279 72.363,-9.668 64.844,-9.668L60.938,-9.668C55.143,-9.668 49.837,-10.661 45.02,-12.647C40.202,-14.632 36.043,-17.448 32.544,-21.094C29.045,-24.74 26.367,-29.036 24.512,-33.984C19.824,-32.031 16.195,-29.679 13.623,-26.929C11.051,-24.178 9.766,-21.126 9.766,-17.773C9.766,-14.421 11.051,-11.369 13.623,-8.618C16.195,-5.868 19.832,-3.499 24.536,-1.514C29.24,0.472 34.823,2.002 41.284,3.076C47.746,4.15 54.867,4.688 62.647,4.688Z" style="fill-rule:nonzero;"/>
        </g>
        <g id="Semibold-S" transform="matrix(1,0,0,1,1981.43,696)">
            <path d="M60.156,-15.43L64.014,-15.43C70.622,-15.43 76.424,-16.854 81.421,-19.702C86.418,-22.55 90.316,-26.546 93.115,-31.69C95.915,-36.833 97.315,-42.855 97.315,-49.756L97.315,-57.861C97.315,-61.182 95.842,-64.079 92.896,-66.553C89.95,-69.027 85.84,-70.947 80.566,-72.315C75.293,-73.682 69.141,-74.365 62.109,-74.365C55.078,-74.365 48.918,-73.682 43.628,-72.315C38.338,-70.947 34.229,-69.027 31.299,-66.553C28.369,-64.079 26.904,-61.182 26.904,-57.861L26.904,-49.756C26.904,-43.05 28.296,-37.118 31.079,-31.958C33.862,-26.799 37.752,-22.754 42.749,-19.824C47.746,-16.895 53.548,-15.43 60.156,-15.43ZM62.109,-49.414C56.999,-49.414 52.401,-49.805 48.315,-50.586C44.23,-51.367 40.991,-52.384 38.599,-53.638C36.206,-54.891 35.01,-56.299 35.01,-57.861C35.01,-59.359 36.206,-60.742 38.599,-62.012C40.991,-63.281 44.23,-64.299 48.315,-65.064C52.401,-65.828 56.999,-66.211 62.109,-66.211C67.22,-66.211 71.818,-65.828 75.903,-65.064C79.989,-64.299 83.219,-63.281 85.596,-62.012C87.972,-60.742 89.16,-59.359 89.16,-57.861C89.16,-56.299 87.972,-54.891 85.596,-53.638C83.219,-52.384 79.989,-51.367 75.903,-50.586C71.818,-49.805 67.22,-49.414 62.109,-49.414ZM92.432,-33.057L95.947,-33.057C100.504,-33.057 104.085,-34.188 106.689,-36.45C109.294,-38.713 110.596,-41.846 110.596,-45.85C110.596,-49.821 109.294,-52.938 106.689,-55.2C104.085,-57.463 100.504,-58.594 95.947,-58.594L92.529,-58.594L92.529,-50.732L95.947,-50.732C98.128,-50.732 99.805,-50.309 100.977,-49.463C102.148,-48.617 102.734,-47.412 102.734,-45.85C102.734,-44.32 102.148,-43.123 100.977,-42.261C99.805,-41.398 98.128,-40.967 95.947,-40.967L92.432,-40.967L92.432,-33.057ZM61.816,4.004C69.499,4.004 76.522,3.483 82.886,2.441C89.25,1.4 94.751,-0.09 99.39,-2.026C104.029,-3.963 107.609,-6.274 110.132,-8.96C112.655,-11.646 113.916,-14.616 113.916,-17.871C113.916,-20.215 113.241,-22.412 111.89,-24.463C110.539,-26.514 108.61,-28.385 106.104,-30.078C104.769,-29.46 103.329,-28.971 101.782,-28.613C100.236,-28.255 98.584,-28.027 96.826,-27.93C93.636,-22.461 89.209,-18.156 83.545,-15.015C77.881,-11.873 71.37,-10.303 64.014,-10.303L60.156,-10.303C54.557,-10.303 49.406,-11.263 44.702,-13.184C39.998,-15.104 35.938,-17.83 32.52,-21.362C29.102,-24.894 26.465,-29.037 24.609,-33.789C19.889,-31.869 16.235,-29.557 13.648,-26.856C11.06,-24.154 9.766,-21.159 9.766,-17.871C9.766,-14.616 11.027,-11.646 13.55,-8.96C16.073,-6.274 19.653,-3.963 24.292,-2.026C28.931,-0.09 34.432,1.4 40.796,2.441C47.16,3.483 54.167,4.004 61.816,4.004Z" style="fill-rule:nonzero;"/>
        </g>
        <g id="Medium-S" transform="matrix(1,0,0,1,1685.3,696)">
            <path d="M59.57,-15.772L63.428,-15.772C69.906,-15.772 75.61,-17.163 80.542,-19.946C85.474,-22.729 89.323,-26.66 92.09,-31.738C94.857,-36.816 96.24,-42.79 96.24,-49.658L96.24,-57.666C96.24,-60.921 94.792,-63.761 91.894,-66.187C88.997,-68.612 84.945,-70.492 79.736,-71.826C74.528,-73.161 68.441,-73.828 61.475,-73.828C54.541,-73.828 48.47,-73.161 43.262,-71.826C38.053,-70.492 34.001,-68.612 31.104,-66.187C28.206,-63.761 26.758,-60.921 26.758,-57.666L26.758,-49.658C26.758,-43.05 28.141,-37.191 30.908,-32.08C33.675,-26.969 37.524,-22.974 42.456,-20.093C47.388,-17.212 53.092,-15.772 59.57,-15.772ZM61.475,-49.023C56.331,-49.023 51.709,-49.414 47.607,-50.195C43.506,-50.977 40.259,-52.018 37.866,-53.32C35.474,-54.622 34.277,-56.071 34.277,-57.666C34.277,-59.261 35.474,-60.71 37.866,-62.012C40.259,-63.314 43.506,-64.347 47.607,-65.112C51.709,-65.877 56.331,-66.26 61.475,-66.26C66.683,-66.26 71.33,-65.877 75.415,-65.112C79.5,-64.347 82.739,-63.314 85.132,-62.012C87.524,-60.71 88.721,-59.261 88.721,-57.666C88.721,-56.071 87.524,-54.622 85.132,-53.32C82.739,-52.018 79.5,-50.977 75.415,-50.195C71.33,-49.414 66.683,-49.023 61.475,-49.023ZM91.602,-33.057L94.873,-33.057C99.398,-33.057 102.946,-34.172 105.518,-36.401C108.089,-38.631 109.375,-41.699 109.375,-45.606C109.375,-49.544 108.089,-52.629 105.518,-54.858C102.946,-57.088 99.398,-58.203 94.873,-58.203L91.699,-58.203L91.699,-50.781L94.873,-50.781C97.152,-50.781 98.901,-50.342 100.122,-49.463C101.343,-48.584 101.953,-47.298 101.953,-45.606C101.953,-44.01 101.343,-42.757 100.122,-41.846C98.901,-40.934 97.152,-40.478 94.873,-40.478L91.602,-40.478L91.602,-33.057ZM61.231,3.467C68.815,3.467 75.749,2.962 82.031,1.953C88.314,0.944 93.75,-0.513 98.34,-2.417C102.93,-4.321 106.478,-6.592 108.984,-9.229C111.491,-11.865 112.744,-14.779 112.744,-17.969C112.744,-20.313 112.052,-22.502 110.669,-24.536C109.286,-26.571 107.308,-28.418 104.736,-30.078C103.434,-29.492 102.026,-29.028 100.513,-28.686C98.999,-28.345 97.38,-28.141 95.654,-28.076C92.497,-22.705 88.143,-18.481 82.593,-15.405C77.043,-12.329 70.654,-10.791 63.428,-10.791L59.57,-10.791C54.102,-10.791 49.064,-11.735 44.458,-13.623C39.852,-15.511 35.864,-18.164 32.495,-21.582C29.126,-25 26.514,-29.02 24.658,-33.643C19.971,-31.787 16.317,-29.525 13.696,-26.856C11.076,-24.186 9.766,-21.224 9.766,-17.969C9.766,-14.779 11.019,-11.865 13.525,-9.229C16.032,-6.592 19.58,-4.321 24.17,-2.417C28.76,-0.513 34.196,0.944 40.478,1.953C46.761,2.962 53.678,3.467 61.231,3.467Z" style="fill-rule:nonzero;"/>
        </g>
        <g id="Regular-S" transform="matrix(1,0,0,1,1389.37,696)">
            <path d="M58.838,-16.211L62.598,-16.211C68.913,-16.211 74.495,-17.57 79.346,-20.288C84.196,-23.006 87.988,-26.855 90.723,-31.836C93.457,-36.816 94.824,-42.708 94.824,-49.512L94.824,-57.471C94.824,-60.596 93.4,-63.338 90.552,-65.698C87.703,-68.058 83.724,-69.889 78.613,-71.191C73.503,-72.493 67.529,-73.144 60.693,-73.144C53.89,-73.144 47.925,-72.493 42.798,-71.191C37.671,-69.889 33.683,-68.058 30.835,-65.698C27.987,-63.338 26.563,-60.596 26.563,-57.471L26.563,-49.512C26.563,-43.001 27.93,-37.24 30.664,-32.227C33.398,-27.214 37.199,-23.291 42.065,-20.459C46.932,-17.627 52.523,-16.211 58.838,-16.211ZM60.693,-48.535C55.452,-48.535 50.773,-48.934 46.655,-49.731C42.537,-50.529 39.29,-51.595 36.914,-52.93C34.538,-54.264 33.35,-55.778 33.35,-57.471C33.35,-59.131 34.538,-60.636 36.914,-61.987C39.29,-63.338 42.537,-64.404 46.655,-65.186C50.773,-65.967 55.452,-66.357 60.693,-66.357C65.967,-66.357 70.662,-65.967 74.78,-65.186C78.898,-64.404 82.145,-63.338 84.522,-61.987C86.898,-60.636 88.086,-59.131 88.086,-57.471C88.086,-55.778 86.898,-54.264 84.522,-52.93C82.145,-51.595 78.898,-50.529 74.78,-49.731C70.662,-48.934 65.967,-48.535 60.693,-48.535ZM90.527,-33.057L93.506,-33.057C97.965,-33.057 101.456,-34.147 103.979,-36.328C106.502,-38.509 107.764,-41.52 107.764,-45.361C107.764,-49.235 106.502,-52.262 103.979,-54.443C101.456,-56.624 97.965,-57.715 93.506,-57.715L90.674,-57.715L90.674,-50.928L93.506,-50.928C95.882,-50.928 97.721,-50.448 99.023,-49.487C100.326,-48.527 100.977,-47.152 100.977,-45.361C100.977,-43.636 100.326,-42.285 99.023,-41.309C97.721,-40.332 95.882,-39.844 93.506,-39.844L90.527,-39.844L90.527,-33.057ZM60.449,2.832C67.904,2.832 74.723,2.336 80.908,1.343C87.093,0.35 92.448,-1.074 96.973,-2.93C101.498,-4.785 104.997,-6.999 107.471,-9.57C109.945,-12.142 111.182,-14.974 111.182,-18.066C111.182,-20.41 110.466,-22.599 109.033,-24.634C107.601,-26.668 105.567,-28.499 102.93,-30.127C101.66,-29.574 100.293,-29.142 98.828,-28.833C97.363,-28.524 95.801,-28.337 94.141,-28.272C91.048,-23.031 86.784,-18.913 81.348,-15.918C75.912,-12.923 69.662,-11.426 62.598,-11.426L58.838,-11.426C53.532,-11.426 48.641,-12.337 44.165,-14.16C39.689,-15.983 35.799,-18.547 32.495,-21.851C29.191,-25.155 26.611,-29.036 24.756,-33.496C20.036,-31.673 16.357,-29.452 13.721,-26.831C11.084,-24.211 9.766,-21.289 9.766,-18.066C9.766,-14.974 11.003,-12.142 13.477,-9.57C15.951,-6.999 19.45,-4.785 23.975,-2.93C28.499,-1.074 33.854,0.35 40.039,1.343C46.224,2.336 53.027,2.832 60.449,2.832Z" style="fill-rule:nonzero;"/>
        </g>
        <g id="Light-S" transform="matrix(1,0,0,1,1094.49,696)">
            <path d="M57.227,-16.455L60.352,-16.455C66.797,-16.455 72.404,-17.798 77.173,-20.483C81.942,-23.169 85.628,-26.953 88.232,-31.836C90.837,-36.719 92.139,-42.432 92.139,-48.975L92.139,-56.641C92.139,-59.57 90.739,-62.166 87.94,-64.429C85.14,-66.691 81.234,-68.449 76.221,-69.702C71.208,-70.955 65.397,-71.582 58.789,-71.582C52.181,-71.582 46.37,-70.955 41.357,-69.702C36.344,-68.449 32.43,-66.691 29.614,-64.429C26.799,-62.166 25.391,-59.57 25.391,-56.641L25.391,-48.975C25.391,-42.627 26.701,-37.004 29.321,-32.105C31.942,-27.205 35.636,-23.372 40.405,-20.606C45.174,-17.839 50.781,-16.455 57.227,-16.455ZM58.789,-46.924C53.353,-46.924 48.519,-47.355 44.287,-48.218C40.055,-49.08 36.727,-50.244 34.302,-51.709C31.877,-53.174 30.664,-54.818 30.664,-56.641C30.664,-58.464 31.877,-60.107 34.302,-61.572C36.727,-63.037 40.055,-64.193 44.287,-65.039C48.519,-65.885 53.353,-66.309 58.789,-66.309C64.225,-66.309 69.059,-65.885 73.291,-65.039C77.523,-64.193 80.851,-63.037 83.276,-61.572C85.702,-60.107 86.914,-58.464 86.914,-56.641C86.914,-54.818 85.702,-53.174 83.276,-51.709C80.851,-50.244 77.523,-49.08 73.291,-48.218C69.059,-47.355 64.225,-46.924 58.789,-46.924ZM88.232,-33.398L91.26,-33.398C95.329,-33.398 98.543,-34.432 100.903,-36.499C103.263,-38.566 104.443,-41.374 104.443,-44.922C104.443,-48.535 103.263,-51.367 100.903,-53.418C98.543,-55.469 95.329,-56.494 91.26,-56.494L89.16,-56.494L89.16,-51.27L91.26,-51.27C93.734,-51.27 95.671,-50.708 97.07,-49.585C98.47,-48.462 99.17,-46.908 99.17,-44.922C99.17,-43.001 98.47,-41.471 97.07,-40.332C95.671,-39.193 93.734,-38.623 91.26,-38.623L88.232,-38.623L88.232,-33.398ZM58.594,1.27C65.755,1.27 72.314,0.798 78.272,-0.146C84.229,-1.09 89.388,-2.45 93.75,-4.224C98.112,-5.998 101.497,-8.089 103.906,-10.498C106.315,-12.907 107.52,-15.576 107.52,-18.506C107.52,-20.817 106.714,-22.99 105.103,-25.024C103.492,-27.059 101.205,-28.89 98.242,-30.518C97.233,-30.094 96.175,-29.777 95.068,-29.565C93.962,-29.354 92.773,-29.232 91.504,-29.199C88.542,-23.861 84.375,-19.702 79.004,-16.724C73.633,-13.745 67.415,-12.256 60.352,-12.256L57.227,-12.256C52.018,-12.256 47.258,-13.11 42.944,-14.819C38.631,-16.528 34.888,-18.929 31.714,-22.022C28.54,-25.114 26.042,-28.776 24.219,-33.008C19.629,-31.283 16.073,-29.183 13.55,-26.709C11.027,-24.235 9.766,-21.501 9.766,-18.506C9.766,-15.576 10.962,-12.907 13.355,-10.498C15.747,-8.089 19.124,-5.998 23.486,-4.224C27.848,-2.45 33.008,-1.09 38.965,-0.146C44.922,0.798 51.465,1.27 58.594,1.27Z" style="fill-rule:nonzero;"/>
        </g>
        <g id="Thin-S" transform="matrix(1,0,0,1,800.221,696)">
            <path d="M55.029,-16.797L57.422,-16.797C63.997,-16.797 69.613,-18.123 74.268,-20.776C78.923,-23.429 82.479,-27.124 84.937,-31.86C87.394,-36.597 88.623,-42.09 88.623,-48.34L88.623,-55.566C88.623,-58.236 87.248,-60.628 84.497,-62.744C81.746,-64.86 77.938,-66.52 73.071,-67.725C68.205,-68.929 62.598,-69.531 56.25,-69.531C49.902,-69.531 44.295,-68.929 39.429,-67.725C34.562,-66.52 30.754,-64.86 28.003,-62.744C25.252,-60.628 23.877,-58.236 23.877,-55.566L23.877,-48.34C23.877,-42.155 25.098,-36.694 27.539,-31.958C29.981,-27.222 33.529,-23.511 38.184,-20.825C42.839,-18.14 48.454,-16.797 55.029,-16.797ZM56.25,-44.824C50.586,-44.824 45.565,-45.304 41.187,-46.265C36.808,-47.225 33.366,-48.519 30.859,-50.147C28.353,-51.774 27.1,-53.581 27.1,-55.566C27.1,-57.552 28.353,-59.359 30.859,-60.986C33.366,-62.614 36.808,-63.908 41.187,-64.868C45.565,-65.828 50.586,-66.309 56.25,-66.309C61.914,-66.309 66.935,-65.828 71.314,-64.868C75.692,-63.908 79.134,-62.614 81.641,-60.986C84.147,-59.359 85.4,-57.552 85.4,-55.566C85.4,-53.581 84.147,-51.774 81.641,-50.147C79.134,-48.519 75.692,-47.225 71.314,-46.265C66.935,-45.304 61.914,-44.824 56.25,-44.824ZM85.156,-33.838L88.281,-33.838C91.829,-33.838 94.678,-34.79 96.826,-36.694C98.975,-38.599 100.049,-41.162 100.049,-44.385C100.049,-47.607 98.975,-50.163 96.826,-52.051C94.678,-53.939 91.829,-54.883 88.281,-54.883L87.207,-54.883L87.207,-51.709L88.281,-51.709C90.853,-51.709 92.92,-51.05 94.482,-49.731C96.045,-48.413 96.826,-46.631 96.826,-44.385C96.826,-42.171 96.045,-40.389 94.482,-39.038C92.92,-37.687 90.853,-37.012 88.281,-37.012L85.156,-37.012L85.156,-33.838ZM56.152,-0.83C62.923,-0.83 69.132,-1.27 74.78,-2.148C80.428,-3.027 85.335,-4.289 89.502,-5.933C93.669,-7.577 96.899,-9.505 99.194,-11.719C101.489,-13.932 102.637,-16.374 102.637,-19.043C102.637,-21.354 101.725,-23.527 99.902,-25.562C98.079,-27.596 95.475,-29.411 92.09,-31.006C91.406,-30.811 90.747,-30.664 90.112,-30.566C89.478,-30.469 88.77,-30.42 87.988,-30.42C85.254,-24.984 81.242,-20.784 75.952,-17.822C70.662,-14.86 64.486,-13.379 57.422,-13.379L55.029,-13.379C50.016,-13.379 45.451,-14.144 41.333,-15.674C37.215,-17.204 33.651,-19.393 30.64,-22.241C27.629,-25.09 25.26,-28.483 23.535,-32.422C19.141,-30.762 15.747,-28.792 13.355,-26.514C10.962,-24.235 9.766,-21.745 9.766,-19.043C9.766,-16.374 10.905,-13.932 13.184,-11.719C15.462,-9.505 18.685,-7.577 22.852,-5.933C27.018,-4.289 31.934,-3.027 37.598,-2.148C43.262,-1.27 49.447,-0.83 56.152,-0.83Z" style="fill-rule:nonzero;"/>
        </g>
        <g id="Ultralight-S" transform="matrix(1,0,0,1,504.755,696)">
            <path d="M53.955,-16.992L55.908,-16.992C62.581,-16.992 68.213,-18.302 72.803,-20.923C77.393,-23.543 80.868,-27.189 83.228,-31.86C85.588,-36.532 86.768,-41.895 86.768,-47.949L86.768,-55.029C86.768,-57.536 85.417,-59.814 82.715,-61.865C80.013,-63.916 76.261,-65.527 71.46,-66.699C66.659,-67.871 61.149,-68.457 54.932,-68.457C48.714,-68.457 43.213,-67.871 38.428,-66.699C33.643,-65.527 29.883,-63.916 27.148,-61.865C24.414,-59.814 23.047,-57.536 23.047,-55.029L23.047,-47.949C23.047,-41.895 24.235,-36.54 26.611,-31.885C28.988,-27.23 32.471,-23.584 37.061,-20.947C41.65,-18.311 47.282,-16.992 53.955,-16.992ZM54.932,-43.75C49.17,-43.75 44.059,-44.246 39.6,-45.239C35.14,-46.232 31.633,-47.591 29.077,-49.316C26.522,-51.042 25.244,-52.946 25.244,-55.029C25.244,-57.113 26.522,-59.001 29.077,-60.693C31.633,-62.386 35.14,-63.737 39.6,-64.746C44.059,-65.755 49.17,-66.26 54.932,-66.26C60.726,-66.26 65.845,-65.755 70.288,-64.746C74.731,-63.737 78.223,-62.386 80.762,-60.693C83.301,-59.001 84.57,-57.113 84.57,-55.029C84.57,-52.946 83.301,-51.042 80.762,-49.316C78.223,-47.591 74.731,-46.232 70.288,-45.239C65.845,-44.246 60.726,-43.75 54.932,-43.75ZM83.594,-34.033L86.719,-34.033C90.039,-34.033 92.708,-34.953 94.727,-36.792C96.745,-38.631 97.754,-41.064 97.754,-44.092C97.754,-47.119 96.745,-49.544 94.727,-51.367C92.708,-53.19 90.039,-54.102 86.719,-54.102L86.182,-54.102L86.182,-51.904L86.719,-51.904C89.388,-51.904 91.537,-51.196 93.164,-49.78C94.792,-48.364 95.606,-46.468 95.606,-44.092C95.606,-41.715 94.792,-39.811 93.164,-38.379C91.537,-36.947 89.388,-36.231 86.719,-36.231L83.594,-36.231L83.594,-34.033ZM54.932,-1.904C61.475,-1.904 67.497,-2.327 72.998,-3.174C78.499,-4.02 83.276,-5.233 87.329,-6.812C91.382,-8.39 94.531,-10.238 96.777,-12.354C99.023,-14.469 100.146,-16.797 100.146,-19.336C100.146,-21.647 99.17,-23.82 97.217,-25.855C95.264,-27.889 92.497,-29.687 88.916,-31.25C88.428,-31.152 87.988,-31.095 87.598,-31.079C87.207,-31.063 86.735,-31.055 86.182,-31.055C83.545,-25.553 79.606,-21.33 74.365,-18.384C69.124,-15.438 62.972,-13.965 55.908,-13.965L53.955,-13.965C49.007,-13.965 44.531,-14.689 40.527,-16.138C36.523,-17.586 33.057,-19.661 30.127,-22.363C27.197,-25.065 24.87,-28.304 23.145,-32.08C18.848,-30.518 15.544,-28.638 13.232,-26.44C10.921,-24.243 9.766,-21.875 9.766,-19.336C9.766,-16.797 10.881,-14.469 13.11,-12.354C15.34,-10.238 18.481,-8.39 22.534,-6.812C26.587,-5.233 31.364,-4.02 36.865,-3.174C42.367,-2.327 48.389,-1.904 54.932,-1.904Z" style="fill-rule:nonzero;"/>
        </g>
    </g>
</svg>
