<?xml version="1.0" encoding="UTF-8" standalone="no"?>
<!DOCTYPE svg PUBLIC "-//W3C//DTD SVG 1.1//EN" "http://www.w3.org/Graphics/SVG/1.1/DTD/svg11.dtd">
<svg width="100%" height="100%" viewBox="0 0 3300 2200" version="1.1" xmlns="http://www.w3.org/2000/svg" xmlns:xlink="http://www.w3.org/1999/xlink" xml:space="preserve" xmlns:serif="http://www.serif.com/" style="fill-rule:evenodd;clip-rule:evenodd;">
    <g id="Notes">
        <rect id="artboard" x="0" y="0" width="3300" height="2200" style="fill:white;"/>
        <path d="M263,292L3036,292" style="fill:none;fill-rule:nonzero;stroke:black;stroke-width:0.5px;"/>
        <g transform="matrix(1,0,0,1,263,322)">
            <text x="0px" y="0px" style="font-family:'LucidaGrande-Bold', 'Lucida Grande', sans-serif;font-weight:600;font-size:13px;">Weight/Scale Variations</text>
        </g>
        <g transform="matrix(1,0,0,1,530.372,322)">
            <text x="0px" y="0px" style="font-family:'LucidaGrande', 'Lucida Grande', sans-serif;font-weight:500;font-size:13px;">Ultralight</text>
        </g>
        <g transform="matrix(1,0,0,1,842.365,322)">
            <text x="0px" y="0px" style="font-family:'LucidaGrande', 'Lucida Grande', sans-serif;font-weight:500;font-size:13px;">Thin</text>
        </g>
        <g transform="matrix(1,0,0,1,1137.27,322)">
            <text x="0px" y="0px" style="font-family:'LucidaGrande', 'Lucida Grande', sans-serif;font-weight:500;font-size:13px;">Light</text>
        </g>
        <g transform="matrix(1,0,0,1,1425.89,322)">
            <text x="0px" y="0px" style="font-family:'LucidaGrande', 'Lucida Grande', sans-serif;font-weight:500;font-size:13px;">Regular</text>
        </g>
        <g transform="matrix(1,0,0,1,1721.27,322)">
            <text x="0px" y="0px" style="font-family:'LucidaGrande', 'Lucida Grande', sans-serif;font-weight:500;font-size:13px;">Medium</text>
        </g>
        <g transform="matrix(1,0,0,1,2014.15,322)">
            <text x="0px" y="0px" style="font-family:'LucidaGrande', 'Lucida Grande', sans-serif;font-weight:500;font-size:13px;">Semibold</text>
        </g>
        <g transform="matrix(1,0,0,1,2326.28,322)">
            <text x="0px" y="0px" style="font-family:'LucidaGrande', 'Lucida Grande', sans-serif;font-weight:500;font-size:13px;">Bold</text>
        </g>
        <g transform="matrix(1,0,0,1,2617.94,322)">
            <text x="0px" y="0px" style="font-family:'LucidaGrande', 'Lucida Grande', sans-serif;font-weight:500;font-size:13px;">Heavy</text>
        </g>
        <g transform="matrix(1,0,0,1,2917.06,322)">
            <text x="0px" y="0px" style="font-family:'LucidaGrande', 'Lucida Grande', sans-serif;font-weight:500;font-size:13px;">Black</text>
        </g>
        <path d="M263,1903L3036,1903" style="fill:none;fill-rule:nonzero;stroke:black;stroke-width:0.5px;"/>
        <g transform="matrix(1,0,0,1,263,1933)">
            <path d="M9.248,0.83C10.329,0.83 11.344,0.625 12.295,0.215C13.245,-0.195 14.084,-0.765 14.81,-1.494C15.535,-2.223 16.105,-3.063 16.519,-4.014C16.932,-4.964 17.139,-5.977 17.139,-7.051C17.139,-8.125 16.932,-9.137 16.519,-10.088C16.105,-11.038 15.534,-11.878 14.805,-12.607C14.076,-13.337 13.236,-13.906 12.285,-14.316C11.335,-14.727 10.319,-14.932 9.238,-14.932C8.164,-14.932 7.152,-14.727 6.201,-14.316C5.251,-13.906 4.414,-13.337 3.691,-12.607C2.969,-11.878 2.401,-11.038 1.987,-10.088C1.574,-9.137 1.367,-8.125 1.367,-7.051C1.367,-5.977 1.574,-4.964 1.987,-4.014C2.401,-3.063 2.97,-2.223 3.696,-1.494C4.422,-0.765 5.26,-0.195 6.211,0.215C7.161,0.625 8.174,0.83 9.248,0.83ZM9.248,-0.654C8.363,-0.654 7.534,-0.819 6.763,-1.147C5.991,-1.476 5.314,-1.934 4.731,-2.52C4.149,-3.105 3.693,-3.786 3.364,-4.561C3.035,-5.335 2.871,-6.165 2.871,-7.051C2.871,-7.936 3.034,-8.766 3.359,-9.541C3.685,-10.316 4.139,-10.996 4.722,-11.582C5.304,-12.168 5.981,-12.625 6.753,-12.954C7.524,-13.283 8.353,-13.447 9.238,-13.447C10.13,-13.447 10.962,-13.283 11.733,-12.954C12.505,-12.625 13.184,-12.168 13.77,-11.582C14.355,-10.996 14.814,-10.316 15.147,-9.541C15.479,-8.766 15.645,-7.936 15.645,-7.051C15.645,-6.165 15.48,-5.335 15.151,-4.561C14.823,-3.786 14.367,-3.105 13.784,-2.52C13.202,-1.934 12.523,-1.476 11.748,-1.147C10.973,-0.819 10.14,-0.654 9.248,-0.654ZM5.654,-7.051C5.654,-6.836 5.723,-6.662 5.859,-6.528C5.996,-6.395 6.178,-6.328 6.406,-6.328L8.516,-6.328L8.516,-4.209C8.516,-3.994 8.581,-3.817 8.711,-3.677C8.841,-3.537 9.017,-3.467 9.238,-3.467C9.453,-3.467 9.631,-3.537 9.771,-3.677C9.91,-3.817 9.98,-3.994 9.98,-4.209L9.98,-6.328L12.09,-6.328C12.311,-6.328 12.49,-6.395 12.627,-6.528C12.764,-6.662 12.832,-6.836 12.832,-7.051C12.832,-7.272 12.764,-7.451 12.627,-7.588C12.49,-7.725 12.311,-7.793 12.09,-7.793L9.98,-7.793L9.98,-9.902C9.98,-10.124 9.91,-10.304 9.771,-10.444C9.631,-10.584 9.453,-10.654 9.238,-10.654C9.017,-10.654 8.841,-10.584 8.711,-10.444C8.581,-10.304 8.516,-10.124 8.516,-9.902L8.516,-7.793L6.406,-7.793C6.178,-7.793 5.996,-7.725 5.859,-7.588C5.723,-7.451 5.654,-7.272 5.654,-7.051Z" style="fill-rule:nonzero;"/>
        </g>
        <g transform="matrix(1,0,0,1,281.867,1933)">
            <path d="M11.709,2.91C13.07,2.91 14.351,2.65 15.552,2.129C16.753,1.608 17.813,0.889 18.731,-0.029C19.648,-0.947 20.368,-2.007 20.889,-3.208C21.409,-4.409 21.67,-5.69 21.67,-7.051C21.67,-8.411 21.409,-9.692 20.889,-10.894C20.368,-12.095 19.648,-13.154 18.731,-14.072C17.813,-14.99 16.751,-15.71 15.547,-16.23C14.342,-16.751 13.06,-17.012 11.699,-17.012C10.339,-17.012 9.058,-16.751 7.856,-16.23C6.655,-15.71 5.597,-14.99 4.683,-14.072C3.768,-13.154 3.05,-12.095 2.529,-10.894C2.008,-9.692 1.748,-8.411 1.748,-7.051C1.748,-5.69 2.008,-4.409 2.529,-3.208C3.05,-2.007 3.77,-0.947 4.688,-0.029C5.605,0.889 6.665,1.608 7.866,2.129C9.067,2.65 10.348,2.91 11.709,2.91ZM11.709,1.25C10.557,1.25 9.479,1.035 8.477,0.605C7.474,0.176 6.593,-0.418 5.835,-1.177C5.076,-1.935 4.484,-2.816 4.058,-3.818C3.631,-4.821 3.418,-5.898 3.418,-7.051C3.418,-8.203 3.631,-9.281 4.058,-10.283C4.484,-11.286 5.075,-12.168 5.83,-12.93C6.585,-13.691 7.464,-14.286 8.467,-14.712C9.469,-15.138 10.547,-15.352 11.699,-15.352C12.852,-15.352 13.929,-15.138 14.932,-14.712C15.934,-14.286 16.816,-13.691 17.578,-12.93C18.34,-12.168 18.936,-11.286 19.365,-10.283C19.795,-9.281 20.01,-8.203 20.01,-7.051C20.01,-5.898 19.797,-4.821 19.37,-3.818C18.944,-2.816 18.351,-1.935 17.593,-1.177C16.834,-0.418 15.952,0.176 14.946,0.605C13.94,1.035 12.861,1.25 11.709,1.25ZM7.178,-7.051C7.178,-6.816 7.256,-6.624 7.412,-6.475C7.568,-6.325 7.77,-6.25 8.018,-6.25L10.889,-6.25L10.889,-3.369C10.889,-3.122 10.964,-2.922 11.113,-2.769C11.263,-2.616 11.455,-2.539 11.69,-2.539C11.937,-2.539 12.137,-2.616 12.29,-2.769C12.443,-2.922 12.52,-3.122 12.52,-3.369L12.52,-6.25L15.4,-6.25C15.648,-6.25 15.848,-6.325 16.001,-6.475C16.154,-6.624 16.23,-6.816 16.23,-7.051C16.23,-7.298 16.154,-7.498 16.001,-7.651C15.848,-7.804 15.648,-7.881 15.4,-7.881L12.52,-7.881L12.52,-10.752C12.52,-11.006 12.443,-11.209 12.29,-11.362C12.137,-11.515 11.937,-11.592 11.69,-11.592C11.455,-11.592 11.263,-11.514 11.113,-11.357C10.964,-11.201 10.889,-10.999 10.889,-10.752L10.889,-7.881L8.018,-7.881C7.764,-7.881 7.56,-7.804 7.407,-7.651C7.254,-7.498 7.178,-7.298 7.178,-7.051Z" style="fill-rule:nonzero;"/>
        </g>
        <g transform="matrix(1,0,0,1,305.646,1933)">
            <path d="M14.971,5.664C16.364,5.664 17.694,5.448 18.96,5.015C20.226,4.582 21.39,3.975 22.451,3.193C23.512,2.412 24.435,1.491 25.22,0.43C26.004,-0.632 26.613,-1.797 27.046,-3.066C27.479,-4.336 27.695,-5.664 27.695,-7.051C27.695,-8.444 27.479,-9.774 27.046,-11.04C26.613,-12.306 26.004,-13.47 25.22,-14.531C24.435,-15.592 23.512,-16.515 22.451,-17.3C21.39,-18.084 20.225,-18.693 18.955,-19.126C17.686,-19.559 16.354,-19.775 14.961,-19.775C13.568,-19.775 12.238,-19.559 10.972,-19.126C9.705,-18.693 8.543,-18.084 7.485,-17.3C6.427,-16.515 5.506,-15.592 4.722,-14.531C3.937,-13.47 3.33,-12.306 2.9,-11.04C2.471,-9.774 2.256,-8.444 2.256,-7.051C2.256,-5.664 2.472,-4.336 2.905,-3.066C3.338,-1.797 3.945,-0.632 4.727,0.43C5.508,1.491 6.429,2.412 7.49,3.193C8.551,3.975 9.715,4.582 10.981,5.015C12.248,5.448 13.578,5.664 14.971,5.664ZM14.971,3.848C13.766,3.848 12.619,3.664 11.528,3.296C10.438,2.928 9.44,2.412 8.535,1.748C7.63,1.084 6.844,0.298 6.177,-0.61C5.509,-1.519 4.993,-2.518 4.629,-3.608C4.264,-4.699 4.082,-5.846 4.082,-7.051C4.082,-8.262 4.264,-9.412 4.629,-10.503C4.993,-11.593 5.508,-12.593 6.172,-13.501C6.836,-14.409 7.62,-15.195 8.525,-15.859C9.43,-16.523 10.428,-17.038 11.519,-17.402C12.609,-17.767 13.756,-17.949 14.961,-17.949C16.172,-17.949 17.323,-17.767 18.413,-17.402C19.504,-17.038 20.503,-16.523 21.411,-15.859C22.319,-15.195 23.105,-14.409 23.77,-13.501C24.434,-12.593 24.95,-11.593 25.317,-10.503C25.685,-9.412 25.869,-8.262 25.869,-7.051C25.876,-5.846 25.697,-4.699 25.332,-3.608C24.967,-2.518 24.452,-1.519 23.784,-0.61C23.117,0.298 22.329,1.084 21.421,1.748C20.513,2.412 19.513,2.928 18.423,3.296C17.332,3.664 16.182,3.848 14.971,3.848ZM9.199,-7.051C9.199,-6.797 9.285,-6.587 9.458,-6.421C9.631,-6.255 9.85,-6.172 10.117,-6.172L14.063,-6.172L14.063,-2.217C14.063,-1.95 14.146,-1.73 14.312,-1.558C14.477,-1.385 14.691,-1.299 14.951,-1.299C15.218,-1.299 15.438,-1.383 15.61,-1.553C15.783,-1.722 15.869,-1.943 15.869,-2.217L15.869,-6.172L19.824,-6.172C20.091,-6.172 20.309,-6.255 20.479,-6.421C20.648,-6.587 20.732,-6.797 20.732,-7.051C20.732,-7.324 20.648,-7.546 20.479,-7.715C20.309,-7.884 20.091,-7.969 19.824,-7.969L15.869,-7.969L15.869,-11.914C15.869,-12.188 15.783,-12.41 15.61,-12.583C15.438,-12.756 15.218,-12.842 14.951,-12.842C14.691,-12.842 14.477,-12.756 14.312,-12.583C14.146,-12.41 14.063,-12.188 14.063,-11.914L14.063,-7.969L10.117,-7.969C9.844,-7.969 9.622,-7.884 9.453,-7.715C9.284,-7.546 9.199,-7.324 9.199,-7.051Z" style="fill-rule:nonzero;"/>
        </g>
        <g transform="matrix(1,0,0,1,263,1953)">
            <text x="0px" y="0px" style="font-family:'LucidaGrande-Bold', 'Lucida Grande', sans-serif;font-weight:600;font-size:13px;">Design Variations</text>
        </g>
        <g transform="matrix(1,0,0,1,263,1971)">
            <text x="0px" y="0px" style="font-family:'LucidaGrande', 'Lucida Grande', sans-serif;font-weight:500;font-size:13px;">Symbols are supported in up to nine weights and three scales.</text>
        </g>
        <g transform="matrix(1,0,0,1,263,1989)">
            <text x="0px" y="0px" style="font-family:'LucidaGrande', 'Lucida Grande', sans-serif;font-weight:500;font-size:13px;">For optimal layout with text and other symbols, vertically align</text>
        </g>
        <g transform="matrix(1,0,0,1,263,2007)">
            <text x="0px" y="0px" style="font-family:'LucidaGrande', 'Lucida Grande', sans-serif;font-weight:500;font-size:13px;">symbols with the adjacent text.</text>
        </g>
        <path d="M776,1919L776,1933" style="fill:none;fill-rule:nonzero;stroke:rgb(0,174,239);stroke-width:0.5px;"/>
        <g transform="matrix(1,0,0,1,776,1933)">
            <path d="M3.311,0.156C3.571,0.156 3.773,0.101 3.916,-0.01C4.059,-0.12 4.176,-0.313 4.268,-0.586L5.527,-4.033L11.289,-4.033L12.549,-0.586C12.64,-0.313 12.757,-0.12 12.9,-0.01C13.044,0.101 13.242,0.156 13.496,0.156C13.756,0.156 13.963,0.085 14.116,-0.059C14.269,-0.202 14.346,-0.397 14.346,-0.645C14.346,-0.794 14.31,-0.97 14.238,-1.172L9.658,-13.369C9.541,-13.669 9.382,-13.893 9.18,-14.043C8.978,-14.193 8.721,-14.268 8.408,-14.268C7.803,-14.268 7.393,-13.971 7.178,-13.379L2.598,-1.162C2.526,-0.96 2.49,-0.785 2.49,-0.635C2.49,-0.387 2.563,-0.194 2.71,-0.054C2.856,0.086 3.057,0.156 3.311,0.156ZM6.006,-5.518L8.379,-12.09L8.428,-12.09L10.801,-5.518L6.006,-5.518Z" style="fill-rule:nonzero;"/>
        </g>
        <path d="M793.197,1919L793.197,1933" style="fill:none;fill-rule:nonzero;stroke:rgb(0,174,239);stroke-width:0.5px;"/>
        <g transform="matrix(1,0,0,1,776,1953)">
            <text x="0px" y="0px" style="font-family:'LucidaGrande-Bold', 'Lucida Grande', sans-serif;font-weight:600;font-size:13px;">Margins</text>
        </g>
        <g transform="matrix(1,0,0,1,776,1971)">
            <text x="0px" y="0px" style="font-family:'LucidaGrande', 'Lucida Grande', sans-serif;font-weight:500;font-size:13px;">Leading and trailing margins on the left and right side of each symbol</text>
        </g>
        <g transform="matrix(1,0,0,1,776,1989)">
            <text x="0px" y="0px" style="font-family:'LucidaGrande', 'Lucida Grande', sans-serif;font-weight:500;font-size:13px;">can be adjusted by modifying the x-location of the margin guidelines.</text>
        </g>
        <g transform="matrix(1,0,0,1,776,2007)">
            <text x="0px" y="0px" style="font-family:'LucidaGrande', 'Lucida Grande', sans-serif;font-weight:500;font-size:13px;">Modiﬁcations are automatically applied proportionally to all</text>
        </g>
        <g transform="matrix(1,0,0,1,776,2025)">
            <text x="0px" y="0px" style="font-family:'LucidaGrande', 'Lucida Grande', sans-serif;font-weight:500;font-size:13px;">scales and weights.</text>
        </g>
        <g transform="matrix(1,0,0,1,1289,1933)">
            <path d="M2.842,1.865L4.541,3.574C4.971,4.01 5.425,4.212 5.903,4.18C6.382,4.147 6.852,3.874 7.314,3.359L18.008,-8.428L17.041,-9.404L6.426,2.275C6.25,2.477 6.073,2.591 5.894,2.617C5.715,2.643 5.508,2.539 5.273,2.305L4.102,1.143C3.867,0.908 3.765,0.701 3.794,0.522C3.823,0.343 3.939,0.163 4.141,-0.02L15.615,-10.82L14.639,-11.787L3.047,-0.898C2.552,-0.443 2.287,0.023 2.251,0.498C2.215,0.973 2.412,1.429 2.842,1.865ZM9.258,-16.328C9.049,-16.126 8.932,-15.895 8.906,-15.635C8.88,-15.374 8.926,-15.146 9.043,-14.951C9.16,-14.769 9.331,-14.632 9.556,-14.541C9.78,-14.45 10.055,-14.443 10.381,-14.522C11.11,-14.691 11.849,-14.761 12.598,-14.731C13.346,-14.702 14.079,-14.453 14.795,-13.984L14.209,-12.529C14.04,-12.113 13.993,-11.75 14.067,-11.44C14.142,-11.131 14.313,-10.84 14.58,-10.566L16.875,-8.252C17.116,-8.005 17.35,-7.861 17.578,-7.822C17.806,-7.783 18.06,-7.79 18.34,-7.842L19.404,-8.037L20.068,-7.363L20.029,-6.807C20.01,-6.559 20.041,-6.331 20.122,-6.123C20.203,-5.915 20.365,-5.69 20.606,-5.449L21.367,-4.707C21.608,-4.466 21.87,-4.341 22.153,-4.331C22.437,-4.321 22.695,-4.434 22.93,-4.668L25.84,-7.588C26.074,-7.822 26.188,-8.078 26.182,-8.354C26.175,-8.631 26.051,-8.89 25.811,-9.131L25.039,-9.893C24.805,-10.133 24.585,-10.298 24.38,-10.386C24.175,-10.474 23.952,-10.508 23.711,-10.488L23.135,-10.44L22.49,-11.074L22.734,-12.197C22.799,-12.477 22.786,-12.739 22.695,-12.983C22.604,-13.228 22.412,-13.496 22.119,-13.789L19.922,-15.977C19.089,-16.803 18.202,-17.424 17.261,-17.837C16.32,-18.25 15.373,-18.465 14.419,-18.481C13.465,-18.498 12.547,-18.324 11.665,-17.959C10.783,-17.594 9.98,-17.051 9.258,-16.328ZM10.752,-15.957C11.357,-16.4 12.007,-16.716 12.7,-16.904C13.394,-17.093 14.095,-17.153 14.805,-17.085C15.514,-17.017 16.203,-16.826 16.87,-16.514C17.537,-16.201 18.148,-15.765 18.701,-15.205L21.133,-12.793C21.25,-12.676 21.323,-12.562 21.353,-12.451C21.382,-12.341 21.377,-12.201 21.338,-12.031L21.016,-10.547L22.52,-9.063L23.506,-9.121C23.63,-9.128 23.724,-9.119 23.789,-9.097C23.854,-9.074 23.936,-9.014 24.033,-8.916L24.609,-8.34L22.168,-5.898L21.592,-6.475C21.494,-6.572 21.432,-6.654 21.406,-6.719C21.38,-6.784 21.37,-6.882 21.377,-7.012L21.445,-7.988L19.951,-9.473L18.428,-9.219C18.265,-9.186 18.136,-9.181 18.042,-9.204C17.948,-9.227 17.839,-9.297 17.715,-9.414L15.713,-11.416C15.583,-11.533 15.509,-11.646 15.493,-11.753C15.477,-11.86 15.508,-12.005 15.586,-12.188L16.465,-14.277C15.684,-15.007 14.805,-15.511 13.828,-15.791C12.852,-16.071 11.855,-16.061 10.84,-15.762C10.762,-15.742 10.711,-15.757 10.689,-15.806C10.666,-15.855 10.687,-15.905 10.752,-15.957Z" style="fill-rule:nonzero;"/>
        </g>
        <g transform="matrix(1,0,0,1,1289,1953)">
            <text x="0px" y="0px" style="font-family:'LucidaGrande-Bold', 'Lucida Grande', sans-serif;font-weight:600;font-size:13px;">Exporting</text>
        </g>
        <g transform="matrix(1,0,0,1,1289,1971)">
            <text x="0px" y="0px" style="font-family:'LucidaGrande', 'Lucida Grande', sans-serif;font-weight:500;font-size:13px;">Symbols should be outlined when exporting to ensure the</text>
        </g>
        <g transform="matrix(1,0,0,1,1289,1989)">
            <text x="0px" y="0px" style="font-family:'LucidaGrande', 'Lucida Grande', sans-serif;font-weight:500;font-size:13px;">design is preserved when submitting to Xcode.</text>
        </g>
        <g transform="matrix(1,0,0,1,2941.67,1933)">
            <g id="template-version">
                <text x="0px" y="0px" style="font-family:'LucidaGrande', 'Lucida Grande', sans-serif;font-weight:500;font-size:13px;">Template v.3.0</text>
            </g>
        </g>
        <g transform="matrix(1,0,0,1,2851.66,1951)">
            <text x="0px" y="0px" style="font-family:'LucidaGrande', 'Lucida Grande', sans-serif;font-weight:500;font-size:13px;">Requires Xcode 13 or greater</text>
        </g>
        <g transform="matrix(1,0,0,1,2761.74,1969)">
            <g id="descriptive-name">
                <text x="0px" y="0px" style="font-family:'LucidaGrande', 'Lucida Grande', sans-serif;font-weight:500;font-size:13px;">Generated from hourglass.bottomhalf.ﬁlled</text>
            </g>
        </g>
        <g transform="matrix(1,0,0,1,2898.31,1987)">
            <text x="0px" y="0px" style="font-family:'LucidaGrande', 'Lucida Grande', sans-serif;font-weight:500;font-size:13px;">Typeset at 100 points</text>
        </g>
        <g transform="matrix(1,0,0,1,263,726)">
            <text x="0px" y="0px" style="font-family:'LucidaGrande', 'Lucida Grande', sans-serif;font-weight:500;font-size:13px;">Small</text>
        </g>
        <g transform="matrix(1,0,0,1,263,1156)">
            <text x="0px" y="0px" style="font-family:'LucidaGrande', 'Lucida Grande', sans-serif;font-weight:500;font-size:13px;">Medium</text>
        </g>
        <g transform="matrix(1,0,0,1,263,1586)">
            <text x="0px" y="0px" style="font-family:'LucidaGrande', 'Lucida Grande', sans-serif;font-weight:500;font-size:13px;">Large</text>
        </g>
    </g>
    <g id="Guides">
        <g id="H-reference" transform="matrix(1,0,0,1,339,696)">
            <path d="M0.977,0L3.662,0L29.346,-67.139L30.029,-67.139L30.029,-70.459L28.125,-70.459L0.977,0ZM11.67,-24.463L46.973,-24.463L46.24,-26.709L12.451,-26.709L11.67,-24.463ZM55.127,0L57.764,0L30.615,-70.459L29.443,-70.459L29.443,-67.139L55.127,0Z" style="fill:rgb(39,170,225);fill-rule:nonzero;"/>
        </g>
        <path id="Baseline-S" d="M263,696L3036,696" style="fill:none;fill-rule:nonzero;stroke:rgb(39,170,225);stroke-width:0.5px;"/>
        <path id="Capline-S" d="M263,625.541L3036,625.541" style="fill:none;fill-rule:nonzero;stroke:rgb(39,170,225);stroke-width:0.5px;"/>
        <g id="H-reference1" serif:id="H-reference" transform="matrix(1,0,0,1,339,1126)">
            <path d="M0.977,0L3.662,0L29.346,-67.139L30.029,-67.139L30.029,-70.459L28.125,-70.459L0.977,0ZM11.67,-24.463L46.973,-24.463L46.24,-26.709L12.451,-26.709L11.67,-24.463ZM55.127,0L57.764,0L30.615,-70.459L29.443,-70.459L29.443,-67.139L55.127,0Z" style="fill:rgb(39,170,225);fill-rule:nonzero;"/>
        </g>
        <path id="Baseline-M" d="M263,1126L3036,1126" style="fill:none;fill-rule:nonzero;stroke:rgb(39,170,225);stroke-width:0.5px;"/>
        <path id="Capline-M" d="M263,1055.54L3036,1055.54" style="fill:none;fill-rule:nonzero;stroke:rgb(39,170,225);stroke-width:0.5px;"/>
        <g id="H-reference2" serif:id="H-reference" transform="matrix(1,0,0,1,339,1556)">
            <path d="M0.977,0L3.662,0L29.346,-67.139L30.029,-67.139L30.029,-70.459L28.125,-70.459L0.977,0ZM11.67,-24.463L46.973,-24.463L46.24,-26.709L12.451,-26.709L11.67,-24.463ZM55.127,0L57.764,0L30.615,-70.459L29.443,-70.459L29.443,-67.139L55.127,0Z" style="fill:rgb(39,170,225);fill-rule:nonzero;"/>
        </g>
        <path id="Baseline-L" d="M263,1556L3036,1556" style="fill:none;fill-rule:nonzero;stroke:rgb(39,170,225);stroke-width:0.5px;"/>
        <path id="Capline-L" d="M263,1485.54L3036,1485.54" style="fill:none;fill-rule:nonzero;stroke:rgb(39,170,225);stroke-width:0.5px;"/>
        <path id="left-margin-Regular-M" d="M1408.78,1030.79L1408.78,1150.12" style="fill:none;fill-rule:nonzero;stroke:rgb(0,174,239);stroke-width:0.5px;"/>
        <path id="right-margin-Regular-M" d="M1490.91,1030.79L1490.91,1150.12" style="fill:none;fill-rule:nonzero;stroke:rgb(0,174,239);stroke-width:0.5px;"/>
    </g>
    <g id="Symbols">
        <g id="Black-L" transform="matrix(1,0,0,1,2877.22,1556)">
            <path d="M29.785,26.123L82.568,26.123C86.8,26.123 90.145,24.91 92.603,22.485C95.06,20.06 96.289,16.683 96.289,12.354L96.289,11.377C96.289,7.992 95.695,4.663 94.507,1.392C93.319,-1.88 91.789,-5.021 89.917,-8.032C88.045,-11.043 86.043,-13.843 83.911,-16.431C81.779,-19.019 79.753,-21.305 77.832,-23.291C75.911,-25.277 74.316,-26.888 73.047,-28.125C70.898,-30.273 69.816,-32.666 69.8,-35.303C69.784,-37.939 70.866,-40.348 73.047,-42.529C74.316,-43.799 75.911,-45.426 77.832,-47.412C79.753,-49.398 81.779,-51.676 83.911,-54.248C86.043,-56.82 88.045,-59.611 89.917,-62.622C91.789,-65.633 93.319,-68.783 94.507,-72.07C95.695,-75.358 96.289,-78.695 96.289,-82.08L96.289,-82.861C96.289,-87.223 95.06,-90.617 92.603,-93.042C90.145,-95.467 86.8,-96.68 82.568,-96.68L29.785,-96.68C25.553,-96.68 22.209,-95.467 19.751,-93.042C17.293,-90.617 16.064,-87.223 16.064,-82.861L16.064,-82.08C16.064,-78.695 16.659,-75.358 17.847,-72.07C19.035,-68.783 20.565,-65.633 22.437,-62.622C24.308,-59.611 26.31,-56.82 28.442,-54.248C30.575,-51.676 32.601,-49.398 34.522,-47.412C36.442,-45.426 38.021,-43.799 39.258,-42.529C41.471,-40.348 42.562,-37.939 42.529,-35.303C42.497,-32.666 41.406,-30.273 39.258,-28.125C38.021,-26.888 36.442,-25.277 34.522,-23.291C32.601,-21.305 30.575,-19.019 28.442,-16.431C26.31,-13.843 24.308,-11.043 22.437,-8.032C20.565,-5.021 19.035,-1.88 17.847,1.392C16.659,4.663 16.064,7.992 16.064,11.377L16.064,12.354C16.064,16.683 17.293,20.06 19.751,22.485C22.209,24.91 25.553,26.123 29.785,26.123ZM63.33,-47.9C60.824,-45.557 58.439,-44.385 56.177,-44.385C53.914,-44.385 51.53,-45.557 49.023,-47.9C48.177,-48.682 46.965,-49.886 45.386,-51.514C43.807,-53.141 42.065,-55.005 40.161,-57.105C38.257,-59.204 36.385,-61.353 34.546,-63.55C32.707,-65.747 31.104,-67.79 29.736,-69.678C28.63,-71.208 28.247,-72.664 28.589,-74.048C28.931,-75.431 29.997,-76.123 31.787,-76.123L80.566,-76.123C82.324,-76.123 83.382,-75.431 83.74,-74.048C84.098,-72.664 83.724,-71.208 82.617,-69.678C81.25,-67.79 79.647,-65.747 77.808,-63.55C75.968,-61.353 74.097,-59.204 72.192,-57.105C70.288,-55.005 68.547,-53.141 66.968,-51.514C65.389,-49.886 64.176,-48.682 63.33,-47.9Z" style="fill-rule:nonzero;"/>
        </g>
        <g id="Heavy-L" transform="matrix(1,0,0,1,2581.37,1556)">
            <path d="M28.809,25.147L81.836,25.147C85.775,25.147 88.883,24.023 91.162,21.777C93.441,19.531 94.58,16.39 94.58,12.354L94.58,11.23C94.58,7.943 93.994,4.696 92.822,1.489C91.65,-1.717 90.129,-4.826 88.257,-7.837C86.385,-10.848 84.367,-13.664 82.202,-16.284C80.037,-18.905 77.954,-21.256 75.952,-23.34C73.95,-25.423 72.233,-27.148 70.801,-28.516C68.75,-30.566 67.716,-32.821 67.7,-35.278C67.684,-37.736 68.717,-40.023 70.801,-42.139C72.233,-43.538 73.95,-45.28 75.952,-47.363C77.954,-49.447 80.037,-51.79 82.202,-54.395C84.367,-56.999 86.385,-59.806 88.257,-62.817C90.129,-65.828 91.65,-68.945 92.822,-72.168C93.994,-75.391 94.58,-78.646 94.58,-81.934L94.58,-82.861C94.58,-86.93 93.441,-90.088 91.162,-92.334C88.883,-94.58 85.775,-95.703 81.836,-95.703L28.809,-95.703C24.902,-95.703 21.802,-94.58 19.507,-92.334C17.212,-90.088 16.064,-86.93 16.064,-82.861L16.064,-81.934C16.064,-78.646 16.65,-75.391 17.822,-72.168C18.994,-68.945 20.524,-65.828 22.412,-62.817C24.3,-59.806 26.318,-56.999 28.467,-54.395C30.615,-51.79 32.69,-49.447 34.692,-47.363C36.694,-45.28 38.395,-43.538 39.795,-42.139C41.911,-40.023 42.953,-37.736 42.92,-35.278C42.887,-32.821 41.846,-30.566 39.795,-28.516C38.395,-27.148 36.694,-25.423 34.692,-23.34C32.69,-21.256 30.615,-18.905 28.467,-16.284C26.318,-13.664 24.3,-10.848 22.412,-7.837C20.524,-4.826 18.994,-1.717 17.822,1.489C16.65,4.696 16.064,7.943 16.064,11.23L16.064,12.354C16.064,16.39 17.212,19.531 19.507,21.777C21.802,24.023 24.902,25.147 28.809,25.147ZM61.719,-46.973C59.473,-44.922 57.349,-43.897 55.347,-43.897C53.345,-43.897 51.221,-44.922 48.975,-46.973C47.998,-47.852 46.663,-49.154 44.971,-50.879C43.278,-52.604 41.439,-54.565 39.453,-56.763C37.467,-58.96 35.539,-61.198 33.667,-63.477C31.795,-65.755 30.208,-67.855 28.906,-69.775C27.93,-71.143 27.604,-72.437 27.93,-73.657C28.255,-74.878 29.199,-75.488 30.762,-75.488L79.883,-75.488C81.445,-75.488 82.389,-74.878 82.715,-73.657C83.04,-72.437 82.731,-71.143 81.787,-69.775C80.453,-67.855 78.849,-65.755 76.978,-63.477C75.106,-61.198 73.177,-58.96 71.191,-56.763C69.206,-54.565 67.367,-52.604 65.674,-50.879C63.981,-49.154 62.663,-47.852 61.719,-46.973Z" style="fill-rule:nonzero;"/>
        </g>
        <g id="Bold-L" transform="matrix(1,0,0,1,2285.58,1556)">
            <path d="M27.783,24.072L81.006,24.072C84.619,24.072 87.476,23.047 89.575,20.996C91.675,18.945 92.725,16.048 92.725,12.305L92.725,11.084C92.725,7.926 92.139,4.769 90.967,1.611C89.795,-1.546 88.273,-4.622 86.401,-7.617C84.53,-10.612 82.495,-13.436 80.298,-16.089C78.101,-18.742 75.952,-21.167 73.853,-23.364C71.753,-25.562 69.922,-27.425 68.359,-28.955C66.406,-30.908 65.405,-33.016 65.356,-35.278C65.308,-37.541 66.309,-39.697 68.359,-41.748C69.922,-43.311 71.753,-45.182 73.853,-47.363C75.952,-49.544 78.101,-51.961 80.298,-54.614C82.495,-57.267 84.53,-60.083 86.401,-63.062C88.273,-66.04 89.795,-69.116 90.967,-72.29C92.139,-75.464 92.725,-78.63 92.725,-81.787L92.725,-82.861C92.725,-86.605 91.675,-89.502 89.575,-91.553C87.476,-93.604 84.619,-94.629 81.006,-94.629L27.783,-94.629C24.17,-94.629 21.313,-93.604 19.214,-91.553C17.114,-89.502 16.064,-86.605 16.064,-82.861L16.064,-81.787C16.064,-78.63 16.65,-75.464 17.822,-72.29C18.994,-69.116 20.516,-66.04 22.388,-63.062C24.259,-60.083 26.294,-57.267 28.491,-54.614C30.688,-51.961 32.837,-49.544 34.937,-47.363C37.036,-45.182 38.851,-43.311 40.381,-41.748C42.432,-39.697 43.433,-37.541 43.384,-35.278C43.335,-33.016 42.334,-30.908 40.381,-28.955C38.851,-27.425 37.036,-25.562 34.937,-23.364C32.837,-21.167 30.688,-18.742 28.491,-16.089C26.294,-13.436 24.259,-10.612 22.388,-7.617C20.516,-4.622 18.994,-1.546 17.822,1.611C16.65,4.769 16.064,7.926 16.064,11.084L16.064,12.305C16.064,16.048 17.114,18.945 19.214,20.996C21.313,23.047 24.17,24.072 27.783,24.072ZM59.912,-45.996C57.959,-44.238 56.12,-43.359 54.395,-43.359C52.669,-43.359 50.83,-44.238 48.877,-45.996C47.803,-46.94 46.362,-48.332 44.556,-50.171C42.749,-52.01 40.796,-54.085 38.696,-56.397C36.597,-58.708 34.595,-61.043 32.69,-63.403C30.786,-65.763 29.215,-67.936 27.979,-69.922C27.165,-71.126 26.904,-72.233 27.197,-73.242C27.49,-74.251 28.304,-74.756 29.639,-74.756L79.102,-74.756C80.436,-74.756 81.258,-74.251 81.567,-73.242C81.877,-72.233 81.624,-71.126 80.811,-69.922C79.574,-67.936 78.003,-65.763 76.099,-63.403C74.194,-61.043 72.192,-58.708 70.093,-56.397C67.993,-54.085 66.032,-52.01 64.209,-50.171C62.386,-48.332 60.954,-46.94 59.912,-45.996Z" style="fill-rule:nonzero;"/>
        </g>
        <g id="Semibold-L" transform="matrix(1,0,0,1,1989.53,1556)">
            <path d="M27.002,23.34L80.42,23.34C83.805,23.34 86.483,22.371 88.452,20.435C90.422,18.498 91.406,15.788 91.406,12.305L91.406,10.986C91.406,7.894 90.82,4.793 89.648,1.685C88.477,-1.424 86.955,-4.468 85.083,-7.446C83.211,-10.425 81.169,-13.257 78.955,-15.942C76.742,-18.628 74.552,-21.102 72.388,-23.364C70.223,-25.627 68.294,-27.588 66.602,-29.248C64.746,-31.136 63.794,-33.146 63.745,-35.278C63.696,-37.411 64.648,-39.453 66.602,-41.406C68.294,-43.099 70.223,-45.068 72.388,-47.315C74.552,-49.561 76.742,-52.026 78.955,-54.712C81.169,-57.397 83.211,-60.229 85.083,-63.208C86.955,-66.187 88.477,-69.238 89.648,-72.363C90.82,-75.488 91.406,-78.597 91.406,-81.69L91.406,-82.813C91.406,-86.328 90.422,-89.046 88.452,-90.967C86.483,-92.887 83.805,-93.848 80.42,-93.848L27.002,-93.848C23.649,-93.848 20.988,-92.887 19.019,-90.967C17.049,-89.046 16.064,-86.328 16.064,-82.813L16.064,-81.69C16.064,-78.597 16.642,-75.488 17.798,-72.363C18.953,-69.238 20.475,-66.187 22.363,-63.208C24.251,-60.229 26.294,-57.397 28.491,-54.712C30.688,-52.026 32.869,-49.561 35.034,-47.315C37.199,-45.068 39.111,-43.099 40.772,-41.406C42.79,-39.453 43.766,-37.411 43.701,-35.278C43.636,-33.146 42.66,-31.136 40.772,-29.248C39.111,-27.588 37.199,-25.627 35.034,-23.364C32.869,-21.102 30.688,-18.628 28.491,-15.942C26.294,-13.257 24.251,-10.425 22.363,-7.446C20.475,-4.468 18.953,-1.424 17.798,1.685C16.642,4.793 16.064,7.894 16.064,10.986L16.064,12.305C16.064,15.788 17.049,18.498 19.019,20.435C20.988,22.371 23.649,23.34 27.002,23.34ZM58.643,-45.264C56.885,-43.734 55.249,-42.969 53.735,-42.969C52.222,-42.969 50.586,-43.734 48.828,-45.264C47.656,-46.273 46.126,-47.738 44.238,-49.658C42.35,-51.579 40.324,-53.727 38.159,-56.103C35.994,-58.48 33.944,-60.889 32.007,-63.33C30.07,-65.772 28.499,-67.985 27.295,-69.971C26.611,-71.045 26.408,-72.021 26.685,-72.9C26.961,-73.779 27.686,-74.219 28.857,-74.219L78.565,-74.219C79.736,-74.219 80.469,-73.779 80.762,-72.9C81.055,-72.021 80.859,-71.045 80.176,-69.971C78.939,-67.985 77.36,-65.772 75.44,-63.33C73.519,-60.889 71.476,-58.48 69.312,-56.103C67.147,-53.727 65.112,-51.579 63.208,-49.658C61.304,-47.738 59.782,-46.273 58.643,-45.264Z" style="fill-rule:nonzero;"/>
        </g>
        <g id="Medium-L" transform="matrix(0.186779,0,0,0.126419,1653.15,1452.94)">
            <path d="M429.204,328.148L424.228,328.148C410.533,328.148 399.414,317.03 399.414,303.335L399.414,253.707C399.414,240.012 410.533,228.894 424.228,228.894L575.932,228.894C589.627,228.894 600.746,240.012 600.746,253.707L600.746,303.335C600.746,317.03 589.627,328.148 575.932,328.148L570.956,328.148C570.541,370.754 576.378,450.103 619.566,508.582C681.451,592.375 693.058,624.072 700.736,646.283C708.266,668.065 718.972,713.419 716.822,761.796C714.672,810.173 705.99,867.385 677.128,915.745C648.266,964.106 592.689,995.218 500.08,995.218C407.471,995.218 351.894,964.106 323.032,915.745C294.17,867.385 285.488,810.173 283.338,761.796C281.188,713.419 291.894,668.065 299.424,646.283C307.102,624.072 318.709,592.375 380.594,508.582C423.782,450.103 429.619,370.754 429.204,328.148ZM448.694,164.394C423.562,164.394 412.024,102.323 412.024,102.323C412.024,88.628 423.143,77.51 436.838,77.51L559.657,77.51C573.352,77.51 584.47,88.628 584.47,102.323C584.47,102.323 572.932,164.394 547.8,164.394L448.694,164.394Z"/>
        </g>
        <g id="Regular-L" transform="matrix(1,0,0,1,1397.26,1556)">
            <path d="M25.732,22.022L79.443,22.022C82.406,22.022 84.757,21.175 86.499,19.482C88.241,17.79 89.111,15.381 89.111,12.256L89.111,10.791C89.111,7.829 88.534,4.834 87.378,1.807C86.222,-1.221 84.709,-4.215 82.837,-7.178C80.965,-10.14 78.898,-12.988 76.636,-15.723C74.373,-18.457 72.111,-21.021 69.849,-23.413C67.586,-25.806 65.511,-27.93 63.623,-29.785C61.865,-31.543 60.954,-33.366 60.889,-35.254C60.824,-37.142 61.735,-39.03 63.623,-40.918C65.511,-42.773 67.586,-44.889 69.849,-47.266C72.111,-49.642 74.373,-52.197 76.636,-54.932C78.898,-57.666 80.965,-60.514 82.837,-63.477C84.709,-66.439 86.222,-69.442 87.378,-72.485C88.534,-75.529 89.111,-78.532 89.111,-81.494L89.111,-82.813C89.111,-85.938 88.241,-88.338 86.499,-90.015C84.757,-91.691 82.406,-92.529 79.443,-92.529L25.732,-92.529C22.77,-92.529 20.418,-91.691 18.677,-90.015C16.935,-88.338 16.064,-85.938 16.064,-82.813L16.064,-81.494C16.064,-78.532 16.634,-75.529 17.773,-72.485C18.913,-69.442 20.426,-66.439 22.315,-63.477C24.203,-60.514 26.27,-57.666 28.516,-54.932C30.762,-52.197 33.024,-49.642 35.303,-47.266C37.581,-44.889 39.648,-42.773 41.504,-40.918C43.392,-39.03 44.303,-37.142 44.238,-35.254C44.173,-33.366 43.262,-31.543 41.504,-29.785C39.648,-27.93 37.581,-25.806 35.303,-23.413C33.024,-21.021 30.762,-18.457 28.516,-15.723C26.27,-12.988 24.203,-10.14 22.315,-7.178C20.426,-4.215 18.913,-1.221 17.773,1.807C16.634,4.834 16.064,7.829 16.064,10.791L16.064,12.256C16.064,15.381 16.935,17.79 18.677,19.482C20.418,21.175 22.77,22.022 25.732,22.022ZM56.445,-44.043C55.046,-42.871 53.76,-42.285 52.588,-42.285C51.416,-42.285 50.13,-42.871 48.731,-44.043C47.428,-45.15 45.752,-46.728 43.701,-48.779C41.65,-50.83 39.486,-53.117 37.207,-55.64C34.928,-58.162 32.796,-60.693 30.811,-63.232C28.825,-65.771 27.279,-68.066 26.172,-70.117C25.684,-70.996 25.562,-71.753 25.806,-72.388C26.05,-73.022 26.611,-73.34 27.49,-73.34L77.637,-73.34C78.548,-73.34 79.126,-73.022 79.37,-72.388C79.614,-71.753 79.492,-70.996 79.004,-70.117C77.865,-68.066 76.31,-65.771 74.341,-63.232C72.371,-60.693 70.247,-58.162 67.969,-55.64C65.69,-53.117 63.517,-50.83 61.45,-48.779C59.383,-46.728 57.715,-45.15 56.445,-44.043Z" style="fill-rule:nonzero;"/>
        </g>
        <g id="Light-L" transform="matrix(1,0,0,1,1101.13,1556)">
            <path d="M24.902,21.094L79.15,21.094C81.82,21.094 83.952,20.313 85.547,18.75C87.142,17.187 87.94,15.006 87.94,12.207L87.94,10.449C87.94,7.617 87.37,4.704 86.231,1.709C85.091,-1.286 83.569,-4.281 81.665,-7.275C79.761,-10.27 77.653,-13.175 75.342,-15.991C73.031,-18.807 70.695,-21.476 68.335,-23.999C65.975,-26.522 63.786,-28.792 61.768,-30.811C60.303,-32.243 59.554,-33.732 59.522,-35.278C59.489,-36.825 60.238,-38.363 61.768,-39.893C63.786,-41.911 65.975,-44.173 68.335,-46.68C70.695,-49.186 73.031,-51.847 75.342,-54.663C77.653,-57.479 79.761,-60.384 81.665,-63.379C83.569,-66.374 85.091,-69.377 86.231,-72.388C87.37,-75.399 87.94,-78.32 87.94,-81.152L87.94,-82.764C87.94,-85.563 87.142,-87.736 85.547,-89.282C83.952,-90.828 81.82,-91.602 79.15,-91.602L24.902,-91.602C22.2,-91.602 20.052,-90.828 18.457,-89.282C16.862,-87.736 16.064,-85.563 16.064,-82.764L16.064,-81.152C16.064,-78.32 16.634,-75.399 17.773,-72.388C18.913,-69.377 20.435,-66.374 22.339,-63.379C24.243,-60.384 26.343,-57.479 28.638,-54.663C30.933,-51.847 33.268,-49.186 35.645,-46.68C38.021,-44.173 40.218,-41.911 42.236,-39.893C43.766,-38.363 44.515,-36.825 44.482,-35.278C44.45,-33.732 43.701,-32.243 42.236,-30.811C40.218,-28.792 38.021,-26.522 35.645,-23.999C33.268,-21.476 30.933,-18.807 28.638,-15.991C26.343,-13.175 24.243,-10.27 22.339,-7.275C20.435,-4.281 18.913,-1.286 17.773,1.709C16.634,4.704 16.064,7.617 16.064,10.449L16.064,12.207C16.064,15.006 16.862,17.187 18.457,18.75C20.052,20.313 22.2,21.094 24.902,21.094ZM55.225,-42.627C54.053,-41.618 52.979,-41.113 52.002,-41.113C51.025,-41.113 49.967,-41.618 48.828,-42.627C47.396,-43.864 45.646,-45.524 43.579,-47.607C41.512,-49.691 39.347,-52.018 37.085,-54.59C34.823,-57.161 32.69,-59.782 30.689,-62.451C28.687,-65.12 27.067,-67.643 25.83,-70.019C25.407,-70.768 25.309,-71.411 25.537,-71.948C25.765,-72.485 26.27,-72.754 27.051,-72.754L76.953,-72.754C77.767,-72.754 78.28,-72.485 78.491,-71.948C78.703,-71.411 78.613,-70.768 78.223,-70.019C76.953,-67.643 75.317,-65.12 73.315,-62.451C71.313,-59.782 69.189,-57.161 66.943,-54.59C64.697,-52.018 62.533,-49.691 60.449,-47.607C58.366,-45.524 56.624,-43.864 55.225,-42.627Z" style="fill-rule:nonzero;"/>
        </g>
        <g id="Thin-L" transform="matrix(1,0,0,1,805.177,1556)">
            <path d="M23.779,19.922L78.76,19.922C81.038,19.922 82.886,19.214 84.302,17.798C85.718,16.382 86.426,14.518 86.426,12.207L86.426,9.961C86.426,7.292 85.856,4.484 84.717,1.538C83.577,-1.408 82.039,-4.386 80.103,-7.397C78.166,-10.409 76.017,-13.387 73.657,-16.333C71.297,-19.279 68.872,-22.095 66.382,-24.78C63.892,-27.466 61.523,-29.932 59.277,-32.178C58.236,-33.219 57.715,-34.277 57.715,-35.352C57.715,-36.426 58.236,-37.484 59.277,-38.525C61.523,-40.771 63.892,-43.229 66.382,-45.898C68.872,-48.568 71.297,-51.375 73.657,-54.321C76.017,-57.267 78.166,-60.254 80.103,-63.281C82.039,-66.309 83.577,-69.295 84.717,-72.241C85.856,-75.187 86.426,-77.995 86.426,-80.664L86.426,-82.764C86.426,-85.075 85.718,-86.93 84.302,-88.33C82.886,-89.73 81.038,-90.43 78.76,-90.43L23.779,-90.43C21.468,-90.43 19.605,-89.73 18.189,-88.33C16.773,-86.93 16.064,-85.075 16.064,-82.764L16.064,-80.664C16.064,-77.995 16.634,-75.187 17.773,-72.241C18.913,-69.295 20.451,-66.309 22.388,-63.281C24.325,-60.254 26.473,-57.267 28.833,-54.321C31.193,-51.375 33.626,-48.568 36.133,-45.898C38.639,-43.229 40.999,-40.771 43.213,-38.525C44.255,-37.484 44.775,-36.426 44.775,-35.352C44.775,-34.277 44.255,-33.219 43.213,-32.178C40.999,-29.932 38.639,-27.466 36.133,-24.78C33.626,-22.095 31.193,-19.279 28.833,-16.333C26.473,-13.387 24.325,-10.409 22.388,-7.397C20.451,-4.386 18.913,-1.408 17.773,1.538C16.634,4.484 16.064,7.292 16.064,9.961L16.064,12.207C16.064,14.518 16.773,16.382 18.189,17.798C19.605,19.214 21.468,19.922 23.779,19.922ZM53.565,-40.723C52.718,-39.974 51.945,-39.6 51.245,-39.6C50.545,-39.6 49.772,-39.974 48.926,-40.723C47.331,-42.122 45.492,-43.896 43.408,-46.045C41.325,-48.193 39.168,-50.586 36.939,-53.223C34.709,-55.859 32.585,-58.602 30.566,-61.45C28.548,-64.299 26.807,-67.106 25.342,-69.873C25.049,-70.459 25,-70.947 25.195,-71.338C25.391,-71.729 25.798,-71.924 26.416,-71.924L76.074,-71.924C76.725,-71.924 77.14,-71.729 77.319,-71.338C77.498,-70.947 77.441,-70.459 77.148,-69.873C75.684,-67.106 73.95,-64.299 71.948,-61.45C69.946,-58.602 67.822,-55.859 65.576,-53.223C63.33,-50.586 61.157,-48.193 59.058,-46.045C56.958,-43.896 55.127,-42.122 53.565,-40.723Z" style="fill-rule:nonzero;"/>
        </g>
        <g id="Ultralight-L" transform="matrix(1,0,0,1,508.857,1556)">
            <path d="M23.193,19.287L78.516,19.287C80.632,19.287 82.349,18.628 83.667,17.31C84.985,15.991 85.644,14.274 85.644,12.158L85.644,9.766C85.644,7.161 85.075,4.395 83.936,1.465C82.796,-1.465 81.258,-4.443 79.321,-7.471C77.384,-10.498 75.212,-13.517 72.803,-16.528C70.394,-19.539 67.912,-22.428 65.356,-25.195C62.801,-27.962 60.352,-30.518 58.008,-32.861C57.194,-33.675 56.787,-34.505 56.787,-35.352C56.787,-36.198 57.194,-37.028 58.008,-37.842C60.352,-40.186 62.801,-42.733 65.356,-45.483C67.912,-48.234 70.394,-51.115 72.803,-54.126C75.212,-57.137 77.384,-60.164 79.321,-63.208C81.258,-66.252 82.796,-69.238 83.936,-72.168C85.075,-75.098 85.644,-77.865 85.644,-80.469L85.644,-82.715C85.644,-84.831 84.985,-86.54 83.667,-87.842C82.349,-89.144 80.632,-89.795 78.516,-89.795L23.193,-89.795C21.077,-89.795 19.36,-89.144 18.042,-87.842C16.724,-86.54 16.064,-84.831 16.064,-82.715L16.064,-80.469C16.064,-77.865 16.634,-75.098 17.773,-72.168C18.913,-69.238 20.459,-66.252 22.412,-63.208C24.365,-60.164 26.538,-57.137 28.931,-54.126C31.323,-51.115 33.805,-48.234 36.377,-45.483C38.949,-42.733 41.406,-40.186 43.75,-37.842C44.531,-37.028 44.93,-36.198 44.946,-35.352C44.963,-34.505 44.564,-33.675 43.75,-32.861C41.406,-30.518 38.949,-27.962 36.377,-25.195C33.805,-22.428 31.323,-19.539 28.931,-16.528C26.538,-13.517 24.365,-10.498 22.412,-7.471C20.459,-4.443 18.913,-1.465 17.773,1.465C16.634,4.395 16.064,7.161 16.064,9.766L16.064,12.158C16.064,14.274 16.724,15.991 18.042,17.31C19.36,18.628 21.077,19.287 23.193,19.287ZM52.734,-39.795C52.051,-39.144 51.424,-38.818 50.855,-38.818C50.285,-38.818 49.674,-39.144 49.023,-39.795C47.298,-41.26 45.394,-43.083 43.311,-45.264C41.227,-47.445 39.071,-49.862 36.841,-52.515C34.611,-55.168 32.487,-57.967 30.469,-60.913C28.451,-63.859 26.676,-66.813 25.147,-69.775C24.886,-70.264 24.837,-70.679 25,-71.021C25.163,-71.362 25.537,-71.533 26.123,-71.533L75.586,-71.533C76.172,-71.533 76.546,-71.362 76.709,-71.021C76.872,-70.679 76.839,-70.264 76.611,-69.775C75.081,-66.813 73.299,-63.859 71.265,-60.913C69.23,-57.967 67.106,-55.168 64.893,-52.515C62.679,-49.862 60.514,-47.445 58.398,-45.264C56.283,-43.083 54.395,-41.26 52.734,-39.795Z" style="fill-rule:nonzero;"/>
        </g>
        <g id="Black-M" transform="matrix(1,0,0,1,2889.33,1126)">
            <path d="M23.633,12.891L64.502,12.891C67.952,12.891 70.679,11.89 72.681,9.888C74.683,7.886 75.684,5.127 75.684,1.611L75.684,0.879C75.684,-2.441 74.984,-5.688 73.584,-8.862C72.184,-12.036 70.475,-14.998 68.457,-17.749C66.439,-20.5 64.453,-22.909 62.5,-24.976C60.547,-27.043 59.001,-28.646 57.861,-29.785C56.234,-31.413 55.42,-33.26 55.42,-35.327C55.42,-37.394 56.234,-39.242 57.861,-40.869C59.001,-41.976 60.547,-43.563 62.5,-45.63C64.453,-47.697 66.439,-50.106 68.457,-52.856C70.475,-55.607 72.184,-58.569 73.584,-61.743C74.984,-64.917 75.684,-68.18 75.684,-71.533L75.684,-72.168C75.684,-75.651 74.683,-78.394 72.681,-80.396C70.679,-82.397 67.952,-83.398 64.502,-83.398L23.633,-83.398C20.182,-83.398 17.456,-82.397 15.454,-80.396C13.452,-78.394 12.451,-75.651 12.451,-72.168L12.451,-71.533C12.451,-68.18 13.151,-64.917 14.551,-61.743C15.951,-58.569 17.66,-55.607 19.678,-52.856C21.696,-50.106 23.682,-47.697 25.635,-45.63C27.588,-43.563 29.118,-41.976 30.225,-40.869C31.885,-39.242 32.715,-37.394 32.715,-35.327C32.715,-33.26 31.885,-31.413 30.225,-29.785C29.118,-28.646 27.588,-27.043 25.635,-24.976C23.682,-22.909 21.696,-20.5 19.678,-17.749C17.66,-14.998 15.951,-12.036 14.551,-8.862C13.151,-5.688 12.451,-2.441 12.451,0.879L12.451,1.611C12.451,5.127 13.452,7.886 15.454,9.888C17.456,11.89 20.182,12.891 23.633,12.891ZM50.049,-45.361C47.965,-43.376 45.972,-42.383 44.067,-42.383C42.163,-42.383 40.169,-43.376 38.086,-45.361C37.467,-45.915 36.597,-46.794 35.474,-47.998C34.351,-49.202 33.089,-50.578 31.69,-52.124C30.29,-53.67 28.89,-55.282 27.49,-56.958C26.09,-58.634 24.805,-60.254 23.633,-61.816C22.689,-63.086 22.355,-64.315 22.632,-65.503C22.909,-66.691 23.812,-67.285 25.342,-67.285L62.793,-67.285C64.323,-67.285 65.226,-66.691 65.503,-65.503C65.78,-64.315 65.43,-63.086 64.453,-61.816C63.314,-60.254 62.044,-58.634 60.645,-56.958C59.245,-55.282 57.845,-53.67 56.445,-52.124C55.046,-50.578 53.784,-49.202 52.661,-47.998C51.538,-46.794 50.667,-45.915 50.049,-45.361Z" style="fill-rule:nonzero;"/>
        </g>
        <g id="Heavy-M" transform="matrix(1,0,0,1,2593.33,1126)">
            <path d="M22.852,12.109L63.867,12.109C67.057,12.109 69.588,11.182 71.46,9.326C73.332,7.471 74.268,4.899 74.268,1.611L74.268,0.83C74.268,-2.393 73.576,-5.566 72.192,-8.691C70.809,-11.816 69.1,-14.754 67.065,-17.505C65.031,-20.256 63.013,-22.697 61.011,-24.829C59.009,-26.961 57.373,-28.662 56.103,-29.932C54.508,-31.527 53.703,-33.317 53.687,-35.303C53.67,-37.288 54.476,-39.095 56.103,-40.723C57.373,-41.96 59.009,-43.644 61.011,-45.776C63.013,-47.909 65.031,-50.35 67.065,-53.101C69.1,-55.851 70.809,-58.789 72.192,-61.914C73.576,-65.039 74.268,-68.229 74.268,-71.484L74.268,-72.168C74.268,-75.456 73.332,-78.019 71.46,-79.858C69.588,-81.698 67.057,-82.617 63.867,-82.617L22.852,-82.617C19.661,-82.617 17.131,-81.698 15.259,-79.858C13.387,-78.019 12.451,-75.456 12.451,-72.168L12.451,-71.484C12.451,-68.229 13.143,-65.039 14.526,-61.914C15.91,-58.789 17.619,-55.851 19.653,-53.101C21.688,-50.35 23.706,-47.909 25.708,-45.776C27.71,-43.644 29.329,-41.96 30.566,-40.723C32.259,-39.095 33.097,-37.288 33.081,-35.303C33.065,-33.317 32.227,-31.527 30.566,-29.932C29.329,-28.662 27.71,-26.961 25.708,-24.829C23.706,-22.697 21.688,-20.256 19.653,-17.505C17.619,-14.754 15.91,-11.816 14.526,-8.691C13.143,-5.566 12.451,-2.393 12.451,0.83L12.451,1.611C12.451,4.899 13.387,7.471 15.259,9.326C17.131,11.182 19.661,12.109 22.852,12.109ZM48.731,-44.775C46.842,-43.018 45.052,-42.139 43.359,-42.139C41.667,-42.139 39.876,-43.018 37.988,-44.775C37.305,-45.394 36.344,-46.346 35.107,-47.632C33.87,-48.918 32.511,-50.374 31.03,-52.002C29.549,-53.63 28.092,-55.314 26.66,-57.056C25.228,-58.797 23.975,-60.417 22.9,-61.914C22.054,-63.086 21.761,-64.185 22.022,-65.21C22.282,-66.235 23.096,-66.748 24.463,-66.748L62.256,-66.748C63.623,-66.748 64.437,-66.235 64.697,-65.21C64.958,-64.185 64.665,-63.086 63.818,-61.914C62.744,-60.417 61.491,-58.797 60.059,-57.056C58.626,-55.314 57.17,-53.63 55.689,-52.002C54.207,-50.374 52.848,-48.918 51.611,-47.632C50.374,-46.346 49.414,-45.394 48.731,-44.775Z" style="fill-rule:nonzero;"/>
        </g>
        <g id="Bold-M" transform="matrix(1,0,0,1,2297.4,1126)">
            <path d="M22.022,11.279L63.135,11.279C66.097,11.279 68.433,10.433 70.142,8.74C71.851,7.048 72.705,4.671 72.705,1.611L72.705,0.781C72.705,-2.376 72.022,-5.485 70.654,-8.545C69.287,-11.605 67.586,-14.51 65.552,-17.261C63.517,-20.011 61.458,-22.485 59.375,-24.683C57.292,-26.88 55.55,-28.695 54.15,-30.127C52.555,-31.689 51.742,-33.407 51.709,-35.278C51.676,-37.15 52.49,-38.916 54.15,-40.576C55.55,-41.976 57.292,-43.774 59.375,-45.972C61.458,-48.169 63.517,-50.635 65.552,-53.369C67.586,-56.104 69.287,-59.009 70.654,-62.085C72.022,-65.161 72.705,-68.278 72.705,-71.436L72.705,-72.168C72.705,-75.228 71.851,-77.596 70.142,-79.272C68.433,-80.949 66.097,-81.787 63.135,-81.787L22.022,-81.787C19.092,-81.787 16.764,-80.949 15.039,-79.272C13.314,-77.596 12.451,-75.228 12.451,-72.168L12.451,-71.436C12.451,-68.278 13.135,-65.161 14.502,-62.085C15.869,-59.009 17.57,-56.104 19.605,-53.369C21.639,-50.635 23.698,-48.169 25.781,-45.972C27.865,-43.774 29.606,-41.976 31.006,-40.576C32.666,-38.916 33.48,-37.15 33.447,-35.278C33.415,-33.407 32.601,-31.689 31.006,-30.127C29.606,-28.695 27.865,-26.88 25.781,-24.683C23.698,-22.485 21.639,-20.011 19.605,-17.261C17.57,-14.51 15.869,-11.605 14.502,-8.545C13.135,-5.485 12.451,-2.376 12.451,0.781L12.451,1.611C12.451,4.671 13.314,7.048 15.039,8.74C16.764,10.433 19.092,11.279 22.022,11.279ZM47.266,-44.141C45.605,-42.643 44.043,-41.895 42.578,-41.895C41.113,-41.895 39.551,-42.643 37.891,-44.141C37.142,-44.792 36.084,-45.817 34.717,-47.217C33.35,-48.617 31.877,-50.179 30.298,-51.904C28.719,-53.63 27.197,-55.387 25.732,-57.178C24.268,-58.968 23.047,-60.596 22.07,-62.06C21.387,-63.102 21.167,-64.054 21.411,-64.917C21.655,-65.78 22.347,-66.211 23.486,-66.211L61.67,-66.211C62.842,-66.211 63.542,-65.78 63.77,-64.917C63.997,-64.054 63.77,-63.102 63.086,-62.06C62.109,-60.596 60.889,-58.968 59.424,-57.178C57.959,-55.387 56.437,-53.63 54.858,-51.904C53.28,-50.179 51.815,-48.617 50.464,-47.217C49.113,-45.817 48.047,-44.792 47.266,-44.141Z" style="fill-rule:nonzero;"/>
        </g>
        <g id="Semibold-M" transform="matrix(1,0,0,1,2001.25,1126)">
            <path d="M21.436,10.645L62.598,10.645C65.397,10.645 67.594,9.863 69.19,8.301C70.785,6.738 71.582,4.508 71.582,1.611L71.582,0.732C71.582,-2.327 70.907,-5.371 69.556,-8.398C68.205,-11.426 66.504,-14.315 64.453,-17.065C62.402,-19.816 60.319,-22.314 58.203,-24.561C56.087,-26.807 54.281,-28.695 52.783,-30.225C51.221,-31.787 50.415,-33.464 50.366,-35.254C50.317,-37.044 51.123,-38.77 52.783,-40.43C54.281,-41.927 56.087,-43.799 58.203,-46.045C60.319,-48.291 62.402,-50.789 64.453,-53.54C66.504,-56.291 68.205,-59.18 69.556,-62.207C70.907,-65.234 71.582,-68.294 71.582,-71.387L71.582,-72.119C71.582,-75.049 70.785,-77.295 69.19,-78.857C67.594,-80.42 65.397,-81.201 62.598,-81.201L21.436,-81.201C18.669,-81.201 16.48,-80.42 14.868,-78.857C13.257,-77.295 12.451,-75.049 12.451,-72.119L12.451,-71.387C12.451,-68.294 13.127,-65.234 14.477,-62.207C15.828,-59.18 17.529,-56.291 19.58,-53.54C21.631,-50.789 23.714,-48.291 25.83,-46.045C27.946,-43.799 29.753,-41.927 31.25,-40.43C32.943,-38.77 33.765,-37.044 33.716,-35.254C33.667,-33.464 32.845,-31.787 31.25,-30.225C29.753,-28.695 27.946,-26.807 25.83,-24.561C23.714,-22.314 21.631,-19.816 19.58,-17.065C17.529,-14.315 15.828,-11.426 14.477,-8.398C13.127,-5.371 12.451,-2.327 12.451,0.732L12.451,1.611C12.451,4.508 13.257,6.738 14.868,8.301C16.48,9.863 18.669,10.645 21.436,10.645ZM46.24,-43.652C44.743,-42.35 43.343,-41.699 42.041,-41.699C40.739,-41.699 39.339,-42.35 37.842,-43.652C36.995,-44.369 35.856,-45.459 34.424,-46.924C32.992,-48.389 31.445,-50.016 29.785,-51.807C28.125,-53.597 26.554,-55.404 25.073,-57.227C23.592,-59.049 22.396,-60.693 21.484,-62.158C20.898,-63.102 20.719,-63.94 20.947,-64.673C21.175,-65.405 21.777,-65.772 22.754,-65.772L61.279,-65.772C62.288,-65.772 62.907,-65.405 63.135,-64.673C63.363,-63.94 63.167,-63.102 62.549,-62.158C61.67,-60.693 60.482,-59.049 58.984,-57.227C57.487,-55.404 55.908,-53.597 54.248,-51.807C52.588,-50.016 51.042,-48.389 49.609,-46.924C48.177,-45.459 47.054,-44.369 46.24,-43.652Z" style="fill-rule:nonzero;"/>
        </g>
        <g id="Medium-M" transform="matrix(1,0,0,1,1704.95,1126)">
            <path d="M20.996,10.205L62.207,10.205C64.876,10.205 66.968,9.465 68.481,7.983C69.995,6.502 70.752,4.378 70.752,1.611L70.752,0.684C70.752,-2.311 70.077,-5.314 68.726,-8.325C67.375,-11.336 65.682,-14.217 63.648,-16.968C61.613,-19.718 59.513,-22.233 57.349,-24.512C55.184,-26.79 53.32,-28.727 51.758,-30.322C50.195,-31.852 49.39,-33.496 49.341,-35.254C49.292,-37.012 50.098,-38.704 51.758,-40.332C53.32,-41.927 55.184,-43.864 57.349,-46.143C59.513,-48.421 61.613,-50.928 63.648,-53.662C65.682,-56.397 67.375,-59.269 68.726,-62.28C70.077,-65.291 70.752,-68.311 70.752,-71.338L70.752,-72.119C70.752,-74.919 69.995,-77.059 68.481,-78.54C66.968,-80.021 64.876,-80.762 62.207,-80.762L20.996,-80.762C18.359,-80.762 16.276,-80.021 14.746,-78.54C13.216,-77.059 12.451,-74.919 12.451,-72.119L12.451,-71.338C12.451,-68.311 13.127,-65.291 14.477,-62.28C15.828,-59.269 17.521,-56.397 19.556,-53.662C21.59,-50.928 23.69,-48.421 25.855,-46.143C28.019,-43.864 29.883,-41.927 31.445,-40.332C33.138,-38.704 33.96,-37.012 33.911,-35.254C33.862,-33.496 33.04,-31.852 31.445,-30.322C29.883,-28.727 28.019,-26.79 25.855,-24.512C23.69,-22.233 21.59,-19.718 19.556,-16.968C17.521,-14.217 15.828,-11.336 14.477,-8.325C13.127,-5.314 12.451,-2.311 12.451,0.684L12.451,1.611C12.451,4.378 13.216,6.502 14.746,7.983C16.276,9.465 18.359,10.205 20.996,10.205ZM45.459,-43.311C44.092,-42.139 42.814,-41.553 41.626,-41.553C40.438,-41.553 39.144,-42.139 37.744,-43.311C36.898,-44.059 35.718,-45.19 34.204,-46.704C32.69,-48.218 31.079,-49.902 29.37,-51.758C27.661,-53.613 26.066,-55.461 24.585,-57.3C23.104,-59.139 21.924,-60.775 21.045,-62.207C20.524,-63.086 20.378,-63.851 20.606,-64.502C20.833,-65.153 21.387,-65.478 22.266,-65.478L60.938,-65.478C61.849,-65.478 62.411,-65.153 62.622,-64.502C62.834,-63.851 62.679,-63.086 62.158,-62.207C61.312,-60.775 60.14,-59.139 58.643,-57.3C57.145,-55.461 55.542,-53.613 53.833,-51.758C52.124,-49.902 50.521,-48.218 49.023,-46.704C47.526,-45.19 46.338,-44.059 45.459,-43.311Z" style="fill-rule:nonzero;"/>
        </g>
        <g id="Regular-M" transform="matrix(0.144565,0,0,0.097847,1377.55,1038.24)">
            <path d="M429.204,328.148L424.228,328.148C410.533,328.148 399.414,317.03 399.414,303.335L399.414,253.707C399.414,240.012 410.533,228.894 424.228,228.894L575.932,228.894C589.627,228.894 600.746,240.012 600.746,253.707L600.746,303.335C600.746,317.03 589.627,328.148 575.932,328.148L570.956,328.148C570.541,370.754 576.378,450.103 619.566,508.582C681.451,592.375 693.058,624.072 700.736,646.283C708.266,668.065 718.972,713.419 716.822,761.796C714.672,810.173 705.99,867.385 677.128,915.745C648.266,964.106 592.689,995.218 500.08,995.218C407.471,995.218 351.894,964.106 323.032,915.745C294.17,867.385 285.488,810.173 283.338,761.796C281.188,713.419 291.894,668.065 299.424,646.283C307.102,624.072 318.709,592.375 380.594,508.582C423.782,450.103 429.619,370.754 429.204,328.148ZM448.694,164.394C423.562,164.394 412.024,102.323 412.024,102.323C412.024,88.628 423.143,77.51 436.838,77.51L559.657,77.51C573.352,77.51 584.47,88.628 584.47,102.323C584.47,102.323 572.932,164.394 547.8,164.394L448.694,164.394Z"/>
        </g>
        <g id="Light-M" transform="matrix(1,0,0,1,1112.58,1126)">
            <path d="M19.678,8.838L61.475,8.838C63.688,8.838 65.438,8.203 66.724,6.934C68.009,5.664 68.652,3.874 68.652,1.563L68.652,0.293C68.652,-2.474 67.985,-5.33 66.65,-8.276C65.316,-11.222 63.607,-14.103 61.523,-16.919C59.44,-19.735 57.251,-22.38 54.956,-24.854C52.661,-27.328 50.57,-29.492 48.682,-31.348C47.445,-32.617 46.802,-33.927 46.753,-35.278C46.704,-36.629 47.347,-37.972 48.682,-39.307C50.57,-41.162 52.661,-43.327 54.956,-45.801C57.251,-48.275 59.44,-50.911 61.523,-53.711C63.607,-56.51 65.316,-59.383 66.65,-62.329C67.985,-65.275 68.652,-68.148 68.652,-70.947L68.652,-72.07C68.652,-74.414 68.009,-76.213 66.724,-77.466C65.438,-78.719 63.688,-79.346 61.475,-79.346L19.678,-79.346C17.464,-79.346 15.706,-78.719 14.404,-77.466C13.102,-76.213 12.451,-74.414 12.451,-72.07L12.451,-70.947C12.451,-68.148 13.118,-65.275 14.453,-62.329C15.788,-59.383 17.497,-56.51 19.58,-53.711C21.663,-50.911 23.853,-48.275 26.148,-45.801C28.442,-43.327 30.534,-41.162 32.422,-39.307C33.757,-37.972 34.408,-36.629 34.375,-35.278C34.342,-33.927 33.691,-32.617 32.422,-31.348C30.534,-29.492 28.442,-27.328 26.148,-24.854C23.853,-22.38 21.663,-19.735 19.58,-16.919C17.497,-14.103 15.788,-11.222 14.453,-8.276C13.118,-5.33 12.451,-2.474 12.451,0.293L12.451,1.563C12.451,3.874 13.102,5.664 14.404,6.934C15.706,8.203 17.464,8.838 19.678,8.838ZM43.311,-41.602C42.334,-40.755 41.423,-40.332 40.576,-40.332C39.73,-40.332 38.802,-40.755 37.793,-41.602C36.751,-42.48 35.433,-43.726 33.838,-45.337C32.243,-46.948 30.558,-48.739 28.784,-50.708C27.01,-52.677 25.358,-54.663 23.828,-56.665C22.298,-58.667 21.077,-60.514 20.166,-62.207C19.808,-62.858 19.718,-63.411 19.898,-63.867C20.077,-64.323 20.508,-64.551 21.191,-64.551L59.961,-64.551C60.612,-64.551 61.027,-64.323 61.206,-63.867C61.385,-63.411 61.296,-62.858 60.938,-62.207C60.026,-60.514 58.797,-58.667 57.251,-56.665C55.705,-54.663 54.061,-52.677 52.319,-50.708C50.578,-48.739 48.91,-46.948 47.315,-45.337C45.719,-43.726 44.385,-42.48 43.311,-41.602Z" style="fill-rule:nonzero;"/>
        </g>
        <g id="Thin-M" transform="matrix(1,0,0,1,816.53,1126)">
            <path d="M18.652,7.764L61.133,7.764C62.988,7.764 64.486,7.202 65.625,6.079C66.764,4.956 67.334,3.451 67.334,1.563L67.334,-0.098C67.334,-2.734 66.65,-5.501 65.283,-8.398C63.916,-11.296 62.174,-14.201 60.059,-17.114C57.943,-20.028 55.672,-22.811 53.247,-25.464C50.822,-28.117 48.551,-30.485 46.436,-32.568C45.589,-33.447 45.15,-34.359 45.117,-35.303C45.085,-36.247 45.524,-37.175 46.436,-38.086C48.551,-40.169 50.822,-42.537 53.247,-45.19C55.672,-47.843 57.943,-50.618 60.059,-53.516C62.174,-56.413 63.916,-59.318 65.283,-62.231C66.65,-65.145 67.334,-67.92 67.334,-70.557L67.334,-72.07C67.334,-73.958 66.764,-75.464 65.625,-76.587C64.486,-77.71 62.988,-78.272 61.133,-78.272L18.652,-78.272C16.797,-78.272 15.299,-77.71 14.16,-76.587C13.021,-75.464 12.451,-73.958 12.451,-72.07L12.451,-70.557C12.451,-67.92 13.127,-65.145 14.477,-62.231C15.828,-59.318 17.57,-56.413 19.702,-53.516C21.834,-50.618 24.105,-47.843 26.514,-45.19C28.923,-42.537 31.185,-40.169 33.301,-38.086C34.212,-37.175 34.668,-36.247 34.668,-35.303C34.668,-34.359 34.212,-33.447 33.301,-32.568C31.185,-30.485 28.923,-28.117 26.514,-25.464C24.105,-22.811 21.834,-20.028 19.702,-17.114C17.57,-14.201 15.828,-11.296 14.477,-8.398C13.127,-5.501 12.451,-2.734 12.451,-0.098L12.451,1.563C12.451,3.451 13.021,4.956 14.16,6.079C15.299,7.202 16.797,7.764 18.652,7.764ZM41.846,-39.941C41.162,-39.29 40.511,-38.965 39.893,-38.965C39.274,-38.965 38.607,-39.29 37.891,-39.941C36.719,-40.951 35.319,-42.285 33.691,-43.945C32.064,-45.605 30.379,-47.445 28.638,-49.463C26.896,-51.481 25.252,-53.581 23.706,-55.762C22.16,-57.943 20.85,-60.059 19.775,-62.109C19.515,-62.598 19.458,-63.005 19.605,-63.33C19.751,-63.656 20.101,-63.818 20.654,-63.818L59.131,-63.818C59.652,-63.818 59.993,-63.656 60.156,-63.33C60.319,-63.005 60.27,-62.598 60.01,-62.109C58.936,-60.059 57.617,-57.943 56.055,-55.762C54.492,-53.581 52.848,-51.481 51.123,-49.463C49.398,-47.445 47.721,-45.605 46.094,-43.945C44.466,-42.285 43.05,-40.951 41.846,-39.941Z" style="fill-rule:nonzero;"/>
        </g>
        <g id="Ultralight-M" transform="matrix(1,0,0,1,520.16,1126)">
            <path d="M18.164,7.227L60.938,7.227C62.63,7.227 64.006,6.698 65.064,5.64C66.121,4.582 66.65,3.206 66.65,1.514L66.65,-0.342C66.65,-2.848 65.967,-5.55 64.6,-8.447C63.232,-11.344 61.475,-14.266 59.326,-17.212C57.178,-20.158 54.867,-23.006 52.393,-25.757C49.919,-28.507 47.559,-30.99 45.313,-33.203C44.629,-33.919 44.287,-34.635 44.287,-35.352C44.287,-36.068 44.629,-36.768 45.313,-37.451C47.559,-39.665 49.919,-42.139 52.393,-44.873C54.867,-47.607 57.178,-50.448 59.326,-53.394C61.475,-56.34 63.232,-59.261 64.6,-62.158C65.967,-65.055 66.65,-67.773 66.65,-70.313L66.65,-72.022C66.65,-73.714 66.121,-75.09 65.064,-76.147C64.006,-77.205 62.63,-77.734 60.938,-77.734L18.164,-77.734C16.471,-77.734 15.096,-77.205 14.038,-76.147C12.98,-75.09 12.451,-73.714 12.451,-72.022L12.451,-70.313C12.451,-67.773 13.127,-65.055 14.477,-62.158C15.828,-59.261 17.578,-56.34 19.727,-53.394C21.875,-50.448 24.186,-47.607 26.66,-44.873C29.134,-42.139 31.494,-39.665 33.74,-37.451C34.424,-36.768 34.774,-36.068 34.79,-35.352C34.806,-34.635 34.456,-33.919 33.74,-33.203C31.494,-30.99 29.134,-28.507 26.66,-25.757C24.186,-23.006 21.875,-20.158 19.727,-17.212C17.578,-14.266 15.828,-11.344 14.477,-8.447C13.127,-5.55 12.451,-2.848 12.451,-0.342L12.451,1.514C12.451,3.206 12.98,4.582 14.038,5.64C15.096,6.698 16.471,7.227 18.164,7.227ZM41.113,-39.063C40.56,-38.542 40.039,-38.281 39.551,-38.281C39.063,-38.281 38.542,-38.542 37.988,-39.063C36.686,-40.169 35.23,-41.561 33.618,-43.237C32.007,-44.914 30.33,-46.777 28.589,-48.828C26.847,-50.879 25.195,-53.027 23.633,-55.273C22.07,-57.52 20.703,-59.782 19.531,-62.06C19.336,-62.451 19.303,-62.785 19.434,-63.062C19.564,-63.338 19.873,-63.477 20.361,-63.477L58.74,-63.477C59.196,-63.477 59.497,-63.338 59.644,-63.062C59.79,-62.785 59.749,-62.451 59.522,-62.06C58.35,-59.782 56.974,-57.52 55.396,-55.273C53.817,-53.027 52.173,-50.879 50.464,-48.828C48.755,-46.777 47.087,-44.914 45.459,-43.237C43.831,-41.561 42.383,-40.169 41.113,-39.063Z" style="fill-rule:nonzero;"/>
        </g>
        <g id="Black-S" transform="matrix(1,0,0,1,2898.68,696)">
            <path d="M18.701,2.637L50.732,2.637C53.499,2.637 55.68,1.831 57.275,0.22C58.87,-1.392 59.668,-3.581 59.668,-6.348L59.668,-6.934C59.668,-9.57 59.123,-12.134 58.032,-14.624C56.942,-17.114 55.599,-19.442 54.004,-21.606C52.409,-23.771 50.854,-25.659 49.341,-27.27C47.827,-28.882 46.647,-30.111 45.801,-30.957C44.531,-32.227 43.897,-33.675 43.897,-35.303C43.897,-36.93 44.531,-38.379 45.801,-39.648C46.647,-40.495 47.827,-41.724 49.341,-43.335C50.854,-44.946 52.409,-46.826 54.004,-48.975C55.599,-51.123 56.942,-53.451 58.032,-55.957C59.123,-58.464 59.668,-61.035 59.668,-63.672L59.668,-64.16C59.668,-66.96 58.87,-69.157 57.275,-70.752C55.68,-72.347 53.499,-73.144 50.732,-73.144L18.701,-73.144C15.934,-73.144 13.753,-72.347 12.158,-70.752C10.563,-69.157 9.766,-66.96 9.766,-64.16L9.766,-63.672C9.766,-61.035 10.311,-58.464 11.401,-55.957C12.492,-53.451 13.835,-51.123 15.43,-48.975C17.025,-46.826 18.579,-44.946 20.093,-43.335C21.606,-41.724 22.786,-40.495 23.633,-39.648C24.902,-38.379 25.537,-36.93 25.537,-35.303C25.537,-33.675 24.902,-32.227 23.633,-30.957C22.786,-30.111 21.606,-28.882 20.093,-27.27C18.579,-25.659 17.025,-23.771 15.43,-21.606C13.835,-19.442 12.492,-17.114 11.401,-14.624C10.311,-12.134 9.766,-9.57 9.766,-6.934L9.766,-6.348C9.766,-3.581 10.563,-1.392 12.158,0.22C13.753,1.831 15.934,2.637 18.701,2.637ZM39.551,-43.262C37.858,-41.667 36.247,-40.869 34.717,-40.869C33.187,-40.869 31.576,-41.667 29.883,-43.262C29.427,-43.717 28.768,-44.393 27.905,-45.288C27.043,-46.183 26.082,-47.233 25.024,-48.438C23.966,-49.642 22.892,-50.895 21.802,-52.197C20.711,-53.499 19.694,-54.769 18.75,-56.006C17.969,-57.048 17.692,-58.049 17.92,-59.009C18.148,-59.969 18.88,-60.449 20.117,-60.449L49.316,-60.449C50.553,-60.449 51.286,-59.969 51.514,-59.009C51.742,-58.049 51.465,-57.048 50.684,-56.006C49.74,-54.769 48.722,-53.499 47.632,-52.197C46.541,-50.895 45.467,-49.642 44.409,-48.438C43.351,-47.233 42.391,-46.183 41.528,-45.288C40.666,-44.393 40.007,-43.717 39.551,-43.262Z" style="fill-rule:nonzero;"/>
        </g>
        <g id="Heavy-S" transform="matrix(1,0,0,1,2602.51,696)">
            <path d="M18.164,2.1L50.195,2.1C52.8,2.1 54.85,1.351 56.348,-0.146C57.845,-1.644 58.594,-3.711 58.594,-6.348L58.594,-6.934C58.594,-9.505 58.057,-12.02 56.982,-14.477C55.908,-16.935 54.574,-19.238 52.978,-21.387C51.383,-23.535 49.805,-25.431 48.242,-27.075C46.68,-28.719 45.443,-30.013 44.531,-30.957C43.229,-32.259 42.57,-33.7 42.554,-35.278C42.537,-36.857 43.197,-38.314 44.531,-39.648C45.443,-40.592 46.68,-41.886 48.242,-43.53C49.805,-45.174 51.383,-47.062 52.978,-49.194C54.574,-51.327 55.908,-53.63 56.982,-56.103C58.057,-58.578 58.594,-61.1 58.594,-63.672L58.594,-64.16C58.594,-66.829 57.845,-68.905 56.348,-70.386C54.85,-71.867 52.8,-72.607 50.195,-72.607L18.164,-72.607C15.56,-72.607 13.509,-71.867 12.012,-70.386C10.514,-68.905 9.766,-66.829 9.766,-64.16L9.766,-63.672C9.766,-61.1 10.303,-58.578 11.377,-56.103C12.451,-53.63 13.786,-51.327 15.381,-49.194C16.976,-47.062 18.555,-45.174 20.117,-43.53C21.68,-41.886 22.917,-40.592 23.828,-39.648C25.163,-38.314 25.822,-36.857 25.806,-35.278C25.789,-33.7 25.13,-32.259 23.828,-30.957C22.917,-30.013 21.68,-28.719 20.117,-27.075C18.555,-25.431 16.976,-23.535 15.381,-21.387C13.786,-19.238 12.451,-16.935 11.377,-14.477C10.303,-12.02 9.766,-9.505 9.766,-6.934L9.766,-6.348C9.766,-3.711 10.514,-1.644 12.012,-0.146C13.509,1.351 15.56,2.1 18.164,2.1ZM38.574,-42.92C37.012,-41.488 35.547,-40.772 34.18,-40.772C32.813,-40.772 31.348,-41.488 29.785,-42.92C29.297,-43.408 28.573,-44.141 27.612,-45.117C26.652,-46.094 25.602,-47.217 24.463,-48.486C23.324,-49.756 22.201,-51.05 21.094,-52.368C19.987,-53.687 19.01,-54.932 18.164,-56.103C17.481,-57.08 17.245,-57.983 17.456,-58.814C17.668,-59.644 18.327,-60.059 19.434,-60.059L48.926,-60.059C50.033,-60.059 50.692,-59.644 50.903,-58.814C51.115,-57.983 50.879,-57.08 50.195,-56.103C49.349,-54.932 48.372,-53.687 47.266,-52.368C46.159,-51.05 45.036,-49.756 43.897,-48.486C42.757,-47.217 41.707,-46.094 40.747,-45.117C39.787,-44.141 39.062,-43.408 38.574,-42.92Z" style="fill-rule:nonzero;"/>
        </g>
        <g id="Bold-S" transform="matrix(1,0,0,1,2306.38,696)">
            <path d="M17.578,1.465L49.609,1.465C52.018,1.465 53.923,0.781 55.322,-0.586C56.722,-1.953 57.422,-3.874 57.422,-6.348L57.422,-6.982C57.422,-9.489 56.885,-11.947 55.811,-14.355C54.736,-16.764 53.402,-19.035 51.807,-21.167C50.212,-23.299 48.617,-25.212 47.022,-26.904C45.426,-28.597 44.108,-29.964 43.066,-31.006C41.764,-32.308 41.097,-33.732 41.065,-35.278C41.032,-36.825 41.699,-38.281 43.066,-39.648C44.108,-40.69 45.426,-42.049 47.022,-43.726C48.617,-45.402 50.212,-47.306 51.807,-49.439C53.402,-51.571 54.736,-53.849 55.811,-56.274C56.885,-58.7 57.422,-61.165 57.422,-63.672L57.422,-64.16C57.422,-66.667 56.722,-68.595 55.322,-69.946C53.923,-71.297 52.018,-71.973 49.609,-71.973L17.578,-71.973C15.137,-71.973 13.224,-71.297 11.841,-69.946C10.457,-68.595 9.766,-66.667 9.766,-64.16L9.766,-63.672C9.766,-61.165 10.303,-58.7 11.377,-56.274C12.451,-53.849 13.786,-51.571 15.381,-49.439C16.976,-47.306 18.571,-45.402 20.166,-43.726C21.761,-42.049 23.079,-40.69 24.121,-39.648C25.488,-38.281 26.156,-36.825 26.123,-35.278C26.09,-33.732 25.423,-32.308 24.121,-31.006C23.079,-29.964 21.761,-28.597 20.166,-26.904C18.571,-25.212 16.976,-23.299 15.381,-21.167C13.786,-19.035 12.451,-16.764 11.377,-14.355C10.303,-11.947 9.766,-9.489 9.766,-6.982L9.766,-6.348C9.766,-3.874 10.457,-1.953 11.841,-0.586C13.224,0.781 15.137,1.465 17.578,1.465ZM37.451,-42.578C36.084,-41.341 34.798,-40.723 33.594,-40.723C32.389,-40.723 31.087,-41.341 29.688,-42.578C29.134,-43.066 28.337,-43.84 27.295,-44.898C26.253,-45.955 25.114,-47.16 23.877,-48.511C22.64,-49.862 21.452,-51.213 20.313,-52.564C19.173,-53.914 18.229,-55.143 17.481,-56.25C16.895,-57.096 16.707,-57.878 16.919,-58.594C17.131,-59.31 17.708,-59.668 18.652,-59.668L48.535,-59.668C49.479,-59.668 50.049,-59.31 50.244,-58.594C50.439,-57.878 50.26,-57.096 49.707,-56.25C48.958,-55.143 48.014,-53.914 46.875,-52.564C45.736,-51.213 44.548,-49.862 43.311,-48.511C42.074,-47.16 40.934,-45.955 39.893,-44.898C38.851,-43.84 38.037,-43.066 37.451,-42.578Z" style="fill-rule:nonzero;"/>
        </g>
        <g id="Semibold-S" transform="matrix(1,0,0,1,2010.09,696)">
            <path d="M17.139,1.025L49.219,1.025C51.497,1.025 53.296,0.391 54.614,-0.879C55.933,-2.148 56.592,-3.971 56.592,-6.348L56.592,-6.982C56.592,-9.424 56.055,-11.833 54.981,-14.209C53.906,-16.585 52.58,-18.839 51.001,-20.972C49.422,-23.104 47.819,-25.024 46.191,-26.733C44.564,-28.442 43.197,-29.867 42.09,-31.006C40.755,-32.308 40.072,-33.716 40.039,-35.23C40.007,-36.743 40.69,-38.2 42.09,-39.6C43.197,-40.739 44.564,-42.163 46.191,-43.872C47.819,-45.581 49.422,-47.493 51.001,-49.609C52.58,-51.725 53.906,-53.98 54.981,-56.372C56.055,-58.765 56.592,-61.182 56.592,-63.623L56.592,-64.16C56.592,-66.536 55.933,-68.359 54.614,-69.629C53.296,-70.898 51.497,-71.533 49.219,-71.533L17.139,-71.533C14.828,-71.533 13.021,-70.898 11.719,-69.629C10.417,-68.359 9.766,-66.536 9.766,-64.16L9.766,-63.623C9.766,-61.182 10.295,-58.765 11.352,-56.372C12.411,-53.98 13.737,-51.725 15.332,-49.609C16.927,-47.493 18.538,-45.581 20.166,-43.872C21.794,-42.163 23.161,-40.739 24.268,-39.6C25.667,-38.2 26.351,-36.743 26.318,-35.23C26.286,-33.716 25.602,-32.308 24.268,-31.006C23.161,-29.867 21.794,-28.442 20.166,-26.733C18.538,-25.024 16.927,-23.104 15.332,-20.972C13.737,-18.839 12.411,-16.585 11.352,-14.209C10.295,-11.833 9.766,-9.424 9.766,-6.982L9.766,-6.348C9.766,-3.971 10.417,-2.148 11.719,-0.879C13.021,0.391 14.828,1.025 17.139,1.025ZM36.67,-42.285C35.433,-41.178 34.269,-40.625 33.179,-40.625C32.088,-40.625 30.908,-41.178 29.639,-42.285C29.02,-42.806 28.158,-43.628 27.051,-44.751C25.944,-45.874 24.74,-47.135 23.438,-48.535C22.135,-49.935 20.907,-51.318 19.751,-52.686C18.595,-54.053 17.692,-55.273 17.041,-56.348C16.52,-57.129 16.357,-57.829 16.553,-58.447C16.748,-59.066 17.253,-59.375 18.066,-59.375L48.242,-59.375C49.089,-59.375 49.601,-59.066 49.78,-58.447C49.959,-57.829 49.805,-57.129 49.316,-56.348C48.633,-55.273 47.713,-54.053 46.558,-52.686C45.402,-51.318 44.181,-49.935 42.896,-48.535C41.61,-47.135 40.405,-45.874 39.282,-44.751C38.159,-43.628 37.288,-42.806 36.67,-42.285Z" style="fill-rule:nonzero;"/>
        </g>
        <g id="Medium-S" transform="matrix(1,0,0,1,1713.69,696)">
            <path d="M16.797,0.732L48.877,0.732C51.058,0.732 52.783,0.122 54.053,-1.099C55.322,-2.319 55.957,-4.069 55.957,-6.348L55.957,-6.982C55.957,-9.391 55.42,-11.776 54.346,-14.136C53.272,-16.496 51.945,-18.742 50.366,-20.874C48.787,-23.006 47.176,-24.935 45.532,-26.66C43.888,-28.385 42.48,-29.834 41.309,-31.006C39.974,-32.308 39.282,-33.708 39.233,-35.205C39.185,-36.703 39.876,-38.167 41.309,-39.6C42.48,-40.771 43.888,-42.22 45.532,-43.945C47.176,-45.671 48.787,-47.599 50.366,-49.731C51.945,-51.864 53.272,-54.11 54.346,-56.47C55.42,-58.83 55.957,-61.214 55.957,-63.623L55.957,-64.16C55.957,-66.439 55.322,-68.188 54.053,-69.409C52.783,-70.63 51.058,-71.24 48.877,-71.24L16.797,-71.24C14.616,-71.24 12.899,-70.63 11.646,-69.409C10.392,-68.188 9.766,-66.439 9.766,-64.16L9.766,-63.623C9.766,-61.214 10.295,-58.83 11.352,-56.47C12.411,-54.11 13.737,-51.864 15.332,-49.731C16.927,-47.599 18.547,-45.671 20.19,-43.945C21.834,-42.22 23.242,-40.771 24.414,-39.6C25.846,-38.167 26.538,-36.703 26.489,-35.205C26.44,-33.708 25.749,-32.308 24.414,-31.006C23.242,-29.834 21.834,-28.385 20.19,-26.66C18.547,-24.935 16.927,-23.006 15.332,-20.874C13.737,-18.742 12.411,-16.496 11.352,-14.136C10.295,-11.776 9.766,-9.391 9.766,-6.982L9.766,-6.348C9.766,-4.069 10.392,-2.319 11.646,-1.099C12.899,0.122 14.616,0.732 16.797,0.732ZM36.084,-42.09C34.945,-41.081 33.87,-40.576 32.861,-40.576C31.852,-40.576 30.745,-41.081 29.541,-42.09C28.955,-42.643 28.076,-43.498 26.904,-44.653C25.732,-45.809 24.471,-47.103 23.12,-48.535C21.769,-49.967 20.516,-51.383 19.36,-52.783C18.205,-54.183 17.301,-55.387 16.65,-56.397C16.195,-57.113 16.064,-57.756 16.26,-58.325C16.455,-58.895 16.927,-59.18 17.676,-59.18L48.047,-59.18C48.796,-59.18 49.259,-58.895 49.439,-58.325C49.618,-57.756 49.479,-57.113 49.023,-56.397C48.405,-55.387 47.51,-54.183 46.338,-52.783C45.166,-51.383 43.913,-49.967 42.578,-48.535C41.244,-47.103 39.99,-45.809 38.818,-44.653C37.646,-43.498 36.735,-42.643 36.084,-42.09Z" style="fill-rule:nonzero;"/>
        </g>
        <g id="Regular-S" transform="matrix(1,0,0,1,1417.4,696)">
            <path d="M16.406,0.293L48.486,0.293C50.537,0.293 52.157,-0.269 53.345,-1.392C54.533,-2.515 55.127,-4.167 55.127,-6.348L55.127,-6.982C55.127,-9.359 54.598,-11.711 53.54,-14.038C52.482,-16.366 51.164,-18.587 49.585,-20.703C48.006,-22.819 46.379,-24.756 44.702,-26.514C43.026,-28.272 41.569,-29.769 40.332,-31.006C38.965,-32.341 38.257,-33.74 38.208,-35.205C38.159,-36.67 38.867,-38.135 40.332,-39.6C41.569,-40.837 43.026,-42.334 44.702,-44.092C46.379,-45.85 48.006,-47.786 49.585,-49.902C51.164,-52.018 52.482,-54.24 53.54,-56.567C54.598,-58.895 55.127,-61.247 55.127,-63.623L55.127,-64.16C55.127,-66.341 54.533,-67.993 53.345,-69.116C52.157,-70.239 50.537,-70.801 48.486,-70.801L16.406,-70.801C14.323,-70.801 12.695,-70.239 11.523,-69.116C10.352,-67.993 9.766,-66.341 9.766,-64.16L9.766,-63.623C9.766,-61.247 10.286,-58.895 11.328,-56.567C12.37,-54.24 13.688,-52.018 15.283,-49.902C16.878,-47.786 18.514,-45.85 20.19,-44.092C21.867,-42.334 23.324,-40.837 24.561,-39.6C26.025,-38.135 26.733,-36.67 26.685,-35.205C26.636,-33.74 25.928,-32.341 24.561,-31.006C23.324,-29.769 21.867,-28.272 20.19,-26.514C18.514,-24.756 16.878,-22.819 15.283,-20.703C13.688,-18.587 12.37,-16.366 11.328,-14.038C10.286,-11.711 9.766,-9.359 9.766,-6.982L9.766,-6.348C9.766,-4.167 10.352,-2.515 11.523,-1.392C12.695,-0.269 14.323,0.293 16.406,0.293ZM35.352,-41.846C34.31,-40.967 33.341,-40.527 32.446,-40.527C31.551,-40.527 30.566,-40.967 29.492,-41.846C28.841,-42.399 27.897,-43.286 26.66,-44.507C25.423,-45.728 24.105,-47.078 22.705,-48.56C21.305,-50.041 20.011,-51.489 18.823,-52.905C17.635,-54.321 16.764,-55.518 16.211,-56.494C15.82,-57.145 15.715,-57.707 15.894,-58.179C16.073,-58.651 16.488,-58.887 17.139,-58.887L47.754,-58.887C48.405,-58.887 48.812,-58.651 48.975,-58.179C49.137,-57.707 49.04,-57.145 48.682,-56.494C48.128,-55.518 47.258,-54.321 46.069,-52.905C44.881,-51.489 43.587,-50.041 42.188,-48.56C40.788,-47.078 39.469,-45.728 38.232,-44.507C36.995,-43.286 36.035,-42.399 35.352,-41.846Z" style="fill-rule:nonzero;"/>
        </g>
        <g id="Light-S" transform="matrix(1,0,0,1,1121.15,696)">
            <path d="M15.723,-0.439L48.242,-0.439C50.065,-0.439 51.514,-0.952 52.588,-1.978C53.662,-3.003 54.199,-4.476 54.199,-6.396L54.199,-7.275C54.199,-9.521 53.67,-11.8 52.612,-14.111C51.554,-16.423 50.22,-18.669 48.608,-20.85C46.997,-23.031 45.313,-25.057 43.555,-26.929C41.797,-28.8 40.218,-30.436 38.818,-31.836C37.712,-32.91 37.142,-34.041 37.109,-35.23C37.077,-36.418 37.646,-37.598 38.818,-38.77C40.218,-40.169 41.797,-41.805 43.555,-43.677C45.313,-45.549 46.997,-47.575 48.608,-49.756C50.22,-51.937 51.554,-54.183 52.612,-56.494C53.67,-58.805 54.199,-61.084 54.199,-63.33L54.199,-64.111C54.199,-66.032 53.662,-67.505 52.588,-68.53C51.514,-69.556 50.065,-70.068 48.242,-70.068L15.723,-70.068C13.867,-70.068 12.411,-69.556 11.352,-68.53C10.295,-67.505 9.766,-66.032 9.766,-64.111L9.766,-63.33C9.766,-61.084 10.286,-58.805 11.328,-56.494C12.37,-54.183 13.704,-51.937 15.332,-49.756C16.96,-47.575 18.652,-45.549 20.41,-43.677C22.168,-41.805 23.747,-40.169 25.147,-38.77C26.318,-37.598 26.888,-36.418 26.856,-35.23C26.823,-34.041 26.253,-32.91 25.147,-31.836C23.747,-30.436 22.168,-28.8 20.41,-26.929C18.652,-25.057 16.96,-23.031 15.332,-20.85C13.704,-18.669 12.37,-16.423 11.328,-14.111C10.286,-11.8 9.766,-9.521 9.766,-7.275L9.766,-6.396C9.766,-4.476 10.295,-3.003 11.352,-1.978C12.411,-0.952 13.867,-0.439 15.723,-0.439ZM34.375,-40.723C33.529,-39.974 32.739,-39.6 32.007,-39.6C31.274,-39.6 30.469,-39.974 29.59,-40.723C28.809,-41.374 27.799,-42.326 26.563,-43.579C25.326,-44.832 24.007,-46.216 22.607,-47.73C21.208,-49.243 19.914,-50.765 18.726,-52.295C17.537,-53.825 16.602,-55.192 15.918,-56.397C15.592,-56.95 15.511,-57.422 15.674,-57.813C15.837,-58.203 16.195,-58.398 16.748,-58.398L47.217,-58.398C47.77,-58.398 48.12,-58.203 48.267,-57.813C48.413,-57.422 48.34,-56.95 48.047,-56.397C47.396,-55.192 46.468,-53.825 45.264,-52.295C44.059,-50.765 42.765,-49.243 41.382,-47.73C39.998,-46.216 38.68,-44.832 37.427,-43.579C36.174,-42.326 35.156,-41.374 34.375,-40.723Z" style="fill-rule:nonzero;"/>
        </g>
        <g id="Thin-S" transform="matrix(1,0,0,1,825.026,696)">
            <path d="M14.844,-1.367L47.949,-1.367C49.479,-1.367 50.708,-1.815 51.636,-2.71C52.563,-3.605 53.027,-4.834 53.027,-6.396L53.027,-7.617C53.027,-9.701 52.498,-11.882 51.44,-14.16C50.382,-16.439 49.023,-18.717 47.363,-20.996C45.703,-23.275 43.937,-25.431 42.065,-27.466C40.194,-29.5 38.46,-31.315 36.865,-32.91C36.084,-33.691 35.685,-34.481 35.669,-35.278C35.653,-36.076 36.051,-36.882 36.865,-37.695C38.46,-39.29 40.194,-41.105 42.065,-43.14C43.937,-45.174 45.703,-47.323 47.363,-49.585C49.023,-51.847 50.382,-54.118 51.44,-56.397C52.498,-58.675 53.027,-60.872 53.027,-62.988L53.027,-64.111C53.027,-65.674 52.563,-66.903 51.636,-67.798C50.708,-68.693 49.479,-69.141 47.949,-69.141L14.844,-69.141C13.281,-69.141 12.044,-68.693 11.133,-67.798C10.221,-66.903 9.766,-65.674 9.766,-64.111L9.766,-62.988C9.766,-60.872 10.295,-58.675 11.352,-56.397C12.411,-54.118 13.77,-51.847 15.43,-49.585C17.09,-47.323 18.856,-45.174 20.728,-43.14C22.599,-41.105 24.333,-39.29 25.928,-37.695C26.709,-36.882 27.1,-36.076 27.1,-35.278C27.1,-34.481 26.709,-33.691 25.928,-32.91C24.333,-31.315 22.599,-29.5 20.728,-27.466C18.856,-25.431 17.09,-23.275 15.43,-20.996C13.77,-18.717 12.411,-16.439 11.352,-14.16C10.295,-11.882 9.766,-9.701 9.766,-7.617L9.766,-6.396C9.766,-4.834 10.221,-3.605 11.133,-2.71C12.044,-1.815 13.281,-1.367 14.844,-1.367ZM33.106,-39.209C32.487,-38.688 31.917,-38.428 31.397,-38.428C30.876,-38.428 30.306,-38.688 29.688,-39.209C28.776,-39.99 27.686,-41.032 26.416,-42.334C25.146,-43.636 23.828,-45.068 22.461,-46.631C21.094,-48.193 19.808,-49.805 18.604,-51.465C17.399,-53.125 16.39,-54.736 15.576,-56.299C15.316,-56.689 15.251,-57.031 15.381,-57.324C15.511,-57.617 15.804,-57.764 16.26,-57.764L46.484,-57.764C46.94,-57.764 47.225,-57.617 47.339,-57.324C47.453,-57.031 47.412,-56.689 47.217,-56.299C46.403,-54.736 45.386,-53.125 44.165,-51.465C42.944,-49.805 41.659,-48.193 40.308,-46.631C38.957,-45.068 37.638,-43.636 36.353,-42.334C35.067,-41.032 33.984,-39.99 33.106,-39.209Z" style="fill-rule:nonzero;"/>
        </g>
        <g id="Ultralight-S" transform="matrix(1,0,0,1,528.632,696)">
            <path d="M14.355,-1.855L47.803,-1.855C49.17,-1.855 50.277,-2.271 51.123,-3.101C51.969,-3.931 52.393,-5.046 52.393,-6.445L52.393,-7.813C52.393,-9.831 51.864,-11.971 50.806,-14.233C49.748,-16.496 48.381,-18.783 46.704,-21.094C45.028,-23.405 43.229,-25.618 41.309,-27.734C39.388,-29.85 37.565,-31.755 35.84,-33.447C35.221,-34.066 34.912,-34.684 34.912,-35.303C34.912,-35.921 35.221,-36.54 35.84,-37.158C37.565,-38.851 39.388,-40.755 41.309,-42.871C43.229,-44.987 45.028,-47.192 46.704,-49.487C48.381,-51.782 49.748,-54.061 50.806,-56.323C51.864,-58.586 52.393,-60.742 52.393,-62.793L52.393,-64.063C52.393,-65.462 51.969,-66.577 51.123,-67.407C50.277,-68.237 49.17,-68.652 47.803,-68.652L14.355,-68.652C12.988,-68.652 11.882,-68.237 11.035,-67.407C10.189,-66.577 9.766,-65.462 9.766,-64.063L9.766,-62.793C9.766,-60.742 10.295,-58.586 11.352,-56.323C12.411,-54.061 13.786,-51.782 15.479,-49.487C17.171,-47.192 18.97,-44.987 20.874,-42.871C22.778,-40.755 24.593,-38.851 26.318,-37.158C26.904,-36.54 27.205,-35.921 27.222,-35.303C27.238,-34.684 26.937,-34.066 26.318,-33.447C24.593,-31.755 22.778,-29.85 20.874,-27.734C18.97,-25.618 17.171,-23.405 15.479,-21.094C13.786,-18.783 12.411,-16.496 11.352,-14.233C10.295,-11.971 9.766,-9.831 9.766,-7.813L9.766,-6.445C9.766,-5.046 10.189,-3.931 11.035,-3.101C11.882,-2.271 12.988,-1.855 14.355,-1.855ZM32.422,-38.428C31.934,-38.005 31.486,-37.793 31.079,-37.793C30.672,-37.793 30.225,-38.005 29.736,-38.428C28.76,-39.307 27.637,-40.397 26.367,-41.699C25.098,-43.001 23.779,-44.458 22.412,-46.069C21.045,-47.681 19.751,-49.349 18.53,-51.074C17.31,-52.799 16.26,-54.525 15.381,-56.25C15.186,-56.576 15.145,-56.852 15.259,-57.08C15.373,-57.308 15.625,-57.422 16.016,-57.422L46.143,-57.422C46.501,-57.422 46.737,-57.308 46.851,-57.08C46.965,-56.852 46.94,-56.576 46.777,-56.25C45.898,-54.525 44.841,-52.799 43.603,-51.074C42.366,-49.349 41.081,-47.681 39.746,-46.069C38.411,-44.458 37.101,-43.001 35.815,-41.699C34.53,-40.397 33.398,-39.307 32.422,-38.428Z" style="fill-rule:nonzero;"/>
        </g>
    </g>
</svg>
