<?xml version="1.0" encoding="UTF-8" standalone="no"?>
<!DOCTYPE svg PUBLIC "-//W3C//DTD SVG 1.1//EN" "http://www.w3.org/Graphics/SVG/1.1/DTD/svg11.dtd">
<svg width="100%" height="100%" viewBox="0 0 3300 2200" version="1.1" xmlns="http://www.w3.org/2000/svg" xmlns:xlink="http://www.w3.org/1999/xlink" xml:space="preserve" xmlns:serif="http://www.serif.com/" style="fill-rule:evenodd;clip-rule:evenodd;">
    <g id="Notes">
        <rect id="artboard" x="0" y="0" width="3300" height="2200" style="fill:white;"/>
        <path d="M263,292L3036,292" style="fill:none;fill-rule:nonzero;stroke:black;stroke-width:0.5px;"/>
        <g transform="matrix(1,0,0,1,263,322)">
            <text x="0px" y="0px" style="font-family:'LucidaGrande-Bold', 'Lucida Grande', sans-serif;font-weight:600;font-size:13px;">Weight/Scale Variations</text>
        </g>
        <g transform="matrix(1,0,0,1,530.372,322)">
            <text x="0px" y="0px" style="font-family:'LucidaGrande', 'Lucida Grande', sans-serif;font-weight:500;font-size:13px;">Ultralight</text>
        </g>
        <g transform="matrix(1,0,0,1,842.365,322)">
            <text x="0px" y="0px" style="font-family:'LucidaGrande', 'Lucida Grande', sans-serif;font-weight:500;font-size:13px;">Thin</text>
        </g>
        <g transform="matrix(1,0,0,1,1137.27,322)">
            <text x="0px" y="0px" style="font-family:'LucidaGrande', 'Lucida Grande', sans-serif;font-weight:500;font-size:13px;">Light</text>
        </g>
        <g transform="matrix(1,0,0,1,1425.89,322)">
            <text x="0px" y="0px" style="font-family:'LucidaGrande', 'Lucida Grande', sans-serif;font-weight:500;font-size:13px;">Regular</text>
        </g>
        <g transform="matrix(1,0,0,1,1721.27,322)">
            <text x="0px" y="0px" style="font-family:'LucidaGrande', 'Lucida Grande', sans-serif;font-weight:500;font-size:13px;">Medium</text>
        </g>
        <g transform="matrix(1,0,0,1,2014.15,322)">
            <text x="0px" y="0px" style="font-family:'LucidaGrande', 'Lucida Grande', sans-serif;font-weight:500;font-size:13px;">Semibold</text>
        </g>
        <g transform="matrix(1,0,0,1,2326.28,322)">
            <text x="0px" y="0px" style="font-family:'LucidaGrande', 'Lucida Grande', sans-serif;font-weight:500;font-size:13px;">Bold</text>
        </g>
        <g transform="matrix(1,0,0,1,2617.94,322)">
            <text x="0px" y="0px" style="font-family:'LucidaGrande', 'Lucida Grande', sans-serif;font-weight:500;font-size:13px;">Heavy</text>
        </g>
        <g transform="matrix(1,0,0,1,2917.06,322)">
            <text x="0px" y="0px" style="font-family:'LucidaGrande', 'Lucida Grande', sans-serif;font-weight:500;font-size:13px;">Black</text>
        </g>
        <path d="M263,1903L3036,1903" style="fill:none;fill-rule:nonzero;stroke:black;stroke-width:0.5px;"/>
        <g transform="matrix(1,0,0,1,263,1933)">
            <path d="M9.248,0.83C10.329,0.83 11.344,0.625 12.295,0.215C13.245,-0.195 14.084,-0.765 14.81,-1.494C15.535,-2.223 16.105,-3.063 16.519,-4.014C16.932,-4.964 17.139,-5.977 17.139,-7.051C17.139,-8.125 16.932,-9.137 16.519,-10.088C16.105,-11.038 15.534,-11.878 14.805,-12.607C14.076,-13.337 13.236,-13.906 12.285,-14.316C11.335,-14.727 10.319,-14.932 9.238,-14.932C8.164,-14.932 7.152,-14.727 6.201,-14.316C5.251,-13.906 4.414,-13.337 3.691,-12.607C2.969,-11.878 2.401,-11.038 1.987,-10.088C1.574,-9.137 1.367,-8.125 1.367,-7.051C1.367,-5.977 1.574,-4.964 1.987,-4.014C2.401,-3.063 2.97,-2.223 3.696,-1.494C4.422,-0.765 5.26,-0.195 6.211,0.215C7.161,0.625 8.174,0.83 9.248,0.83ZM9.248,-0.654C8.363,-0.654 7.534,-0.819 6.763,-1.147C5.991,-1.476 5.314,-1.934 4.731,-2.52C4.149,-3.105 3.693,-3.786 3.364,-4.561C3.035,-5.335 2.871,-6.165 2.871,-7.051C2.871,-7.936 3.034,-8.766 3.359,-9.541C3.685,-10.316 4.139,-10.996 4.722,-11.582C5.304,-12.168 5.981,-12.625 6.753,-12.954C7.524,-13.283 8.353,-13.447 9.238,-13.447C10.13,-13.447 10.962,-13.283 11.733,-12.954C12.505,-12.625 13.184,-12.168 13.77,-11.582C14.355,-10.996 14.814,-10.316 15.147,-9.541C15.479,-8.766 15.645,-7.936 15.645,-7.051C15.645,-6.165 15.48,-5.335 15.151,-4.561C14.823,-3.786 14.367,-3.105 13.784,-2.52C13.202,-1.934 12.523,-1.476 11.748,-1.147C10.973,-0.819 10.14,-0.654 9.248,-0.654ZM5.654,-7.051C5.654,-6.836 5.723,-6.662 5.859,-6.528C5.996,-6.395 6.178,-6.328 6.406,-6.328L8.516,-6.328L8.516,-4.209C8.516,-3.994 8.581,-3.817 8.711,-3.677C8.841,-3.537 9.017,-3.467 9.238,-3.467C9.453,-3.467 9.631,-3.537 9.771,-3.677C9.91,-3.817 9.98,-3.994 9.98,-4.209L9.98,-6.328L12.09,-6.328C12.311,-6.328 12.49,-6.395 12.627,-6.528C12.764,-6.662 12.832,-6.836 12.832,-7.051C12.832,-7.272 12.764,-7.451 12.627,-7.588C12.49,-7.725 12.311,-7.793 12.09,-7.793L9.98,-7.793L9.98,-9.902C9.98,-10.124 9.91,-10.304 9.771,-10.444C9.631,-10.584 9.453,-10.654 9.238,-10.654C9.017,-10.654 8.841,-10.584 8.711,-10.444C8.581,-10.304 8.516,-10.124 8.516,-9.902L8.516,-7.793L6.406,-7.793C6.178,-7.793 5.996,-7.725 5.859,-7.588C5.723,-7.451 5.654,-7.272 5.654,-7.051Z" style="fill-rule:nonzero;"/>
        </g>
        <g transform="matrix(1,0,0,1,281.867,1933)">
            <path d="M11.709,2.91C13.07,2.91 14.351,2.65 15.552,2.129C16.753,1.608 17.813,0.889 18.731,-0.029C19.648,-0.947 20.368,-2.007 20.889,-3.208C21.409,-4.409 21.67,-5.69 21.67,-7.051C21.67,-8.411 21.409,-9.692 20.889,-10.894C20.368,-12.095 19.648,-13.154 18.731,-14.072C17.813,-14.99 16.751,-15.71 15.547,-16.23C14.342,-16.751 13.06,-17.012 11.699,-17.012C10.339,-17.012 9.058,-16.751 7.856,-16.23C6.655,-15.71 5.597,-14.99 4.683,-14.072C3.768,-13.154 3.05,-12.095 2.529,-10.894C2.008,-9.692 1.748,-8.411 1.748,-7.051C1.748,-5.69 2.008,-4.409 2.529,-3.208C3.05,-2.007 3.77,-0.947 4.688,-0.029C5.605,0.889 6.665,1.608 7.866,2.129C9.067,2.65 10.348,2.91 11.709,2.91ZM11.709,1.25C10.557,1.25 9.479,1.035 8.477,0.605C7.474,0.176 6.593,-0.418 5.835,-1.177C5.076,-1.935 4.484,-2.816 4.058,-3.818C3.631,-4.821 3.418,-5.898 3.418,-7.051C3.418,-8.203 3.631,-9.281 4.058,-10.283C4.484,-11.286 5.075,-12.168 5.83,-12.93C6.585,-13.691 7.464,-14.286 8.467,-14.712C9.469,-15.138 10.547,-15.352 11.699,-15.352C12.852,-15.352 13.929,-15.138 14.932,-14.712C15.934,-14.286 16.816,-13.691 17.578,-12.93C18.34,-12.168 18.936,-11.286 19.365,-10.283C19.795,-9.281 20.01,-8.203 20.01,-7.051C20.01,-5.898 19.797,-4.821 19.37,-3.818C18.944,-2.816 18.351,-1.935 17.593,-1.177C16.834,-0.418 15.952,0.176 14.946,0.605C13.94,1.035 12.861,1.25 11.709,1.25ZM7.178,-7.051C7.178,-6.816 7.256,-6.624 7.412,-6.475C7.568,-6.325 7.77,-6.25 8.018,-6.25L10.889,-6.25L10.889,-3.369C10.889,-3.122 10.964,-2.922 11.113,-2.769C11.263,-2.616 11.455,-2.539 11.69,-2.539C11.937,-2.539 12.137,-2.616 12.29,-2.769C12.443,-2.922 12.52,-3.122 12.52,-3.369L12.52,-6.25L15.4,-6.25C15.648,-6.25 15.848,-6.325 16.001,-6.475C16.154,-6.624 16.23,-6.816 16.23,-7.051C16.23,-7.298 16.154,-7.498 16.001,-7.651C15.848,-7.804 15.648,-7.881 15.4,-7.881L12.52,-7.881L12.52,-10.752C12.52,-11.006 12.443,-11.209 12.29,-11.362C12.137,-11.515 11.937,-11.592 11.69,-11.592C11.455,-11.592 11.263,-11.514 11.113,-11.357C10.964,-11.201 10.889,-10.999 10.889,-10.752L10.889,-7.881L8.018,-7.881C7.764,-7.881 7.56,-7.804 7.407,-7.651C7.254,-7.498 7.178,-7.298 7.178,-7.051Z" style="fill-rule:nonzero;"/>
        </g>
        <g transform="matrix(1,0,0,1,305.646,1933)">
            <path d="M14.971,5.664C16.364,5.664 17.694,5.448 18.96,5.015C20.226,4.582 21.39,3.975 22.451,3.193C23.512,2.412 24.435,1.491 25.22,0.43C26.004,-0.632 26.613,-1.797 27.046,-3.066C27.479,-4.336 27.695,-5.664 27.695,-7.051C27.695,-8.444 27.479,-9.774 27.046,-11.04C26.613,-12.306 26.004,-13.47 25.22,-14.531C24.435,-15.592 23.512,-16.515 22.451,-17.3C21.39,-18.084 20.225,-18.693 18.955,-19.126C17.686,-19.559 16.354,-19.775 14.961,-19.775C13.568,-19.775 12.238,-19.559 10.972,-19.126C9.705,-18.693 8.543,-18.084 7.485,-17.3C6.427,-16.515 5.506,-15.592 4.722,-14.531C3.937,-13.47 3.33,-12.306 2.9,-11.04C2.471,-9.774 2.256,-8.444 2.256,-7.051C2.256,-5.664 2.472,-4.336 2.905,-3.066C3.338,-1.797 3.945,-0.632 4.727,0.43C5.508,1.491 6.429,2.412 7.49,3.193C8.551,3.975 9.715,4.582 10.981,5.015C12.248,5.448 13.578,5.664 14.971,5.664ZM14.971,3.848C13.766,3.848 12.619,3.664 11.528,3.296C10.438,2.928 9.44,2.412 8.535,1.748C7.63,1.084 6.844,0.298 6.177,-0.61C5.509,-1.519 4.993,-2.518 4.629,-3.608C4.264,-4.699 4.082,-5.846 4.082,-7.051C4.082,-8.262 4.264,-9.412 4.629,-10.503C4.993,-11.593 5.508,-12.593 6.172,-13.501C6.836,-14.409 7.62,-15.195 8.525,-15.859C9.43,-16.523 10.428,-17.038 11.519,-17.402C12.609,-17.767 13.756,-17.949 14.961,-17.949C16.172,-17.949 17.323,-17.767 18.413,-17.402C19.504,-17.038 20.503,-16.523 21.411,-15.859C22.319,-15.195 23.105,-14.409 23.77,-13.501C24.434,-12.593 24.95,-11.593 25.317,-10.503C25.685,-9.412 25.869,-8.262 25.869,-7.051C25.876,-5.846 25.697,-4.699 25.332,-3.608C24.967,-2.518 24.452,-1.519 23.784,-0.61C23.117,0.298 22.329,1.084 21.421,1.748C20.513,2.412 19.513,2.928 18.423,3.296C17.332,3.664 16.182,3.848 14.971,3.848ZM9.199,-7.051C9.199,-6.797 9.285,-6.587 9.458,-6.421C9.631,-6.255 9.85,-6.172 10.117,-6.172L14.063,-6.172L14.063,-2.217C14.063,-1.95 14.146,-1.73 14.312,-1.558C14.477,-1.385 14.691,-1.299 14.951,-1.299C15.218,-1.299 15.438,-1.383 15.61,-1.553C15.783,-1.722 15.869,-1.943 15.869,-2.217L15.869,-6.172L19.824,-6.172C20.091,-6.172 20.309,-6.255 20.479,-6.421C20.648,-6.587 20.732,-6.797 20.732,-7.051C20.732,-7.324 20.648,-7.546 20.479,-7.715C20.309,-7.884 20.091,-7.969 19.824,-7.969L15.869,-7.969L15.869,-11.914C15.869,-12.188 15.783,-12.41 15.61,-12.583C15.438,-12.756 15.218,-12.842 14.951,-12.842C14.691,-12.842 14.477,-12.756 14.312,-12.583C14.146,-12.41 14.063,-12.188 14.063,-11.914L14.063,-7.969L10.117,-7.969C9.844,-7.969 9.622,-7.884 9.453,-7.715C9.284,-7.546 9.199,-7.324 9.199,-7.051Z" style="fill-rule:nonzero;"/>
        </g>
        <g transform="matrix(1,0,0,1,263,1953)">
            <text x="0px" y="0px" style="font-family:'LucidaGrande-Bold', 'Lucida Grande', sans-serif;font-weight:600;font-size:13px;">Design Variations</text>
        </g>
        <g transform="matrix(1,0,0,1,263,1971)">
            <text x="0px" y="0px" style="font-family:'LucidaGrande', 'Lucida Grande', sans-serif;font-weight:500;font-size:13px;">Symbols are supported in up to nine weights and three scales.</text>
        </g>
        <g transform="matrix(1,0,0,1,263,1989)">
            <text x="0px" y="0px" style="font-family:'LucidaGrande', 'Lucida Grande', sans-serif;font-weight:500;font-size:13px;">For optimal layout with text and other symbols, vertically align</text>
        </g>
        <g transform="matrix(1,0,0,1,263,2007)">
            <text x="0px" y="0px" style="font-family:'LucidaGrande', 'Lucida Grande', sans-serif;font-weight:500;font-size:13px;">symbols with the adjacent text.</text>
        </g>
        <path d="M776,1919L776,1933" style="fill:none;fill-rule:nonzero;stroke:rgb(0,174,239);stroke-width:0.5px;"/>
        <g transform="matrix(1,0,0,1,776,1933)">
            <path d="M3.311,0.156C3.571,0.156 3.773,0.101 3.916,-0.01C4.059,-0.12 4.176,-0.313 4.268,-0.586L5.527,-4.033L11.289,-4.033L12.549,-0.586C12.64,-0.313 12.757,-0.12 12.9,-0.01C13.044,0.101 13.242,0.156 13.496,0.156C13.756,0.156 13.963,0.085 14.116,-0.059C14.269,-0.202 14.346,-0.397 14.346,-0.645C14.346,-0.794 14.31,-0.97 14.238,-1.172L9.658,-13.369C9.541,-13.669 9.382,-13.893 9.18,-14.043C8.978,-14.193 8.721,-14.268 8.408,-14.268C7.803,-14.268 7.393,-13.971 7.178,-13.379L2.598,-1.162C2.526,-0.96 2.49,-0.785 2.49,-0.635C2.49,-0.387 2.563,-0.194 2.71,-0.054C2.856,0.086 3.057,0.156 3.311,0.156ZM6.006,-5.518L8.379,-12.09L8.428,-12.09L10.801,-5.518L6.006,-5.518Z" style="fill-rule:nonzero;"/>
        </g>
        <path d="M793.197,1919L793.197,1933" style="fill:none;fill-rule:nonzero;stroke:rgb(0,174,239);stroke-width:0.5px;"/>
        <g transform="matrix(1,0,0,1,776,1953)">
            <text x="0px" y="0px" style="font-family:'LucidaGrande-Bold', 'Lucida Grande', sans-serif;font-weight:600;font-size:13px;">Margins</text>
        </g>
        <g transform="matrix(1,0,0,1,776,1971)">
            <text x="0px" y="0px" style="font-family:'LucidaGrande', 'Lucida Grande', sans-serif;font-weight:500;font-size:13px;">Leading and trailing margins on the left and right side of each symbol</text>
        </g>
        <g transform="matrix(1,0,0,1,776,1989)">
            <text x="0px" y="0px" style="font-family:'LucidaGrande', 'Lucida Grande', sans-serif;font-weight:500;font-size:13px;">can be adjusted by modifying the x-location of the margin guidelines.</text>
        </g>
        <g transform="matrix(1,0,0,1,776,2007)">
            <text x="0px" y="0px" style="font-family:'LucidaGrande', 'Lucida Grande', sans-serif;font-weight:500;font-size:13px;">Modiﬁcations are automatically applied proportionally to all</text>
        </g>
        <g transform="matrix(1,0,0,1,776,2025)">
            <text x="0px" y="0px" style="font-family:'LucidaGrande', 'Lucida Grande', sans-serif;font-weight:500;font-size:13px;">scales and weights.</text>
        </g>
        <g transform="matrix(1,0,0,1,1289,1933)">
            <path d="M2.842,1.865L4.541,3.574C4.971,4.01 5.425,4.212 5.903,4.18C6.382,4.147 6.852,3.874 7.314,3.359L18.008,-8.428L17.041,-9.404L6.426,2.275C6.25,2.477 6.073,2.591 5.894,2.617C5.715,2.643 5.508,2.539 5.273,2.305L4.102,1.143C3.867,0.908 3.765,0.701 3.794,0.522C3.823,0.343 3.939,0.163 4.141,-0.02L15.615,-10.82L14.639,-11.787L3.047,-0.898C2.552,-0.443 2.287,0.023 2.251,0.498C2.215,0.973 2.412,1.429 2.842,1.865ZM9.258,-16.328C9.049,-16.126 8.932,-15.895 8.906,-15.635C8.88,-15.374 8.926,-15.146 9.043,-14.951C9.16,-14.769 9.331,-14.632 9.556,-14.541C9.78,-14.45 10.055,-14.443 10.381,-14.522C11.11,-14.691 11.849,-14.761 12.598,-14.731C13.346,-14.702 14.079,-14.453 14.795,-13.984L14.209,-12.529C14.04,-12.113 13.993,-11.75 14.067,-11.44C14.142,-11.131 14.313,-10.84 14.58,-10.566L16.875,-8.252C17.116,-8.005 17.35,-7.861 17.578,-7.822C17.806,-7.783 18.06,-7.79 18.34,-7.842L19.404,-8.037L20.068,-7.363L20.029,-6.807C20.01,-6.559 20.041,-6.331 20.122,-6.123C20.203,-5.915 20.365,-5.69 20.606,-5.449L21.367,-4.707C21.608,-4.466 21.87,-4.341 22.153,-4.331C22.437,-4.321 22.695,-4.434 22.93,-4.668L25.84,-7.588C26.074,-7.822 26.188,-8.078 26.182,-8.354C26.175,-8.631 26.051,-8.89 25.811,-9.131L25.039,-9.893C24.805,-10.133 24.585,-10.298 24.38,-10.386C24.175,-10.474 23.952,-10.508 23.711,-10.488L23.135,-10.44L22.49,-11.074L22.734,-12.197C22.799,-12.477 22.786,-12.739 22.695,-12.983C22.604,-13.228 22.412,-13.496 22.119,-13.789L19.922,-15.977C19.089,-16.803 18.202,-17.424 17.261,-17.837C16.32,-18.25 15.373,-18.465 14.419,-18.481C13.465,-18.498 12.547,-18.324 11.665,-17.959C10.783,-17.594 9.98,-17.051 9.258,-16.328ZM10.752,-15.957C11.357,-16.4 12.007,-16.716 12.7,-16.904C13.394,-17.093 14.095,-17.153 14.805,-17.085C15.514,-17.017 16.203,-16.826 16.87,-16.514C17.537,-16.201 18.148,-15.765 18.701,-15.205L21.133,-12.793C21.25,-12.676 21.323,-12.562 21.353,-12.451C21.382,-12.341 21.377,-12.201 21.338,-12.031L21.016,-10.547L22.52,-9.063L23.506,-9.121C23.63,-9.128 23.724,-9.119 23.789,-9.097C23.854,-9.074 23.936,-9.014 24.033,-8.916L24.609,-8.34L22.168,-5.898L21.592,-6.475C21.494,-6.572 21.432,-6.654 21.406,-6.719C21.38,-6.784 21.37,-6.882 21.377,-7.012L21.445,-7.988L19.951,-9.473L18.428,-9.219C18.265,-9.186 18.136,-9.181 18.042,-9.204C17.948,-9.227 17.839,-9.297 17.715,-9.414L15.713,-11.416C15.583,-11.533 15.509,-11.646 15.493,-11.753C15.477,-11.86 15.508,-12.005 15.586,-12.188L16.465,-14.277C15.684,-15.007 14.805,-15.511 13.828,-15.791C12.852,-16.071 11.855,-16.061 10.84,-15.762C10.762,-15.742 10.711,-15.757 10.689,-15.806C10.666,-15.855 10.687,-15.905 10.752,-15.957Z" style="fill-rule:nonzero;"/>
        </g>
        <g transform="matrix(1,0,0,1,1289,1953)">
            <text x="0px" y="0px" style="font-family:'LucidaGrande-Bold', 'Lucida Grande', sans-serif;font-weight:600;font-size:13px;">Exporting</text>
        </g>
        <g transform="matrix(1,0,0,1,1289,1971)">
            <text x="0px" y="0px" style="font-family:'LucidaGrande', 'Lucida Grande', sans-serif;font-weight:500;font-size:13px;">Symbols should be outlined when exporting to ensure the</text>
        </g>
        <g transform="matrix(1,0,0,1,1289,1989)">
            <text x="0px" y="0px" style="font-family:'LucidaGrande', 'Lucida Grande', sans-serif;font-weight:500;font-size:13px;">design is preserved when submitting to Xcode.</text>
        </g>
        <g transform="matrix(1,0,0,1,2941.67,1933)">
            <g id="template-version">
                <text x="0px" y="0px" style="font-family:'LucidaGrande', 'Lucida Grande', sans-serif;font-weight:500;font-size:13px;">Template v.3.0</text>
            </g>
        </g>
        <g transform="matrix(1,0,0,1,2851.66,1951)">
            <text x="0px" y="0px" style="font-family:'LucidaGrande', 'Lucida Grande', sans-serif;font-weight:500;font-size:13px;">Requires Xcode 13 or greater</text>
        </g>
        <g transform="matrix(1,0,0,1,2860.73,1969)">
            <g id="descriptive-name">
                <text x="0px" y="0px" style="font-family:'LucidaGrande', 'Lucida Grande', sans-serif;font-weight:500;font-size:13px;">Generated from hammer.ﬁll</text>
            </g>
        </g>
        <g transform="matrix(1,0,0,1,2898.31,1987)">
            <text x="0px" y="0px" style="font-family:'LucidaGrande', 'Lucida Grande', sans-serif;font-weight:500;font-size:13px;">Typeset at 100 points</text>
        </g>
        <g transform="matrix(1,0,0,1,263,726)">
            <text x="0px" y="0px" style="font-family:'LucidaGrande', 'Lucida Grande', sans-serif;font-weight:500;font-size:13px;">Small</text>
        </g>
        <g transform="matrix(1,0,0,1,263,1156)">
            <text x="0px" y="0px" style="font-family:'LucidaGrande', 'Lucida Grande', sans-serif;font-weight:500;font-size:13px;">Medium</text>
        </g>
        <g transform="matrix(1,0,0,1,263,1586)">
            <text x="0px" y="0px" style="font-family:'LucidaGrande', 'Lucida Grande', sans-serif;font-weight:500;font-size:13px;">Large</text>
        </g>
    </g>
    <g id="Guides">
        <g id="H-reference" transform="matrix(1,0,0,1,339,696)">
            <path d="M0.977,0L3.662,0L29.346,-67.139L30.029,-67.139L30.029,-70.459L28.125,-70.459L0.977,0ZM11.67,-24.463L46.973,-24.463L46.24,-26.709L12.451,-26.709L11.67,-24.463ZM55.127,0L57.764,0L30.615,-70.459L29.443,-70.459L29.443,-67.139L55.127,0Z" style="fill:rgb(39,170,225);fill-rule:nonzero;"/>
        </g>
        <path id="Baseline-S" d="M263,696L3036,696" style="fill:none;fill-rule:nonzero;stroke:rgb(39,170,225);stroke-width:0.5px;"/>
        <path id="Capline-S" d="M263,625.541L3036,625.541" style="fill:none;fill-rule:nonzero;stroke:rgb(39,170,225);stroke-width:0.5px;"/>
        <g id="H-reference1" serif:id="H-reference" transform="matrix(1,0,0,1,339,1126)">
            <path d="M0.977,0L3.662,0L29.346,-67.139L30.029,-67.139L30.029,-70.459L28.125,-70.459L0.977,0ZM11.67,-24.463L46.973,-24.463L46.24,-26.709L12.451,-26.709L11.67,-24.463ZM55.127,0L57.764,0L30.615,-70.459L29.443,-70.459L29.443,-67.139L55.127,0Z" style="fill:rgb(39,170,225);fill-rule:nonzero;"/>
        </g>
        <path id="Baseline-M" d="M263,1126L3036,1126" style="fill:none;fill-rule:nonzero;stroke:rgb(39,170,225);stroke-width:0.5px;"/>
        <path id="Capline-M" d="M263,1055.54L3036,1055.54" style="fill:none;fill-rule:nonzero;stroke:rgb(39,170,225);stroke-width:0.5px;"/>
        <g id="H-reference2" serif:id="H-reference" transform="matrix(1,0,0,1,339,1556)">
            <path d="M0.977,0L3.662,0L29.346,-67.139L30.029,-67.139L30.029,-70.459L28.125,-70.459L0.977,0ZM11.67,-24.463L46.973,-24.463L46.24,-26.709L12.451,-26.709L11.67,-24.463ZM55.127,0L57.764,0L30.615,-70.459L29.443,-70.459L29.443,-67.139L55.127,0Z" style="fill:rgb(39,170,225);fill-rule:nonzero;"/>
        </g>
        <path id="Baseline-L" d="M263,1556L3036,1556" style="fill:none;fill-rule:nonzero;stroke:rgb(39,170,225);stroke-width:0.5px;"/>
        <path id="Capline-L" d="M263,1485.54L3036,1485.54" style="fill:none;fill-rule:nonzero;stroke:rgb(39,170,225);stroke-width:0.5px;"/>
        <path id="left-margin-Regular-M" d="M1378.36,1030.79L1378.36,1150.12" style="fill:none;fill-rule:nonzero;stroke:rgb(0,174,239);stroke-width:0.5px;"/>
        <path id="right-margin-Regular-M" d="M1521.33,1030.79L1521.33,1150.12" style="fill:none;fill-rule:nonzero;stroke:rgb(0,174,239);stroke-width:0.5px;"/>
    </g>
    <g id="Symbols">
        <g id="Black-L" transform="matrix(1,0,0,1,2832.96,1556)">
            <path d="M31.592,38.477C35.173,42.025 39.128,43.701 43.457,43.506C47.786,43.311 51.709,41.146 55.225,37.012L115.967,-34.228L92.285,-57.91L20.996,2.783C16.862,6.299 14.705,10.229 14.526,14.575C14.347,18.921 16.048,22.884 19.629,26.465L31.592,38.477ZM150.439,-22.315C152.75,-20.068 155.249,-18.905 157.935,-18.823C160.62,-18.742 163.021,-19.775 165.137,-21.924L183.398,-40.186C185.481,-42.301 186.474,-44.702 186.377,-47.388C186.279,-50.073 185.14,-52.555 182.959,-54.834L178.906,-59.033C177.767,-60.173 176.709,-61.011 175.732,-61.548C174.756,-62.085 173.763,-62.41 172.754,-62.524C171.745,-62.638 170.638,-62.646 169.434,-62.549L163.965,-61.963L160.254,-65.625L161.768,-72.266C162.419,-75.163 162.223,-77.995 161.182,-80.762C160.14,-83.529 158.203,-86.328 155.371,-89.16L143.359,-101.172C139.486,-105.013 135.018,-108.155 129.956,-110.596C124.894,-113.037 119.547,-114.722 113.916,-115.649C108.285,-116.577 102.653,-116.732 97.022,-116.113C91.39,-115.495 86.035,-114.071 80.957,-111.841C75.879,-109.611 71.403,-106.527 67.529,-102.588C65.479,-100.505 64.364,-98.275 64.185,-95.898C64.006,-93.522 64.502,-91.455 65.674,-89.697C66.781,-88.102 68.359,-86.922 70.41,-86.157C72.461,-85.392 74.837,-85.368 77.539,-86.084C82.682,-87.549 87.63,-88.403 92.383,-88.647C97.135,-88.892 101.318,-88.037 104.932,-86.084L101.807,-77.832C100.537,-74.512 100.155,-71.501 100.659,-68.799C101.164,-66.097 102.588,-63.542 104.932,-61.133L116.895,-49.121C119.434,-46.582 121.964,-44.865 124.487,-43.97C127.01,-43.075 129.736,-42.936 132.666,-43.555L139.697,-45.02L143.457,-41.309L142.676,-35.791C142.415,-34.033 142.521,-32.438 142.993,-31.006C143.465,-29.574 144.596,-27.995 146.387,-26.27L150.439,-22.315Z" style="fill-rule:nonzero;"/>
        </g>
        <g id="Heavy-L" transform="matrix(1,0,0,1,2538.35,1556)">
            <path d="M30.908,37.109C34.261,40.462 37.948,42.041 41.968,41.846C45.988,41.65 49.658,39.6 52.978,35.693L113.721,-34.863L91.357,-57.227L20.654,3.369C16.748,6.722 14.705,10.409 14.526,14.429C14.347,18.449 15.934,22.152 19.287,25.537L30.908,37.109ZM148.047,-21.973C150.098,-19.954 152.303,-18.913 154.663,-18.848C157.023,-18.783 159.147,-19.71 161.035,-21.631L179.492,-40.039C181.347,-41.96 182.234,-44.1 182.153,-46.46C182.072,-48.82 181.055,-51.009 179.102,-53.027L174.902,-57.373C173.828,-58.415 172.835,-59.196 171.924,-59.717C171.013,-60.238 170.085,-60.547 169.141,-60.645C168.197,-60.742 167.155,-60.758 166.016,-60.693L160.303,-60.059L156.25,-64.063L157.861,-71.143C158.48,-73.877 158.301,-76.546 157.324,-79.15C156.347,-81.755 154.524,-84.391 151.855,-87.061L139.6,-99.316C135.824,-103.06 131.478,-106.12 126.562,-108.496C121.647,-110.873 116.463,-112.525 111.011,-113.452C105.558,-114.38 100.098,-114.543 94.629,-113.94C89.16,-113.338 83.96,-111.955 79.028,-109.79C74.097,-107.625 69.743,-104.622 65.967,-100.781C64.046,-98.861 63.029,-96.818 62.915,-94.653C62.801,-92.489 63.298,-90.609 64.404,-89.014C65.413,-87.614 66.821,-86.589 68.628,-85.938C70.435,-85.286 72.51,-85.27 74.854,-85.889C80.225,-87.386 85.352,-88.224 90.234,-88.403C95.117,-88.582 99.479,-87.581 103.32,-85.4L99.756,-76.172C98.551,-73.047 98.202,-70.223 98.706,-67.7C99.211,-65.177 100.553,-62.809 102.734,-60.596L115.234,-48.047C117.448,-45.801 119.678,-44.295 121.924,-43.53C124.17,-42.765 126.644,-42.676 129.346,-43.262L137.012,-44.824L141.113,-40.772L140.381,-35.01C140.153,-33.317 140.251,-31.803 140.674,-30.469C141.097,-29.134 142.155,-27.669 143.848,-26.074L148.047,-21.973Z" style="fill-rule:nonzero;"/>
        </g>
        <g id="Bold-L" transform="matrix(1,0,0,1,2244.01,1556)">
            <path d="M30.127,35.645C33.285,38.77 36.686,40.234 40.332,40.039C43.978,39.844 47.38,37.923 50.537,34.277L111.182,-35.596L90.283,-56.494L20.264,4.053C16.618,7.178 14.705,10.571 14.526,14.233C14.347,17.896 15.82,21.305 18.945,24.463L30.127,35.645ZM145.361,-21.582C147.119,-19.857 148.999,-18.962 151.001,-18.897C153.003,-18.831 154.834,-19.629 156.494,-21.289L175.146,-39.941C176.774,-41.569 177.547,-43.392 177.466,-45.41C177.385,-47.428 176.514,-49.3 174.854,-51.025L170.459,-55.469C169.45,-56.478 168.53,-57.218 167.7,-57.69C166.87,-58.162 166.016,-58.447 165.137,-58.545C164.258,-58.643 163.281,-58.659 162.207,-58.594L156.201,-57.959L151.758,-62.305L153.516,-69.922C154.102,-72.428 153.947,-74.902 153.052,-77.344C152.157,-79.785 150.456,-82.259 147.949,-84.766L135.4,-97.217C131.722,-100.863 127.515,-103.85 122.778,-106.177C118.042,-108.504 113.037,-110.116 107.764,-111.011C102.49,-111.906 97.225,-112.069 91.968,-111.499C86.711,-110.93 81.698,-109.595 76.929,-107.495C72.16,-105.396 67.92,-102.474 64.209,-98.731C62.484,-97.005 61.589,-95.174 61.523,-93.237C61.458,-91.3 61.947,-89.648 62.988,-88.281C63.9,-87.109 65.129,-86.255 66.675,-85.718C68.221,-85.181 69.938,-85.173 71.826,-85.693C77.458,-87.256 82.788,-88.086 87.817,-88.184C92.847,-88.281 97.428,-87.109 101.562,-84.668L97.51,-74.316C96.37,-71.419 96.045,-68.815 96.533,-66.504C97.021,-64.193 98.258,-62.012 100.244,-59.961L113.33,-46.875C115.218,-44.987 117.13,-43.726 119.067,-43.091C121.004,-42.456 123.21,-42.399 125.684,-42.92L134.033,-44.629L138.477,-40.186L137.793,-34.18C137.63,-32.552 137.736,-31.128 138.11,-29.907C138.485,-28.687 139.437,-27.328 140.967,-25.83L145.361,-21.582Z" style="fill-rule:nonzero;"/>
        </g>
        <g id="Semibold-L" transform="matrix(1,0,0,1,1948.93,1556)">
            <path d="M29.541,34.57C32.568,37.565 35.775,38.957 39.16,38.745C42.546,38.534 45.752,36.702 48.779,33.252L109.424,-36.084L89.551,-55.957L20.02,4.492C16.504,7.487 14.657,10.693 14.477,14.111C14.298,17.529 15.706,20.736 18.701,23.731L29.541,34.57ZM143.457,-21.289C145.052,-19.759 146.729,-18.97 148.486,-18.921C150.244,-18.872 151.855,-19.58 153.32,-21.045L172.119,-39.795C173.584,-41.292 174.284,-42.928 174.219,-44.702C174.154,-46.476 173.372,-48.128 171.875,-49.658L167.334,-54.15C166.39,-55.094 165.527,-55.794 164.746,-56.25C163.965,-56.706 163.167,-56.982 162.354,-57.08C161.54,-57.178 160.596,-57.194 159.521,-57.129L153.32,-56.445L148.682,-61.084L150.488,-69.043C151.041,-71.419 150.895,-73.771 150.049,-76.099C149.202,-78.426 147.591,-80.778 145.215,-83.154L132.52,-95.801C128.907,-99.349 124.781,-102.262 120.142,-104.541C115.503,-106.82 110.62,-108.407 105.493,-109.302C100.366,-110.197 95.239,-110.368 90.112,-109.814C84.985,-109.261 80.094,-107.951 75.44,-105.884C70.785,-103.817 66.634,-100.96 62.988,-97.315C61.361,-95.719 60.539,-94.035 60.523,-92.261C60.506,-90.487 60.986,-88.981 61.963,-87.744C62.809,-86.735 63.916,-86.003 65.283,-85.547C66.65,-85.091 68.132,-85.075 69.727,-85.498C75.521,-87.093 80.99,-87.915 86.133,-87.964C91.276,-88.013 95.996,-86.735 100.293,-84.131L95.947,-73.047C94.84,-70.28 94.523,-67.814 94.995,-65.649C95.467,-63.485 96.647,-61.442 98.535,-59.522L112.012,-46.045C113.672,-44.385 115.365,-43.286 117.09,-42.749C118.815,-42.212 120.817,-42.188 123.096,-42.676L131.982,-44.434L136.621,-39.795L136.035,-33.594C135.872,-31.999 135.962,-30.623 136.304,-29.468C136.645,-28.312 137.549,-27.051 139.014,-25.684L143.457,-21.289Z" style="fill-rule:nonzero;"/>
        </g>
        <g id="Medium-L" transform="matrix(1,0,0,1,1653.44,1556)">
            <path d="M29.15,33.789C32.048,36.686 35.099,38.029 38.306,37.817C41.512,37.606 44.58,35.824 47.51,32.471L108.105,-36.475L89.014,-55.566L19.775,4.834C16.423,7.731 14.657,10.791 14.477,14.014C14.298,17.236 15.641,20.296 18.506,23.193L29.15,33.789ZM142.09,-21.094C143.522,-19.727 145.019,-19.01 146.582,-18.945C148.145,-18.88 149.593,-19.531 150.928,-20.898L169.873,-39.746C171.175,-41.081 171.802,-42.546 171.753,-44.141C171.704,-45.736 170.996,-47.217 169.629,-48.584L164.99,-53.174C164.111,-54.085 163.298,-54.753 162.549,-55.176C161.8,-55.599 161.035,-55.867 160.254,-55.981C159.473,-56.095 158.561,-56.103 157.52,-56.006L151.172,-55.371L146.338,-60.156L148.242,-68.359C148.763,-70.671 148.616,-72.941 147.803,-75.171C146.989,-77.401 145.443,-79.655 143.164,-81.934L130.322,-94.678C126.774,-98.193 122.721,-101.074 118.164,-103.32C113.607,-105.566 108.813,-107.137 103.784,-108.032C98.755,-108.927 93.726,-109.098 88.696,-108.545C83.667,-107.992 78.866,-106.706 74.292,-104.688C69.718,-102.669 65.641,-99.853 62.06,-96.24C60.531,-94.743 59.774,-93.172 59.79,-91.528C59.806,-89.884 60.287,-88.493 61.231,-87.354C62.012,-86.475 63.013,-85.832 64.233,-85.425C65.454,-85.018 66.764,-85.01 68.164,-85.4C74.089,-87.028 79.663,-87.842 84.888,-87.842C90.112,-87.842 94.938,-86.475 99.365,-83.74L94.775,-72.07C93.701,-69.401 93.4,-67.049 93.872,-65.015C94.344,-62.98 95.475,-61.051 97.266,-59.228L111.035,-45.41C112.5,-43.945 114.013,-42.985 115.576,-42.529C117.139,-42.074 119.01,-42.057 121.191,-42.481L130.42,-44.336L135.254,-39.453L134.668,-33.154C134.538,-31.592 134.628,-30.265 134.937,-29.175C135.246,-28.084 136.1,-26.872 137.5,-25.537L142.09,-21.094Z" style="fill-rule:nonzero;"/>
        </g>
        <g id="Regular-L" transform="matrix(1,0,0,1,1358.34,1556)">
            <path d="M28.613,32.764C31.348,35.498 34.196,36.759 37.158,36.548C40.12,36.336 43.001,34.652 45.801,31.494L106.396,-36.963L88.281,-55.078L19.531,5.273C16.341,8.04 14.657,10.913 14.477,13.892C14.298,16.87 15.56,19.727 18.262,22.461L28.613,32.764ZM140.234,-20.801C141.471,-19.629 142.749,-19.019 144.067,-18.97C145.386,-18.921 146.631,-19.482 147.803,-20.654L166.895,-39.648C168.034,-40.82 168.579,-42.082 168.53,-43.433C168.481,-44.784 167.871,-46.045 166.699,-47.217L161.963,-51.904C161.116,-52.751 160.343,-53.377 159.644,-53.784C158.944,-54.191 158.228,-54.443 157.495,-54.541C156.762,-54.639 155.908,-54.655 154.932,-54.59L148.389,-53.906L143.262,-58.984L145.264,-67.529C145.752,-69.678 145.622,-71.81 144.873,-73.926C144.124,-76.042 142.66,-78.174 140.479,-80.322L127.441,-93.262C123.958,-96.712 120.003,-99.536 115.576,-101.733C111.149,-103.93 106.486,-105.469 101.587,-106.348C96.688,-107.227 91.789,-107.406 86.89,-106.885C81.991,-106.364 77.311,-105.111 72.852,-103.125C68.392,-101.139 64.404,-98.388 60.889,-94.873C59.456,-93.473 58.773,-92.033 58.838,-90.552C58.903,-89.071 59.375,-87.826 60.254,-86.816C60.97,-86.1 61.849,-85.579 62.891,-85.254C63.932,-84.928 65.007,-84.928 66.113,-85.254C72.201,-86.914 77.905,-87.72 83.228,-87.671C88.55,-87.622 93.522,-86.133 98.144,-83.203L93.213,-70.801C92.204,-68.294 91.927,-66.089 92.383,-64.185C92.839,-62.28 93.896,-60.482 95.557,-58.789L109.766,-44.58C111.003,-43.343 112.296,-42.546 113.647,-42.188C114.998,-41.829 116.667,-41.846 118.652,-42.236L128.369,-44.19L133.447,-39.063L132.91,-32.568C132.813,-31.038 132.902,-29.769 133.179,-28.76C133.456,-27.751 134.245,-26.628 135.547,-25.391L140.234,-20.801Z" style="fill-rule:nonzero;"/>
        </g>
        <g id="Light-L" transform="matrix(1,0,0,1,1062.58,1556)">
            <path d="M28.272,32.568C30.908,35.205 33.602,36.426 36.353,36.231C39.103,36.035 41.846,34.424 44.58,31.397L106.104,-37.402L88.574,-54.932L19.336,6.152C16.276,8.854 14.657,11.589 14.477,14.355C14.298,17.122 15.511,19.841 18.115,22.51L28.272,32.568ZM139.307,-20.068C140.381,-19.027 141.48,-18.498 142.603,-18.481C143.726,-18.465 144.808,-18.978 145.85,-20.02L165.088,-39.209C166.129,-40.251 166.634,-41.341 166.602,-42.481C166.569,-43.62 166.048,-44.694 165.039,-45.703L160.156,-50.537C159.245,-51.449 158.423,-52.116 157.69,-52.539C156.958,-52.962 156.201,-53.231 155.42,-53.345C154.639,-53.459 153.678,-53.483 152.539,-53.418L147.168,-52.93L141.504,-58.545L143.262,-66.553C143.717,-68.701 143.628,-70.719 142.993,-72.607C142.358,-74.495 141.048,-76.384 139.062,-78.272L125.439,-91.846C122.021,-95.264 118.139,-98.055 113.794,-100.22C109.448,-102.385 104.891,-103.906 100.122,-104.785C95.353,-105.664 90.592,-105.86 85.84,-105.371C81.087,-104.883 76.554,-103.687 72.241,-101.782C67.928,-99.878 64.079,-97.233 60.693,-93.848C59.391,-92.546 58.74,-91.211 58.74,-89.844C58.74,-88.477 59.131,-87.321 59.912,-86.377C60.563,-85.693 61.377,-85.181 62.353,-84.839C63.33,-84.497 64.388,-84.473 65.527,-84.766C71.582,-86.165 77.254,-86.759 82.544,-86.548C87.834,-86.336 92.79,-84.652 97.412,-81.494L92.481,-69.531C91.504,-67.22 91.227,-65.169 91.65,-63.379C92.074,-61.589 93.066,-59.896 94.629,-58.301L109.033,-43.848C110.205,-42.676 111.401,-41.943 112.622,-41.65C113.843,-41.357 115.381,-41.39 117.236,-41.748L126.416,-43.555L132.031,-37.891L131.689,-32.52C131.624,-30.827 131.722,-29.46 131.982,-28.418C132.243,-27.376 133.073,-26.172 134.473,-24.805L139.307,-20.068Z" style="fill-rule:nonzero;"/>
        </g>
        <g id="Thin-L" transform="matrix(1,0,0,1,767.14,1556)">
            <path d="M27.783,32.324C30.29,34.863 32.788,36.043 35.278,35.864C37.769,35.685 40.332,34.131 42.969,31.201L105.762,-37.94L88.916,-54.785L19.092,7.324C16.162,9.928 14.624,12.484 14.477,14.99C14.331,17.497 15.495,20.003 17.969,22.51L27.783,32.324ZM138.135,-19.043C138.981,-18.229 139.827,-17.822 140.674,-17.822C141.52,-17.822 142.383,-18.278 143.262,-19.19L162.744,-38.623C163.623,-39.502 164.062,-40.373 164.062,-41.235C164.062,-42.098 163.672,-42.936 162.891,-43.75L157.764,-48.779C156.755,-49.756 155.859,-50.464 155.078,-50.903C154.297,-51.343 153.483,-51.619 152.637,-51.733C151.79,-51.847 150.716,-51.888 149.414,-51.856L145.508,-51.709L139.16,-58.008L140.625,-65.283C141.048,-67.367 141.008,-69.206 140.503,-70.801C139.998,-72.396 138.916,-74.007 137.256,-75.635L122.852,-89.941C119.466,-93.294 115.657,-96.045 111.426,-98.193C107.194,-100.342 102.783,-101.847 98.193,-102.71C93.604,-103.573 89.022,-103.784 84.448,-103.345C79.875,-102.906 75.529,-101.791 71.411,-100C67.293,-98.21 63.639,-95.703 60.449,-92.481C59.277,-91.309 58.659,-90.112 58.594,-88.892C58.529,-87.671 58.838,-86.621 59.522,-85.742C60.042,-85.124 60.75,-84.644 61.646,-84.302C62.541,-83.96 63.558,-83.887 64.697,-84.082C70.752,-85.189 76.4,-85.531 81.641,-85.107C86.882,-84.684 91.829,-82.731 96.484,-79.248L91.455,-67.822C90.544,-65.804 90.275,-63.973 90.649,-62.329C91.024,-60.685 91.927,-59.115 93.359,-57.617L108.057,-42.871C109.131,-41.797 110.189,-41.146 111.23,-40.918C112.272,-40.69 113.639,-40.739 115.332,-41.065L123.877,-42.725L130.176,-36.377L130.078,-32.471C130.013,-30.55 130.11,-29.045 130.371,-27.954C130.632,-26.864 131.527,-25.57 133.057,-24.072L138.135,-19.043Z" style="fill-rule:nonzero;"/>
        </g>
        <g id="Ultralight-L" transform="matrix(1,0,0,1,471.088,1556)">
            <path d="M27.539,32.227C29.981,34.668 32.373,35.807 34.717,35.645C37.061,35.482 39.535,33.984 42.139,31.152L105.566,-38.232L89.111,-54.688L18.994,7.959C16.13,10.498 14.624,12.948 14.477,15.308C14.331,17.668 15.462,20.085 17.871,22.559L27.539,32.227ZM137.5,-18.555C138.216,-17.806 138.932,-17.448 139.648,-17.481C140.365,-17.513 141.13,-17.936 141.943,-18.75L161.523,-38.33C162.337,-39.144 162.752,-39.909 162.769,-40.625C162.785,-41.341 162.451,-42.041 161.768,-42.725L156.494,-47.852C155.453,-48.893 154.533,-49.642 153.735,-50.098C152.938,-50.553 152.1,-50.838 151.221,-50.952C150.342,-51.066 149.202,-51.09 147.803,-51.025L144.678,-51.025L137.988,-57.715L139.258,-64.6C139.649,-66.715 139.632,-68.49 139.209,-69.922C138.786,-71.354 137.809,-72.786 136.279,-74.219L121.484,-89.014C118.131,-92.334 114.372,-95.052 110.205,-97.168C106.038,-99.284 101.701,-100.773 97.192,-101.636C92.684,-102.499 88.192,-102.726 83.716,-102.319C79.24,-101.912 75,-100.838 70.996,-99.097C66.992,-97.355 63.428,-94.922 60.303,-91.797C59.229,-90.69 58.643,-89.567 58.545,-88.428C58.447,-87.288 58.691,-86.296 59.277,-85.449C59.766,-84.831 60.441,-84.351 61.304,-84.009C62.166,-83.667 63.167,-83.577 64.307,-83.74C70.361,-84.684 75.993,-84.888 81.201,-84.351C86.41,-83.813 91.341,-81.722 95.996,-78.076L90.967,-66.943C90.055,-65.055 89.779,-63.33 90.137,-61.768C90.495,-60.205 91.357,-58.708 92.725,-57.275L107.568,-42.334C108.577,-41.357 109.562,-40.771 110.522,-40.576C111.483,-40.381 112.76,-40.43 114.355,-40.723L122.559,-42.285L129.248,-35.596L129.248,-32.422C129.215,-30.404 129.321,-28.833 129.565,-27.71C129.81,-26.587 130.729,-25.244 132.324,-23.682L137.5,-18.555Z" style="fill-rule:nonzero;"/>
        </g>
        <g id="Black-M" transform="matrix(1,0,0,1,2854.1,1126)">
            <path d="M24.951,22.949C27.881,25.846 31.128,27.23 34.692,27.1C38.257,26.969 41.455,25.212 44.287,21.826L91.699,-34.082L72.412,-53.369L16.504,-5.957C13.119,-3.092 11.361,0.122 11.23,3.687C11.1,7.251 12.5,10.498 15.43,13.428L24.951,22.949ZM118.311,-25.244C120.264,-23.356 122.388,-22.38 124.683,-22.315C126.978,-22.249 129.02,-23.128 130.811,-24.951L144.824,-39.014C146.582,-40.804 147.428,-42.847 147.363,-45.142C147.298,-47.437 146.354,-49.544 144.531,-51.465L141.406,-54.639C140.007,-56.071 138.705,-56.958 137.5,-57.3C136.295,-57.642 134.944,-57.747 133.447,-57.617L129.785,-57.227L127.002,-59.961L128.027,-64.6C128.548,-66.943 128.394,-69.214 127.563,-71.411C126.733,-73.608 125.179,-75.846 122.9,-78.125L113.623,-87.451C110.563,-90.511 107.023,-93.001 103.003,-94.922C98.983,-96.842 94.735,-98.169 90.259,-98.901C85.783,-99.634 81.315,-99.756 76.856,-99.268C72.396,-98.779 68.164,-97.656 64.16,-95.898C60.156,-94.141 56.641,-91.715 53.613,-88.623C51.921,-86.93 50.977,-85.091 50.781,-83.106C50.586,-81.12 50.944,-79.378 51.856,-77.881C52.767,-76.449 54.11,-75.399 55.884,-74.731C57.658,-74.064 59.749,-74.04 62.158,-74.658C65.934,-75.667 69.613,-76.27 73.193,-76.465C76.774,-76.66 79.867,-76.058 82.471,-74.658L80.371,-69.238C79.329,-66.569 79.004,-64.128 79.394,-61.914C79.785,-59.701 80.957,-57.601 82.91,-55.615L91.797,-46.68C93.978,-44.466 96.143,-42.969 98.291,-42.188C100.44,-41.406 102.735,-41.26 105.176,-41.748L109.863,-42.773L112.695,-40.039L112.109,-36.279C111.882,-34.847 111.971,-33.521 112.378,-32.3C112.785,-31.079 113.737,-29.736 115.234,-28.272L118.311,-25.244Z" style="fill-rule:nonzero;"/>
        </g>
        <g id="Heavy-M" transform="matrix(1,0,0,1,2559.25,1126)">
            <path d="M24.365,21.68C27.1,24.414 30.119,25.708 33.423,25.562C36.727,25.415 39.714,23.763 42.383,20.606L89.551,-34.619L71.436,-52.734L16.211,-5.566C13.021,-2.865 11.361,0.13 11.23,3.418C11.1,6.706 12.402,9.733 15.137,12.5L24.365,21.68ZM116.162,-25.049C117.887,-23.389 119.767,-22.526 121.802,-22.461C123.837,-22.396 125.651,-23.177 127.246,-24.805L141.406,-39.014C142.969,-40.576 143.717,-42.375 143.652,-44.409C143.587,-46.444 142.741,-48.307 141.113,-50L137.891,-53.272C136.621,-54.606 135.441,-55.428 134.351,-55.737C133.26,-56.047 132.015,-56.152 130.615,-56.055L126.465,-55.566L123.486,-58.545L124.658,-63.721C125.147,-65.902 125,-68.034 124.219,-70.117C123.438,-72.201 121.956,-74.333 119.775,-76.514L110.4,-85.938C107.405,-88.9 103.963,-91.317 100.073,-93.189C96.183,-95.06 92.074,-96.354 87.744,-97.07C83.415,-97.786 79.085,-97.908 74.756,-97.437C70.426,-96.965 66.317,-95.874 62.427,-94.165C58.537,-92.456 55.111,-90.088 52.148,-87.061C50.553,-85.498 49.691,-83.813 49.561,-82.007C49.43,-80.2 49.805,-78.63 50.684,-77.295C51.53,-76.09 52.726,-75.203 54.273,-74.634C55.819,-74.064 57.617,-74.04 59.668,-74.561C63.672,-75.667 67.529,-76.302 71.24,-76.465C74.951,-76.628 78.223,-75.928 81.055,-74.365L78.565,-67.871C77.588,-65.365 77.287,-63.086 77.661,-61.035C78.036,-58.984 79.134,-57.031 80.957,-55.176L90.332,-45.801C92.22,-43.88 94.116,-42.578 96.021,-41.895C97.925,-41.211 100,-41.097 102.246,-41.553L107.666,-42.725L110.693,-39.746L110.107,-35.547C109.944,-34.18 110.042,-32.943 110.4,-31.836C110.759,-30.729 111.621,-29.508 112.988,-28.174L116.162,-25.049Z" style="fill-rule:nonzero;"/>
        </g>
        <g id="Bold-M" transform="matrix(1,0,0,1,2264.59,1126)">
            <path d="M23.682,20.264C26.221,22.803 28.988,23.999 31.982,23.853C34.977,23.706 37.744,22.152 40.283,19.19L87.207,-35.205L70.361,-52.051L15.918,-5.176C12.956,-2.637 11.401,0.13 11.255,3.125C11.108,6.12 12.305,8.903 14.844,11.475L23.682,20.264ZM113.77,-24.854C115.267,-23.421 116.879,-22.673 118.604,-22.607C120.329,-22.542 121.891,-23.226 123.291,-24.658L137.646,-38.965C138.981,-40.332 139.616,-41.886 139.551,-43.628C139.486,-45.369 138.753,-46.973 137.354,-48.438L134.033,-51.807C132.829,-52.979 131.747,-53.711 130.786,-54.004C129.826,-54.297 128.711,-54.395 127.441,-54.297L122.754,-53.76L119.531,-56.934L120.898,-62.695C121.354,-64.714 121.216,-66.716 120.483,-68.701C119.751,-70.687 118.36,-72.689 116.309,-74.707L106.787,-84.229C103.89,-87.126 100.569,-89.486 96.826,-91.309C93.083,-93.132 89.119,-94.393 84.937,-95.093C80.754,-95.793 76.579,-95.915 72.412,-95.459C68.245,-95.003 64.274,-93.937 60.498,-92.261C56.722,-90.584 53.385,-88.281 50.488,-85.352C49.056,-83.919 48.307,-82.406 48.242,-80.811C48.177,-79.216 48.568,-77.832 49.414,-76.66C50.163,-75.684 51.188,-74.967 52.49,-74.512C53.792,-74.056 55.257,-74.04 56.885,-74.463C61.149,-75.7 65.21,-76.375 69.067,-76.489C72.925,-76.603 76.4,-75.781 79.492,-74.023L76.563,-66.406C75.619,-64.03 75.342,-61.906 75.732,-60.034C76.123,-58.162 77.132,-56.38 78.76,-54.688L88.672,-44.775C90.267,-43.18 91.878,-42.114 93.506,-41.577C95.134,-41.04 96.956,-40.967 98.975,-41.357L105.273,-42.676L108.496,-39.453L107.91,-34.717C107.78,-33.48 107.87,-32.365 108.179,-31.372C108.488,-30.379 109.261,-29.297 110.498,-28.125L113.77,-24.854Z" style="fill-rule:nonzero;"/>
        </g>
        <g id="Semibold-M" transform="matrix(1,0,0,1,1969.29,1126)">
            <path d="M23.242,19.287C25.618,21.696 28.198,22.819 30.981,22.656C33.765,22.493 36.361,21.012 38.77,18.213L85.547,-35.596L69.629,-51.514L15.674,-4.883C12.874,-2.441 11.401,0.163 11.255,2.93C11.108,5.697 12.24,8.301 14.648,10.742L23.242,19.287ZM112.109,-24.707C113.444,-23.437 114.868,-22.77 116.382,-22.705C117.895,-22.64 119.271,-23.242 120.508,-24.512L135.01,-38.965C136.214,-40.169 136.784,-41.545 136.719,-43.091C136.654,-44.637 135.986,-46.045 134.717,-47.315L131.299,-50.732C130.192,-51.839 129.208,-52.523 128.345,-52.783C127.482,-53.044 126.449,-53.141 125.244,-53.076L120.215,-52.441L116.797,-55.811L118.262,-62.012C118.717,-63.9 118.595,-65.796 117.896,-67.7C117.196,-69.604 115.869,-71.533 113.916,-73.486L104.248,-83.057C101.449,-85.856 98.218,-88.151 94.556,-89.941C90.894,-91.732 87.036,-92.977 82.983,-93.677C78.931,-94.377 74.87,-94.499 70.801,-94.043C66.732,-93.587 62.85,-92.546 59.155,-90.918C55.461,-89.29 52.181,-87.044 49.316,-84.18C47.982,-82.845 47.315,-81.445 47.315,-79.981C47.315,-78.516 47.705,-77.262 48.486,-76.221C49.17,-75.374 50.081,-74.764 51.221,-74.39C52.36,-74.015 53.613,-74.023 54.981,-74.414C59.408,-75.684 63.599,-76.367 67.554,-76.465C71.509,-76.562 75.114,-75.667 78.369,-73.779L75.147,-65.332C74.268,-63.053 74.015,-61.043 74.39,-59.302C74.764,-57.56 75.716,-55.908 77.246,-54.346L87.5,-44.092C88.867,-42.725 90.283,-41.805 91.748,-41.333C93.213,-40.861 94.873,-40.804 96.729,-41.162L103.564,-42.627L106.934,-39.258L106.396,-34.131C106.266,-32.959 106.339,-31.925 106.616,-31.03C106.893,-30.135 107.601,-29.134 108.74,-28.027L112.109,-24.707Z" style="fill-rule:nonzero;"/>
        </g>
        <g id="Medium-M" transform="matrix(1,0,0,1,1673.66,1126)">
            <path d="M22.852,18.555C25.163,20.866 27.629,21.932 30.249,21.753C32.869,21.574 35.352,20.15 37.695,17.481L84.277,-35.938L69.043,-51.172L15.479,-4.688C12.809,-2.311 11.401,0.179 11.255,2.783C11.108,5.387 12.175,7.861 14.453,10.205L22.852,18.555ZM110.84,-24.609C112.077,-23.47 113.362,-22.868 114.697,-22.803C116.032,-22.738 117.285,-23.275 118.457,-24.414L133.008,-38.916C134.115,-40.023 134.635,-41.268 134.57,-42.651C134.505,-44.035 133.887,-45.296 132.715,-46.436L129.297,-49.951C128.223,-50.993 127.287,-51.636 126.489,-51.88C125.692,-52.124 124.723,-52.214 123.584,-52.148L118.262,-51.514L114.746,-54.981L116.309,-61.475C116.732,-63.298 116.601,-65.12 115.918,-66.943C115.235,-68.766 113.965,-70.622 112.109,-72.51L102.393,-82.178C99.626,-84.945 96.452,-87.207 92.871,-88.965C89.29,-90.723 85.506,-91.943 81.519,-92.627C77.531,-93.311 73.551,-93.433 69.58,-92.993C65.609,-92.554 61.8,-91.528 58.154,-89.917C54.508,-88.306 51.27,-86.084 48.438,-83.252C47.168,-81.982 46.549,-80.68 46.582,-79.346C46.615,-78.011 47.021,-76.856 47.803,-75.879C48.454,-75.163 49.284,-74.642 50.293,-74.316C51.302,-73.991 52.376,-73.991 53.516,-74.316C58.073,-75.684 62.37,-76.408 66.406,-76.489C70.443,-76.571 74.154,-75.618 77.539,-73.633L74.072,-64.551C73.226,-62.37 72.99,-60.449 73.364,-58.789C73.739,-57.129 74.658,-55.566 76.123,-54.102L86.621,-43.555C87.858,-42.35 89.128,-41.553 90.43,-41.162C91.732,-40.772 93.262,-40.739 95.019,-41.065L102.295,-42.578L105.762,-39.063L105.225,-33.74C105.127,-32.601 105.2,-31.608 105.444,-30.762C105.689,-29.915 106.348,-28.988 107.422,-27.979L110.84,-24.609Z" style="fill-rule:nonzero;"/>
        </g>
        <g id="Regular-M" transform="matrix(0.129498,0.0202385,-0.0202385,0.129498,1396.1,1012.87)">
            <path d="M286.502,626.394L710.25,71.076C725.29,51.366 816.261,30.885 840.069,49.052C863.877,67.219 868.138,160.37 853.098,180.08L429.35,735.397C462.27,761.938 493.69,787.956 497.803,793.793C509.394,810.247 552.037,955.903 523.739,950.222C508.182,947.099 396.071,865.879 326.517,814.669L216.607,958.705C207.202,971.03 189.56,973.401 177.235,963.996L132.572,929.914C120.246,920.509 117.876,902.867 127.281,890.542L237.19,746.507C169.435,692.939 61.5,606.248 54.38,592.067C41.43,566.273 193.176,568.95 212.106,575.786C218.823,578.212 252.211,601.648 286.502,626.394Z"/>
        </g>
        <g id="Light-M" transform="matrix(1,0,0,1,1082.5,1126)">
            <path d="M22.07,17.432C24.154,19.515 26.318,20.475 28.565,20.313C30.811,20.15 32.992,18.864 35.107,16.455L82.422,-36.719L68.555,-50.586L15.137,-3.564C12.695,-1.416 11.401,0.773 11.255,3.003C11.108,5.233 12.077,7.406 14.16,9.521L22.07,17.432ZM108.398,-23.779C109.31,-22.933 110.238,-22.493 111.182,-22.461C112.126,-22.428 113.054,-22.852 113.965,-23.731L128.809,-38.525C129.655,-39.372 130.062,-40.291 130.029,-41.284C129.996,-42.277 129.541,-43.197 128.662,-44.043L125,-47.705C123.926,-48.747 123.015,-49.382 122.266,-49.609C121.517,-49.837 120.541,-49.919 119.336,-49.853L114.6,-49.365L110.498,-53.516L111.914,-59.912C112.305,-61.605 112.223,-63.224 111.67,-64.771C111.117,-66.317 110.042,-67.887 108.447,-69.482L98.144,-79.736C95.475,-82.406 92.44,-84.587 89.038,-86.279C85.636,-87.972 82.048,-89.152 78.272,-89.819C74.495,-90.487 70.744,-90.625 67.017,-90.234C63.289,-89.844 59.717,-88.892 56.299,-87.378C52.881,-85.864 49.837,-83.789 47.168,-81.152C46.094,-80.078 45.573,-78.988 45.606,-77.881C45.638,-76.774 45.98,-75.83 46.631,-75.049C47.152,-74.528 47.811,-74.137 48.608,-73.877C49.406,-73.617 50.228,-73.6 51.074,-73.828C55.794,-75.033 60.205,-75.586 64.307,-75.488C68.408,-75.391 72.249,-74.17 75.83,-71.826L72.022,-62.353C71.24,-60.498 71.021,-58.854 71.362,-57.422C71.704,-55.99 72.51,-54.622 73.779,-53.32L84.863,-42.188C85.807,-41.309 86.776,-40.731 87.769,-40.454C88.761,-40.177 90.007,-40.186 91.504,-40.478L98.877,-41.992L102.979,-37.842L102.637,-33.106C102.572,-31.901 102.645,-30.9 102.856,-30.103C103.068,-29.305 103.695,-28.402 104.736,-27.393L108.398,-23.779Z" style="fill-rule:nonzero;"/>
        </g>
        <g id="Thin-M" transform="matrix(1,0,0,1,786.94,1126)">
            <path d="M21.68,17.188C23.633,19.173 25.602,20.093 27.588,19.946C29.574,19.8 31.592,18.587 33.643,16.309L82.08,-37.207L68.897,-50.391L14.893,-2.49C12.581,-0.439 11.369,1.579 11.255,3.564C11.141,5.55 12.044,7.536 13.965,9.521L21.68,17.188ZM107.324,-22.9C108.008,-22.249 108.708,-21.916 109.424,-21.899C110.14,-21.883 110.872,-22.249 111.621,-22.998L126.66,-37.988C127.376,-38.704 127.734,-39.429 127.734,-40.161C127.734,-40.894 127.392,-41.602 126.709,-42.285L122.803,-46.094C121.631,-47.233 120.646,-47.917 119.849,-48.145C119.051,-48.372 117.936,-48.486 116.504,-48.486L113.135,-48.242L108.398,-53.027L109.57,-58.789C109.896,-60.449 109.855,-61.922 109.448,-63.208C109.041,-64.494 108.154,-65.788 106.787,-67.09L95.801,-78.076C93.164,-80.68 90.194,-82.813 86.89,-84.473C83.586,-86.133 80.127,-87.305 76.514,-87.988C72.9,-88.672 69.312,-88.827 65.747,-88.452C62.183,-88.078 58.781,-87.183 55.542,-85.767C52.303,-84.351 49.43,-82.389 46.924,-79.883C45.98,-78.971 45.492,-78.019 45.459,-77.026C45.426,-76.034 45.687,-75.195 46.24,-74.512C46.663,-74.023 47.233,-73.641 47.949,-73.364C48.665,-73.088 49.463,-73.047 50.342,-73.242C55.062,-74.154 59.448,-74.463 63.501,-74.17C67.554,-73.877 71.387,-72.428 75,-69.824L71.143,-60.84C70.394,-59.245 70.166,-57.788 70.459,-56.47C70.752,-55.151 71.484,-53.906 72.656,-52.734L83.984,-41.309C84.831,-40.495 85.677,-39.99 86.523,-39.795C87.37,-39.6 88.477,-39.632 89.844,-39.893L96.582,-41.211L101.318,-36.475L101.172,-33.106C101.139,-31.673 101.221,-30.534 101.416,-29.688C101.611,-28.841 102.295,-27.865 103.467,-26.758L107.324,-22.9Z" style="fill-rule:nonzero;"/>
        </g>
        <g id="Ultralight-M" transform="matrix(1,0,0,1,490.815,1126)">
            <path d="M21.436,17.09C23.356,19.01 25.252,19.906 27.124,19.775C28.996,19.645 30.924,18.457 32.91,16.211L81.885,-37.451L69.043,-50.342L14.795,-1.953C12.549,0.065 11.369,2.002 11.255,3.857C11.141,5.713 12.028,7.617 13.916,9.57L21.436,17.09ZM106.787,-22.461C107.373,-21.875 107.959,-21.59 108.545,-21.606C109.131,-21.623 109.749,-21.956 110.4,-22.607L125.537,-37.744C126.22,-38.395 126.57,-39.014 126.587,-39.6C126.603,-40.186 126.318,-40.771 125.732,-41.357L121.729,-45.313C120.492,-46.484 119.466,-47.184 118.652,-47.412C117.839,-47.64 116.651,-47.754 115.088,-47.754L112.402,-47.656L107.324,-52.783L108.35,-58.203C108.675,-59.831 108.659,-61.222 108.301,-62.378C107.943,-63.533 107.162,-64.697 105.957,-65.869L94.58,-77.197C91.976,-79.769 89.054,-81.885 85.815,-83.545C82.576,-85.205 79.183,-86.369 75.635,-87.036C72.087,-87.703 68.579,-87.866 65.112,-87.524C61.646,-87.183 58.341,-86.328 55.2,-84.961C52.059,-83.594 49.268,-81.689 46.826,-79.248C45.947,-78.402 45.475,-77.515 45.41,-76.587C45.345,-75.659 45.557,-74.886 46.045,-74.268C46.436,-73.779 46.973,-73.397 47.656,-73.12C48.34,-72.843 49.121,-72.786 50,-72.949C54.687,-73.73 59.049,-73.926 63.086,-73.535C67.122,-73.145 70.964,-71.549 74.609,-68.75L70.654,-60.059C69.971,-58.594 69.759,-57.243 70.019,-56.006C70.28,-54.769 70.964,-53.581 72.07,-52.441L83.545,-40.869C84.359,-40.12 85.14,-39.657 85.889,-39.478C86.637,-39.299 87.663,-39.339 88.965,-39.6L95.41,-40.869L100.488,-35.791L100.439,-33.057C100.407,-31.527 100.489,-30.33 100.684,-29.468C100.879,-28.605 101.579,-27.572 102.783,-26.367L106.787,-22.461Z" style="fill-rule:nonzero;"/>
        </g>
        <g id="Black-S" transform="matrix(1,0,0,1,2870.78,696)">
            <path d="M19.727,10.742C22.038,13.053 24.626,14.152 27.49,14.038C30.355,13.924 32.926,12.533 35.205,9.863L72.461,-34.18L57.031,-49.609L12.988,-12.354C10.286,-10.075 8.887,-7.503 8.789,-4.639C8.691,-1.774 9.814,0.83 12.158,3.174L19.727,10.742ZM93.311,-27.441C94.906,-25.911 96.631,-25.114 98.486,-25.049C100.342,-24.984 102.002,-25.7 103.467,-27.197L114.404,-38.184C115.837,-39.648 116.528,-41.309 116.479,-43.164C116.43,-45.02 115.657,-46.729 114.16,-48.291L111.768,-50.781C110.629,-51.953 109.562,-52.677 108.569,-52.954C107.576,-53.231 106.478,-53.304 105.273,-53.174L102.637,-52.93L100.488,-55.029L101.221,-58.447C102.034,-62.126 100.683,-65.723 97.168,-69.238L89.893,-76.514C86.865,-79.541 83.268,-81.86 79.102,-83.472C74.935,-85.083 70.597,-85.954 66.089,-86.084C61.58,-86.214 57.251,-85.571 53.101,-84.155C48.95,-82.739 45.394,-80.518 42.432,-77.49C41.097,-76.123 40.332,-74.642 40.137,-73.047C39.941,-71.452 40.218,-70.036 40.967,-68.799C41.683,-67.627 42.765,-66.756 44.214,-66.187C45.662,-65.617 47.396,-65.592 49.414,-66.113C52.311,-66.862 55.135,-67.31 57.886,-67.456C60.636,-67.603 63.005,-67.155 64.99,-66.113L63.477,-62.207C62.63,-60.091 62.362,-58.146 62.671,-56.372C62.98,-54.598 63.916,-52.913 65.478,-51.318L72.315,-44.434C74.105,-42.643 75.879,-41.414 77.637,-40.747C79.394,-40.08 81.25,-39.958 83.203,-40.381L86.621,-41.113L88.818,-39.014L88.379,-36.279C88.184,-35.107 88.249,-34.033 88.574,-33.057C88.9,-32.08 89.681,-30.99 90.918,-29.785L93.311,-27.441Z" style="fill-rule:nonzero;"/>
        </g>
        <g id="Heavy-S" transform="matrix(1,0,0,1,2575.53,696)">
            <path d="M19.238,9.668C21.419,11.849 23.836,12.883 26.489,12.769C29.142,12.655 31.559,11.344 33.74,8.838L70.654,-34.57L56.152,-49.072L12.793,-12.158C10.221,-9.977 8.887,-7.56 8.789,-4.907C8.691,-2.254 9.749,0.163 11.963,2.344L19.238,9.668ZM91.602,-27.393C93.001,-26.025 94.531,-25.309 96.191,-25.244C97.852,-25.179 99.333,-25.814 100.635,-27.148L111.719,-38.232C112.988,-39.534 113.599,-41.007 113.55,-42.651C113.501,-44.295 112.81,-45.833 111.475,-47.266L108.984,-49.756C107.943,-50.83 106.974,-51.497 106.079,-51.758C105.184,-52.018 104.199,-52.083 103.125,-51.953L99.951,-51.611L97.656,-53.857L98.584,-57.813C99.365,-61.263 98.063,-64.681 94.678,-68.066L87.354,-75.391C84.391,-78.32 80.892,-80.575 76.856,-82.153C72.819,-83.732 68.62,-84.587 64.258,-84.717C59.896,-84.847 55.688,-84.22 51.636,-82.837C47.583,-81.453 44.108,-79.264 41.211,-76.269C39.941,-75 39.242,-73.641 39.111,-72.192C38.981,-70.744 39.274,-69.466 39.99,-68.359C40.674,-67.35 41.65,-66.61 42.92,-66.138C44.189,-65.666 45.671,-65.658 47.363,-66.113C50.456,-66.96 53.434,-67.456 56.299,-67.603C59.163,-67.749 61.686,-67.236 63.867,-66.065L62.012,-61.182C61.198,-59.163 60.946,-57.332 61.255,-55.689C61.564,-54.045 62.451,-52.49 63.916,-51.025L71.143,-43.75C72.705,-42.187 74.268,-41.121 75.83,-40.552C77.393,-39.982 79.069,-39.893 80.859,-40.283L84.961,-41.113L87.256,-38.916L86.816,-35.645C86.654,-34.57 86.719,-33.594 87.012,-32.715C87.305,-31.836 88.005,-30.859 89.111,-29.785L91.602,-27.393Z" style="fill-rule:nonzero;"/>
        </g>
        <g id="Bold-S" transform="matrix(1,0,0,1,2280.46,696)">
            <path d="M18.701,8.496C20.752,10.514 22.99,11.458 25.415,11.328C27.84,11.198 30.062,9.977 32.08,7.666L68.652,-35.059L55.225,-48.535L12.549,-11.914C10.173,-9.896 8.927,-7.674 8.813,-5.249C8.7,-2.824 9.668,-0.586 11.719,1.465L18.701,8.496ZM89.648,-27.295C90.885,-26.123 92.212,-25.505 93.628,-25.44C95.044,-25.374 96.338,-25.928 97.51,-27.1L108.691,-38.281C109.798,-39.388 110.327,-40.658 110.278,-42.09C110.229,-43.522 109.619,-44.857 108.447,-46.094L105.859,-48.682C104.948,-49.626 104.101,-50.212 103.32,-50.44C102.539,-50.667 101.676,-50.732 100.732,-50.635L96.924,-50.195L94.531,-52.539L95.606,-57.08C96.354,-60.303 95.101,-63.542 91.846,-66.797L84.522,-74.121C81.657,-76.986 78.28,-79.183 74.39,-80.713C70.5,-82.243 66.447,-83.073 62.231,-83.203C58.016,-83.333 53.947,-82.715 50.024,-81.348C46.102,-79.98 42.692,-77.848 39.795,-74.951C38.656,-73.779 38.053,-72.542 37.988,-71.24C37.923,-69.938 38.232,-68.815 38.916,-67.871C39.535,-67.057 40.381,-66.463 41.455,-66.089C42.529,-65.715 43.734,-65.723 45.068,-66.113C48.389,-67.09 51.546,-67.643 54.541,-67.773C57.536,-67.904 60.221,-67.318 62.598,-66.016L60.4,-60.107C59.652,-58.187 59.432,-56.47 59.741,-54.956C60.05,-53.442 60.872,-52.018 62.207,-50.684L69.824,-43.018C71.126,-41.716 72.453,-40.828 73.804,-40.356C75.155,-39.884 76.644,-39.827 78.272,-40.186L83.154,-41.162L85.547,-38.818L85.107,-34.961C84.977,-33.984 85.034,-33.114 85.278,-32.349C85.522,-31.584 86.133,-30.729 87.109,-29.785L89.648,-27.295Z" style="fill-rule:nonzero;"/>
        </g>
        <g id="Semibold-S" transform="matrix(1,0,0,1,1984.87,696)">
            <path d="M18.311,7.666C20.264,9.587 22.371,10.482 24.634,10.352C26.896,10.221 28.988,9.049 30.908,6.836L67.285,-35.352L54.541,-48.096L12.354,-11.719C10.107,-9.798 8.919,-7.707 8.789,-5.444C8.659,-3.182 9.57,-1.09 11.523,0.83L18.311,7.666ZM88.33,-27.246C89.437,-26.172 90.617,-25.602 91.87,-25.537C93.123,-25.472 94.271,-25.977 95.313,-27.051L106.592,-38.281C107.569,-39.29 108.032,-40.43 107.983,-41.699C107.934,-42.969 107.389,-44.157 106.348,-45.264L103.711,-47.9C102.897,-48.747 102.132,-49.276 101.416,-49.487C100.7,-49.699 99.919,-49.756 99.072,-49.658L94.824,-49.17L92.334,-51.611L93.555,-56.543C94.271,-59.635 93.05,-62.76 89.893,-65.918L82.568,-73.242C79.769,-76.042 76.473,-78.19 72.681,-79.688C68.888,-81.185 64.933,-81.999 60.815,-82.129C56.698,-82.259 52.718,-81.657 48.877,-80.322C45.036,-78.988 41.683,-76.872 38.818,-73.975C37.744,-72.9 37.199,-71.769 37.183,-70.581C37.166,-69.393 37.5,-68.376 38.184,-67.529C38.77,-66.846 39.526,-66.349 40.454,-66.04C41.382,-65.731 42.399,-65.739 43.506,-66.065C46.956,-67.139 50.228,-67.741 53.32,-67.871C56.413,-68.001 59.212,-67.367 61.719,-65.967L59.228,-59.326C58.512,-57.471 58.309,-55.835 58.618,-54.419C58.927,-53.003 59.717,-51.676 60.986,-50.44L68.897,-42.481C70.003,-41.341 71.159,-40.576 72.363,-40.186C73.568,-39.795 74.935,-39.762 76.465,-40.088L81.885,-41.162L84.375,-38.721L83.887,-34.473C83.789,-33.561 83.846,-32.756 84.058,-32.056C84.269,-31.356 84.814,-30.583 85.693,-29.736L88.33,-27.246Z" style="fill-rule:nonzero;"/>
        </g>
        <g id="Medium-S" transform="matrix(1,0,0,1,1689.01,696)">
            <path d="M18.066,7.031C19.922,8.887 21.916,9.741 24.048,9.595C26.18,9.448 28.174,8.317 30.029,6.201L66.211,-35.596L54.004,-47.803L12.207,-11.572C10.059,-9.749 8.919,-7.772 8.789,-5.64C8.659,-3.507 9.522,-1.497 11.377,0.391L18.066,7.031ZM87.305,-27.197C88.314,-26.221 89.388,-25.7 90.527,-25.635C91.667,-25.57 92.708,-26.025 93.652,-27.002L104.98,-38.281C105.892,-39.193 106.323,-40.234 106.274,-41.406C106.225,-42.578 105.713,-43.652 104.736,-44.629L102.1,-47.315C101.319,-48.096 100.602,-48.584 99.951,-48.779C99.3,-48.975 98.584,-49.04 97.803,-48.975L93.262,-48.389L90.674,-50.928L91.992,-56.152C92.708,-59.115 91.52,-62.142 88.428,-65.234L81.104,-72.607C78.337,-75.342 75.098,-77.441 71.387,-78.906C67.676,-80.371 63.794,-81.169 59.741,-81.299C55.688,-81.429 51.774,-80.835 47.998,-79.517C44.222,-78.198 40.918,-76.123 38.086,-73.291C37.044,-72.282 36.54,-71.216 36.572,-70.093C36.605,-68.97 36.947,-68.034 37.598,-67.285C38.151,-66.699 38.843,-66.276 39.673,-66.016C40.503,-65.755 41.374,-65.772 42.285,-66.065C45.866,-67.204 49.235,-67.83 52.393,-67.944C55.55,-68.058 58.447,-67.383 61.084,-65.918L58.398,-58.74C57.715,-56.917 57.528,-55.339 57.837,-54.004C58.146,-52.669 58.887,-51.416 60.059,-50.244L68.213,-42.09C69.189,-41.081 70.223,-40.405 71.314,-40.064C72.404,-39.722 73.665,-39.714 75.098,-40.039L80.957,-41.211L83.447,-38.672L82.959,-34.131C82.894,-33.285 82.951,-32.536 83.13,-31.885C83.309,-31.234 83.805,-30.518 84.619,-29.736L87.305,-27.197Z" style="fill-rule:nonzero;"/>
        </g>
        <g id="Regular-S" transform="matrix(1,0,0,1,1393.42,696)">
            <path d="M17.676,6.201C19.434,7.959 21.305,8.765 23.291,8.618C25.277,8.472 27.148,7.406 28.906,5.42L64.844,-35.889L53.369,-47.412L12.06,-11.426C10.01,-9.668 8.919,-7.804 8.789,-5.835C8.659,-3.866 9.473,-2.002 11.23,-0.244L17.676,6.201ZM85.986,-27.148C86.865,-26.302 87.793,-25.846 88.769,-25.781C89.746,-25.716 90.658,-26.107 91.504,-26.953L102.93,-38.33C103.711,-39.111 104.077,-40.007 104.028,-41.016C103.979,-42.025 103.532,-42.969 102.686,-43.848L99.951,-46.533C99.268,-47.249 98.641,-47.697 98.071,-47.876C97.502,-48.055 96.875,-48.112 96.191,-48.047L91.211,-47.412L88.525,-50.049L89.99,-55.664C90.674,-58.464 89.518,-61.361 86.523,-64.356L79.15,-71.729C76.449,-74.398 73.291,-76.457 69.678,-77.905C66.064,-79.354 62.288,-80.143 58.35,-80.273C54.411,-80.404 50.594,-79.818 46.899,-78.516C43.205,-77.214 39.958,-75.163 37.158,-72.363C36.182,-71.419 35.734,-70.443 35.815,-69.434C35.897,-68.424 36.247,-67.594 36.865,-66.943C37.386,-66.488 37.988,-66.162 38.672,-65.967C39.356,-65.771 40.039,-65.804 40.723,-66.065C44.434,-67.269 47.917,-67.928 51.172,-68.042C54.427,-68.156 57.438,-67.432 60.205,-65.869L57.275,-57.959C56.624,-56.234 56.453,-54.744 56.763,-53.491C57.072,-52.238 57.78,-51.074 58.887,-50L67.285,-41.553C68.099,-40.739 68.978,-40.194 69.922,-39.917C70.866,-39.64 71.989,-39.648 73.291,-39.941L79.688,-41.211L82.275,-38.574L81.787,-33.643C81.722,-32.861 81.771,-32.186 81.934,-31.616C82.096,-31.047 82.536,-30.42 83.252,-29.736L85.986,-27.148Z" style="fill-rule:nonzero;"/>
        </g>
        <g id="Light-S" transform="matrix(1,0,0,1,1097.47,696)">
            <path d="M17.383,6.055C19.076,7.747 20.833,8.529 22.656,8.398C24.479,8.268 26.237,7.243 27.93,5.322L64.648,-36.231L53.565,-47.315L11.914,-10.693C9.961,-9.001 8.919,-7.251 8.789,-5.444C8.659,-3.638 9.44,-1.888 11.133,-0.195L17.383,6.055ZM85.254,-26.563C86.003,-25.814 86.784,-25.423 87.598,-25.391C88.412,-25.358 89.193,-25.7 89.941,-26.416L101.514,-37.988C102.197,-38.672 102.523,-39.437 102.49,-40.283C102.457,-41.13 102.083,-41.927 101.367,-42.676L98.535,-45.459C97.754,-46.24 97.07,-46.72 96.484,-46.899C95.898,-47.078 95.166,-47.152 94.287,-47.119L90.234,-46.68L87.109,-49.707L88.379,-54.932C88.997,-57.568 88.005,-60.173 85.4,-62.744L77.588,-70.606C74.919,-73.242 71.826,-75.269 68.311,-76.685C64.795,-78.101 61.141,-78.882 57.349,-79.028C53.556,-79.175 49.886,-78.63 46.338,-77.393C42.79,-76.156 39.681,-74.202 37.012,-71.533C36.133,-70.687 35.71,-69.8 35.742,-68.872C35.775,-67.944 36.068,-67.188 36.621,-66.602C37.077,-66.146 37.622,-65.82 38.257,-65.625C38.892,-65.43 39.551,-65.446 40.234,-65.674C43.945,-66.683 47.412,-67.179 50.635,-67.163C53.857,-67.147 56.869,-66.26 59.668,-64.502L56.69,-56.934C56.071,-55.404 55.9,-54.053 56.177,-52.881C56.453,-51.709 57.113,-50.618 58.154,-49.609L66.699,-40.967C67.448,-40.218 68.245,-39.73 69.092,-39.502C69.938,-39.274 70.964,-39.29 72.168,-39.551L78.125,-40.723L81.152,-37.647L80.811,-33.594C80.745,-32.682 80.794,-31.925 80.957,-31.323C81.12,-30.721 81.608,-30.046 82.422,-29.297L85.254,-26.563Z" style="fill-rule:nonzero;"/>
        </g>
        <g id="Thin-S" transform="matrix(1,0,0,1,801.784,696)">
            <path d="M17.041,5.908C18.604,7.471 20.19,8.195 21.802,8.081C23.413,7.967 25.033,6.999 26.66,5.176L64.356,-36.67L53.857,-47.168L11.719,-9.766C9.863,-8.138 8.887,-6.527 8.789,-4.932C8.691,-3.337 9.424,-1.758 10.986,-0.195L17.041,5.908ZM84.277,-25.732C84.863,-25.179 85.457,-24.894 86.06,-24.878C86.662,-24.862 87.272,-25.163 87.891,-25.781L99.609,-37.5C100.228,-38.086 100.529,-38.68 100.513,-39.282C100.496,-39.884 100.195,-40.478 99.609,-41.065L96.631,-44.043C95.752,-44.922 94.995,-45.451 94.36,-45.63C93.726,-45.809 92.871,-45.882 91.797,-45.85L88.916,-45.654L85.303,-49.268L86.279,-53.906C86.8,-56.38 86.019,-58.626 83.936,-60.645L75.488,-69.092C72.884,-71.663 69.889,-73.649 66.504,-75.049C63.119,-76.449 59.619,-77.23 56.006,-77.393C52.393,-77.555 48.909,-77.067 45.557,-75.928C42.204,-74.788 39.29,-72.966 36.816,-70.459C36.035,-69.71 35.645,-68.937 35.645,-68.14C35.645,-67.342 35.856,-66.667 36.279,-66.113C36.637,-65.723 37.101,-65.422 37.671,-65.21C38.241,-64.998 38.867,-64.974 39.551,-65.137C43.262,-65.918 46.712,-66.211 49.902,-66.016C53.092,-65.82 56.087,-64.714 58.887,-62.695L55.859,-55.615C55.306,-54.281 55.151,-53.084 55.396,-52.026C55.64,-50.968 56.217,-49.984 57.129,-49.072L65.967,-40.186C66.618,-39.535 67.293,-39.119 67.993,-38.94C68.693,-38.761 69.58,-38.786 70.654,-39.014L76.123,-40.039L79.688,-36.475L79.541,-33.594C79.508,-32.487 79.565,-31.608 79.712,-30.957C79.858,-30.306 80.387,-29.541 81.299,-28.662L84.277,-25.732Z" style="fill-rule:nonzero;"/>
        </g>
        <g id="Ultralight-S" transform="matrix(1,0,0,1,505.585,696)">
            <path d="M16.846,5.811C18.376,7.308 19.881,8.008 21.362,7.91C22.843,7.813 24.382,6.868 25.977,5.078L64.209,-36.865L54.004,-47.07L11.621,-9.277C9.831,-7.715 8.887,-6.185 8.789,-4.688C8.691,-3.19 9.391,-1.676 10.889,-0.146L16.846,5.811ZM83.789,-25.342C84.277,-24.854 84.774,-24.618 85.278,-24.634C85.783,-24.65 86.296,-24.902 86.816,-25.391L98.682,-37.256C99.202,-37.777 99.463,-38.289 99.463,-38.794C99.463,-39.299 99.219,-39.795 98.731,-40.283L95.654,-43.311C94.71,-44.222 93.921,-44.767 93.286,-44.946C92.651,-45.125 91.732,-45.215 90.527,-45.215L88.281,-45.166L84.326,-49.072L85.205,-53.418C85.693,-55.762 85.026,-57.813 83.203,-59.57L74.414,-68.311C71.842,-70.882 68.905,-72.86 65.601,-74.243C62.297,-75.627 58.879,-76.4 55.347,-76.563C51.815,-76.725 48.429,-76.261 45.19,-75.171C41.951,-74.08 39.128,-72.331 36.719,-69.922C36.003,-69.206 35.628,-68.481 35.596,-67.749C35.563,-67.017 35.742,-66.39 36.133,-65.869C36.458,-65.478 36.881,-65.186 37.402,-64.99C37.923,-64.795 38.525,-64.746 39.209,-64.844C42.92,-65.495 46.362,-65.682 49.536,-65.405C52.71,-65.129 55.713,-63.916 58.545,-61.768L55.469,-54.932C54.948,-53.727 54.793,-52.62 55.005,-51.611C55.216,-50.602 55.762,-49.658 56.641,-48.779L65.576,-39.795C66.195,-39.176 66.821,-38.794 67.456,-38.648C68.091,-38.501 68.896,-38.525 69.873,-38.721L75.049,-39.697L78.906,-35.84L78.857,-33.545C78.825,-32.373 78.882,-31.453 79.028,-30.786C79.175,-30.119 79.736,-29.313 80.713,-28.369L83.789,-25.342Z" style="fill-rule:nonzero;"/>
        </g>
    </g>
</svg>
