<?xml version="1.0" encoding="UTF-8" standalone="no"?>
<!DOCTYPE svg PUBLIC "-//W3C//DTD SVG 1.1//EN" "http://www.w3.org/Graphics/SVG/1.1/DTD/svg11.dtd">
<svg width="100%" height="100%" viewBox="0 0 3300 2200" version="1.1" xmlns="http://www.w3.org/2000/svg" xmlns:xlink="http://www.w3.org/1999/xlink" xml:space="preserve" xmlns:serif="http://www.serif.com/" style="fill-rule:evenodd;clip-rule:evenodd;">
    <g id="Notes">
        <rect id="artboard" x="0" y="0" width="3300" height="2200" style="fill:white;"/>
        <path d="M263,292L3036,292" style="fill:none;fill-rule:nonzero;stroke:black;stroke-width:0.5px;"/>
        <g transform="matrix(1,0,0,1,263,322)">
            <text x="0px" y="0px" style="font-family:'LucidaGrande-Bold', 'Lucida Grande', sans-serif;font-weight:600;font-size:13px;">Weight/Scale Variations</text>
        </g>
        <g transform="matrix(1,0,0,1,530.372,322)">
            <text x="0px" y="0px" style="font-family:'LucidaGrande', 'Lucida Grande', sans-serif;font-weight:500;font-size:13px;">Ultralight</text>
        </g>
        <g transform="matrix(1,0,0,1,842.365,322)">
            <text x="0px" y="0px" style="font-family:'LucidaGrande', 'Lucida Grande', sans-serif;font-weight:500;font-size:13px;">Thin</text>
        </g>
        <g transform="matrix(1,0,0,1,1137.27,322)">
            <text x="0px" y="0px" style="font-family:'LucidaGrande', 'Lucida Grande', sans-serif;font-weight:500;font-size:13px;">Light</text>
        </g>
        <g transform="matrix(1,0,0,1,1425.89,322)">
            <text x="0px" y="0px" style="font-family:'LucidaGrande', 'Lucida Grande', sans-serif;font-weight:500;font-size:13px;">Regular</text>
        </g>
        <g transform="matrix(1,0,0,1,1721.27,322)">
            <text x="0px" y="0px" style="font-family:'LucidaGrande', 'Lucida Grande', sans-serif;font-weight:500;font-size:13px;">Medium</text>
        </g>
        <g transform="matrix(1,0,0,1,2014.15,322)">
            <text x="0px" y="0px" style="font-family:'LucidaGrande', 'Lucida Grande', sans-serif;font-weight:500;font-size:13px;">Semibold</text>
        </g>
        <g transform="matrix(1,0,0,1,2326.28,322)">
            <text x="0px" y="0px" style="font-family:'LucidaGrande', 'Lucida Grande', sans-serif;font-weight:500;font-size:13px;">Bold</text>
        </g>
        <g transform="matrix(1,0,0,1,2617.94,322)">
            <text x="0px" y="0px" style="font-family:'LucidaGrande', 'Lucida Grande', sans-serif;font-weight:500;font-size:13px;">Heavy</text>
        </g>
        <g transform="matrix(1,0,0,1,2917.06,322)">
            <text x="0px" y="0px" style="font-family:'LucidaGrande', 'Lucida Grande', sans-serif;font-weight:500;font-size:13px;">Black</text>
        </g>
        <path d="M263,1903L3036,1903" style="fill:none;fill-rule:nonzero;stroke:black;stroke-width:0.5px;"/>
        <g transform="matrix(1,0,0,1,263,1933)">
            <path d="M9.248,0.83C10.329,0.83 11.344,0.625 12.295,0.215C13.245,-0.195 14.084,-0.765 14.81,-1.494C15.535,-2.223 16.105,-3.063 16.519,-4.014C16.932,-4.964 17.139,-5.977 17.139,-7.051C17.139,-8.125 16.932,-9.137 16.519,-10.088C16.105,-11.038 15.534,-11.878 14.805,-12.607C14.076,-13.337 13.236,-13.906 12.285,-14.316C11.335,-14.727 10.319,-14.932 9.238,-14.932C8.164,-14.932 7.152,-14.727 6.201,-14.316C5.251,-13.906 4.414,-13.337 3.691,-12.607C2.969,-11.878 2.401,-11.038 1.987,-10.088C1.574,-9.137 1.367,-8.125 1.367,-7.051C1.367,-5.977 1.574,-4.964 1.987,-4.014C2.401,-3.063 2.97,-2.223 3.696,-1.494C4.422,-0.765 5.26,-0.195 6.211,0.215C7.161,0.625 8.174,0.83 9.248,0.83ZM9.248,-0.654C8.363,-0.654 7.534,-0.819 6.763,-1.147C5.991,-1.476 5.314,-1.934 4.731,-2.52C4.149,-3.105 3.693,-3.786 3.364,-4.561C3.035,-5.335 2.871,-6.165 2.871,-7.051C2.871,-7.936 3.034,-8.766 3.359,-9.541C3.685,-10.316 4.139,-10.996 4.722,-11.582C5.304,-12.168 5.981,-12.625 6.753,-12.954C7.524,-13.283 8.353,-13.447 9.238,-13.447C10.13,-13.447 10.962,-13.283 11.733,-12.954C12.505,-12.625 13.184,-12.168 13.77,-11.582C14.355,-10.996 14.814,-10.316 15.147,-9.541C15.479,-8.766 15.645,-7.936 15.645,-7.051C15.645,-6.165 15.48,-5.335 15.151,-4.561C14.823,-3.786 14.367,-3.105 13.784,-2.52C13.202,-1.934 12.523,-1.476 11.748,-1.147C10.973,-0.819 10.14,-0.654 9.248,-0.654ZM5.654,-7.051C5.654,-6.836 5.723,-6.662 5.859,-6.528C5.996,-6.395 6.178,-6.328 6.406,-6.328L8.516,-6.328L8.516,-4.209C8.516,-3.994 8.581,-3.817 8.711,-3.677C8.841,-3.537 9.017,-3.467 9.238,-3.467C9.453,-3.467 9.631,-3.537 9.771,-3.677C9.91,-3.817 9.98,-3.994 9.98,-4.209L9.98,-6.328L12.09,-6.328C12.311,-6.328 12.49,-6.395 12.627,-6.528C12.764,-6.662 12.832,-6.836 12.832,-7.051C12.832,-7.272 12.764,-7.451 12.627,-7.588C12.49,-7.725 12.311,-7.793 12.09,-7.793L9.98,-7.793L9.98,-9.902C9.98,-10.124 9.91,-10.304 9.771,-10.444C9.631,-10.584 9.453,-10.654 9.238,-10.654C9.017,-10.654 8.841,-10.584 8.711,-10.444C8.581,-10.304 8.516,-10.124 8.516,-9.902L8.516,-7.793L6.406,-7.793C6.178,-7.793 5.996,-7.725 5.859,-7.588C5.723,-7.451 5.654,-7.272 5.654,-7.051Z" style="fill-rule:nonzero;"/>
        </g>
        <g transform="matrix(1,0,0,1,281.867,1933)">
            <path d="M11.709,2.91C13.07,2.91 14.351,2.65 15.552,2.129C16.753,1.608 17.813,0.889 18.731,-0.029C19.648,-0.947 20.368,-2.007 20.889,-3.208C21.409,-4.409 21.67,-5.69 21.67,-7.051C21.67,-8.411 21.409,-9.692 20.889,-10.894C20.368,-12.095 19.648,-13.154 18.731,-14.072C17.813,-14.99 16.751,-15.71 15.547,-16.23C14.342,-16.751 13.06,-17.012 11.699,-17.012C10.339,-17.012 9.058,-16.751 7.856,-16.23C6.655,-15.71 5.597,-14.99 4.683,-14.072C3.768,-13.154 3.05,-12.095 2.529,-10.894C2.008,-9.692 1.748,-8.411 1.748,-7.051C1.748,-5.69 2.008,-4.409 2.529,-3.208C3.05,-2.007 3.77,-0.947 4.688,-0.029C5.605,0.889 6.665,1.608 7.866,2.129C9.067,2.65 10.348,2.91 11.709,2.91ZM11.709,1.25C10.557,1.25 9.479,1.035 8.477,0.605C7.474,0.176 6.593,-0.418 5.835,-1.177C5.076,-1.935 4.484,-2.816 4.058,-3.818C3.631,-4.821 3.418,-5.898 3.418,-7.051C3.418,-8.203 3.631,-9.281 4.058,-10.283C4.484,-11.286 5.075,-12.168 5.83,-12.93C6.585,-13.691 7.464,-14.286 8.467,-14.712C9.469,-15.138 10.547,-15.352 11.699,-15.352C12.852,-15.352 13.929,-15.138 14.932,-14.712C15.934,-14.286 16.816,-13.691 17.578,-12.93C18.34,-12.168 18.936,-11.286 19.365,-10.283C19.795,-9.281 20.01,-8.203 20.01,-7.051C20.01,-5.898 19.797,-4.821 19.37,-3.818C18.944,-2.816 18.351,-1.935 17.593,-1.177C16.834,-0.418 15.952,0.176 14.946,0.605C13.94,1.035 12.861,1.25 11.709,1.25ZM7.178,-7.051C7.178,-6.816 7.256,-6.624 7.412,-6.475C7.568,-6.325 7.77,-6.25 8.018,-6.25L10.889,-6.25L10.889,-3.369C10.889,-3.122 10.964,-2.922 11.113,-2.769C11.263,-2.616 11.455,-2.539 11.69,-2.539C11.937,-2.539 12.137,-2.616 12.29,-2.769C12.443,-2.922 12.52,-3.122 12.52,-3.369L12.52,-6.25L15.4,-6.25C15.648,-6.25 15.848,-6.325 16.001,-6.475C16.154,-6.624 16.23,-6.816 16.23,-7.051C16.23,-7.298 16.154,-7.498 16.001,-7.651C15.848,-7.804 15.648,-7.881 15.4,-7.881L12.52,-7.881L12.52,-10.752C12.52,-11.006 12.443,-11.209 12.29,-11.362C12.137,-11.515 11.937,-11.592 11.69,-11.592C11.455,-11.592 11.263,-11.514 11.113,-11.357C10.964,-11.201 10.889,-10.999 10.889,-10.752L10.889,-7.881L8.018,-7.881C7.764,-7.881 7.56,-7.804 7.407,-7.651C7.254,-7.498 7.178,-7.298 7.178,-7.051Z" style="fill-rule:nonzero;"/>
        </g>
        <g transform="matrix(1,0,0,1,305.646,1933)">
            <path d="M14.971,5.664C16.364,5.664 17.694,5.448 18.96,5.015C20.226,4.582 21.39,3.975 22.451,3.193C23.512,2.412 24.435,1.491 25.22,0.43C26.004,-0.632 26.613,-1.797 27.046,-3.066C27.479,-4.336 27.695,-5.664 27.695,-7.051C27.695,-8.444 27.479,-9.774 27.046,-11.04C26.613,-12.306 26.004,-13.47 25.22,-14.531C24.435,-15.592 23.512,-16.515 22.451,-17.3C21.39,-18.084 20.225,-18.693 18.955,-19.126C17.686,-19.559 16.354,-19.775 14.961,-19.775C13.568,-19.775 12.238,-19.559 10.972,-19.126C9.705,-18.693 8.543,-18.084 7.485,-17.3C6.427,-16.515 5.506,-15.592 4.722,-14.531C3.937,-13.47 3.33,-12.306 2.9,-11.04C2.471,-9.774 2.256,-8.444 2.256,-7.051C2.256,-5.664 2.472,-4.336 2.905,-3.066C3.338,-1.797 3.945,-0.632 4.727,0.43C5.508,1.491 6.429,2.412 7.49,3.193C8.551,3.975 9.715,4.582 10.981,5.015C12.248,5.448 13.578,5.664 14.971,5.664ZM14.971,3.848C13.766,3.848 12.619,3.664 11.528,3.296C10.438,2.928 9.44,2.412 8.535,1.748C7.63,1.084 6.844,0.298 6.177,-0.61C5.509,-1.519 4.993,-2.518 4.629,-3.608C4.264,-4.699 4.082,-5.846 4.082,-7.051C4.082,-8.262 4.264,-9.412 4.629,-10.503C4.993,-11.593 5.508,-12.593 6.172,-13.501C6.836,-14.409 7.62,-15.195 8.525,-15.859C9.43,-16.523 10.428,-17.038 11.519,-17.402C12.609,-17.767 13.756,-17.949 14.961,-17.949C16.172,-17.949 17.323,-17.767 18.413,-17.402C19.504,-17.038 20.503,-16.523 21.411,-15.859C22.319,-15.195 23.105,-14.409 23.77,-13.501C24.434,-12.593 24.95,-11.593 25.317,-10.503C25.685,-9.412 25.869,-8.262 25.869,-7.051C25.876,-5.846 25.697,-4.699 25.332,-3.608C24.967,-2.518 24.452,-1.519 23.784,-0.61C23.117,0.298 22.329,1.084 21.421,1.748C20.513,2.412 19.513,2.928 18.423,3.296C17.332,3.664 16.182,3.848 14.971,3.848ZM9.199,-7.051C9.199,-6.797 9.285,-6.587 9.458,-6.421C9.631,-6.255 9.85,-6.172 10.117,-6.172L14.063,-6.172L14.063,-2.217C14.063,-1.95 14.146,-1.73 14.312,-1.558C14.477,-1.385 14.691,-1.299 14.951,-1.299C15.218,-1.299 15.438,-1.383 15.61,-1.553C15.783,-1.722 15.869,-1.943 15.869,-2.217L15.869,-6.172L19.824,-6.172C20.091,-6.172 20.309,-6.255 20.479,-6.421C20.648,-6.587 20.732,-6.797 20.732,-7.051C20.732,-7.324 20.648,-7.546 20.479,-7.715C20.309,-7.884 20.091,-7.969 19.824,-7.969L15.869,-7.969L15.869,-11.914C15.869,-12.188 15.783,-12.41 15.61,-12.583C15.438,-12.756 15.218,-12.842 14.951,-12.842C14.691,-12.842 14.477,-12.756 14.312,-12.583C14.146,-12.41 14.063,-12.188 14.063,-11.914L14.063,-7.969L10.117,-7.969C9.844,-7.969 9.622,-7.884 9.453,-7.715C9.284,-7.546 9.199,-7.324 9.199,-7.051Z" style="fill-rule:nonzero;"/>
        </g>
        <g transform="matrix(1,0,0,1,263,1953)">
            <text x="0px" y="0px" style="font-family:'LucidaGrande-Bold', 'Lucida Grande', sans-serif;font-weight:600;font-size:13px;">Design Variations</text>
        </g>
        <g transform="matrix(1,0,0,1,263,1971)">
            <text x="0px" y="0px" style="font-family:'LucidaGrande', 'Lucida Grande', sans-serif;font-weight:500;font-size:13px;">Symbols are supported in up to nine weights and three scales.</text>
        </g>
        <g transform="matrix(1,0,0,1,263,1989)">
            <text x="0px" y="0px" style="font-family:'LucidaGrande', 'Lucida Grande', sans-serif;font-weight:500;font-size:13px;">For optimal layout with text and other symbols, vertically align</text>
        </g>
        <g transform="matrix(1,0,0,1,263,2007)">
            <text x="0px" y="0px" style="font-family:'LucidaGrande', 'Lucida Grande', sans-serif;font-weight:500;font-size:13px;">symbols with the adjacent text.</text>
        </g>
        <path d="M776,1919L776,1933" style="fill:none;fill-rule:nonzero;stroke:rgb(0,174,239);stroke-width:0.5px;"/>
        <g transform="matrix(1,0,0,1,776,1933)">
            <path d="M3.311,0.156C3.571,0.156 3.773,0.101 3.916,-0.01C4.059,-0.12 4.176,-0.313 4.268,-0.586L5.527,-4.033L11.289,-4.033L12.549,-0.586C12.64,-0.313 12.757,-0.12 12.9,-0.01C13.044,0.101 13.242,0.156 13.496,0.156C13.756,0.156 13.963,0.085 14.116,-0.059C14.269,-0.202 14.346,-0.397 14.346,-0.645C14.346,-0.794 14.31,-0.97 14.238,-1.172L9.658,-13.369C9.541,-13.669 9.382,-13.893 9.18,-14.043C8.978,-14.193 8.721,-14.268 8.408,-14.268C7.803,-14.268 7.393,-13.971 7.178,-13.379L2.598,-1.162C2.526,-0.96 2.49,-0.785 2.49,-0.635C2.49,-0.387 2.563,-0.194 2.71,-0.054C2.856,0.086 3.057,0.156 3.311,0.156ZM6.006,-5.518L8.379,-12.09L8.428,-12.09L10.801,-5.518L6.006,-5.518Z" style="fill-rule:nonzero;"/>
        </g>
        <path d="M793.197,1919L793.197,1933" style="fill:none;fill-rule:nonzero;stroke:rgb(0,174,239);stroke-width:0.5px;"/>
        <g transform="matrix(1,0,0,1,776,1953)">
            <text x="0px" y="0px" style="font-family:'LucidaGrande-Bold', 'Lucida Grande', sans-serif;font-weight:600;font-size:13px;">Margins</text>
        </g>
        <g transform="matrix(1,0,0,1,776,1971)">
            <text x="0px" y="0px" style="font-family:'LucidaGrande', 'Lucida Grande', sans-serif;font-weight:500;font-size:13px;">Leading and trailing margins on the left and right side of each symbol</text>
        </g>
        <g transform="matrix(1,0,0,1,776,1989)">
            <text x="0px" y="0px" style="font-family:'LucidaGrande', 'Lucida Grande', sans-serif;font-weight:500;font-size:13px;">can be adjusted by modifying the x-location of the margin guidelines.</text>
        </g>
        <g transform="matrix(1,0,0,1,776,2007)">
            <text x="0px" y="0px" style="font-family:'LucidaGrande', 'Lucida Grande', sans-serif;font-weight:500;font-size:13px;">Modiﬁcations are automatically applied proportionally to all</text>
        </g>
        <g transform="matrix(1,0,0,1,776,2025)">
            <text x="0px" y="0px" style="font-family:'LucidaGrande', 'Lucida Grande', sans-serif;font-weight:500;font-size:13px;">scales and weights.</text>
        </g>
        <g transform="matrix(1,0,0,1,1289,1933)">
            <path d="M2.842,1.865L4.541,3.574C4.971,4.01 5.425,4.212 5.903,4.18C6.382,4.147 6.852,3.874 7.314,3.359L18.008,-8.428L17.041,-9.404L6.426,2.275C6.25,2.477 6.073,2.591 5.894,2.617C5.715,2.643 5.508,2.539 5.273,2.305L4.102,1.143C3.867,0.908 3.765,0.701 3.794,0.522C3.823,0.343 3.939,0.163 4.141,-0.02L15.615,-10.82L14.639,-11.787L3.047,-0.898C2.552,-0.443 2.287,0.023 2.251,0.498C2.215,0.973 2.412,1.429 2.842,1.865ZM9.258,-16.328C9.049,-16.126 8.932,-15.895 8.906,-15.635C8.88,-15.374 8.926,-15.146 9.043,-14.951C9.16,-14.769 9.331,-14.632 9.556,-14.541C9.78,-14.45 10.055,-14.443 10.381,-14.522C11.11,-14.691 11.849,-14.761 12.598,-14.731C13.346,-14.702 14.079,-14.453 14.795,-13.984L14.209,-12.529C14.04,-12.113 13.993,-11.75 14.067,-11.44C14.142,-11.131 14.313,-10.84 14.58,-10.566L16.875,-8.252C17.116,-8.005 17.35,-7.861 17.578,-7.822C17.806,-7.783 18.06,-7.79 18.34,-7.842L19.404,-8.037L20.068,-7.363L20.029,-6.807C20.01,-6.559 20.041,-6.331 20.122,-6.123C20.203,-5.915 20.365,-5.69 20.606,-5.449L21.367,-4.707C21.608,-4.466 21.87,-4.341 22.153,-4.331C22.437,-4.321 22.695,-4.434 22.93,-4.668L25.84,-7.588C26.074,-7.822 26.188,-8.078 26.182,-8.354C26.175,-8.631 26.051,-8.89 25.811,-9.131L25.039,-9.893C24.805,-10.133 24.585,-10.298 24.38,-10.386C24.175,-10.474 23.952,-10.508 23.711,-10.488L23.135,-10.44L22.49,-11.074L22.734,-12.197C22.799,-12.477 22.786,-12.739 22.695,-12.983C22.604,-13.228 22.412,-13.496 22.119,-13.789L19.922,-15.977C19.089,-16.803 18.202,-17.424 17.261,-17.837C16.32,-18.25 15.373,-18.465 14.419,-18.481C13.465,-18.498 12.547,-18.324 11.665,-17.959C10.783,-17.594 9.98,-17.051 9.258,-16.328ZM10.752,-15.957C11.357,-16.4 12.007,-16.716 12.7,-16.904C13.394,-17.093 14.095,-17.153 14.805,-17.085C15.514,-17.017 16.203,-16.826 16.87,-16.514C17.537,-16.201 18.148,-15.765 18.701,-15.205L21.133,-12.793C21.25,-12.676 21.323,-12.562 21.353,-12.451C21.382,-12.341 21.377,-12.201 21.338,-12.031L21.016,-10.547L22.52,-9.063L23.506,-9.121C23.63,-9.128 23.724,-9.119 23.789,-9.097C23.854,-9.074 23.936,-9.014 24.033,-8.916L24.609,-8.34L22.168,-5.898L21.592,-6.475C21.494,-6.572 21.432,-6.654 21.406,-6.719C21.38,-6.784 21.37,-6.882 21.377,-7.012L21.445,-7.988L19.951,-9.473L18.428,-9.219C18.265,-9.186 18.136,-9.181 18.042,-9.204C17.948,-9.227 17.839,-9.297 17.715,-9.414L15.713,-11.416C15.583,-11.533 15.509,-11.646 15.493,-11.753C15.477,-11.86 15.508,-12.005 15.586,-12.188L16.465,-14.277C15.684,-15.007 14.805,-15.511 13.828,-15.791C12.852,-16.071 11.855,-16.061 10.84,-15.762C10.762,-15.742 10.711,-15.757 10.689,-15.806C10.666,-15.855 10.687,-15.905 10.752,-15.957Z" style="fill-rule:nonzero;"/>
        </g>
        <g transform="matrix(1,0,0,1,1289,1953)">
            <text x="0px" y="0px" style="font-family:'LucidaGrande-Bold', 'Lucida Grande', sans-serif;font-weight:600;font-size:13px;">Exporting</text>
        </g>
        <g transform="matrix(1,0,0,1,1289,1971)">
            <text x="0px" y="0px" style="font-family:'LucidaGrande', 'Lucida Grande', sans-serif;font-weight:500;font-size:13px;">Symbols should be outlined when exporting to ensure the</text>
        </g>
        <g transform="matrix(1,0,0,1,1289,1989)">
            <text x="0px" y="0px" style="font-family:'LucidaGrande', 'Lucida Grande', sans-serif;font-weight:500;font-size:13px;">design is preserved when submitting to Xcode.</text>
        </g>
        <g transform="matrix(1,0,0,1,2941.67,1933)">
            <g id="template-version">
                <text x="0px" y="0px" style="font-family:'LucidaGrande', 'Lucida Grande', sans-serif;font-weight:500;font-size:13px;">Template v.3.0</text>
            </g>
        </g>
        <g transform="matrix(1,0,0,1,2851.66,1951)">
            <text x="0px" y="0px" style="font-family:'LucidaGrande', 'Lucida Grande', sans-serif;font-weight:500;font-size:13px;">Requires Xcode 13 or greater</text>
        </g>
        <g transform="matrix(1,0,0,1,2899.42,1969)">
            <g id="descriptive-name">
                <text x="0px" y="0px" style="font-family:'LucidaGrande', 'Lucida Grande', sans-serif;font-weight:500;font-size:13px;">Generated from circle</text>
            </g>
        </g>
        <g transform="matrix(1,0,0,1,2898.31,1987)">
            <text x="0px" y="0px" style="font-family:'LucidaGrande', 'Lucida Grande', sans-serif;font-weight:500;font-size:13px;">Typeset at 100 points</text>
        </g>
        <g transform="matrix(1,0,0,1,263,726)">
            <text x="0px" y="0px" style="font-family:'LucidaGrande', 'Lucida Grande', sans-serif;font-weight:500;font-size:13px;">Small</text>
        </g>
        <g transform="matrix(1,0,0,1,263,1156)">
            <text x="0px" y="0px" style="font-family:'LucidaGrande', 'Lucida Grande', sans-serif;font-weight:500;font-size:13px;">Medium</text>
        </g>
        <g transform="matrix(1,0,0,1,263,1586)">
            <text x="0px" y="0px" style="font-family:'LucidaGrande', 'Lucida Grande', sans-serif;font-weight:500;font-size:13px;">Large</text>
        </g>
    </g>
    <g id="Guides">
        <g id="H-reference" transform="matrix(1,0,0,1,339,696)">
            <path d="M0.977,0L3.662,0L29.346,-67.139L30.029,-67.139L30.029,-70.459L28.125,-70.459L0.977,0ZM11.67,-24.463L46.973,-24.463L46.24,-26.709L12.451,-26.709L11.67,-24.463ZM55.127,0L57.764,0L30.615,-70.459L29.443,-70.459L29.443,-67.139L55.127,0Z" style="fill:rgb(39,170,225);fill-rule:nonzero;"/>
        </g>
        <path id="Baseline-S" d="M263,696L3036,696" style="fill:none;fill-rule:nonzero;stroke:rgb(39,170,225);stroke-width:0.5px;"/>
        <path id="Capline-S" d="M263,625.541L3036,625.541" style="fill:none;fill-rule:nonzero;stroke:rgb(39,170,225);stroke-width:0.5px;"/>
        <g id="H-reference1" serif:id="H-reference" transform="matrix(1,0,0,1,339,1126)">
            <path d="M0.977,0L3.662,0L29.346,-67.139L30.029,-67.139L30.029,-70.459L28.125,-70.459L0.977,0ZM11.67,-24.463L46.973,-24.463L46.24,-26.709L12.451,-26.709L11.67,-24.463ZM55.127,0L57.764,0L30.615,-70.459L29.443,-70.459L29.443,-67.139L55.127,0Z" style="fill:rgb(39,170,225);fill-rule:nonzero;"/>
        </g>
        <path id="Baseline-M" d="M263,1126L3036,1126" style="fill:none;fill-rule:nonzero;stroke:rgb(39,170,225);stroke-width:0.5px;"/>
        <path id="Capline-M" d="M263,1055.54L3036,1055.54" style="fill:none;fill-rule:nonzero;stroke:rgb(39,170,225);stroke-width:0.5px;"/>
        <g id="H-reference2" serif:id="H-reference" transform="matrix(1,0,0,1,339,1556)">
            <path d="M0.977,0L3.662,0L29.346,-67.139L30.029,-67.139L30.029,-70.459L28.125,-70.459L0.977,0ZM11.67,-24.463L46.973,-24.463L46.24,-26.709L12.451,-26.709L11.67,-24.463ZM55.127,0L57.764,0L30.615,-70.459L29.443,-70.459L29.443,-67.139L55.127,0Z" style="fill:rgb(39,170,225);fill-rule:nonzero;"/>
        </g>
        <path id="Baseline-L" d="M263,1556L3036,1556" style="fill:none;fill-rule:nonzero;stroke:rgb(39,170,225);stroke-width:0.5px;"/>
        <path id="Capline-L" d="M263,1485.54L3036,1485.54" style="fill:none;fill-rule:nonzero;stroke:rgb(39,170,225);stroke-width:0.5px;"/>
        <path id="left-margin-Regular-M" d="M1391.3,1030.79L1391.3,1150.12" style="fill:none;fill-rule:nonzero;stroke:rgb(0,174,239);stroke-width:0.5px;"/>
        <path id="right-margin-Regular-M" d="M1508.39,1030.79L1508.39,1150.12" style="fill:none;fill-rule:nonzero;stroke:rgb(0,174,239);stroke-width:0.5px;"/>
    </g>
    <g id="Symbols">
        <g id="Black-L" transform="matrix(1,0,0,1,2854.05,1556)">
            <path d="M79.346,32.861C86.833,32.861 93.97,31.706 100.757,29.395C107.544,27.083 113.778,23.844 119.458,19.678C125.139,15.511 130.062,10.588 134.229,4.907C138.396,-0.773 141.634,-7.007 143.945,-13.794C146.256,-20.581 147.412,-27.718 147.412,-35.205C147.412,-42.692 146.256,-49.829 143.945,-56.616C141.634,-63.403 138.387,-69.637 134.204,-75.317C130.021,-80.998 125.098,-85.929 119.434,-90.112C113.77,-94.295 107.536,-97.534 100.732,-99.829C93.929,-102.124 86.784,-103.271 79.297,-103.271C71.842,-103.271 64.714,-102.124 57.91,-99.829C51.107,-97.534 44.873,-94.295 39.209,-90.112C33.545,-85.929 28.621,-80.998 24.439,-75.317C20.256,-69.637 17.017,-63.403 14.722,-56.616C12.427,-49.829 11.279,-42.692 11.279,-35.205C11.279,-27.718 12.427,-20.581 14.722,-13.794C17.017,-7.007 20.256,-0.773 24.439,4.907C28.621,10.588 33.553,15.511 39.233,19.678C44.914,23.844 51.147,27.083 57.935,29.395C64.722,31.706 71.859,32.861 79.346,32.861ZM79.346,12.402C74.072,12.402 69.051,11.605 64.282,10.01C59.513,8.415 55.151,6.16 51.196,3.247C47.241,0.334 43.807,-3.109 40.894,-7.08C37.98,-11.051 35.726,-15.413 34.131,-20.166C32.536,-24.919 31.738,-29.932 31.738,-35.205C31.738,-40.479 32.536,-45.5 34.131,-50.269C35.726,-55.037 37.98,-59.399 40.894,-63.355C43.807,-67.31 47.241,-70.744 51.196,-73.657C55.151,-76.571 59.505,-78.825 64.258,-80.42C69.01,-82.015 74.023,-82.813 79.297,-82.813C84.57,-82.813 89.591,-82.015 94.36,-80.42C99.129,-78.825 103.5,-76.571 107.471,-73.657C111.442,-70.744 114.885,-67.31 117.798,-63.355C120.711,-59.399 122.966,-55.037 124.561,-50.269C126.156,-45.5 126.953,-40.479 126.953,-35.205C126.953,-29.932 126.156,-24.919 124.561,-20.166C122.966,-15.413 120.711,-11.051 117.798,-7.08C114.885,-3.109 111.45,0.334 107.495,3.247C103.54,6.16 99.178,8.415 94.409,10.01C89.64,11.605 84.619,12.402 79.346,12.402Z" style="fill-rule:nonzero;"/>
        </g>
        <g id="Heavy-L" transform="matrix(1,0,0,1,2558.39,1556)">
            <path d="M78.272,31.787C85.661,31.787 92.692,30.648 99.365,28.369C106.038,26.09 112.166,22.9 117.749,18.799C123.332,14.697 128.182,9.847 132.3,4.248C136.418,-1.351 139.616,-7.487 141.895,-14.16C144.173,-20.833 145.312,-27.848 145.312,-35.205C145.312,-42.562 144.173,-49.585 141.895,-56.274C139.616,-62.964 136.418,-69.1 132.3,-74.683C128.182,-80.265 123.332,-85.124 117.749,-89.258C112.166,-93.392 106.03,-96.59 99.341,-98.853C92.651,-101.115 85.612,-102.246 78.223,-102.246C70.898,-102.246 63.892,-101.115 57.202,-98.853C50.513,-96.59 44.377,-93.392 38.794,-89.258C33.211,-85.124 28.361,-80.265 24.243,-74.683C20.125,-69.1 16.935,-62.964 14.673,-56.274C12.41,-49.585 11.279,-42.562 11.279,-35.205C11.279,-27.848 12.41,-20.833 14.673,-14.16C16.935,-7.487 20.125,-1.351 24.243,4.248C28.361,9.847 33.219,14.697 38.818,18.799C44.417,22.9 50.553,26.09 57.227,28.369C63.9,30.648 70.915,31.787 78.272,31.787ZM78.272,14.014C72.835,14.014 67.651,13.192 62.72,11.548C57.788,9.904 53.28,7.576 49.194,4.565C45.109,1.554 41.561,-2.01 38.55,-6.128C35.539,-10.246 33.203,-14.762 31.543,-19.678C29.883,-24.593 29.053,-29.769 29.053,-35.205C29.053,-40.674 29.883,-45.874 31.543,-50.806C33.203,-55.737 35.531,-60.246 38.525,-64.331C41.52,-68.416 45.068,-71.965 49.17,-74.976C53.271,-77.987 57.78,-80.322 62.695,-81.982C67.611,-83.643 72.787,-84.473 78.223,-84.473C83.691,-84.473 88.892,-83.643 93.823,-81.982C98.755,-80.322 103.272,-77.987 107.373,-74.976C111.474,-71.965 115.031,-68.416 118.042,-64.331C121.053,-60.246 123.389,-55.737 125.049,-50.806C126.709,-45.874 127.539,-40.674 127.539,-35.205C127.539,-29.769 126.709,-24.593 125.049,-19.678C123.389,-14.762 121.053,-10.246 118.042,-6.128C115.031,-2.01 111.482,1.554 107.397,4.565C103.312,7.576 98.804,9.904 93.872,11.548C88.94,13.192 83.74,14.014 78.272,14.014Z" style="fill-rule:nonzero;"/>
        </g>
        <g id="Bold-L" transform="matrix(1,0,0,1,2262.85,1556)">
            <path d="M77.1,30.615C84.326,30.615 91.219,29.492 97.778,27.246C104.337,25 110.368,21.859 115.869,17.822C121.37,13.786 126.139,9.017 130.176,3.516C134.212,-1.986 137.353,-8.016 139.6,-14.575C141.846,-21.134 142.969,-28.027 142.969,-35.254C142.969,-42.481 141.846,-49.373 139.6,-55.933C137.353,-62.492 134.204,-68.514 130.151,-73.999C126.098,-79.484 121.33,-84.253 115.845,-88.306C110.36,-92.358 104.329,-95.5 97.754,-97.73C91.178,-99.959 84.277,-101.074 77.051,-101.074C69.857,-101.074 62.972,-99.959 56.397,-97.73C49.821,-95.5 43.799,-92.358 38.33,-88.306C32.861,-84.253 28.101,-79.484 24.048,-73.999C19.995,-68.514 16.854,-62.492 14.624,-55.933C12.394,-49.373 11.279,-42.481 11.279,-35.254C11.279,-28.027 12.394,-21.134 14.624,-14.575C16.854,-8.016 19.995,-1.986 24.048,3.516C28.101,9.017 32.87,13.786 38.355,17.822C43.84,21.859 49.862,25 56.421,27.246C62.98,29.492 69.873,30.615 77.1,30.615ZM77.1,15.82C71.468,15.82 66.097,14.966 60.986,13.257C55.876,11.548 51.196,9.131 46.948,6.006C42.7,2.881 39.014,-0.814 35.889,-5.078C32.764,-9.342 30.347,-14.022 28.638,-19.116C26.929,-24.211 26.074,-29.59 26.074,-35.254C26.074,-40.918 26.929,-46.305 28.638,-51.416C30.347,-56.527 32.764,-61.206 35.889,-65.454C39.014,-69.702 42.692,-73.381 46.924,-76.489C51.156,-79.598 55.827,-82.007 60.938,-83.716C66.048,-85.425 71.419,-86.279 77.051,-86.279C82.715,-86.279 88.102,-85.425 93.213,-83.716C98.324,-82.007 103.011,-79.598 107.275,-76.489C111.54,-73.381 115.226,-69.702 118.335,-65.454C121.444,-61.206 123.861,-56.527 125.586,-51.416C127.311,-46.305 128.174,-40.918 128.174,-35.254C128.174,-29.59 127.319,-24.211 125.61,-19.116C123.901,-14.022 121.484,-9.342 118.359,-5.078C115.234,-0.814 111.548,2.881 107.3,6.006C103.052,9.131 98.373,11.548 93.262,13.257C88.151,14.966 82.764,15.82 77.1,15.82Z" style="fill-rule:nonzero;"/>
        </g>
        <g id="Semibold-L" transform="matrix(1,0,0,1,1966.97,1556)">
            <path d="M76.269,29.785C83.398,29.785 90.202,28.678 96.68,26.465C103.157,24.251 109.114,21.151 114.551,17.163C119.987,13.175 124.699,8.464 128.687,3.027C132.674,-2.409 135.775,-8.366 137.988,-14.844C140.202,-21.322 141.309,-28.125 141.309,-35.254C141.309,-42.383 140.202,-49.186 137.988,-55.664C135.775,-62.142 132.666,-68.091 128.662,-73.511C124.658,-78.931 119.946,-83.643 114.526,-87.647C109.106,-91.65 103.149,-94.759 96.655,-96.973C90.161,-99.186 83.35,-100.293 76.221,-100.293C69.092,-100.293 62.288,-99.186 55.811,-96.973C49.333,-94.759 43.392,-91.65 37.988,-87.647C32.585,-83.643 27.881,-78.931 23.877,-73.511C19.873,-68.091 16.772,-62.142 14.575,-55.664C12.378,-49.186 11.279,-42.383 11.279,-35.254C11.279,-28.125 12.386,-21.322 14.6,-14.844C16.813,-8.366 19.914,-2.409 23.901,3.027C27.889,8.464 32.593,13.175 38.013,17.163C43.433,21.151 49.382,24.251 55.859,26.465C62.337,28.678 69.141,29.785 76.269,29.785ZM76.269,17.041C70.508,17.041 65.007,16.162 59.766,14.404C54.525,12.647 49.731,10.173 45.386,6.982C41.04,3.792 37.264,0.016 34.058,-4.346C30.851,-8.708 28.377,-13.501 26.636,-18.726C24.894,-23.95 24.023,-29.46 24.023,-35.254C24.023,-41.048 24.894,-46.566 26.636,-51.807C28.377,-57.048 30.843,-61.841 34.033,-66.187C37.223,-70.532 40.991,-74.3 45.337,-77.49C49.683,-80.68 54.476,-83.154 59.717,-84.912C64.958,-86.67 70.459,-87.549 76.221,-87.549C82.048,-87.549 87.573,-86.67 92.798,-84.912C98.023,-83.154 102.816,-80.68 107.178,-77.49C111.54,-74.3 115.316,-70.532 118.506,-66.187C121.696,-61.841 124.17,-57.048 125.928,-51.807C127.685,-46.566 128.564,-41.048 128.564,-35.254C128.597,-29.46 127.742,-23.95 126.001,-18.726C124.26,-13.501 121.786,-8.708 118.579,-4.346C115.373,0.016 111.589,3.792 107.227,6.982C102.865,10.173 98.072,12.647 92.847,14.404C87.622,16.162 82.096,17.041 76.269,17.041Z" style="fill-rule:nonzero;"/>
        </g>
        <g id="Medium-L" transform="matrix(1,0,0,1,1670.87,1556)">
            <path d="M75.684,29.15C82.715,29.15 89.437,28.052 95.85,25.855C102.263,23.657 108.163,20.581 113.55,16.626C118.937,12.671 123.608,8.008 127.563,2.637C131.518,-2.734 134.595,-8.634 136.792,-15.064C138.989,-21.493 140.088,-28.223 140.088,-35.254C140.088,-42.318 138.989,-49.056 136.792,-55.469C134.595,-61.882 131.51,-67.773 127.539,-73.144C123.568,-78.516 118.896,-83.187 113.525,-87.158C108.154,-91.13 102.254,-94.206 95.825,-96.387C89.396,-98.568 82.666,-99.658 75.635,-99.658C68.571,-99.658 61.833,-98.568 55.42,-96.387C49.007,-94.206 43.115,-91.13 37.744,-87.158C32.373,-83.187 27.71,-78.516 23.755,-73.144C19.8,-67.773 16.732,-61.882 14.551,-55.469C12.37,-49.056 11.279,-42.318 11.279,-35.254C11.279,-28.223 12.37,-21.493 14.551,-15.064C16.732,-8.634 19.8,-2.734 23.755,2.637C27.71,8.008 32.381,12.671 37.769,16.626C43.156,20.581 49.056,23.657 55.469,25.855C61.882,28.052 68.62,29.15 75.684,29.15ZM75.684,18.018C69.792,18.018 64.176,17.122 58.838,15.332C53.499,13.542 48.625,11.019 44.214,7.764C39.803,4.508 35.962,0.659 32.69,-3.784C29.419,-8.228 26.896,-13.11 25.122,-18.433C23.348,-23.755 22.461,-29.362 22.461,-35.254C22.461,-41.178 23.348,-46.802 25.122,-52.124C26.896,-57.446 29.411,-62.321 32.666,-66.748C35.921,-71.175 39.754,-75.016 44.165,-78.272C48.576,-81.527 53.451,-84.041 58.789,-85.815C64.128,-87.59 69.743,-88.477 75.635,-88.477C81.527,-88.477 87.142,-87.59 92.481,-85.815C97.819,-84.041 102.702,-81.527 107.129,-78.272C111.556,-75.016 115.397,-71.175 118.652,-66.748C121.907,-62.321 124.43,-57.446 126.221,-52.124C128.011,-46.802 128.906,-41.178 128.906,-35.254C128.939,-29.362 128.068,-23.755 126.294,-18.433C124.52,-13.11 121.997,-8.228 118.726,-3.784C115.454,0.659 111.605,4.508 107.178,7.764C102.751,11.019 97.868,13.542 92.529,15.332C87.191,17.122 81.576,18.018 75.684,18.018Z" style="fill-rule:nonzero;"/>
        </g>
        <g id="Regular-L" transform="matrix(1,0,0,1,1374.97,1556)">
            <path d="M74.854,28.32C81.82,28.32 88.468,27.238 94.8,25.073C101.131,22.909 106.95,19.873 112.256,15.967C117.562,12.061 122.176,7.454 126.099,2.148C130.021,-3.158 133.064,-8.984 135.229,-15.332C137.394,-21.68 138.477,-28.32 138.477,-35.254C138.477,-42.22 137.394,-48.869 135.229,-55.2C133.064,-61.532 130.021,-67.35 126.099,-72.656C122.176,-77.962 117.562,-82.576 112.256,-86.499C106.95,-90.422 101.123,-93.465 94.775,-95.63C88.428,-97.795 81.771,-98.877 74.805,-98.877C67.839,-98.877 61.19,-97.795 54.858,-95.63C48.527,-93.465 42.716,-90.422 37.427,-86.499C32.137,-82.576 27.531,-77.962 23.608,-72.656C19.686,-67.35 16.65,-61.532 14.502,-55.2C12.354,-48.869 11.279,-42.22 11.279,-35.254C11.279,-28.32 12.362,-21.68 14.526,-15.332C16.691,-8.984 19.727,-3.158 23.633,2.148C27.539,7.454 32.145,12.061 37.451,15.967C42.757,19.873 48.576,22.909 54.907,25.073C61.239,27.238 67.887,28.32 74.854,28.32ZM74.854,19.238C68.831,19.238 63.094,18.319 57.642,16.48C52.189,14.64 47.201,12.061 42.676,8.74C38.151,5.42 34.22,1.489 30.884,-3.052C27.547,-7.593 24.967,-12.59 23.145,-18.042C21.322,-23.494 20.41,-29.232 20.41,-35.254C20.41,-41.309 21.322,-47.062 23.145,-52.515C24.967,-57.967 27.539,-62.964 30.859,-67.505C34.18,-72.046 38.102,-75.977 42.627,-79.297C47.152,-82.617 52.14,-85.189 57.593,-87.012C63.045,-88.835 68.783,-89.746 74.805,-89.746C80.859,-89.746 86.613,-88.835 92.065,-87.012C97.518,-85.189 102.515,-82.617 107.056,-79.297C111.597,-75.977 115.527,-72.046 118.848,-67.505C122.168,-62.964 124.748,-57.967 126.587,-52.515C128.426,-47.062 129.346,-41.309 129.346,-35.254C129.379,-29.232 128.483,-23.494 126.66,-18.042C124.837,-12.59 122.258,-7.593 118.921,-3.052C115.584,1.489 111.645,5.42 107.104,8.74C102.563,12.061 97.567,14.64 92.114,16.48C86.662,18.319 80.908,19.238 74.854,19.238Z" style="fill-rule:nonzero;"/>
        </g>
        <g id="Light-L" transform="matrix(1,0,0,1,1079.18,1556)">
            <path d="M73.926,27.393C80.794,27.393 87.354,26.327 93.604,24.194C99.854,22.062 105.591,19.076 110.815,15.234C116.04,11.393 120.581,6.86 124.438,1.636C128.296,-3.589 131.291,-9.326 133.423,-15.576C135.555,-21.826 136.621,-28.385 136.621,-35.254C136.621,-42.122 135.555,-48.682 133.423,-54.932C131.291,-61.182 128.296,-66.919 124.438,-72.144C120.581,-77.368 116.04,-81.909 110.815,-85.767C105.591,-89.624 99.854,-92.619 93.604,-94.751C87.354,-96.883 80.778,-97.949 73.877,-97.949C67.008,-97.949 60.457,-96.883 54.224,-94.751C47.99,-92.619 42.261,-89.624 37.036,-85.767C31.812,-81.909 27.271,-77.368 23.413,-72.144C19.556,-66.919 16.569,-61.182 14.453,-54.932C12.337,-48.682 11.279,-42.122 11.279,-35.254C11.279,-28.385 12.345,-21.826 14.477,-15.576C16.61,-9.326 19.596,-3.589 23.438,1.636C27.279,6.86 31.812,11.393 37.036,15.234C42.261,19.076 47.998,22.062 54.248,24.194C60.498,26.327 67.057,27.393 73.926,27.393ZM73.926,20.508C67.773,20.508 61.906,19.564 56.323,17.676C50.741,15.788 45.63,13.143 40.991,9.741C36.353,6.34 32.332,2.319 28.931,-2.319C25.529,-6.958 22.892,-12.069 21.02,-17.651C19.149,-23.234 18.213,-29.102 18.213,-35.254C18.213,-41.439 19.149,-47.314 21.02,-52.881C22.892,-58.447 25.529,-63.558 28.931,-68.213C32.332,-72.868 36.353,-76.896 40.991,-80.298C45.63,-83.7 50.732,-86.336 56.299,-88.208C61.865,-90.08 67.725,-91.016 73.877,-91.016C80.062,-91.016 85.946,-90.08 91.528,-88.208C97.111,-86.336 102.222,-83.7 106.86,-80.298C111.499,-76.896 115.527,-72.868 118.945,-68.213C122.363,-63.558 125.008,-58.447 126.88,-52.881C128.752,-47.314 129.688,-41.439 129.688,-35.254C129.72,-29.102 128.8,-23.234 126.929,-17.651C125.057,-12.069 122.412,-6.958 118.994,-2.319C115.576,2.319 111.548,6.34 106.909,9.741C102.27,13.143 97.16,15.788 91.577,17.676C85.994,19.564 80.111,20.508 73.926,20.508Z" style="fill-rule:nonzero;"/>
        </g>
        <g id="Thin-L" transform="matrix(1,0,0,1,783.693,1556)">
            <path d="M72.705,26.172C79.476,26.172 85.921,25.13 92.041,23.047C98.161,20.964 103.784,18.042 108.911,14.282C114.038,10.522 118.49,6.079 122.266,0.952C126.042,-4.175 128.972,-9.806 131.055,-15.942C133.138,-22.078 134.18,-28.516 134.18,-35.254C134.18,-42.025 133.138,-48.47 131.055,-54.59C128.972,-60.71 126.05,-66.333 122.29,-71.46C118.53,-76.587 114.079,-81.038 108.936,-84.815C103.793,-88.59 98.153,-91.52 92.017,-93.604C85.881,-95.687 79.443,-96.729 72.705,-96.729C65.934,-96.729 59.489,-95.687 53.369,-93.604C47.249,-91.52 41.626,-88.59 36.499,-84.815C31.372,-81.038 26.929,-76.587 23.169,-71.46C19.409,-66.333 16.488,-60.71 14.404,-54.59C12.321,-48.47 11.279,-42.025 11.279,-35.254C11.279,-28.516 12.321,-22.078 14.404,-15.942C16.488,-9.806 19.409,-4.175 23.169,0.952C26.929,6.079 31.38,10.522 36.523,14.282C41.667,18.042 47.298,20.964 53.418,23.047C59.538,25.13 65.967,26.172 72.705,26.172ZM72.705,22.168C66.39,22.168 60.36,21.2 54.614,19.263C48.869,17.326 43.604,14.6 38.818,11.084C34.033,7.568 29.875,3.418 26.343,-1.367C22.811,-6.152 20.085,-11.418 18.164,-17.163C16.244,-22.908 15.283,-28.939 15.283,-35.254C15.283,-41.602 16.244,-47.648 18.164,-53.394C20.085,-59.139 22.811,-64.404 26.343,-69.19C29.875,-73.975 34.033,-78.125 38.818,-81.641C43.604,-85.156 48.861,-87.883 54.59,-89.819C60.319,-91.756 66.357,-92.725 72.705,-92.725C79.053,-92.725 85.091,-91.756 90.82,-89.819C96.55,-87.883 101.815,-85.156 106.616,-81.641C111.417,-78.125 115.576,-73.975 119.092,-69.19C122.607,-64.404 125.334,-59.139 127.271,-53.394C129.208,-47.648 130.176,-41.602 130.176,-35.254C130.176,-28.939 129.208,-22.908 127.271,-17.163C125.334,-11.418 122.607,-6.152 119.092,-1.367C115.576,3.418 111.426,7.568 106.641,11.084C101.856,14.6 96.59,17.326 90.845,19.263C85.099,21.2 79.053,22.168 72.705,22.168Z" style="fill-rule:nonzero;"/>
        </g>
        <g id="Ultralight-L" transform="matrix(1,0,0,1,487.592,1556)">
            <path d="M72.07,25.537C78.776,25.537 85.164,24.512 91.235,22.461C97.306,20.41 102.873,17.521 107.935,13.794C112.996,10.067 117.399,5.664 121.143,0.586C124.886,-4.492 127.791,-10.059 129.858,-16.113C131.925,-22.168 132.959,-28.548 132.959,-35.254C132.959,-41.96 131.925,-48.348 129.858,-54.419C127.791,-60.49 124.894,-66.056 121.167,-71.118C117.44,-76.18 113.037,-80.583 107.959,-84.326C102.881,-88.07 97.306,-90.967 91.235,-93.018C85.164,-95.068 78.776,-96.094 72.07,-96.094C65.397,-96.094 59.025,-95.068 52.954,-93.018C46.883,-90.967 41.309,-88.07 36.231,-84.326C31.152,-80.583 26.75,-76.18 23.023,-71.118C19.295,-66.056 16.406,-60.49 14.355,-54.419C12.305,-48.348 11.279,-41.96 11.279,-35.254C11.279,-28.548 12.305,-22.168 14.355,-16.113C16.406,-10.059 19.295,-4.492 23.023,0.586C26.75,5.664 31.152,10.067 36.231,13.794C41.309,17.521 46.883,20.41 52.954,22.461C59.025,24.512 65.397,25.537 72.07,25.537ZM72.07,23.047C65.658,23.047 59.538,22.062 53.711,20.093C47.884,18.123 42.537,15.356 37.671,11.792C32.804,8.228 28.589,4.012 25.024,-0.854C21.46,-5.721 18.693,-11.068 16.724,-16.895C14.754,-22.721 13.77,-28.841 13.77,-35.254C13.77,-41.699 14.754,-47.827 16.724,-53.638C18.693,-59.448 21.46,-64.787 25.024,-69.653C28.589,-74.52 32.813,-78.743 37.695,-82.324C42.578,-85.905 47.925,-88.68 53.735,-90.649C59.546,-92.619 65.658,-93.604 72.07,-93.604C78.516,-93.604 84.652,-92.619 90.479,-90.649C96.305,-88.68 101.644,-85.905 106.494,-82.324C111.345,-78.743 115.56,-74.52 119.141,-69.653C122.722,-64.787 125.497,-59.448 127.466,-53.638C129.435,-47.827 130.42,-41.699 130.42,-35.254C130.387,-28.841 129.394,-22.721 127.441,-16.895C125.488,-11.068 122.722,-5.721 119.141,-0.854C115.56,4.012 111.345,8.228 106.494,11.792C101.644,15.356 96.305,18.123 90.479,20.093C84.652,22.062 78.516,23.047 72.07,23.047Z" style="fill-rule:nonzero;"/>
        </g>
        <g id="Black-M" transform="matrix(1,0,0,1,2871.32,1126)">
            <path d="M62.06,18.115C69.417,18.115 76.318,16.732 82.764,13.965C89.209,11.198 94.873,7.365 99.756,2.466C104.639,-2.433 108.472,-8.097 111.255,-14.526C114.038,-20.955 115.43,-27.848 115.43,-35.205C115.43,-42.562 114.038,-49.455 111.255,-55.884C108.472,-62.313 104.639,-67.977 99.756,-72.876C94.873,-77.775 89.209,-81.608 82.764,-84.375C76.318,-87.142 69.417,-88.525 62.06,-88.525C54.736,-88.525 47.852,-87.142 41.406,-84.375C34.961,-81.608 29.289,-77.775 24.39,-72.876C19.491,-67.977 15.658,-62.313 12.891,-55.884C10.124,-49.455 8.74,-42.562 8.74,-35.205C8.74,-27.848 10.124,-20.955 12.891,-14.526C15.658,-8.097 19.491,-2.433 24.39,2.466C29.289,7.365 34.961,11.198 41.406,13.965C47.852,16.732 54.736,18.115 62.06,18.115ZM62.06,0.732C57.113,0.732 52.466,-0.195 48.12,-2.051C43.774,-3.906 39.95,-6.478 36.646,-9.766C33.341,-13.053 30.762,-16.87 28.906,-21.216C27.051,-25.562 26.123,-30.225 26.123,-35.205C26.123,-40.186 27.051,-44.849 28.906,-49.194C30.762,-53.54 33.341,-57.357 36.646,-60.645C39.95,-63.932 43.774,-66.504 48.12,-68.359C52.466,-70.215 57.113,-71.143 62.06,-71.143C67.041,-71.143 71.704,-70.215 76.05,-68.359C80.396,-66.504 84.212,-63.932 87.5,-60.645C90.788,-57.357 93.368,-53.54 95.239,-49.194C97.111,-44.849 98.047,-40.186 98.047,-35.205C98.047,-30.225 97.111,-25.562 95.239,-21.216C93.368,-16.87 90.788,-13.053 87.5,-9.766C84.212,-6.478 80.396,-3.906 76.05,-2.051C71.704,-0.195 67.041,0.732 62.06,0.732Z" style="fill-rule:nonzero;"/>
        </g>
        <g id="Heavy-M" transform="matrix(1,0,0,1,2575.43,1126)">
            <path d="M61.231,17.285C68.457,17.285 75.244,15.918 81.592,13.184C87.939,10.449 93.514,6.673 98.315,1.855C103.117,-2.962 106.893,-8.537 109.644,-14.868C112.395,-21.2 113.77,-27.979 113.77,-35.205C113.77,-42.432 112.395,-49.211 109.644,-55.542C106.893,-61.873 103.117,-67.456 98.315,-72.29C93.514,-77.124 87.939,-80.9 81.592,-83.618C75.244,-86.336 68.457,-87.695 61.231,-87.695C54.037,-87.695 47.266,-86.336 40.918,-83.618C34.57,-80.9 28.988,-77.124 24.17,-72.29C19.352,-67.456 15.576,-61.873 12.842,-55.542C10.107,-49.211 8.74,-42.432 8.74,-35.205C8.74,-27.979 10.107,-21.2 12.842,-14.868C15.576,-8.537 19.352,-2.962 24.17,1.855C28.988,6.673 34.57,10.449 40.918,13.184C47.266,15.918 54.037,17.285 61.231,17.285ZM61.231,2.051C56.087,2.051 51.261,1.082 46.753,-0.854C42.244,-2.791 38.281,-5.461 34.863,-8.862C31.445,-12.264 28.776,-16.219 26.856,-20.728C24.935,-25.236 23.975,-30.062 23.975,-35.205C23.975,-40.381 24.935,-45.223 26.856,-49.731C28.776,-54.24 31.445,-58.195 34.863,-61.597C38.281,-64.998 42.244,-67.66 46.753,-69.58C51.261,-71.501 56.087,-72.461 61.231,-72.461C66.374,-72.461 71.2,-71.501 75.708,-69.58C80.216,-67.66 84.18,-64.998 87.598,-61.597C91.016,-58.195 93.693,-54.24 95.63,-49.731C97.567,-45.223 98.535,-40.381 98.535,-35.205C98.535,-30.062 97.567,-25.236 95.63,-20.728C93.693,-16.219 91.024,-12.264 87.622,-8.862C84.22,-5.461 80.265,-2.791 75.757,-0.854C71.248,1.082 66.406,2.051 61.231,2.051Z" style="fill-rule:nonzero;"/>
        </g>
        <g id="Bold-M" transform="matrix(1,0,0,1,2279.65,1126)">
            <path d="M60.303,16.357C67.399,16.357 74.056,15.015 80.273,12.329C86.491,9.644 91.968,5.924 96.704,1.172C101.441,-3.581 105.16,-9.066 107.861,-15.283C110.563,-21.501 111.914,-28.158 111.914,-35.254C111.914,-42.318 110.563,-48.958 107.861,-55.176C105.16,-61.393 101.441,-66.878 96.704,-71.631C91.968,-76.384 86.483,-80.103 80.249,-82.788C74.015,-85.474 67.367,-86.816 60.303,-86.816C53.239,-86.816 46.59,-85.474 40.356,-82.788C34.123,-80.103 28.638,-76.384 23.901,-71.631C19.165,-66.878 15.454,-61.393 12.769,-55.176C10.083,-48.958 8.74,-42.318 8.74,-35.254C8.74,-28.158 10.083,-21.501 12.769,-15.283C15.454,-9.066 19.173,-3.581 23.926,1.172C28.678,5.924 34.163,9.644 40.381,12.329C46.598,15.015 53.239,16.357 60.303,16.357ZM60.303,3.516C54.964,3.516 49.951,2.507 45.264,0.488C40.576,-1.53 36.458,-4.305 32.91,-7.837C29.362,-11.369 26.595,-15.479 24.609,-20.166C22.624,-24.854 21.631,-29.883 21.631,-35.254C21.631,-40.625 22.624,-45.646 24.609,-50.317C26.595,-54.989 29.362,-59.098 32.91,-62.647C36.458,-66.195 40.568,-68.97 45.239,-70.972C49.911,-72.974 54.932,-73.975 60.303,-73.975C65.674,-73.975 70.695,-72.974 75.366,-70.972C80.037,-68.97 84.147,-66.195 87.695,-62.647C91.244,-59.098 94.027,-54.989 96.045,-50.317C98.063,-45.646 99.072,-40.625 99.072,-35.254C99.072,-29.883 98.071,-24.854 96.069,-20.166C94.067,-15.479 91.292,-11.369 87.744,-7.837C84.196,-4.305 80.078,-1.53 75.391,0.488C70.703,2.507 65.674,3.516 60.303,3.516Z" style="fill-rule:nonzero;"/>
        </g>
        <g id="Semibold-M" transform="matrix(1,0,0,1,1983.6,1126)">
            <path d="M59.668,15.674C66.634,15.674 73.193,14.347 79.346,11.694C85.498,9.041 90.918,5.371 95.606,0.684C100.293,-4.004 103.963,-9.416 106.616,-15.552C109.269,-21.688 110.596,-28.255 110.596,-35.254C110.596,-42.22 109.269,-48.771 106.616,-54.907C103.963,-61.043 100.293,-66.455 95.606,-71.143C90.918,-75.83 85.498,-79.508 79.346,-82.178C73.193,-84.847 66.618,-86.182 59.619,-86.182C52.653,-86.182 46.102,-84.847 39.966,-82.178C33.83,-79.508 28.418,-75.83 23.731,-71.143C19.043,-66.455 15.373,-61.043 12.72,-54.907C10.067,-48.771 8.74,-42.22 8.74,-35.254C8.74,-28.255 10.067,-21.688 12.72,-15.552C15.373,-9.416 19.043,-4.004 23.731,0.684C28.418,5.371 33.838,9.041 39.99,11.694C46.143,14.347 52.702,15.674 59.668,15.674ZM59.668,4.492C54.167,4.492 49.015,3.467 44.214,1.416C39.412,-0.635 35.189,-3.475 31.543,-7.104C27.897,-10.734 25.057,-14.95 23.023,-19.751C20.988,-24.552 19.971,-29.72 19.971,-35.254C19.971,-40.755 20.988,-45.907 23.023,-50.708C25.057,-55.509 27.889,-59.733 31.519,-63.379C35.148,-67.025 39.364,-69.865 44.165,-71.899C48.966,-73.934 54.118,-74.951 59.619,-74.951C65.153,-74.951 70.321,-73.934 75.122,-71.899C79.924,-69.865 84.139,-67.025 87.769,-63.379C91.398,-59.733 94.246,-55.509 96.314,-50.708C98.381,-45.907 99.414,-40.755 99.414,-35.254C99.414,-29.72 98.389,-24.552 96.338,-19.751C94.287,-14.95 91.447,-10.734 87.817,-7.104C84.188,-3.475 79.964,-0.635 75.147,1.416C70.329,3.467 65.169,4.492 59.668,4.492Z" style="fill-rule:nonzero;"/>
        </g>
        <g id="Medium-M" transform="matrix(1,0,0,1,1687.38,1126)">
            <path d="M59.18,15.185C66.081,15.185 72.575,13.867 78.662,11.23C84.749,8.594 90.112,4.956 94.751,0.317C99.39,-4.321 103.027,-9.684 105.664,-15.772C108.301,-21.859 109.619,-28.353 109.619,-35.254C109.619,-42.155 108.301,-48.649 105.664,-54.736C103.027,-60.824 99.39,-66.187 94.751,-70.825C90.112,-75.464 84.741,-79.102 78.638,-81.738C72.534,-84.375 66.032,-85.693 59.131,-85.693C52.23,-85.693 45.736,-84.375 39.648,-81.738C33.561,-79.102 28.206,-75.464 23.584,-70.825C18.962,-66.187 15.332,-60.824 12.695,-54.736C10.059,-48.649 8.74,-42.155 8.74,-35.254C8.74,-28.353 10.059,-21.859 12.695,-15.772C15.332,-9.684 18.97,-4.321 23.608,0.317C28.247,4.956 33.61,8.594 39.697,11.23C45.785,13.867 52.279,15.185 59.18,15.185ZM59.18,5.273C53.548,5.273 48.291,4.224 43.408,2.124C38.525,0.024 34.229,-2.881 30.518,-6.592C26.807,-10.303 23.91,-14.6 21.826,-19.482C19.743,-24.365 18.701,-29.622 18.701,-35.254C18.701,-40.885 19.743,-46.143 21.826,-51.025C23.91,-55.908 26.799,-60.205 30.493,-63.916C34.188,-67.627 38.485,-70.524 43.384,-72.607C48.283,-74.691 53.532,-75.732 59.131,-75.732C64.762,-75.732 70.02,-74.691 74.902,-72.607C79.785,-70.524 84.09,-67.627 87.817,-63.916C91.545,-60.205 94.458,-55.908 96.558,-51.025C98.657,-46.143 99.707,-40.885 99.707,-35.254C99.707,-29.622 98.665,-24.365 96.582,-19.482C94.499,-14.6 91.602,-10.303 87.891,-6.592C84.18,-2.881 79.875,0.024 74.976,2.124C70.077,4.224 64.811,5.273 59.18,5.273Z" style="fill-rule:nonzero;"/>
        </g>
        <g id="Regular-M" transform="matrix(0.11319,0,0,0.11319,1397.78,1026.23)">
            <path d="M460,118.01C210.54,118.01 8.01,320.54 8.01,570C8.01,819.46 210.54,1021.99 460,1021.99C709.46,1021.99 911.99,819.46 911.99,570C911.99,320.54 709.46,118.01 460,118.01ZM460,261.99C629.995,261.99 768.01,400.005 768.01,570C768.01,739.995 629.995,878.01 460,878.01C290.005,878.01 151.99,739.995 151.99,570C151.99,400.005 290.005,261.99 460,261.99Z"/>
        </g>
        <g id="Light-M" transform="matrix(1,0,0,1,1095.42,1126)">
            <path d="M57.715,13.721C64.421,13.721 70.727,12.443 76.636,9.888C82.544,7.332 87.752,3.8 92.261,-0.708C96.769,-5.216 100.301,-10.425 102.856,-16.333C105.411,-22.241 106.689,-28.548 106.689,-35.254C106.689,-41.96 105.411,-48.267 102.856,-54.175C100.301,-60.083 96.769,-65.291 92.261,-69.8C87.752,-74.308 82.536,-77.84 76.611,-80.396C70.687,-82.951 64.372,-84.229 57.666,-84.229C50.96,-84.229 44.653,-82.951 38.745,-80.396C32.837,-77.84 27.637,-74.308 23.145,-69.8C18.652,-65.291 15.129,-60.083 12.573,-54.175C10.018,-48.267 8.74,-41.96 8.74,-35.254C8.74,-28.548 10.018,-22.241 12.573,-16.333C15.129,-10.425 18.66,-5.216 23.169,-0.708C27.677,3.8 32.886,7.332 38.794,9.888C44.702,12.443 51.009,13.721 57.715,13.721ZM57.715,7.373C51.823,7.373 46.297,6.274 41.138,4.077C35.978,1.88 31.445,-1.172 27.539,-5.078C23.633,-8.984 20.581,-13.517 18.384,-18.677C16.187,-23.836 15.088,-29.362 15.088,-35.254C15.088,-41.146 16.187,-46.672 18.384,-51.831C20.581,-56.991 23.633,-61.532 27.539,-65.454C31.445,-69.377 35.97,-72.437 41.113,-74.634C46.257,-76.831 51.774,-77.93 57.666,-77.93C63.59,-77.93 69.124,-76.831 74.268,-74.634C79.411,-72.437 83.944,-69.377 87.866,-65.454C91.789,-61.532 94.857,-56.991 97.07,-51.831C99.284,-46.672 100.391,-41.146 100.391,-35.254C100.391,-29.362 99.284,-23.836 97.07,-18.677C94.857,-13.517 91.805,-8.984 87.915,-5.078C84.025,-1.172 79.5,1.88 74.341,4.077C69.181,6.274 63.639,7.373 57.715,7.373Z" style="fill-rule:nonzero;"/>
        </g>
        <g id="Thin-M" transform="matrix(1,0,0,1,799.782,1126)">
            <path d="M56.592,12.598C63.2,12.598 69.393,11.361 75.171,8.887C80.949,6.413 86.035,2.97 90.43,-1.44C94.824,-5.851 98.275,-10.946 100.781,-16.724C103.288,-22.502 104.541,-28.678 104.541,-35.254C104.541,-41.829 103.288,-48.006 100.781,-53.784C98.275,-59.562 94.824,-64.657 90.43,-69.067C86.035,-73.478 80.949,-76.921 75.171,-79.394C69.393,-81.869 63.2,-83.106 56.592,-83.106C50.016,-83.106 43.84,-81.869 38.062,-79.394C32.284,-76.921 27.205,-73.478 22.827,-69.067C18.449,-64.657 15.007,-59.562 12.5,-53.784C9.993,-48.006 8.74,-41.829 8.74,-35.254C8.74,-28.678 9.985,-22.502 12.476,-16.724C14.966,-10.946 18.408,-5.851 22.803,-1.44C27.197,2.97 32.292,6.413 38.086,8.887C43.88,11.361 50.049,12.598 56.592,12.598ZM56.592,8.887C50.505,8.887 44.8,7.739 39.478,5.444C34.155,3.149 29.468,-0.016 25.415,-4.053C21.362,-8.089 18.197,-12.777 15.918,-18.115C13.639,-23.454 12.5,-29.167 12.5,-35.254C12.5,-41.341 13.639,-47.054 15.918,-52.393C18.197,-57.731 21.362,-62.427 25.415,-66.48C29.468,-70.532 34.155,-73.706 39.478,-76.001C44.8,-78.296 50.505,-79.443 56.592,-79.443C62.712,-79.443 68.433,-78.296 73.755,-76.001C79.077,-73.706 83.765,-70.532 87.817,-66.48C91.87,-62.427 95.044,-57.731 97.339,-52.393C99.634,-47.054 100.781,-41.341 100.781,-35.254C100.781,-29.167 99.642,-23.454 97.363,-18.115C95.085,-12.777 91.919,-8.089 87.866,-4.053C83.813,-0.016 79.118,3.149 73.779,5.444C68.441,7.739 62.712,8.887 56.592,8.887Z" style="fill-rule:nonzero;"/>
        </g>
        <g id="Ultralight-M" transform="matrix(1,0,0,1,503.632,1126)">
            <path d="M56.055,12.06C62.565,12.06 68.677,10.832 74.39,8.374C80.103,5.916 85.132,2.515 89.478,-1.831C93.823,-6.177 97.233,-11.206 99.707,-16.919C102.181,-22.632 103.418,-28.744 103.418,-35.254C103.418,-41.764 102.181,-47.876 99.707,-53.589C97.233,-59.302 93.823,-64.331 89.478,-68.677C85.132,-73.022 80.103,-76.424 74.39,-78.882C68.677,-81.34 62.565,-82.568 56.055,-82.568C49.544,-82.568 43.433,-81.34 37.72,-78.882C32.007,-76.424 26.986,-73.022 22.656,-68.677C18.327,-64.331 14.925,-59.302 12.451,-53.589C9.977,-47.876 8.74,-41.764 8.74,-35.254C8.74,-28.744 9.969,-22.632 12.427,-16.919C14.884,-11.206 18.286,-6.177 22.632,-1.831C26.978,2.515 32.007,5.916 37.72,8.374C43.433,10.832 49.544,12.06 56.055,12.06ZM56.055,9.668C49.87,9.668 44.067,8.504 38.648,6.177C33.228,3.849 28.451,0.627 24.316,-3.491C20.182,-7.609 16.951,-12.386 14.624,-17.822C12.297,-23.258 11.133,-29.069 11.133,-35.254C11.133,-41.439 12.297,-47.249 14.624,-52.686C16.951,-58.122 20.182,-62.907 24.316,-67.041C28.451,-71.175 33.228,-74.406 38.648,-76.733C44.067,-79.061 49.87,-80.225 56.055,-80.225C62.272,-80.225 68.091,-79.061 73.511,-76.733C78.931,-74.406 83.7,-71.175 87.817,-67.041C91.935,-62.907 95.166,-58.122 97.51,-52.686C99.853,-47.249 101.025,-41.439 101.025,-35.254C101.025,-29.069 99.853,-23.258 97.51,-17.822C95.166,-12.386 91.935,-7.609 87.817,-3.491C83.7,0.627 78.931,3.849 73.511,6.177C68.091,8.504 62.272,9.668 56.055,9.668Z" style="fill-rule:nonzero;"/>
        </g>
        <g id="Black-S" transform="matrix(1,0,0,1,2884.57,696)">
            <path d="M48.828,6.787C54.622,6.787 60.05,5.697 65.112,3.516C70.174,1.335 74.634,-1.685 78.491,-5.542C82.349,-9.399 85.368,-13.859 87.549,-18.921C89.73,-23.983 90.82,-29.411 90.82,-35.205C90.82,-40.999 89.73,-46.427 87.549,-51.489C85.368,-56.551 82.349,-61.011 78.491,-64.868C74.634,-68.726 70.174,-71.745 65.112,-73.926C60.05,-76.107 54.622,-77.197 48.828,-77.197C43.034,-77.197 37.606,-76.107 32.544,-73.926C27.482,-71.745 23.022,-68.726 19.165,-64.868C15.308,-61.011 12.288,-56.551 10.107,-51.489C7.926,-46.427 6.836,-40.999 6.836,-35.205C6.836,-29.411 7.926,-23.983 10.107,-18.921C12.288,-13.859 15.308,-9.399 19.165,-5.542C23.022,-1.685 27.482,1.335 32.544,3.516C37.606,5.697 43.034,6.787 48.828,6.787ZM48.828,-7.373C44.987,-7.373 41.382,-8.097 38.013,-9.546C34.644,-10.995 31.689,-12.988 29.15,-15.527C26.611,-18.066 24.618,-21.02 23.169,-24.39C21.72,-27.759 20.996,-31.364 20.996,-35.205C20.996,-39.046 21.72,-42.651 23.169,-46.021C24.618,-49.39 26.611,-52.344 29.15,-54.883C31.689,-57.422 34.644,-59.416 38.013,-60.864C41.382,-62.313 44.987,-63.037 48.828,-63.037C52.669,-63.037 56.274,-62.313 59.644,-60.864C63.013,-59.416 65.967,-57.422 68.506,-54.883C71.045,-52.344 73.039,-49.39 74.487,-46.021C75.936,-42.651 76.66,-39.046 76.66,-35.205C76.66,-31.364 75.936,-27.759 74.487,-24.39C73.039,-21.02 71.045,-18.066 68.506,-15.527C65.967,-12.988 63.013,-10.995 59.644,-9.546C56.274,-8.097 52.669,-7.373 48.828,-7.373Z" style="fill-rule:nonzero;"/>
        </g>
        <g id="Heavy-S" transform="matrix(1,0,0,1,2588.47,696)">
            <path d="M48.193,6.152C53.923,6.152 59.277,5.078 64.258,2.93C69.238,0.781 73.633,-2.197 77.441,-6.006C81.25,-9.814 84.229,-14.209 86.377,-19.19C88.525,-24.17 89.6,-29.509 89.6,-35.205C89.6,-40.902 88.525,-46.248 86.377,-51.245C84.229,-56.242 81.25,-60.645 77.441,-64.453C73.633,-68.262 69.23,-71.24 64.233,-73.389C59.237,-75.537 53.89,-76.611 48.193,-76.611C42.497,-76.611 37.158,-75.537 32.178,-73.389C27.197,-71.24 22.803,-68.262 18.994,-64.453C15.186,-60.645 12.207,-56.242 10.059,-51.245C7.91,-46.248 6.836,-40.902 6.836,-35.205C6.836,-29.509 7.91,-24.17 10.059,-19.19C12.207,-14.209 15.186,-9.814 18.994,-6.006C22.803,-2.197 27.205,0.781 32.202,2.93C37.199,5.078 42.529,6.152 48.193,6.152ZM48.193,-6.396C44.222,-6.396 40.495,-7.145 37.012,-8.643C33.529,-10.14 30.477,-12.207 27.856,-14.844C25.236,-17.48 23.177,-20.54 21.68,-24.023C20.182,-27.506 19.434,-31.234 19.434,-35.205C19.434,-39.176 20.174,-42.912 21.655,-46.411C23.136,-49.911 25.195,-52.97 27.832,-55.591C30.469,-58.211 33.529,-60.27 37.012,-61.768C40.495,-63.265 44.222,-64.014 48.193,-64.014C52.197,-64.014 55.941,-63.265 59.424,-61.768C62.907,-60.27 65.959,-58.211 68.579,-55.591C71.2,-52.97 73.267,-49.911 74.78,-46.411C76.294,-42.912 77.051,-39.176 77.051,-35.205C77.051,-31.234 76.302,-27.506 74.805,-24.023C73.307,-20.54 71.24,-17.48 68.604,-14.844C65.967,-12.207 62.907,-10.14 59.424,-8.643C55.941,-7.145 52.197,-6.396 48.193,-6.396Z" style="fill-rule:nonzero;"/>
        </g>
        <g id="Bold-S" transform="matrix(1,0,0,1,2292.42,696)">
            <path d="M47.559,5.469C53.158,5.469 58.407,4.411 63.306,2.295C68.205,0.179 72.526,-2.759 76.269,-6.519C80.013,-10.278 82.951,-14.608 85.083,-19.507C87.215,-24.406 88.281,-29.655 88.281,-35.254C88.281,-40.82 87.215,-46.061 85.083,-50.977C82.951,-55.892 80.013,-60.221 76.269,-63.965C72.526,-67.708 68.197,-70.638 63.281,-72.754C58.366,-74.87 53.109,-75.928 47.51,-75.928C41.943,-75.928 36.703,-74.87 31.787,-72.754C26.872,-70.638 22.55,-67.708 18.823,-63.965C15.096,-60.221 12.166,-55.892 10.034,-50.977C7.902,-46.061 6.836,-40.82 6.836,-35.254C6.836,-29.655 7.902,-24.406 10.034,-19.507C12.166,-14.608 15.104,-10.278 18.848,-6.519C22.591,-2.759 26.912,0.179 31.811,2.295C36.711,4.411 41.96,5.469 47.559,5.469ZM47.559,-5.322C43.424,-5.322 39.551,-6.095 35.938,-7.642C32.324,-9.188 29.15,-11.328 26.416,-14.063C23.682,-16.797 21.541,-19.979 19.995,-23.608C18.449,-27.238 17.676,-31.12 17.676,-35.254C17.676,-39.388 18.449,-43.262 19.995,-46.875C21.541,-50.488 23.674,-53.662 26.392,-56.397C29.11,-59.131 32.275,-61.271 35.889,-62.817C39.502,-64.364 43.376,-65.137 47.51,-65.137C51.676,-65.137 55.566,-64.364 59.18,-62.817C62.793,-61.271 65.967,-59.131 68.701,-56.397C71.436,-53.662 73.576,-50.488 75.122,-46.875C76.668,-43.262 77.441,-39.388 77.441,-35.254C77.441,-31.12 76.668,-27.238 75.122,-23.608C73.576,-19.979 71.444,-16.797 68.726,-14.063C66.007,-11.328 62.834,-9.188 59.204,-7.642C55.575,-6.095 51.693,-5.322 47.559,-5.322Z" style="fill-rule:nonzero;"/>
        </g>
        <g id="Semibold-S" transform="matrix(1,0,0,1,1996.2,696)">
            <path d="M47.07,4.98C52.604,4.98 57.796,3.939 62.647,1.855C67.497,-0.228 71.769,-3.133 75.464,-6.86C79.159,-10.588 82.056,-14.876 84.155,-19.727C86.255,-24.577 87.305,-29.753 87.305,-35.254C87.305,-40.755 86.255,-45.931 84.155,-50.781C82.056,-55.631 79.15,-59.912 75.44,-63.623C71.729,-67.334 67.448,-70.239 62.598,-72.339C57.747,-74.438 52.555,-75.488 47.022,-75.488C41.52,-75.488 36.344,-74.438 31.494,-72.339C26.644,-70.239 22.371,-67.334 18.677,-63.623C14.982,-59.912 12.085,-55.631 9.985,-50.781C7.886,-45.931 6.836,-40.755 6.836,-35.254C6.836,-29.753 7.886,-24.577 9.985,-19.727C12.085,-14.876 14.99,-10.588 18.701,-6.86C22.412,-3.133 26.693,-0.228 31.543,1.855C36.393,3.939 41.569,4.98 47.07,4.98ZM47.07,-4.59C42.839,-4.59 38.867,-5.379 35.156,-6.958C31.445,-8.537 28.19,-10.726 25.391,-13.525C22.591,-16.325 20.402,-19.58 18.823,-23.291C17.244,-27.002 16.455,-30.99 16.455,-35.254C16.455,-39.486 17.244,-43.457 18.823,-47.168C20.402,-50.879 22.583,-54.134 25.366,-56.934C28.149,-59.733 31.396,-61.93 35.107,-63.525C38.818,-65.12 42.79,-65.918 47.022,-65.918C51.286,-65.918 55.273,-65.12 58.984,-63.525C62.695,-61.93 65.951,-59.733 68.75,-56.934C71.549,-54.134 73.747,-50.879 75.342,-47.168C76.937,-43.457 77.734,-39.486 77.734,-35.254C77.734,-30.99 76.945,-27.002 75.366,-23.291C73.787,-19.58 71.598,-16.325 68.799,-13.525C65.999,-10.726 62.744,-8.537 59.033,-6.958C55.322,-5.379 51.335,-4.59 47.07,-4.59Z" style="fill-rule:nonzero;"/>
        </g>
        <g id="Medium-S" transform="matrix(1,0,0,1,1699.83,696)">
            <path d="M46.728,4.639C52.197,4.639 57.332,3.597 62.134,1.514C66.935,-0.57 71.175,-3.451 74.854,-7.129C78.532,-10.807 81.413,-15.047 83.496,-19.849C85.579,-24.65 86.621,-29.785 86.621,-35.254C86.621,-40.69 85.579,-45.817 83.496,-50.635C81.413,-55.452 78.524,-59.701 74.829,-63.379C71.134,-67.057 66.886,-69.93 62.085,-71.997C57.284,-74.064 52.148,-75.098 46.68,-75.098C41.211,-75.098 36.076,-74.064 31.274,-71.997C26.473,-69.93 22.241,-67.057 18.579,-63.379C14.917,-59.701 12.044,-55.452 9.961,-50.635C7.878,-45.817 6.836,-40.69 6.836,-35.254C6.836,-29.785 7.878,-24.65 9.961,-19.849C12.044,-15.047 14.925,-10.807 18.604,-7.129C22.282,-3.451 26.522,-0.57 31.323,1.514C36.125,3.597 41.26,4.639 46.728,4.639ZM46.728,-4.004C42.399,-4.004 38.346,-4.81 34.57,-6.421C30.794,-8.032 27.482,-10.27 24.634,-13.135C21.785,-15.999 19.556,-19.32 17.944,-23.096C16.333,-26.872 15.527,-30.925 15.527,-35.254C15.527,-39.583 16.325,-43.636 17.92,-47.412C19.515,-51.188 21.737,-54.508 24.585,-57.373C27.433,-60.238 30.745,-62.476 34.522,-64.087C38.298,-65.698 42.35,-66.504 46.68,-66.504C51.009,-66.504 55.062,-65.698 58.838,-64.087C62.614,-62.476 65.934,-60.238 68.799,-57.373C71.663,-54.508 73.901,-51.188 75.513,-47.412C77.124,-43.636 77.93,-39.583 77.93,-35.254C77.93,-30.925 77.124,-26.872 75.513,-23.096C73.901,-19.32 71.68,-15.999 68.848,-13.135C66.016,-10.27 62.703,-8.032 58.911,-6.421C55.119,-4.81 51.058,-4.004 46.728,-4.004Z" style="fill-rule:nonzero;"/>
        </g>
        <g id="Regular-S" transform="matrix(1,0,0,1,1403.58,696)">
            <path d="M46.24,4.15C51.644,4.15 56.722,3.125 61.475,1.074C66.227,-0.977 70.418,-3.825 74.048,-7.471C77.677,-11.117 80.526,-15.316 82.593,-20.068C84.66,-24.821 85.693,-29.883 85.693,-35.254C85.693,-40.625 84.66,-45.687 82.593,-50.44C80.526,-55.192 77.669,-59.391 74.023,-63.037C70.378,-66.683 66.178,-69.531 61.426,-71.582C56.673,-73.633 51.595,-74.658 46.191,-74.658C40.82,-74.658 35.759,-73.633 31.006,-71.582C26.253,-69.531 22.07,-66.683 18.457,-63.037C14.844,-59.391 12.004,-55.192 9.937,-50.44C7.869,-45.687 6.836,-40.625 6.836,-35.254C6.836,-29.883 7.869,-24.821 9.937,-20.068C12.004,-15.316 14.852,-11.117 18.481,-7.471C22.111,-3.825 26.302,-0.977 31.055,1.074C35.807,3.125 40.869,4.15 46.24,4.15ZM46.24,-3.271C41.813,-3.271 37.671,-4.093 33.814,-5.737C29.956,-7.381 26.571,-9.668 23.657,-12.598C20.744,-15.527 18.465,-18.929 16.821,-22.803C15.177,-26.676 14.355,-30.827 14.355,-35.254C14.355,-39.681 15.169,-43.831 16.797,-47.705C18.424,-51.579 20.695,-54.98 23.608,-57.91C26.522,-60.84 29.907,-63.127 33.765,-64.771C37.622,-66.414 41.764,-67.236 46.191,-67.236C50.651,-67.236 54.81,-66.414 58.667,-64.771C62.524,-63.127 65.918,-60.84 68.848,-57.91C71.777,-54.98 74.072,-51.579 75.732,-47.705C77.393,-43.831 78.223,-39.681 78.223,-35.254C78.223,-30.827 77.401,-26.676 75.757,-22.803C74.113,-18.929 71.834,-15.527 68.921,-12.598C66.007,-9.668 62.614,-7.381 58.74,-5.737C54.867,-4.093 50.7,-3.271 46.24,-3.271Z" style="fill-rule:nonzero;"/>
        </g>
        <g id="Light-S" transform="matrix(1,0,0,1,1107.6,696)">
            <path d="M45.508,3.418C50.814,3.418 55.802,2.417 60.474,0.415C65.145,-1.587 69.263,-4.378 72.827,-7.959C76.392,-11.54 79.183,-15.658 81.201,-20.313C83.219,-24.967 84.229,-29.948 84.229,-35.254C84.229,-40.56 83.219,-45.54 81.201,-50.195C79.183,-54.85 76.383,-58.968 72.803,-62.549C69.222,-66.13 65.104,-68.921 60.449,-70.923C55.794,-72.925 50.798,-73.926 45.459,-73.926C40.186,-73.926 35.213,-72.925 30.542,-70.923C25.871,-68.921 21.761,-66.13 18.213,-62.549C14.665,-58.968 11.881,-54.85 9.863,-50.195C7.845,-45.54 6.836,-40.56 6.836,-35.254C6.836,-29.948 7.845,-24.967 9.863,-20.313C11.881,-15.658 14.673,-11.54 18.237,-7.959C21.802,-4.378 25.92,-1.587 30.591,0.415C35.262,2.417 40.234,3.418 45.508,3.418ZM45.508,-2.295C40.951,-2.295 36.678,-3.141 32.69,-4.834C28.703,-6.527 25.203,-8.887 22.192,-11.914C19.181,-14.941 16.829,-18.449 15.137,-22.437C13.444,-26.424 12.598,-30.697 12.598,-35.254C12.598,-39.811 13.444,-44.084 15.137,-48.071C16.829,-52.059 19.181,-55.566 22.192,-58.594C25.203,-61.621 28.695,-63.981 32.666,-65.674C36.637,-67.367 40.902,-68.213 45.459,-68.213C50.049,-68.213 54.338,-67.367 58.325,-65.674C62.313,-63.981 65.812,-61.621 68.823,-58.594C71.834,-55.566 74.202,-52.059 75.928,-48.071C77.653,-44.084 78.516,-39.811 78.516,-35.254C78.516,-30.697 77.661,-26.424 75.952,-22.437C74.243,-18.449 71.883,-14.941 68.872,-11.914C65.861,-8.887 62.362,-6.527 58.374,-4.834C54.386,-3.141 50.098,-2.295 45.508,-2.295Z" style="fill-rule:nonzero;"/>
        </g>
        <g id="Thin-S" transform="matrix(1,0,0,1,811.867,696)">
            <path d="M44.531,2.441C49.74,2.441 54.614,1.465 59.155,-0.488C63.696,-2.441 67.708,-5.16 71.191,-8.643C74.674,-12.126 77.393,-16.138 79.346,-20.679C81.299,-25.22 82.275,-30.078 82.275,-35.254C82.275,-40.43 81.299,-45.288 79.346,-49.829C77.393,-54.37 74.674,-58.382 71.191,-61.865C67.708,-65.348 63.696,-68.066 59.155,-70.019C54.614,-71.973 49.74,-72.949 44.531,-72.949C39.355,-72.949 34.489,-71.973 29.932,-70.019C25.374,-68.066 21.37,-65.348 17.92,-61.865C14.469,-58.382 11.759,-54.37 9.79,-49.829C7.821,-45.288 6.836,-40.43 6.836,-35.254C6.836,-30.078 7.821,-25.22 9.79,-20.679C11.759,-16.138 14.469,-12.126 17.92,-8.643C21.37,-5.16 25.374,-2.441 29.932,-0.488C34.489,1.465 39.355,2.441 44.531,2.441ZM44.531,-0.928C39.811,-0.928 35.376,-1.815 31.226,-3.589C27.075,-5.363 23.429,-7.821 20.288,-10.962C17.147,-14.103 14.689,-17.757 12.915,-21.924C11.141,-26.09 10.254,-30.534 10.254,-35.254C10.254,-39.974 11.141,-44.417 12.915,-48.584C14.689,-52.751 17.147,-56.405 20.288,-59.546C23.429,-62.687 27.075,-65.145 31.226,-66.919C35.376,-68.693 39.811,-69.58 44.531,-69.58C49.284,-69.58 53.735,-68.693 57.886,-66.919C62.036,-65.145 65.682,-62.687 68.823,-59.546C71.965,-56.405 74.422,-52.751 76.196,-48.584C77.97,-44.417 78.857,-39.974 78.857,-35.254C78.857,-30.534 77.97,-26.09 76.196,-21.924C74.422,-17.757 71.965,-14.103 68.823,-10.962C65.682,-7.821 62.036,-5.363 57.886,-3.589C53.735,-1.815 49.284,-0.928 44.531,-0.928Z" style="fill-rule:nonzero;"/>
        </g>
        <g id="Ultralight-S" transform="matrix(1,0,0,1,515.644,696)">
            <path d="M44.043,1.953C49.186,1.953 53.996,0.993 58.472,-0.928C62.948,-2.848 66.903,-5.526 70.337,-8.96C73.771,-12.394 76.457,-16.349 78.394,-20.825C80.33,-25.301 81.299,-30.111 81.299,-35.254C81.299,-40.397 80.33,-45.207 78.394,-49.683C76.457,-54.159 73.771,-58.114 70.337,-61.548C66.903,-64.982 62.948,-67.66 58.472,-69.58C53.996,-71.501 49.186,-72.461 44.043,-72.461C38.932,-72.461 34.131,-71.501 29.639,-69.58C25.147,-67.66 21.191,-64.982 17.773,-61.548C14.355,-58.114 11.678,-54.159 9.741,-49.683C7.804,-45.207 6.836,-40.397 6.836,-35.254C6.836,-30.111 7.804,-25.301 9.741,-20.825C11.678,-16.349 14.355,-12.394 17.773,-8.96C21.191,-5.526 25.147,-2.848 29.639,-0.928C34.131,0.993 38.932,1.953 44.043,1.953ZM44.043,-0.293C39.225,-0.293 34.701,-1.196 30.469,-3.003C26.237,-4.81 22.518,-7.316 19.312,-10.523C16.105,-13.729 13.591,-17.448 11.768,-21.68C9.945,-25.911 9.033,-30.436 9.033,-35.254C9.033,-40.072 9.945,-44.596 11.768,-48.828C13.591,-53.06 16.105,-56.779 19.312,-59.985C22.518,-63.192 26.237,-65.698 30.469,-67.505C34.701,-69.312 39.225,-70.215 44.043,-70.215C48.861,-70.215 53.394,-69.312 57.642,-67.505C61.89,-65.698 65.609,-63.192 68.799,-59.985C71.989,-56.779 74.495,-53.06 76.318,-48.828C78.141,-44.596 79.053,-40.072 79.053,-35.254C79.053,-30.436 78.149,-25.911 76.343,-21.68C74.536,-17.448 72.03,-13.729 68.823,-10.523C65.617,-7.316 61.898,-4.81 57.666,-3.003C53.434,-1.196 48.893,-0.293 44.043,-0.293Z" style="fill-rule:nonzero;"/>
        </g>
    </g>
</svg>
